<svg xmlns="http://www.w3.org/2000/svg" xmlns:xlink="http://www.w3.org/1999/xlink" viewBox="0 0 604.12 390"><defs><style>.cls-1{fill:none;}.cls-2{isolation:isolate;}.cls-3{clip-path:url(#clip-path);}.cls-4{fill:#fff;}.cls-5{fill:url(#Degradado_sin_nombre_49);}.cls-6{fill:#c8cadb;}.cls-7{fill:#51a0a3;}.cls-8{fill:#dadefe;}.cls-9{fill:#62c1c5;}.cls-10{fill:#346669;}.cls-11{fill:#428285;}.cls-12{fill:#414460;}.cls-13{fill:#34364d;}.cls-14{fill:#00666b;}.cls-15{fill:#f4b979;}.cls-16{fill:#9fb4b8;}.cls-17{fill:#222433;}.cls-18{fill:#dba66d;}.cls-19{fill:#bd9c35;}.cls-20{fill:#ebc342;}.cls-21{fill:#fdd247;}.cls-22{fill:#cce8ec;}.cls-23{fill:#c99864;}.cls-24{fill:#69571d;}.cls-25{fill:#438487;}.cls-26{fill:url(#Degradado_sin_nombre_48);}.cls-27{fill:url(#Degradado_sin_nombre_49-2);}.cls-28{fill:url(#Degradado_sin_nombre_43);}.cls-29{fill:url(#Degradado_sin_nombre_48-2);}.cls-30{fill:#202442;}.cls-31{fill:#e8eafe;}.cls-32{fill:#bdbecf;mix-blend-mode:multiply;}</style><clipPath id="clip-path"><rect class="cls-1" x="7.86" y="6.4" width="596.26" height="381.69"/></clipPath><linearGradient id="Degradado_sin_nombre_49" x1="283.74" y1="47.33" x2="283.74" y2="349.33" gradientUnits="userSpaceOnUse"><stop offset="0" stop-color="#383c60"/><stop offset="1" stop-color="#282c52"/></linearGradient><linearGradient id="Degradado_sin_nombre_48" x1="261.86" y1="204.7" x2="323.21" y2="204.7" gradientUnits="userSpaceOnUse"><stop offset="0" stop-color="#282c52"/><stop offset="1" stop-color="#383c60"/></linearGradient><linearGradient id="Degradado_sin_nombre_49-2" x1="515.74" y1="145.78" x2="557.35" y2="145.78" xlink:href="#Degradado_sin_nombre_49"/><linearGradient id="Degradado_sin_nombre_43" x1="409.63" y1="41.17" x2="409.63" y2="128.34" gradientUnits="userSpaceOnUse"><stop offset="0.02" stop-color="#fff"/><stop offset="0.51" stop-color="#fff" stop-opacity="0"/></linearGradient><linearGradient id="Degradado_sin_nombre_48-2" x1="409.63" y1="160.33" x2="409.63" y2="138.31" xlink:href="#Degradado_sin_nombre_48"/></defs><title>dataAsset 1</title><g class="cls-2"><g id="Layer_2" data-name="Layer 2"><g id="Objects"><g class="cls-3"><rect class="cls-4" x="7.86" y="6.4" width="596.26" height="381.69"/><path class="cls-5" d="M565.83,0c-34.09,0-52.57,2-86.66,2-51.41,0-86.23-.17-137.64-.17H0V389.77c33.26,0,64.38,1.93,96.84-5.38S161,362.19,183,337c27.77-31.84,36.78-75.52,47.38-116.57,7.44-28.86,15-57.79,34.27-81.14,17.23-20.9,40.9-36.48,67-43.26,23.23-6,47.62-5.36,71.53-3.58s47.89,4.68,71.82,3S523.25,87,541.82,71.67C564.23,53.17,571,27.74,565.83,0Z"/><ellipse class="cls-6" cx="412.5" cy="349.33" rx="173" ry="10"/><path class="cls-7" d="M394.22,239.56h-4.11v-9.72h4.11a3.61,3.61,0,0,1,3.61,3.61V236A3.61,3.61,0,0,1,394.22,239.56Zm-2.7-1.41h2.7a2.21,2.21,0,0,0,2.2-2.2v-2.5a2.21,2.21,0,0,0-2.2-2.2h-2.7Z"/><path class="cls-8" d="M389.33,181.38a8.09,8.09,0,0,0-4.36,3.07,9.64,9.64,0,0,0-1.81,4.37c-.45,3.13.36,6.5,1.45,10.1.26.91.56,1.84.85,2.8s.57,1.94.82,3a26.82,26.82,0,0,1,.86,6.49,15.19,15.19,0,0,1-1.52,6.67,9.59,9.59,0,0,1-4.77,4.71l-.43-.51a11.45,11.45,0,0,0,1.67-5.25,17.1,17.1,0,0,0-.42-5.16c-.76-3.42-2.36-6.85-3.6-10.87-.29-1-.57-2.07-.79-3.14a25.6,25.6,0,0,1-.44-3.34,16.33,16.33,0,0,1,1-7,11.66,11.66,0,0,1,4.66-5.57,9.41,9.41,0,0,1,3.37-1.28,6.78,6.78,0,0,1,3.45.26Z"/><path class="cls-9" d="M387,227H376.09v12.47a4.09,4.09,0,0,0,4.08,4.07h6.56a4.07,4.07,0,0,0,4.07-4.07V227Z"/><path class="cls-7" d="M387,227v11.47a4.07,4.07,0,0,1-4.07,4.07H377.5a4.08,4.08,0,0,0,2.67,1h6.56a4.07,4.07,0,0,0,4.07-4.07V227Z"/><rect class="cls-10" x="461.08" y="281.01" width="3.96" height="62.09"/><path class="cls-9" d="M467.62,282.91l-43.47-.59L420.5,219.9a13.88,13.88,0,0,1,13.94-14.63l25.91-.26c11.36,0,17.43,10.47,15.79,21.72Z"/><path class="cls-11" d="M427.12,266.15h26.32a14.24,14.24,0,0,1,14.24,14.24V283a0,0,0,0,1,0,0H412.88a0,0,0,0,1,0,0v-2.6A14.24,14.24,0,0,1,427.12,266.15Z"/><rect class="cls-10" x="415.52" y="281.01" width="3.96" height="62.09"/><path class="cls-12" d="M456,172.43a10.1,10.1,0,0,1,9.71,5.93c3.06,7.14-2.87,15.51-.64,22.95.93,3.09,3.16,5.58,5.07,8.18s3.61,5.67,3.22,8.87a8.84,8.84,0,0,1-6.71,7.12,12.77,12.77,0,0,1-9.9-2,23.42,23.42,0,0,1-6.92-7.65c-6.24-10.27-9.08-27-2.14-37.63C449.65,175.12,452.12,172.69,456,172.43Z"/><path class="cls-13" d="M450.41,182.12a9.81,9.81,0,0,1,9.35,5.33c3,6.42-2.76,14-.61,20.65.9,2.77,3,5,4.88,7.35s3.48,5.1,3.11,8c-.4,3.1-3.22,5.65-6.47,6.4a13,13,0,0,1-9.54-1.81,21.79,21.79,0,0,1-6.66-6.89c-6-9.24-8.75-24.3-2.06-33.85C444.32,184.54,446.7,182.35,450.41,182.12Z"/><path class="cls-14" d="M442.46,206.4h4.9a14.39,14.39,0,0,1,14.39,14.39v34.69a.44.44,0,0,1-.44.44H428.51a.44.44,0,0,1-.44-.44V220.79A14.39,14.39,0,0,1,442.46,206.4Z"/><path class="cls-15" d="M466.2,219.6s12.22,14.2,9.58,23.11c0,0,0,4.63-19-.16l-16-2.64-.66-4.46a122.16,122.16,0,0,1,27.24,2,53.37,53.37,0,0,1-3.53-4.42,33.85,33.85,0,0,1-4.89-8.62Z"/><path class="cls-14" d="M451.74,207.67s11.76-1.38,21.45,22.17L462.62,234s-6.82-9.25-7.81-17.28S451.74,207.67,451.74,207.67Z"/><path class="cls-15" d="M421.45,219.4S407.82,233,406.5,241.72c0,0,.19,2.59,19.72,1.21H443l1.31-3.36a123.9,123.9,0,0,0-12.54-2.06,120.73,120.73,0,0,0-14.62-.76c1.36-1.06,2.77-2.32,4.25-3.73a34.17,34.17,0,0,0,6.32-7.63Z"/><path class="cls-14" d="M438.61,207.37s-12.17-.61-25.83,20.88l9.67,6s8.33-7.91,10.72-15.64S438.61,207.37,438.61,207.37Z"/><rect class="cls-16" x="416.4" y="239.72" width="42.26" height="3.8"/><path class="cls-13" d="M556.21,335.18c-2.53,2.46-16.81,6.09-17.71,7.49a1.72,1.72,0,0,0-.14,1.67c.71,1.49,3.28.76,4.54.71,1.53-.07,17.8-.86,17.81-.79l.16.9,5.44-.25-.37-10S561.77,335.1,556.21,335.18Z"/><path class="cls-17" d="M536.35,330.45c-2.22,2.74-16,8.06-16.69,9.55a1.75,1.75,0,0,0,.06,1.69c.88,1.39,3.35.35,4.59.15,1.51-.25,17.57-3,17.59-2.92l.27.88,5.36-.9L546,329.05S541.85,329.71,536.35,330.45Z"/><path class="cls-18" d="M507.35,209.9s-1.83,27.41-1.84,27.48c-.19,2.85-4.64,2.46-6.58,2.78-3.05.5-6.93,1.63-9.26,3.75.84.45,2.5.28,3.49.33,1.27.07,2.54.12,3.8.16,2.61.09,5.21.15,7.81.26,0,0,7-.44,6.79-4.63s5.1-29.32,5.1-29.32Z"/><path class="cls-19" d="M502.64,216.13l15.51,2.3,2.6-21.26c.63-4.56.83-12-3.81-12.9-.09,0-1-.3-1.13-.31-5.21-.89-12.36,6.5-12.54,11.64Z"/><path class="cls-13" d="M540.57,231.78l-18,42.38a15.69,15.69,0,0,0-.73,10.2l13,47.47,11.28-1.14c-.68-7.44.32-31.06-3.81-38.61a12.79,12.79,0,0,1,.25-13l5.07-8.13,2.94-39Z"/><path class="cls-12" d="M558.79,223.63l-2.71-7.27s14.26,12.88,12.22,24.78c-1.76,10.27-4.78,33.58-5.58,39.77a7,7,0,0,0,.28,3l3.32,10.44a22.57,22.57,0,0,1,1.06,7.61l-1.12,33.34H554.72L545,282.91a10.13,10.13,0,0,1-.19-1.82L544,231.34Z"/><path class="cls-20" d="M519,181.26c8.53,1.91,27.83,11.52,42.77,41.4,2,4-3.52,8.66-6.55,10.26a23.14,23.14,0,0,1-7.91,2.33,33.51,33.51,0,0,1-4.69.25c-.65,0-4.72.12-5-.42a60.75,60.75,0,0,0-4.45-7.67c-1.81-2.59-4-5.38-6.64-8.85a95.84,95.84,0,0,0-18.11-18.07,12.14,12.14,0,0,1-2.69-7,13.56,13.56,0,0,1,3.37-9.09A10,10,0,0,1,519,181.26Z"/><path class="cls-15" d="M509.78,195.87l-15.8,16a9,9,0,0,1-3.3,2.13l-25.21,9.37a7.54,7.54,0,0,1-5.13,0l-3.09-1.1a7.51,7.51,0,0,0-3.7-.33L441,224.29l.16,1.39,10.44.15,1.62,2.86a5.39,5.39,0,0,0,6,2.51l35.89-9.1a12.36,12.36,0,0,0,4.79-2.43l17.57-14.55Z"/><path class="cls-15" d="M489.22,175a1.47,1.47,0,0,0-.17-1.3c-1.08-1.59-3.41-6.35,3.05-11.1,0,0,11.63-7.3,16.78,4.22a9.19,9.19,0,0,1-.16,8.44c-.54,1,5.91,5.61,6.69,5.88s2.64,4.25-8,9.22c-.44-.72-.61-.77-1.34-1.78-2.3-3.18-5.16-4.71-7.67-3.72-1.18.45-3.27,2-4.55,1.32-.68-.34-2.1-3.48-2.49-3.8l-.19-.17a1.68,1.68,0,0,1-.61-1.26v-.79l-1.61-.69a1.23,1.23,0,0,1-.7-1.54Z"/><path class="cls-12" d="M502.21,174.48l1.32-.2a3.55,3.55,0,0,1-.5-1.91,1.28,1.28,0,0,1,1.36-1.18c.88.17,1,1.29,1.2,2.15a5.48,5.48,0,0,0,6.13,4.06,37.27,37.27,0,0,0-.26-9.5,12.86,12.86,0,0,0-4.78-8.07,14.33,14.33,0,0,0-8.64-2.22,24,24,0,0,0-9.29,2.14,10.18,10.18,0,0,0-3.6,2.48,4.63,4.63,0,0,0-1.12,4,5.1,5.1,0,0,0,4.26,3.35,15.71,15.71,0,0,0,5.73-.51c1.5-.33,4.31-1.32,5.5-.08C500,169.54,501.73,174.55,502.21,174.48Z"/><path class="cls-21" d="M499.81,203.14l10.42,10.57,13.49-12.79a8.17,8.17,0,0,0,.52-11.43l-.17-.18a8.66,8.66,0,0,0-12.72.46Z"/><path class="cls-22" d="M450.65,243.5H416l-9.3-20a.65.65,0,0,1,.59-.93h31.29a3.68,3.68,0,0,1,3.34,2.13Z"/><polygon class="cls-19" points="515.9 247.8 320.74 247.8 322.31 243.47 514.33 243.47 515.9 247.8"/><path class="cls-15" d="M434.07,190.66s.67,15.1,5.33,15.73c5.72.77,9.68-2.12,10.64-7.21.39-2-.08-8-.61-11.67-.34-2.36-3.06-4.62-5.41-5a10,10,0,0,0-4.78.41A7,7,0,0,0,434.07,190.66Z"/><path class="cls-15" d="M440.94,203.42s-.16,3.8,0,5.45a5.07,5.07,0,0,0,5.45,2.48c3.74-.77,3.14-3.22,3.14-3.22L449,197.37Z"/><path class="cls-12" d="M456.73,188.49a12.69,12.69,0,0,0-10.46-10.23,13.58,13.58,0,0,0-10.81,3.36,11.38,11.38,0,0,0-3.85,11.18c3.12.89,15.4.86,17.73.73.1,2.5.93,4.62,1,7.13C455.22,198.81,457.53,193.66,456.73,188.49Z"/><path class="cls-15" d="M452,197.25c-.3,1.29-1.2,2.18-2,2s-1.25-1.39-1-2.68,1.2-2.18,2-2S452.31,196,452,197.25Z"/><path class="cls-12" d="M450.11,194.89l-.56-.68-3.2,2.61a3.19,3.19,0,0,0-3-1.79,3.32,3.32,0,0,0-2.84,1.44,3.06,3.06,0,0,0-2.41,0l-.12.08a3.33,3.33,0,0,0-2.89-1.48,3,3,0,0,0-3.2,2.61c0,1.43,1.44,2.6,3.2,2.6s3.2-1.17,3.2-2.6a.44.44,0,0,1,.23-.43,2.25,2.25,0,0,1,1.68.09,1.86,1.86,0,0,0-.05.34c0,1.43,1.44,2.6,3.2,2.6a3,3,0,0,0,3.17-2.4Zm-12.73,2.75c0,.94-1,1.72-2.31,1.72s-2.31-.78-2.31-1.72,1-1.73,2.31-1.73a2.29,2.29,0,0,1,2.25,1.35l.12,0A1.42,1.42,0,0,0,437.38,197.64Zm5.95,1.72c-1.27,0-2.31-.78-2.31-1.72s1-1.73,2.31-1.73,2.31.78,2.31,1.73S444.61,199.36,443.33,199.36Z"/><path class="cls-23" d="M440.68,206.29l.26,2.58s3,4.21,6.23-3.46.39-2,.39-2S444.61,207,440.68,206.29Z"/><path class="cls-21" d="M454.91,183.88a4.4,4.4,0,0,0,.52-2,4.7,4.7,0,0,0-4.82-4.57,5,5,0,0,0-3.24,1.2A13,13,0,0,1,454.91,183.88Z"/><rect class="cls-24" x="484.34" y="247.65" width="4.72" height="97.61"/><polygon class="cls-15" points="317.2 315.51 314.39 325.54 308.35 323.77 311.44 313.59 317.2 315.51"/><path class="cls-13" d="M288,269.83l30.31,5.67a1.3,1.3,0,0,1,.66,2.05c-2.47,3.14-7.55,12.55-10.39,38.7l8.26,2.06,18.89-46.62,1.47-11.21Z"/><path class="cls-17" d="M360.42,295.44a40.06,40.06,0,0,1,12.38,11.78,4.29,4.29,0,0,1,.35,5.69,4.2,4.2,0,0,1-6.12.4,46.16,46.16,0,0,1-6.9-5.62,45.66,45.66,0,0,1-4.45-5.1,2.83,2.83,0,0,1-.74-1.22,2.63,2.63,0,0,1,0-1.42l1.07-4.06Z"/><path class="cls-15" d="M358.65,292.35l3.14,4.59a2.72,2.72,0,0,1,.39,2.2h0a2.7,2.7,0,0,1-3.47,1.88l-.64-.21a2.66,2.66,0,0,1-1.54-1.33l-2.75-5.36Z"/><path class="cls-12" d="M281.15,247.89s-8.06,13.38-1.77,23.21S328,264.81,328,264.81s20.45,29.7,25.37,31.67c0,0,6.1,0,7.28-3.15,0,0-16.52-39.54-29.51-41.5l-31.67,1Z"/><polygon class="cls-25" points="279.48 344.87 272.79 344.87 280.66 277.59 287.35 277.59 279.48 344.87"/><polygon class="cls-25" points="317.25 344.87 323.93 344.87 316.07 277.59 309.38 277.59 317.25 344.87"/><rect class="cls-10" x="294.33" y="277" width="6.49" height="67.57"/><path class="cls-9" d="M320.1,281.33H278.4a4.41,4.41,0,0,1-4.13-4.62h0a4.41,4.41,0,0,1,4.13-4.62h41.7a4.41,4.41,0,0,1,4.13,4.62h0A4.41,4.41,0,0,1,320.1,281.33Z"/><path class="cls-17" d="M324.51,331.88l-6.42-7.61a18.85,18.85,0,0,0-.67-2c-.2-.5-.51-1.06-1-1.14a1.12,1.12,0,0,0-1.09.73,2.63,2.63,0,0,0-.17,1.23c-3.44-.1-6.5-3.2-6.5-3.2a12,12,0,0,0-3.06,5.4,1.38,1.38,0,0,0,.58,1.58l18.27,11.37.73-1.13A5,5,0,0,0,324.51,331.88Z"/><polygon class="cls-22" points="364.26 217.11 369.27 217.99 359.83 243.37 354.52 243.22 364.26 217.11"/><path class="cls-23" d="M353.78,243.07c-3.4-8.26-11.15-6.69-15.49-5a7.45,7.45,0,0,1-3,.45c-1.57-.07-3.14-.11-4.71-.14q-3.5,0-7,.06c-2.32.06-4.63.14-6.94.26l-3.21.19c-.58-1-1.14-2.11-1.69-3.17-1-1.95-1.9-3.94-2.76-5.94s-1.65-4.05-2.36-6.11-1.39-4.14-2.05-6.24l0-.06a5.66,5.66,0,0,0-7.11-3.71,5.77,5.77,0,0,0-3.86,6.53,58.45,58.45,0,0,0,1.8,7.24,66.67,66.67,0,0,0,2.75,7.12,65.64,65.64,0,0,0,3.54,6.75,67.57,67.57,0,0,0,4.25,6.31l.27.37a5.11,5.11,0,0,0,4.93,2c2.27-.39,4.53-.88,6.8-1.33s4.52-1,6.78-1.5,4.51-1.1,6.75-1.72q2.43-.68,4.84-1.43Z"/><path class="cls-21" d="M305.84,214.75l3.74,8.84A10.32,10.32,0,0,1,307.26,235l-4.67,4.52L299.83,253a32.08,32.08,0,0,1-21.43-3.73s5.6-11.8,5.31-21.54,3.83-21.24,15.05-18Z"/><path class="cls-15" d="M298,209.88s2.51,5.9,6.34,6.79l.38-7.72a3.33,3.33,0,0,1,4.27-3l1,.3a4,4,0,0,0,4.78-2.17l1-2.2a3.26,3.26,0,0,1,2.67-1.88h0a1.32,1.32,0,0,0,1.18-1.61l-.56-2.5L321.3,191a6.05,6.05,0,0,0,.13-4.67c-1.29-3.42-4.52-8.92-11.76-8.72-10.37.29-12.83,4.72-15,17.56Z"/><path class="cls-26" d="M313.69,174.72A15.94,15.94,0,0,0,299.63,177c-5.57,4.1-8.38,11.79-14.88,14.14-4.57,1.65-11.06-1.06-13.83,4.39a16.35,16.35,0,0,0-1.3,5.68,14.74,14.74,0,0,1-1.39,5.66c-1.27,2.28-3.59,3.75-4.86,6a16,16,0,0,0-1.41,8.88c1,9.37,10.84,17.28,19.91,11.83,4.05-2.44,1-8.52,2.13-12.37a25.39,25.39,0,0,1,2.77-6.94c1.39-2.17,3.45-4.09,6-4.5s5.37.71,7.57-.61c2.42-1.47,2.51-4.91,2.15-7.72s-.75-6.1,1.28-8.08a6.89,6.89,0,0,1,4.89-1.58,46.26,46.26,0,0,0,5.26.1c2.62-.29,6.17-1.5,7.71-3.64a11.33,11.33,0,0,0,1.26-2.07c1.07-2.73-.63-5.77-2.73-7.82A17.35,17.35,0,0,0,313.69,174.72Z"/><rect class="cls-16" x="334.85" y="239.24" width="24.19" height="4.13"/><path class="cls-15" d="M348.32,243.66c-3.4-8.26-11.15-6.69-15.49-5a7.45,7.45,0,0,1-3,.45c-1.57-.07-3.14-.11-4.71-.14q-3.49,0-7,.06c-2.31.06-4.63.14-6.94.26l-3.21.19c-.58-1-1.14-2.11-1.69-3.17-1-1.95-1.9-3.94-2.76-5.94s-1.65-4.05-2.36-6.11-1.39-4.14-2-6.24V218a5.68,5.68,0,0,0-7.12-3.71,5.78,5.78,0,0,0-3.86,6.53,56.76,56.76,0,0,0,1.81,7.24,64.55,64.55,0,0,0,2.74,7.12,65.64,65.64,0,0,0,3.54,6.75,67.57,67.57,0,0,0,4.25,6.31l.27.37a5.11,5.11,0,0,0,4.93,2c2.27-.39,4.53-.88,6.8-1.33s4.53-1,6.78-1.5,4.51-1.1,6.75-1.72q2.43-.68,4.84-1.43Z"/><polygon class="cls-15" points="385.26 329.69 381.3 336.07 386.47 339.59 390.65 333.21 385.26 329.69"/><path class="cls-17" d="M382.48,336a20.41,20.41,0,0,0-15.26-3.77,1.1,1.1,0,0,0-.45,2l17.59,11.05s4-5,2.51-6.95A3.62,3.62,0,0,1,382.48,336Z"/><path class="cls-13" d="M418.82,266.81l-36.37,64.83a60.35,60.35,0,0,0,7.39,5.93L412,304.35c4.08-2.71,8.4-5.4,8.4-5.4,8.51-5.57,26-23.77,26-23.77Z"/><polygon class="cls-15" points="419.61 331.26 421.5 340.67 427.67 340.67 425.77 330.61 419.61 331.26"/><path class="cls-12" d="M460.64,255.15l-50.94.17a11.23,11.23,0,0,0-10.84,14l18.49,63.52h9.73l-3.53-31.11a5.88,5.88,0,0,1,.11-1.87c3-14.46-6.16-22.95-6.16-22.95,5.23,2.24,13.7,3.25,21.72,3.68a20.61,20.61,0,0,0,21.63-20Z"/><path class="cls-17" d="M422.4,339.32s-8.25-.89-15.78,6.18a1,1,0,0,0,.72,1.65l22.18-.93s.46-6.67-1.95-7.48A3.78,3.78,0,0,1,422.4,339.32Z"/><rect class="cls-24" x="332.49" y="247.65" width="4.72" height="97.61"/><path class="cls-20" d="M365.83,170.18h-4.17V166a2.17,2.17,0,0,0-4.33,0v4.18h-4.17a2.16,2.16,0,1,0,0,4.32h4.17v4.18a2.17,2.17,0,0,0,4.33,0V174.5h4.17a2.16,2.16,0,1,0,0-4.32Z"/><path class="cls-27" d="M548.92,156.81l5.39.63,2.29-4.65-3.77-3.89.27-4.08,4.25-3.36-1.66-4.91-5.42-.08-2.7-3.07.64-5.38-4.66-2.3-3.88,3.78-4.08-.27L532.23,125l-4.91,1.67-.08,5.42-3.08,2.69-5.38-.63-2.3,4.65,3.78,3.89-.27,4.08-4.25,3.36L517.4,155l5.42.08,2.7,3.07-.64,5.39,4.65,2.29,3.89-3.78,4.08.27,3.36,4.26,4.91-1.67.08-5.42Zm-5-2.6a11.21,11.21,0,1,1,1-15.81A11.2,11.2,0,0,1,543.93,154.21Z"/><path class="cls-9" d="M504.77,142.07l5.38.64,2.3-4.65-3.78-3.89.27-4.08,4.25-3.36-1.66-4.91-5.42-.08-2.69-3.08.63-5.38L499.4,111l-3.89,3.78-4.08-.27-3.36-4.25-4.91,1.66-.08,5.42L480,120l-5.39-.64L472.33,124l3.77,3.89-.27,4.08-4.25,3.36,1.66,4.91,5.42.08,2.7,3.08-.63,5.38,4.65,2.29,3.89-3.77,4.07.27,3.36,4.25,4.91-1.66.08-5.42Zm-5-2.6a11.2,11.2,0,1,1,1-15.81A11.21,11.21,0,0,1,499.77,139.47Z"/><polygon class="cls-20" points="570.63 76.49 549.82 103.16 564.47 103.62 558.45 121.51 580.5 93.29 565.24 93.45 570.63 76.49"/><path class="cls-20" d="M442.62,96.54a33,33,0,1,0-58.7,20.65,39.27,39.27,0,0,1,8.85,24.57v.61h33.72v-.62a38.05,38.05,0,0,1,8.61-24.24A32.86,32.86,0,0,0,442.62,96.54Z"/><path class="cls-28" d="M437.27,100.83a27.88,27.88,0,0,0-27.64-32.28h-.7a28,28,0,0,0-27.27,27.2,27.58,27.58,0,0,0,.33,5.07Z"/><path class="cls-4" d="M408.19,142.33h-1.9V107.25a4.53,4.53,0,1,0-4.53,4.53h2.16v1.9h-2.16a6.43,6.43,0,1,1,6.43-6.43Z"/><path class="cls-4" d="M413.08,142.33h-1.91V107.25a6.43,6.43,0,1,1,6.43,6.43h-2.16v-1.9h2.16a4.53,4.53,0,1,0-4.52-4.53Z"/><path class="cls-29" d="M392.92,142.23h33.42a0,0,0,0,1,0,0v14.67a8,8,0,0,1-8,8H400.87a8,8,0,0,1-8-8V142.23A0,0,0,0,1,392.92,142.23Z"/><path class="cls-30" d="M399.93,164.37h19.41a0,0,0,0,1,0,0V168a3.5,3.5,0,0,1-3.5,3.5H403.43a3.5,3.5,0,0,1-3.5-3.5v-3.65A0,0,0,0,1,399.93,164.37Z"/><path class="cls-8" d="M247.79,70h89.33a10,10,0,0,1,10,10v38.15a7.85,7.85,0,0,1-7.85,7.85H245.65a7.85,7.85,0,0,1-7.85-7.85V80A10,10,0,0,1,247.79,70Z"/><path class="cls-9" d="M347.12,84V80a10,10,0,0,0-10-10H247.79a10,10,0,0,0-10,10v4Z"/><path class="cls-4" d="M246.46,77.33A2.67,2.67,0,1,1,249.12,80,2.66,2.66,0,0,1,246.46,77.33Z"/><path class="cls-4" d="M256.46,77.33A2.67,2.67,0,1,1,259.12,80,2.66,2.66,0,0,1,256.46,77.33Z"/><path class="cls-4" d="M266.46,77.33A2.67,2.67,0,1,1,269.12,80,2.66,2.66,0,0,1,266.46,77.33Z"/><rect class="cls-4" x="250.5" y="92" width="88.29" height="4.5"/><rect class="cls-4" x="250.5" y="101" width="88.29" height="4.5"/><rect class="cls-4" x="250.5" y="110" width="88.29" height="4.5"/><rect class="cls-31" x="245.17" y="142" width="101.67" height="20.67" rx="5.67"/><circle class="cls-9" cx="250.29" cy="152.5" r="18.5"/><circle class="cls-20" cx="250.29" cy="152.5" r="13.5"/><path class="cls-4" d="M256.54,153.26l-9.41,5.66a.88.88,0,0,1-1.34-.75V146.83a.88.88,0,0,1,1.34-.75l9.41,5.66A.89.89,0,0,1,256.54,153.26Z"/><rect class="cls-32" x="272.5" y="150.33" width="66.25" height="4.5"/><rect class="cls-20" x="272.5" y="150.33" width="47.5" height="4.5"/></g></g></g></g></svg>