<svg xmlns="http://www.w3.org/2000/svg" viewBox="0 0 319.19 311.27"><defs><style>.cls-1,.cls-7{fill:#d4ecff;}.cls-2{fill:#173d7a;}.cls-3{fill:#396caa;}.cls-4{fill:#274f89;}.cls-5{fill:#fff;}.cls-6{fill:#5793ce;}.cls-7{opacity:0.4;}.cls-8{fill:#b2d3ea;}.cls-9{fill:#c13d1a;}.cls-10{fill:#ef602e;}.cls-11{fill:#ffc2b0;}.cls-12{fill:#ea9c92;}.cls-13{fill:#404da1;}.cls-14{fill:#6d81b4;}.cls-15{fill:#a3a9d2;}.cls-16{fill:#202751;}.cls-17{fill:none;}</style></defs><title>dataAsset 1</title><g id="Layer_2" data-name="Layer 2"><g id="Ñëîé_1" data-name="Ñëîé 1"><path class="cls-1" d="M178,290.69,52.72,218.37c-3.54-2.05-3.1-5.62,1-8L139,161.16c4.09-2.36,10.28-2.62,13.82-.57l125.26,72.32c3.55,2,3.1,5.62-1,8l-85.29,49.23C187.72,292.48,181.53,292.73,178,290.69Z"/><path class="cls-2" d="M282.73,90.65,155.4,17.19a4.88,4.88,0,0,0-4.36-.58v0l-.2.1-.05,0-4.15,1.95,4.5,2.24c0,.09,0,.17,0,.25l0,104.58c0,5.24,3.24,11.35,7.23,13.65l123.94,71.49.7,5.84,4.53-2.16c1.49-.88,2.43-2.86,2.43-5.68l0-104.58C290,99.06,286.72,93,282.73,90.65Z"/><path class="cls-3" d="M282.73,90.65,155.4,17.19a4.88,4.88,0,0,0-4.36-.58v0l-.2.1-.05,0-4.15,1.95,4.5,2.24c0,.09,0,.17,0,.25l0,68.93,57.94,45.78,78.68-39.59A14.14,14.14,0,0,0,282.73,90.65Z"/><path class="cls-4" d="M284.85,92.29l-12.47,5.25,9.42,7.26,7.86-3.35A18.2,18.2,0,0,0,284.85,92.29Z"/><path class="cls-1" d="M278.58,216.15,151.25,142.7c-4-2.3-7.23-8.41-7.23-13.65l0-104.58c0-5.23,3.23-7.61,7.23-5.3L278.54,92.62c4,2.3,7.23,8.41,7.23,13.65l0,104.58C285.81,216.08,282.58,218.46,278.58,216.15Z"/><path class="cls-5" d="M274.35,208.37,155.43,139.81c-3.66-2.11-6.62-7.7-6.62-12.49l0-95.7c0-4.79,3-7,6.62-4.86L274.3,95.33c3.66,2.11,6.62,7.7,6.62,12.49l0,95.7C281,208.31,278,210.48,274.35,208.37Z"/><path class="cls-5" d="M274.35,208.37,155.43,139.81c-3.66-2.11-6.62-7.7-6.62-12.49l0-95.7c0-4.79,3-7,6.62-4.86L274.3,95.33c3.66,2.11,6.62,7.7,6.62,12.49l0,95.7C281,208.31,278,210.48,274.35,208.37Z"/><path class="cls-2" d="M280.48,219.4l-17.12-2.26L152.83,153.33c-3.54-2.05-9.73-1.79-13.82.57L60.69,199.1l-10.36-1.37v5.88h0a4.06,4.06,0,0,0,2.38,3.63L178,279.56c3.55,2,9.74,1.79,13.83-.58l85.29-49.22c2.3-1.33,3.45-3,3.38-4.65h0Z"/><path class="cls-3" d="M197.44,179.08l-7.86-4.54H103.25L60.69,199.1l-10.36-1.37v5.88h0a4.06,4.06,0,0,0,2.38,3.63L178,279.56a13,13,0,0,0,7.14,1.33Z"/><path class="cls-6" d="M54.93,198.34l-4.6-.61v5.88h0a4.06,4.06,0,0,0,2.38,3.63l2.21,1.27Z"/><path class="cls-4" d="M179.24,280.14a16,16,0,0,0,11.75-.73v-13.1H179.24Z"/><path class="cls-1" d="M178,273.69,52.72,201.37c-3.54-2.05-3.1-5.62,1-8L139,144.16c4.09-2.36,10.28-2.62,13.82-.57l125.26,72.32c3.55,2,3.1,5.62-1,8l-85.29,49.23C187.72,275.48,181.53,275.74,178,273.69Z"/><path class="cls-5" d="M277.1,221.74,191.81,271c-4.09,2.36-10.28,2.62-13.83.57L52.72,199.22a4.63,4.63,0,0,1-2.2-2.4c-.56,1.67.15,3.37,2.2,4.55L178,273.69c3.55,2.05,9.74,1.79,13.83-.57l85.29-49.23c2.75-1.59,3.85-3.72,3.2-5.57A6.65,6.65,0,0,1,277.1,221.74Z"/><path class="cls-2" d="M106,177.43l-5.67-3.27c-.46-.27-.4-.73.13-1l6.69-3.86a2,2,0,0,1,1.77-.07l5.67,3.27c.45.26.4.72-.13,1l-6.69,3.86A2,2,0,0,1,106,177.43Z"/><path class="cls-2" d="M114.75,182.48l-5.67-3.27c-.45-.26-.4-.72.13-1l6.69-3.86a2,2,0,0,1,1.77-.07l5.67,3.27c.46.26.4.72-.13,1l-6.69,3.86A2,2,0,0,1,114.75,182.48Z"/><path class="cls-2" d="M123.5,187.53l-5.67-3.27c-.45-.26-.39-.72.13-1l6.69-3.86a2,2,0,0,1,1.78-.08l5.66,3.27c.46.27.4.73-.12,1l-6.69,3.86A2,2,0,0,1,123.5,187.53Z"/><path class="cls-2" d="M135.61,183.36l-5.67-3.27c-.46-.26-.4-.72.13-1l5.61-3.24a2,2,0,0,1,1.78-.07l5.67,3.27c.45.26.39.72-.13,1l-5.62,3.24A2,2,0,0,1,135.61,183.36Z"/><path class="cls-2" d="M144.36,188.41l-5.67-3.27c-.45-.26-.4-.72.13-1l5.61-3.24a2,2,0,0,1,1.78-.08l5.67,3.27c.45.27.4.73-.13,1l-5.62,3.24A2,2,0,0,1,144.36,188.41Z"/><path class="cls-2" d="M153.11,193.47l-5.67-3.27c-.45-.27-.39-.73.13-1l5.62-3.24a2,2,0,0,1,1.77-.07l5.67,3.27c.46.26.4.72-.13,1l-5.61,3.24A2,2,0,0,1,153.11,193.47Z"/><path class="cls-2" d="M161.86,198.52l-5.66-3.27c-.46-.26-.4-.72.12-1l5.62-3.24a2,2,0,0,1,1.77-.07l5.67,3.27c.46.26.4.72-.13,1l-5.61,3.24A2,2,0,0,1,161.86,198.52Z"/><path class="cls-2" d="M170.62,203.57,165,200.3c-.46-.26-.4-.72.13-1l5.61-3.24a2,2,0,0,1,1.78-.08l5.66,3.27c.46.27.4.73-.12,1l-5.62,3.24A2,2,0,0,1,170.62,203.57Z"/><path class="cls-2" d="M179.37,208.63l-5.67-3.27c-.45-.27-.4-.73.13-1l5.61-3.24a2,2,0,0,1,1.78-.08l5.67,3.28c.45.26.4.72-.13,1l-5.62,3.24A2,2,0,0,1,179.37,208.63Z"/><path class="cls-2" d="M188.12,213.68l-5.67-3.27c-.45-.26-.39-.72.13-1l5.62-3.24a2,2,0,0,1,1.77-.07l5.67,3.27c.45.26.4.72-.13,1l-5.61,3.24A2,2,0,0,1,188.12,213.68Z"/><path class="cls-2" d="M196.87,218.73l-5.66-3.27c-.46-.26-.4-.72.12-1l5.62-3.25a2,2,0,0,1,1.77-.07l5.67,3.27c.46.27.4.73-.13,1l-5.61,3.24A2,2,0,0,1,196.87,218.73Z"/><path class="cls-2" d="M205.63,223.79,200,220.52c-.46-.27-.4-.73.13-1l5.61-3.24a2,2,0,0,1,1.78-.08l5.66,3.28c.46.26.4.72-.12,1l-5.62,3.24A2,2,0,0,1,205.63,223.79Z"/><path class="cls-2" d="M214.38,228.84l-5.67-3.27c-.45-.26-.4-.72.13-1l5.61-3.24a2,2,0,0,1,1.78-.07l5.67,3.27c.45.26.4.72-.13,1l-5.62,3.24A2,2,0,0,1,214.38,228.84Z"/><path class="cls-3" d="M148.5,181l-5.66-3.27c-.46-.27-.4-.72.12-1l5.62-3.24a2,2,0,0,1,1.77-.07l5.67,3.27c.46.26.4.72-.13,1l-5.61,3.25A2,2,0,0,1,148.5,181Z"/><path class="cls-3" d="M139.62,175.84,134,172.57c-.45-.26-.4-.72.13-1l5.62-3.24a2,2,0,0,1,1.77-.07l5.67,3.27c.45.26.4.72-.13,1l-5.61,3.25A2,2,0,0,1,139.62,175.84Z"/><path class="cls-2" d="M130.72,170.7l-12.2-7c-.46-.27-.4-.73.12-1l5.62-3.24a2,2,0,0,1,1.77-.07l12.21,7c.46.27.4.72-.13,1l-5.61,3.24A2,2,0,0,1,130.72,170.7Z"/><path class="cls-2" d="M136.94,164.46l-9.9-5.72c-.46-.27-.4-.72.12-1l5.62-3.24a2,2,0,0,1,1.77-.07l9.91,5.72c.45.26.4.72-.13,1l-5.61,3.24A2,2,0,0,1,136.94,164.46Z"/><path class="cls-3" d="M157.26,186l-5.67-3.27c-.46-.26-.4-.72.13-1l5.61-3.25a2,2,0,0,1,1.78-.07l5.66,3.27c.46.26.4.72-.12,1L159,186A2,2,0,0,1,157.26,186Z"/><path class="cls-2" d="M166,191.08l-5.67-3.28c-.45-.26-.4-.72.13-1l5.61-3.24a2,2,0,0,1,1.78-.08l5.67,3.27c.45.27.39.73-.13,1L167.78,191A2,2,0,0,1,166,191.08Z"/><path class="cls-2" d="M174.76,196.13l-5.67-3.27c-.45-.27-.4-.72.13-1l5.62-3.24a2,2,0,0,1,1.77-.07l5.67,3.27c.45.26.4.72-.13,1l-5.61,3.25A2,2,0,0,1,174.76,196.13Z"/><path class="cls-2" d="M183.51,201.18l-5.66-3.27c-.46-.26-.4-.72.12-1l5.62-3.25a2,2,0,0,1,1.77-.07l5.67,3.27c.46.26.4.72-.13,1l-5.61,3.24A2,2,0,0,1,183.51,201.18Z"/><path class="cls-2" d="M192.27,206.24,186.6,203c-.46-.26-.4-.72.12-1l5.62-3.24a2,2,0,0,1,1.78-.08l5.66,3.27c.46.27.4.73-.12,1L194,206.16A2,2,0,0,1,192.27,206.24Z"/><path class="cls-2" d="M201,211.29,195.35,208c-.46-.27-.4-.73.13-1l5.61-3.24a2,2,0,0,1,1.78-.07l5.67,3.27c.45.26.39.72-.13,1l-5.62,3.25A2,2,0,0,1,201,211.29Z"/><path class="cls-2" d="M209.77,216.34l-5.67-3.27c-.45-.26-.4-.72.13-1l5.62-3.24a2,2,0,0,1,1.77-.07l5.67,3.27c.45.26.4.72-.13,1l-5.61,3.24A2,2,0,0,1,209.77,216.34Z"/><path class="cls-2" d="M218.52,221.4l-5.67-3.28c-.45-.26-.39-.72.13-1l5.62-3.24a2,2,0,0,1,1.77-.08l5.67,3.27c.46.27.4.73-.13,1l-5.61,3.24A2,2,0,0,1,218.52,221.4Z"/><path class="cls-2" d="M227.27,226.45l-5.66-3.27c-.46-.27-.4-.73.12-1l5.62-3.24a2,2,0,0,1,1.78-.07l5.66,3.27c.46.26.4.72-.12,1l-5.62,3.24A2,2,0,0,1,227.27,226.45Z"/><path class="cls-2" d="M242.83,235.43l-12.36-7.14c-.46-.26-.4-.72.13-1l5.61-3.24A2,2,0,0,1,238,224l12.36,7.14c.46.26.4.72-.12,1l-5.62,3.24A2,2,0,0,1,242.83,235.43Z"/><path class="cls-2" d="M259.87,225.59l-10.43-6c-.46-.26-.4-.72.12-1l5.62-3.24a2,2,0,0,1,1.78-.07l10.43,6c.46.27.4.72-.12,1l-5.62,3.24A2,2,0,0,1,259.87,225.59Z"/><path class="cls-2" d="M172.58,185l-5.66-3.27c-.46-.26-.4-.72.12-1l5.62-3.25a2,2,0,0,1,1.77-.07l5.67,3.27c.46.27.4.72-.13,1L174.36,185A2,2,0,0,1,172.58,185Z"/><path class="cls-2" d="M163.61,179.85l-5.67-3.27c-.45-.26-.39-.72.13-1l5.62-3.24a2,2,0,0,1,1.77-.08l5.67,3.27c.46.27.4.73-.13,1l-5.61,3.24A2,2,0,0,1,163.61,179.85Z"/><path class="cls-3" d="M154.64,174.68,149,171.4c-.45-.26-.39-.72.13-1l5.62-3.24a2,2,0,0,1,1.77-.08l5.67,3.28c.46.26.4.72-.13,1l-5.61,3.24A2,2,0,0,1,154.64,174.68Z"/><path class="cls-2" d="M145.67,169.5,140,166.22c-.45-.26-.39-.72.13-1l5.62-3.24a2,2,0,0,1,1.77-.08l5.67,3.28c.46.26.4.72-.13,1l-5.61,3.24A2,2,0,0,1,145.67,169.5Z"/><path class="cls-2" d="M181.34,190.09l-5.67-3.28c-.46-.26-.4-.72.13-1l5.61-3.24a2,2,0,0,1,1.78-.08l5.66,3.28c.46.26.4.72-.12,1L183.11,190A2,2,0,0,1,181.34,190.09Z"/><path class="cls-2" d="M190.09,195.14l-5.67-3.27c-.46-.26-.4-.72.13-1l5.61-3.24a2,2,0,0,1,1.78-.07l5.67,3.27c.45.26.39.72-.13,1l-5.62,3.25A2,2,0,0,1,190.09,195.14Z"/><path class="cls-2" d="M198.84,200.19l-5.67-3.27c-.45-.26-.4-.72.13-1l5.62-3.25a2,2,0,0,1,1.77-.07l5.67,3.27c.45.27.4.72-.13,1l-5.61,3.24A2,2,0,0,1,198.84,200.19Z"/><path class="cls-2" d="M207.59,205.25,201.92,202c-.45-.26-.39-.72.13-1l5.62-3.24a2,2,0,0,1,1.77-.08l5.67,3.28c.46.26.4.72-.13,1l-5.61,3.24A2,2,0,0,1,207.59,205.25Z"/><path class="cls-2" d="M216.34,210.3,210.68,207c-.46-.26-.4-.72.12-1l5.62-3.24a2,2,0,0,1,1.78-.07l5.66,3.27c.46.26.4.72-.12,1l-5.62,3.25A2,2,0,0,1,216.34,210.3Z"/><path class="cls-2" d="M225.1,215.35l-5.67-3.27c-.46-.26-.4-.72.13-1l5.61-3.25a2,2,0,0,1,1.78-.07l5.67,3.27c.45.27.39.72-.13,1l-5.62,3.24A2,2,0,0,1,225.1,215.35Z"/><path class="cls-2" d="M233.85,220.41l-5.67-3.28c-.45-.26-.4-.72.13-1l5.62-3.24a2,2,0,0,1,1.77-.08l5.67,3.28c.45.26.4.72-.13,1l-5.61,3.24A2,2,0,0,1,233.85,220.41Z"/><path class="cls-2" d="M242.6,225.46l-5.67-3.27c-.45-.27-.39-.72.13-1l5.62-3.24a2,2,0,0,1,1.77-.07l5.67,3.27c.46.26.4.72-.13,1l-5.61,3.25A2,2,0,0,1,242.6,225.46Z"/><path class="cls-2" d="M251.35,230.51l-5.66-3.27c-.46-.26-.4-.72.12-1l5.62-3.25a2,2,0,0,1,1.78-.07l5.66,3.27c.46.26.4.72-.12,1l-5.62,3.24A2,2,0,0,1,251.35,230.51Z"/><path class="cls-2" d="M168,172.53l-5.66-3.27c-.46-.26-.4-.72.12-1l5.62-3.24a2,2,0,0,1,1.77-.08l5.67,3.27c.46.27.4.73-.13,1l-5.61,3.24A2,2,0,0,1,168,172.53Z"/><path class="cls-2" d="M159.27,167.51l-5.67-3.28c-.46-.26-.4-.72.12-1l5.62-3.24a2,2,0,0,1,1.78-.08l5.66,3.28c.46.26.4.72-.12,1L161,167.43A2,2,0,0,1,159.27,167.51Z"/><path class="cls-2" d="M150.56,162.48l-5.67-3.27c-.46-.27-.4-.73.13-1l5.61-3.24a2,2,0,0,1,1.78-.07l5.66,3.27c.46.26.4.72-.12,1l-5.62,3.25A2,2,0,0,1,150.56,162.48Z"/><path class="cls-2" d="M141.85,157.45l-5.67-3.27c-.46-.26-.4-.72.13-1l5.61-3.24a2,2,0,0,1,1.78-.07l5.67,3.27c.45.26.39.72-.13,1l-5.62,3.25A2,2,0,0,1,141.85,157.45Z"/><path class="cls-2" d="M150.8,152.28,145.14,149c-.46-.26-.4-.72.12-1l1.86-1.07a2,2,0,0,1,1.77-.07l5.67,3.27c.46.26.4.72-.13,1l-1.85,1.08A2,2,0,0,1,150.8,152.28Z"/><path class="cls-2" d="M162.17,158.84l-5.67-3.27c-.45-.26-.4-.72.13-1l1.85-1.07a2,2,0,0,1,1.78-.07l5.67,3.27c.45.26.39.72-.13,1l-1.86,1.07A2,2,0,0,1,162.17,158.84Z"/><path class="cls-2" d="M170.84,163.85l-5.67-3.27c-.45-.27-.4-.72.13-1l1.86-1.07a2,2,0,0,1,1.77-.07l5.67,3.27c.45.26.4.72-.13,1l-1.85,1.08A2,2,0,0,1,170.84,163.85Z"/><path class="cls-2" d="M179.51,168.86l-5.66-3.28c-.46-.26-.4-.72.12-1l1.86-1.07a2,2,0,0,1,1.77-.08l5.67,3.28c.46.26.4.72-.13,1l-1.85,1.07A2,2,0,0,1,179.51,168.86Z"/><path class="cls-2" d="M188.19,173.86l-5.67-3.27c-.46-.26-.4-.72.13-1l1.85-1.08a2,2,0,0,1,1.78-.07l5.66,3.27c.46.27.4.72-.12,1L190,173.79A2,2,0,0,1,188.19,173.86Z"/><path class="cls-2" d="M236.6,201.82l-5.66-3.27c-.46-.27-.4-.73.12-1l1.86-1.07a2,2,0,0,1,1.78-.08l5.66,3.28c.46.26.4.72-.12,1l-1.86,1.07A2,2,0,0,1,236.6,201.82Z"/><path class="cls-2" d="M245.28,206.82l-5.67-3.27c-.46-.26-.4-.72.13-1l1.85-1.07a2,2,0,0,1,1.78-.08l5.67,3.27c.45.27.39.73-.13,1l-1.86,1.07A2,2,0,0,1,245.28,206.82Z"/><path class="cls-2" d="M254,211.83l-5.67-3.27c-.45-.26-.4-.72.13-1l1.86-1.07a2,2,0,0,1,1.77-.07l5.67,3.27c.45.26.4.72-.13,1l-1.86,1.07A2,2,0,0,1,254,211.83Z"/><path class="cls-2" d="M262.62,216.84,257,213.57c-.45-.27-.39-.72.13-1l1.86-1.07a2,2,0,0,1,1.77-.07l5.67,3.27c.46.26.4.72-.13,1l-1.85,1.08A2,2,0,0,1,262.62,216.84Z"/><path class="cls-2" d="M176.73,177.59l-5.67-3.27c-.46-.27-.4-.73.13-1l5.61-3.24a2,2,0,0,1,1.78-.07l5.66,3.27c.46.26.4.72-.12,1l-5.62,3.24A2,2,0,0,1,176.73,177.59Z"/><path class="cls-2" d="M185.48,182.64l-5.67-3.27c-.45-.26-.4-.72.13-1l5.61-3.24a2,2,0,0,1,1.78-.07L193,178.3c.45.26.4.72-.13,1l-5.62,3.24A2,2,0,0,1,185.48,182.64Z"/><path class="cls-2" d="M194.23,187.69l-5.67-3.27c-.45-.26-.39-.72.13-1l5.62-3.24a2,2,0,0,1,1.77-.08l5.67,3.27c.45.27.4.73-.13,1L196,187.62A2,2,0,0,1,194.23,187.69Z"/><path class="cls-2" d="M203,192.75l-5.66-3.27c-.46-.27-.4-.73.12-1l5.62-3.24a2,2,0,0,1,1.77-.08l5.67,3.28c.46.26.4.72-.13,1l-5.61,3.24A2,2,0,0,1,203,192.75Z"/><path class="cls-2" d="M211.74,197.8l-5.67-3.27c-.46-.26-.4-.72.13-1l5.61-3.24a2,2,0,0,1,1.78-.07l5.66,3.27c.46.26.4.72-.12,1l-5.62,3.24A2,2,0,0,1,211.74,197.8Z"/><path class="cls-2" d="M220.49,202.85l-5.67-3.27c-.45-.26-.4-.72.13-1l5.61-3.25a2,2,0,0,1,1.78-.07l5.67,3.27c.45.27.4.73-.13,1l-5.62,3.24A2,2,0,0,1,220.49,202.85Z"/><path class="cls-2" d="M229.24,207.91l-5.67-3.27c-.45-.27-.39-.73.13-1l5.62-3.24a2,2,0,0,1,1.77-.08l5.67,3.28c.45.26.4.72-.13,1L231,207.83A2,2,0,0,1,229.24,207.91Z"/><path class="cls-2" d="M238,213l-5.66-3.27c-.46-.26-.4-.72.12-1l5.62-3.24a2,2,0,0,1,1.77-.07l5.67,3.27c.46.26.4.72-.13,1l-5.61,3.25A2,2,0,0,1,238,213Z"/><path class="cls-2" d="M246.75,218l-5.67-3.27c-.46-.26-.4-.72.13-1l5.61-3.25a2,2,0,0,1,1.78-.07l5.66,3.27c.46.27.4.72-.12,1l-5.62,3.24A2,2,0,0,1,246.75,218Z"/><path class="cls-2" d="M126.69,178.21,110,168.58c-.46-.27-.4-.73.12-1l5.62-3.24a2,2,0,0,1,1.77-.08l16.7,9.64c.45.26.39.72-.13,1l-5.62,3.24A2,2,0,0,1,126.69,178.21Z"/><path class="cls-2" d="M234.21,240.29l-16.69-9.63c-.45-.27-.4-.73.13-1l5.61-3.24a2,2,0,0,1,1.78-.08L241.73,236c.46.26.4.72-.13,1L236,240.22A2,2,0,0,1,234.21,240.29Z"/><path class="cls-2" d="M199.21,231.25,193.54,228c-.45-.26-.39-.72.13-1l6.69-3.86a2,2,0,0,1,1.78-.08l5.66,3.27c.46.27.4.73-.12,1L201,231.17A2,2,0,0,1,199.21,231.25Z"/><path class="cls-2" d="M135.65,194.55l-9.06-5.23c-.46-.27-.4-.73.12-1l6.69-3.86a2,2,0,0,1,1.78-.07l9.06,5.23c.46.26.4.72-.12,1l-6.69,3.87A2,2,0,0,1,135.65,194.55Z"/><path class="cls-2" d="M190.78,226.38l-9.07-5.24c-.45-.26-.39-.72.13-1l6.69-3.86a2,2,0,0,1,1.78-.08l9.06,5.24c.46.26.4.72-.13,1l-6.69,3.86A2,2,0,0,1,190.78,226.38Z"/><path class="cls-2" d="M148.28,201.84l-9.07-5.23c-.45-.27-.39-.73.13-1l6.69-3.86a2,2,0,0,1,1.78-.07l9.06,5.23c.46.26.4.72-.13,1l-6.69,3.87A2,2,0,0,1,148.28,201.84Z"/><path class="cls-2" d="M147.87,191.68l39.41,22.75a.54.54,0,0,1,0,1l-6.83,3.93a1.91,1.91,0,0,1-1.77,0l-39.4-22.75Z"/><path class="cls-2" d="M223.67,240.41l6.32,3.64c.37.22.32.59-.11.84l-2.74,1.58a1.59,1.59,0,0,1-1.45.06l-6.31-3.64c-.38-.22-.33-.59.1-.84l2.74-1.58A1.59,1.59,0,0,1,223.67,240.41Z"/><path class="cls-2" d="M214.85,235.31l6.31,3.65c.37.21.33.59-.1.84l-2.74,1.58a1.64,1.64,0,0,1-1.46.06l-6.31-3.65c-.37-.21-.32-.59.11-.84l2.73-1.58A1.64,1.64,0,0,1,214.85,235.31Z"/><path class="cls-2" d="M206.1,230.26l6.31,3.64c.37.22.32.6-.11.84l-2.73,1.58a1.61,1.61,0,0,1-1.46.06l-6.31-3.64c-.37-.22-.33-.59.1-.84l2.74-1.58A1.61,1.61,0,0,1,206.1,230.26Z"/><path class="cls-2" d="M219.68,232.52l6.31,3.65c.38.21.33.59-.1.84l-2.74,1.58a1.62,1.62,0,0,1-1.45.06L215.38,235c-.37-.21-.32-.59.11-.84l2.74-1.58A1.62,1.62,0,0,1,219.68,232.52Z"/><path class="cls-7" d="M206.78,114.07l-41.55-24a4.41,4.41,0,0,1-1.85-3.53V53.86c0-1.36.83-2,1.85-1.4l41.55,24A4.43,4.43,0,0,1,208.63,80v32.7C208.63,114,207.8,114.66,206.78,114.07Z"/><path class="cls-8" d="M177.79,92l-.29-.17a4.72,4.72,0,0,1-2-3.75V72.5c0-1.44.88-2.11,2-1.48l.29.17a4.69,4.69,0,0,1,2,3.74V90.51C179.75,92,178.87,92.62,177.79,92Z"/><path class="cls-8" d="M186.15,96.82l-.29-.17a4.67,4.67,0,0,1-2-3.75V83.79c0-1.45.88-2.11,2-1.49l.29.17a4.72,4.72,0,0,1,2,3.75v9.12C188.11,96.78,187.23,97.45,186.15,96.82Z"/><path class="cls-3" d="M194.51,101.65l-.3-.17a4.72,4.72,0,0,1-2-3.75V76c0-1.44.88-2.1,2-1.48l.3.17a4.71,4.71,0,0,1,2,3.75v21.7C196.47,101.61,195.59,102.27,194.51,101.65Z"/><path class="cls-8" d="M246.39,105.28l-25.81-14.9a4.14,4.14,0,0,1-1.73-3.31h0c0-1.28.77-1.87,1.73-1.31l25.81,14.9a4.15,4.15,0,0,1,1.74,3.31h0C248.13,105.25,247.35,105.84,246.39,105.28Z"/><path class="cls-8" d="M229.79,104.77l-9.21-5.31a4.14,4.14,0,0,1-1.73-3.31h0c0-1.28.77-1.87,1.73-1.31l9.21,5.31a4.19,4.19,0,0,1,1.73,3.31h0C231.52,104.74,230.74,105.33,229.79,104.77Z"/><path class="cls-3" d="M245.24,113.7,236,108.38a4.16,4.16,0,0,1-1.73-3.31h0c0-1.28.78-1.86,1.73-1.31l9.21,5.32a4.14,4.14,0,0,1,1.74,3.31h0C247,113.66,246.2,114.25,245.24,113.7Z"/><path class="cls-8" d="M264.66,124.94l-13.17-7.64a4.14,4.14,0,0,1-1.74-3.31h0c0-1.27.78-1.86,1.74-1.31l13.17,7.64a4.17,4.17,0,0,1,1.74,3.31h0C266.4,124.91,265.62,125.5,264.66,124.94Z"/><path class="cls-8" d="M252.83,127.16l-32.25-18.62a4.16,4.16,0,0,1-1.73-3.31h0c0-1.28.77-1.87,1.73-1.31l32.25,18.62a4.14,4.14,0,0,1,1.74,3.31h0C254.57,127.13,253.79,127.71,252.83,127.16Z"/><path class="cls-3" d="M266.4,144l-45.82-26.34a4.16,4.16,0,0,1-1.73-3.32h0c0-1.27.77-1.86,1.73-1.31l45.82,26.35a4.17,4.17,0,0,1,1.73,3.31h0C268.13,143.93,267.35,144.52,266.4,144Z"/><path class="cls-8" d="M270.27,119l-16.75-9.63a4.14,4.14,0,0,1-1.73-3.31h0c0-1.28.77-1.87,1.73-1.31l16.75,9.63a4.13,4.13,0,0,1,1.73,3.31h0C272,119,271.23,119.58,270.27,119Z"/><polygon class="cls-3" points="171.42 119.72 163.27 115.02 163.27 124.43 171.42 129.13 171.42 119.72"/><polygon class="cls-1" points="184.3 119.38 176.15 114.68 176.15 131.86 184.3 136.57 184.3 119.38"/><polygon class="cls-1" points="197.17 131.73 189.02 127.02 189.02 139.3 197.17 144 197.17 131.73"/><polygon class="cls-1" points="210.05 135.62 201.9 130.91 201.9 146.73 210.05 151.44 210.05 135.62"/><polygon class="cls-3" points="222.92 144 214.77 139.3 214.77 154.16 222.92 158.87 222.92 144"/><polygon class="cls-2" points="235.8 147.69 227.65 142.99 227.65 161.6 235.8 166.3 235.8 147.69"/><polygon class="cls-1" points="248.67 153.14 240.52 148.44 240.52 169.03 248.67 173.74 248.67 153.14"/><polygon class="cls-3" points="261.55 155.55 253.4 150.85 253.4 176.46 261.55 181.17 261.55 155.55"/><rect class="cls-6" x="314.95" y="113.6" width="1.84" height="5.35" transform="translate(350.1 -218.57) rotate(75.63)"/><rect class="cls-6" x="312.31" y="116.18" width="1.84" height="5.35" transform="translate(350.61 -214.07) rotate(75.63)"/><rect class="cls-6" x="309.66" y="118.76" width="1.84" height="5.35" transform="translate(351.12 -209.57) rotate(75.63)"/><rect class="cls-6" x="307.02" y="121.34" width="1.84" height="5.35" transform="translate(351.62 -205.07) rotate(75.62)"/><polygon class="cls-4" points="209.65 224.57 193.23 215.09 176.8 224.57 193.23 234.05 209.65 224.57"/><polygon class="cls-4" points="157.88 226.22 141.46 216.74 125.03 226.22 141.46 235.71 157.88 226.22"/><polygon class="cls-4" points="123.12 206.31 106.7 196.83 90.28 206.31 106.7 215.79 123.12 206.31"/><polygon class="cls-9" points="141.46 226.22 141.46 175.65 157.88 166.17 157.88 216.74 141.46 226.22"/><polygon class="cls-10" points="157.88 166.17 141.46 156.69 125.03 166.17 141.46 175.65 157.88 166.17"/><polygon class="cls-6" points="141.46 175.65 125.03 166.17 125.03 216.74 141.46 226.22 141.46 175.65"/><polygon class="cls-3" points="141.46 226.22 141.46 175.65 157.88 166.17 157.88 216.74 141.46 226.22"/><polygon class="cls-1" points="157.88 166.17 141.46 156.69 125.03 166.17 141.46 175.65 157.88 166.17"/><polygon class="cls-2" points="176.32 246.62 176.32 218.17 192.74 208.69 192.74 237.14 176.32 246.62"/><polygon class="cls-3" points="176.32 218.17 159.9 208.69 159.9 237.14 176.32 246.62 176.32 218.17"/><polygon class="cls-1" points="192.74 208.69 176.32 199.21 159.9 208.69 176.32 218.17 192.74 208.69"/><polygon class="cls-1" points="106.7 206.31 106.7 136.78 123.12 127.29 123.12 196.83 106.7 206.31"/><polygon class="cls-3" points="106.7 136.78 90.28 127.29 90.28 196.83 106.7 206.31 106.7 136.78"/><polygon class="cls-6" points="123.12 127.29 106.7 117.81 90.28 127.29 106.7 136.78 123.12 127.29"/><path class="cls-6" d="M96.92,166.6s-2.71-1.36-4.38.67-4.05,6.85-4.12,10.09,2.57,3,4.14,2.26,6.17-7.42,6.44-8.73a4.5,4.5,0,0,0-.77-3.42C97.79,167.13,96.92,166.6,96.92,166.6Z"/><path class="cls-1" d="M97.51,166l.12,2.81a1.57,1.57,0,0,1-.79,1.46,3.1,3.1,0,0,1-2.09.33c-2-.33-2.23-.92-2.37-3.72S97.51,166,97.51,166Z"/><path class="cls-6" d="M87,161.2s-2.71-1.37-4.38.67-4,6.84-4.12,10.09,2.57,3,4.15,2.26,6.16-7.43,6.44-8.73a4.54,4.54,0,0,0-.77-3.42C87.87,161.73,87,161.2,87,161.2Z"/><path class="cls-1" d="M87.58,160.55l.13,2.81a1.61,1.61,0,0,1-.8,1.46,3.11,3.11,0,0,1-2.09.32c-2-.32-2.22-.91-2.37-3.72S87.58,160.55,87.58,160.55Z"/><path class="cls-2" d="M111.78,109c-.8-13.06-14.14,1.92-14.14,1.92l-9.13,9-8.23,9a8.12,8.12,0,0,0-2,6.51l3.33,25.33a2.48,2.48,0,0,0,2.49,2.16,8.58,8.58,0,0,0,1.24-.11A3.09,3.09,0,0,0,88,159.48l-.6-23.69,17.26-10.41S112.58,122,111.78,109Z"/><path class="cls-2" d="M121.71,113.94c-.81-13.06-14.15,1.92-14.15,1.92l-9.13,9-8.22,9a8.11,8.11,0,0,0-2,6.51l3.32,25.32a2.5,2.5,0,0,0,2.5,2.17,10,10,0,0,0,1.23-.11A3.1,3.1,0,0,0,98,164.45l-.61-23.68,17.27-10.41S122.51,127,121.71,113.94Z"/><path class="cls-6" d="M113.81,72c10.12,4.19,9.92,10.17,9.92,10.17s-2,21.92-1.31,36.56c.28,6.12-32.51,6.59-27.62-9.74,5.77-19.25,3.6-34.83,6.3-37.18S111.2,70.94,113.81,72Z"/><path class="cls-11" d="M117.07,77.32c-.53,2.06-3.22,3.14-6,2.42s-4.62-3-4.09-5,3.21-3.14,6-2.42S117.6,75.27,117.07,77.32Z"/><path class="cls-5" d="M112.77,80.44a7.28,7.28,0,0,1-1.83-.23c-3-.79-5-3.3-4.44-5.61s3.55-3.55,6.6-2.77A6.79,6.79,0,0,1,116.64,74a3.88,3.88,0,0,1,.9,3.43C117.06,79.28,115.09,80.44,112.77,80.44Zm-1.53-7.88c-1.87,0-3.44.88-3.81,2.28-.46,1.79,1.22,3.78,3.75,4.43s5-.28,5.42-2.07a2.89,2.89,0,0,0-.71-2.58,5.76,5.76,0,0,0-3-1.85A6.47,6.47,0,0,0,111.24,72.56Z"/><path class="cls-11" d="M109.76,71.56a24.36,24.36,0,0,1-.09,3.62c0,1,3.47,1.94,4.39,1s.54-1.86.76-5.29S109.76,71.56,109.76,71.56Z"/><path class="cls-12" d="M114.82,70.92s-.87,3.18-5.15,4.4l.07-2.89Z"/><path class="cls-11" d="M117.54,62.84a7.79,7.79,0,1,1-9.49-5.58A7.8,7.8,0,0,1,117.54,62.84Z"/><path class="cls-12" d="M111.79,65.08s-4.29,1.83-7.26,1.86-2.31-2.47-2.31-2.47L111,63.2Z"/><path class="cls-13" d="M103.65,65.56a13.93,13.93,0,0,1,7-.92,3.46,3.46,0,0,1,2,1.17,1.13,1.13,0,0,0,.6.44c.58.13,1.53-2.28,2.66-2.33s1.88.74.95,2.22-.61,3.14-.18,3.38,4.94-3.22,1-11.12-14.1-3.64-15.68-2c0,0-1.66,1.45-3,.16C98.93,56.52,97.42,67.85,103.65,65.56Z"/><path class="cls-11" d="M118.05,98.21v5.92a2.38,2.38,0,0,1-.79,1.78L105.1,117l1.38,2.12,16.07-11.65a3.31,3.31,0,0,0,1.33-2.31L125,94.83Z"/><path class="cls-6" d="M122.87,79.23s3.69,5.55,5.07,20.16c0,0-6.31,2-9.89.89S122.87,79.23,122.87,79.23Z"/><path class="cls-3" d="M117.38,86.25a102.06,102.06,0,0,0-1.53,11.37,2.32,2.32,0,0,0,1.53,2.24h0Z"/><path class="cls-6" d="M114.22,124.7l-2.69-.35-17.36-10a2.42,2.42,0,0,0-2.17.09l-12.3,7.1-1.62-.22v1.62h0a.64.64,0,0,0,.37.57l19.67,11.36a2.44,2.44,0,0,0,2.18-.09L113.69,127a.88.88,0,0,0,.53-.73h0Z"/><path class="cls-3" d="M101.18,118.37l-1.23-.71H86.39l-6.69,3.86-1.62-.22v1.62h0a.64.64,0,0,0,.37.57l19.67,11.36a2,2,0,0,0,1.12.21Z"/><path class="cls-6" d="M78.8,121.4l-.72-.1v1.62h0a.64.64,0,0,0,.37.57l.35.2Z"/><path class="cls-5" d="M98.32,134.94a2.54,2.54,0,0,0,1.85-.11v-2.76H98.32Z"/><path class="cls-5" d="M98.12,133.23,78.45,121.87c-.55-.32-.49-.88.16-1.25L92,112.89a2.42,2.42,0,0,1,2.17-.09l19.68,11.36c.55.32.48.88-.16,1.25l-13.39,7.73A2.44,2.44,0,0,1,98.12,133.23Z"/><path class="cls-1" d="M97.79,131.51l-16.36-9.44c-.46-.27-.4-.74.13-1l7.18-4a2,2,0,0,1,1.81-.08l16.35,9.45c.47.26.41.73-.13,1l-7.17,4A2,2,0,0,1,97.79,131.51Z"/><path class="cls-11" d="M92.76,112.52l-.2,1.35a10.16,10.16,0,0,0,.09,3.48l.24,1.2a1.69,1.69,0,0,0,1.35,1.32h0a.92.92,0,0,0,1.09-.81l.32-2.9s.74,1,1.1,1-.4-2.9-1.21-4.55S92.76,112.52,92.76,112.52Z"/><path class="cls-11" d="M99.43,90.94l-2.11,4.18a8.19,8.19,0,0,0-.86,3.17l-.92,14.29-2.78-.06-1.26-16A6.19,6.19,0,0,1,91.57,95L93,86.85Z"/><path class="cls-2" d="M97.46,134.32l-1.65-2.15-17.35-10a2.45,2.45,0,0,1-1-1.93V106l-1-1.3.94-.55h0a.65.65,0,0,1,.68,0l19.66,11.38a2.43,2.43,0,0,1,1,1.93l0,15.47a.85.85,0,0,1-.37.82h0Z"/><path class="cls-3" d="M85.46,126.18l-1.23-.71-6.77-11.76V106l-1-1.3.94-.55h0a.65.65,0,0,1,.68,0l19.66,11.38a2.14,2.14,0,0,1,.74.87Z"/><path class="cls-6" d="M76.92,105.27l-.45-.57.94-.55h0a.65.65,0,0,1,.68,0l.35.2Z"/><path class="cls-4" d="M97.93,115.7a2.52,2.52,0,0,1,.82,1.66l-1.92,1.11-.92-1.6Z"/><path class="cls-6" d="M96.81,116.12,77.16,104.74c-.56-.33-1,0-1,.76l0,15.46a2.42,2.42,0,0,0,1,1.93l19.65,11.38c.56.32,1,0,1-.76l0-15.47A2.4,2.4,0,0,0,96.81,116.12Z"/><path class="cls-11" d="M106.48,119.12l-.31.65a4.46,4.46,0,0,1-1.65,1.82l-2,1.21a2,2,0,0,1-2,0l-.07,0a1.17,1.17,0,0,1-.17-1.8l2-2.1s-1.14.88-1.46.52,1.11-1.52,2.14-1.56a4.05,4.05,0,0,0,2-.86Z"/><path class="cls-6" d="M101.31,71.8s-7.48,8.14-10.5,15.6a15.29,15.29,0,0,0,8.82,6.42C105.89,95.63,101.31,71.8,101.31,71.8Z"/><path class="cls-3" d="M98.22,93.34l1.21-11.72-2.86,11C97.08,92.86,97.64,93.11,98.22,93.34Z"/><path class="cls-5" d="M106.91,70.15l-2-.55a4.88,4.88,0,0,0,2.36,1.9c1.4.38,1.62-.8,1.62-.8Z"/><path class="cls-1" d="M89.27,277.14c-13.52-7.8-35.44-7.8-49,0s-13.52,20.47,0,28.27,35.44,7.81,49,0S102.79,285,89.27,277.14ZM76,297.77c-6.21,3.59-16.29,3.59-22.5,0s-6.22-9.4,0-13,16.29-3.59,22.5,0S82.26,294.19,76,297.77Z"/><path class="cls-2" d="M35.2,272.52l12.35.19a13.25,13.25,0,0,1,3.9-3.28c6.79-3.92,17.47-4.22,24.87-.91l7.34-6.91,11.3.18c-.56-.36-1.13-.73-1.74-1.07-15.7-9.07-41.16-9.07-56.86,0a29.69,29.69,0,0,0-7.07,5.5Z"/><polygon class="cls-6" points="94.96 243.86 94.96 261.79 83.66 261.61 83.66 243.68 94.96 243.86"/><polygon class="cls-2" points="76.32 250.58 76.32 268.52 83.66 261.61 83.66 243.68 76.32 250.58"/><path class="cls-2" d="M47.55,254.78v17.93L63.8,259.47l12.52,9V250.58L64.79,245s-15.88,4.86-16.7,5.06S47.55,254.78,47.55,254.78Z"/><polygon class="cls-2" points="35.2 254.58 35.2 272.52 47.55 272.71 47.55 254.78 35.2 254.58"/><polygon class="cls-6" points="29.29 248.29 29.29 266.22 35.2 272.52 35.2 254.58 29.29 248.29"/><path class="cls-1" d="M35.2,254.58l12.35.2a13.11,13.11,0,0,1,3.9-3.28c6.79-3.92,17.47-4.23,24.87-.92l7.34-6.9,11.3.18c-.56-.37-1.13-.73-1.74-1.08-15.7-9.07-41.16-9.07-56.86,0a30,30,0,0,0-7.07,5.51Z"/><path class="cls-6" d="M80,252.79v16.48l10.69-2.56s-.63-9.64-.85-9.9S80,252.79,80,252.79Z"/><path class="cls-2" d="M72,269.27v17.94l1.16,1.23,7.53-4.35s-1.17-13.69-1.3-14S72,269.27,72,269.27Z"/><path class="cls-3" d="M86.5,264.64,80,270.72c5.38,4.26,4.75,10.27-1.91,14.11A22.76,22.76,0,0,1,72,287.21l6.68,7.12-5.92,5.56a53.81,53.81,0,0,0,20.51-6.34c13.5-7.8,15.39-19.75,5.68-28.71Z"/><polygon class="cls-3" points="72.71 281.96 72.71 299.89 87.37 294.23 104.99 277.42 104.93 258.37 86.28 273.15 72.71 281.96"/><path class="cls-1" d="M86.5,246.71,80,252.79c5.38,4.26,4.75,10.26-1.91,14.11A23.07,23.07,0,0,1,72,269.27l6.68,7.12L72.71,282a53.64,53.64,0,0,0,20.51-6.35c13.5-7.79,15.39-19.74,5.68-28.71Z"/><path class="cls-3" d="M72.66,294.23,66.78,288c-5.47.33-11.14-.71-15.33-3.13s-6.11-5.91-5.35-9.16l-14-.22-5.39-5.74c-4.72,8.09-1.5,17.39,9.67,23.84,8.2,4.74,19.07,7,29.82,6.78Z"/><polygon class="cls-3" points="66.18 282.39 66.18 300.33 24.59 277.28 24.59 259.33 30.66 261.79 66.18 282.39"/><polygon class="cls-2" points="72.66 276.3 72.66 294.23 66.18 300.33 66.18 282.39 72.66 276.3"/><path class="cls-6" d="M72.66,276.3,66.78,270c-5.47.33-11.14-.71-15.33-3.13s-6.11-5.91-5.35-9.16l-14-.22-5.39-5.74c-4.72,8.09-1.5,17.39,9.67,23.83,8.2,4.74,19.07,7,29.82,6.78Z"/><path class="cls-6" d="M97,33.44,98,31.63a2.6,2.6,0,0,0,1.85.19,3.59,3.59,0,0,0,2-2.06c1.91-4,5.44-4.26,7-3.86l-.51,2,.26-1-.25,1c-.3-.07-3-.59-4.64,2.74a5.55,5.55,0,0,1-3.28,3.16A4.64,4.64,0,0,1,97,33.44Z"/><path class="cls-1" d="M63.48,102.52a9.65,9.65,0,1,1,9.65-9.65A9.65,9.65,0,0,1,63.48,102.52Zm0-17.19A7.55,7.55,0,1,0,71,92.87,7.55,7.55,0,0,0,63.48,85.33Z"/><path class="cls-6" d="M6.84,235.86A6.85,6.85,0,1,1,13.69,229,6.85,6.85,0,0,1,6.84,235.86Zm0-11.58A4.74,4.74,0,1,0,11.58,229,4.74,4.74,0,0,0,6.84,224.28Z"/><path class="cls-6" d="M49.34,159l-4.64-9.45,9.45-4.64,4.64,9.45Zm-1.82-8.49,2.78,5.67L56,153.39l-2.78-5.67Z"/><rect class="cls-6" x="278.6" y="56.29" width="4.84" height="4.84" transform="translate(2.93 130.01) rotate(-26.18)"/><rect class="cls-1" x="189.94" y="3.23" width="10" height="2.1" transform="translate(54.07 139.1) rotate(-45)"/><rect class="cls-1" x="193.89" y="-0.72" width="2.1" height="10" transform="translate(54.07 139.1) rotate(-45)"/><path class="cls-1" d="M270.24,7.82a5,5,0,1,1-5-5A5,5,0,0,1,270.24,7.82Z"/><path class="cls-1" d="M136.53,286.09a2.89,2.89,0,1,1-2.89-2.88A2.89,2.89,0,0,1,136.53,286.09Z"/><circle class="cls-1" cx="247.5" cy="285.75" r="5.92"/><path class="cls-14" d="M40.9,173.13,19.76,160.92a1.06,1.06,0,0,0-1.09-.08v0L16.62,162l1.44.52v15.4a4.09,4.09,0,0,0,1.7,3.25L40,192.84v1.81L42,193.46h0a1.49,1.49,0,0,0,.57-1.35V176.38A4.06,4.06,0,0,0,40.9,173.13Z"/><path class="cls-15" d="M38.82,194.58l-21.14-12.2a4.07,4.07,0,0,1-1.7-3.25V163.41c0-1.25.76-1.83,1.7-1.28l21.14,12.2a4.1,4.1,0,0,1,1.7,3.25V193.3C40.52,194.55,39.75,195.13,38.82,194.58Z"/><path class="cls-14" d="M24.79,177c0,.91-.64,1.28-1.43.83a3.16,3.16,0,0,1-1.43-2.47c0-.91.64-1.28,1.43-.83A3.16,3.16,0,0,1,24.79,177Z"/><path class="cls-14" d="M29.11,179.46c0,.91-.64,1.28-1.43.82a3.14,3.14,0,0,1-1.43-2.47c0-.91.64-1.28,1.43-.82A3.14,3.14,0,0,1,29.11,179.46Z"/><path class="cls-14" d="M33.43,182c0,.91-.64,1.28-1.43.83a3.16,3.16,0,0,1-1.43-2.47c0-.91.64-1.28,1.43-.83A3.16,3.16,0,0,1,33.43,182Z"/><path class="cls-6" d="M243.63,28.72l-21.14-12.2a1.09,1.09,0,0,0-1.09-.09h0l-2.05,1.18,1.44.53V33.52a4.06,4.06,0,0,0,1.7,3.25L242.7,48.44v1.8l2.07-1.19h0a1.51,1.51,0,0,0,.57-1.36V32A4.09,4.09,0,0,0,243.63,28.72Z"/><path class="cls-1" d="M241.54,50.18,220.41,38a4.1,4.1,0,0,1-1.71-3.25V19c0-1.25.77-1.83,1.71-1.29l21.13,12.21a4.06,4.06,0,0,1,1.71,3.25V48.9C243.25,50.15,242.48,50.72,241.54,50.18Z"/><path class="cls-5" d="M227.51,32.56c0,.91-.63,1.28-1.42.82a3.14,3.14,0,0,1-1.43-2.47c0-.91.64-1.28,1.43-.82A3.13,3.13,0,0,1,227.51,32.56Z"/><path class="cls-5" d="M231.83,35.05c0,.91-.63,1.28-1.42.83A3.16,3.16,0,0,1,229,33.41c0-.91.64-1.28,1.43-.83A3.16,3.16,0,0,1,231.83,35.05Z"/><path class="cls-5" d="M236.16,37.55c0,.91-.64,1.28-1.43.82a3.14,3.14,0,0,1-1.43-2.47c0-.91.64-1.28,1.43-.82A3.14,3.14,0,0,1,236.16,37.55Z"/><polygon class="cls-1" points="241.76 293.03 254.18 285.86 266.58 293.03 254.18 300.19 241.76 293.03"/><polygon class="cls-1" points="268.11 277.62 280.52 270.45 292.93 277.62 280.52 284.78 268.11 277.62"/><polygon class="cls-1" points="294.37 262.57 306.78 255.41 319.19 262.57 306.78 269.74 294.37 262.57"/><polygon class="cls-9" points="280.52 277.62 280.52 239.4 268.11 232.24 268.11 270.45 280.52 277.62"/><polygon class="cls-16" points="280.52 239.4 292.93 232.24 292.93 270.45 280.52 277.62 280.52 239.4"/><polygon class="cls-13" points="280.52 277.62 280.52 239.4 268.11 232.24 268.11 270.45 280.52 277.62"/><polygon class="cls-13" points="254.18 293.03 254.18 271.53 241.76 264.37 241.76 285.86 254.18 293.03"/><polygon class="cls-16" points="254.18 271.53 266.58 264.37 266.58 285.86 254.18 293.03 254.18 271.53"/><polygon class="cls-13" points="241.76 264.37 254.18 257.2 266.58 264.37 254.18 271.53 241.76 264.37"/><polygon class="cls-13" points="306.78 262.57 306.78 210.03 294.37 202.86 294.37 255.41 306.78 262.57"/><polygon class="cls-16" points="306.78 210.03 319.19 202.86 319.19 255.41 306.78 262.57 306.78 210.03"/><polygon class="cls-13" points="294.37 202.86 306.78 195.69 319.19 202.86 306.78 210.03 294.37 202.86"/><polygon class="cls-13" points="268.11 232.24 280.52 225.07 292.93 232.24 280.52 239.4 268.11 232.24"/><line class="cls-17" x1="60.27" y1="176.58" x2="59.98" y2="176.29"/></g></g></svg>