<svg xmlns="http://www.w3.org/2000/svg" xmlns:xlink="http://www.w3.org/1999/xlink" viewBox="0 0 150.83 139.38"><defs><style>.cls-1{fill:none;}.cls-2{fill:#c8c8c8;}.cls-3{isolation:isolate;}.cls-4{opacity:0.3;}.cls-4,.cls-5{mix-blend-mode:lighten;}.cls-5{fill:url(#Nueva_muestra_de_motivo_1);}.cls-6{fill:url(#New_Gradient_Swatch_copy);}.cls-7{fill:url(#New_Gradient_Swatch_copy_3);}.cls-8{fill:url(#linear-gradient);}.cls-9{fill:url(#New_Gradient_Swatch_copy-2);}.cls-10{fill:url(#New_Gradient_Swatch_copy_3-2);}</style><pattern id="Nueva_muestra_de_motivo_1" data-name="Nueva muestra de motivo 1" width="2.76" height="2.76" patternTransform="translate(1.86 3.27) scale(0.76)" patternUnits="userSpaceOnUse" viewBox="0 0 2.76 2.76"><rect class="cls-1" width="2.76" height="2.76"/><circle class="cls-2" cx="1.38" cy="1.38" r="0.89"/></pattern><linearGradient id="New_Gradient_Swatch_copy" x1="22.43" y1="98.68" x2="73.02" y2="98.68" gradientUnits="userSpaceOnUse"><stop offset="0" stop-color="#4a9ad4"/><stop offset="0.48" stop-color="#4676ba"/><stop offset="1" stop-color="#3d56a5"/></linearGradient><linearGradient id="New_Gradient_Swatch_copy_3" x1="24.99" y1="75.18" x2="47.26" y2="95.32" gradientUnits="userSpaceOnUse"><stop offset="0" stop-color="#ff7352"/><stop offset="1" stop-color="#f6975d"/></linearGradient><linearGradient id="linear-gradient" x1="50.48" y1="115.36" x2="77.54" y2="128.4" gradientUnits="userSpaceOnUse"><stop offset="0.03" stop-color="#ff7352"/><stop offset="1" stop-color="#f6975d"/></linearGradient><linearGradient id="New_Gradient_Swatch_copy-2" x1="88.75" y1="115.18" x2="104.37" y2="115.18" xlink:href="#New_Gradient_Swatch_copy"/><linearGradient id="New_Gradient_Swatch_copy_3-2" x1="32.79" y1="28.97" x2="28.43" y2="43.97" xlink:href="#New_Gradient_Swatch_copy_3"/></defs><title>dataAsset 3</title><g class="cls-3"><g id="Layer_2" data-name="Layer 2"><g id="OBJECTS"><g class="cls-4"><path class="cls-5" d="M3.24,97.66h0A11.06,11.06,0,0,1,3.24,82L59.18,26.08a11.07,11.07,0,0,1,15.65,0h0a11.06,11.06,0,0,1,0,15.64L18.88,97.66A11.06,11.06,0,0,1,3.24,97.66Z"/><path class="cls-2" d="M3.24,122h0a11.06,11.06,0,0,1,0-15.64L59.18,50.45a11.07,11.07,0,0,1,15.65,0h0a11.06,11.06,0,0,1,0,15.64L18.88,122A11.06,11.06,0,0,1,3.24,122Z"/><path class="cls-5" d="M32.56,122.75h0a11.06,11.06,0,0,1,0-15.64l56-55.94a11.06,11.06,0,0,1,15.64,0h0a11.06,11.06,0,0,1,0,15.64L48.21,122.75A11.07,11.07,0,0,1,32.56,122.75Z"/><path class="cls-2" d="M50.36,137.28h0a7.17,7.17,0,0,1,0-10.14L86.61,90.89a7.16,7.16,0,0,1,10.13,0h0a7.17,7.17,0,0,1,0,10.14L60.49,137.28A7.16,7.16,0,0,1,50.36,137.28Z"/><path class="cls-5" d="M87.07,123.38h0a7.17,7.17,0,0,1,0-10.14L123.32,77a7.17,7.17,0,0,1,10.14,0h0a7.17,7.17,0,0,1,0,10.14L97.21,123.38A7.17,7.17,0,0,1,87.07,123.38Z"/><path class="cls-2" d="M125.55,109.36h0a3.74,3.74,0,0,1,0-5.29l18.9-18.9a3.73,3.73,0,0,1,5.28,0h0a3.73,3.73,0,0,1,0,5.28l-18.9,18.91A3.73,3.73,0,0,1,125.55,109.36Z"/><path class="cls-2" d="M126.33,126.1h0a2.82,2.82,0,0,1,0-4L140.51,108a2.8,2.8,0,0,1,4,0h0a2.79,2.79,0,0,1,0,4L130.3,126.1A2.82,2.82,0,0,1,126.33,126.1Z"/><path class="cls-2" d="M27,44.84h0a2.81,2.81,0,0,1,0-4L41.14,26.69a2.81,2.81,0,0,1,4,0h0a2.8,2.8,0,0,1,0,4L30.92,44.84A2.8,2.8,0,0,1,27,44.84Z"/><path class="cls-5" d="M24.87,28.14h0a4.16,4.16,0,0,1,0-5.88l21-21a4.15,4.15,0,0,1,5.88,0h0a4.16,4.16,0,0,1,0,5.88l-21,21A4.16,4.16,0,0,1,24.87,28.14Z"/></g><path class="cls-6" d="M24.53,121.87h0a7.16,7.16,0,0,1,0-10.13L60.78,75.49a7.17,7.17,0,0,1,10.14,0h0a7.16,7.16,0,0,1,0,10.13L34.67,121.87A7.17,7.17,0,0,1,24.53,121.87Z"/><path class="cls-7" d="M19.48,96.42h0a4.26,4.26,0,0,1,0-6L41,68.88a4.24,4.24,0,0,1,6,0h0a4.25,4.25,0,0,1,0,6L25.5,96.42A4.26,4.26,0,0,1,19.48,96.42Z"/><path class="cls-8" d="M38.4,129.94h0a4.26,4.26,0,0,1,0-6L59.93,102.4a4.26,4.26,0,0,1,6,0h0a4.26,4.26,0,0,1,0,6L44.42,129.94A4.26,4.26,0,0,1,38.4,129.94Z"/><path class="cls-9" d="M89.39,122.35h0a2.22,2.22,0,0,1,0-3.13l11.2-11.2a2.22,2.22,0,0,1,3.13,0h0a2.22,2.22,0,0,1,0,3.13l-11.2,11.2A2.22,2.22,0,0,1,89.39,122.35Z"/><path class="cls-10" d="M26.23,34h0a2.22,2.22,0,0,1,0-3.13l11.19-11.2a2.22,2.22,0,0,1,3.13,0h0a2.2,2.2,0,0,1,0,3.13L29.36,34A2.22,2.22,0,0,1,26.23,34Z"/></g></g></g></svg>