<svg xmlns="http://www.w3.org/2000/svg" xmlns:xlink="http://www.w3.org/1999/xlink" viewBox="0 0 188.26 173.96"><defs><style>.cls-1{fill:none;}.cls-2{fill:#c8c8c8;}.cls-3{fill:url(#Nueva_muestra_de_motivo_1);}.cls-4{fill:url(#New_Gradient_Swatch_copy);}.cls-5{fill:url(#New_Gradient_Swatch_copy-2);}.cls-6{fill:url(#New_Gradient_Swatch_copy_3);}.cls-7{fill:url(#New_Gradient_Swatch_copy_3-2);}</style><pattern id="Nueva_muestra_de_motivo_1" data-name="Nueva muestra de motivo 1" width="2.76" height="2.76" patternTransform="translate(1.01 1.27) scale(0.95)" patternUnits="userSpaceOnUse" viewBox="0 0 2.76 2.76"><rect class="cls-1" width="2.76" height="2.76"/><circle class="cls-2" cx="1.38" cy="1.38" r="0.89"/></pattern><linearGradient id="New_Gradient_Swatch_copy" x1="66.71" y1="125.82" x2="110.1" y2="79.96" gradientUnits="userSpaceOnUse"><stop offset="0" stop-color="#4a9ad4"/><stop offset="0.48" stop-color="#4676ba"/><stop offset="1" stop-color="#3d56a5"/></linearGradient><linearGradient id="New_Gradient_Swatch_copy-2" x1="18.01" y1="96.83" x2="55.5" y2="96.83" xlink:href="#New_Gradient_Swatch_copy"/><linearGradient id="New_Gradient_Swatch_copy_3" x1="100.11" y1="127.29" x2="130.67" y2="149" gradientUnits="userSpaceOnUse"><stop offset="0" stop-color="#ff7352"/><stop offset="1" stop-color="#f6975d"/></linearGradient><linearGradient id="New_Gradient_Swatch_copy_3-2" x1="37.81" y1="28.77" x2="50.09" y2="43.91" xlink:href="#New_Gradient_Swatch_copy_3"/></defs><title>dataAsset 2</title><g id="Layer_2" data-name="Layer 2"><g id="OBJECTS"><path class="cls-3" d="M4,121.89H4a13.8,13.8,0,0,1,0-19.52L73.87,32.55a13.79,13.79,0,0,1,19.52,0h0a13.8,13.8,0,0,1,0,19.52L23.57,121.89A13.8,13.8,0,0,1,4,121.89Z"/><path class="cls-2" d="M4,152.31H4a13.8,13.8,0,0,1,0-19.52L73.87,63a13.79,13.79,0,0,1,19.52,0h0a13.8,13.8,0,0,1,0,19.52L23.57,152.31A13.8,13.8,0,0,1,4,152.31Z"/><path class="cls-3" d="M38.21,154.19h0a13.82,13.82,0,0,1,0-19.53L108,64.84a13.82,13.82,0,0,1,19.53,0h0a13.8,13.8,0,0,1,0,19.52L57.73,154.19A13.8,13.8,0,0,1,38.21,154.19Z"/><path class="cls-2" d="M62.85,171.34h0a9,9,0,0,1,0-12.65l45.25-45.24a8.93,8.93,0,0,1,12.65,0h0a9,9,0,0,1,0,12.65L75.5,171.34A8.93,8.93,0,0,1,62.85,171.34Z"/><path class="cls-3" d="M107.31,156.37h0a9,9,0,0,1,0-12.66l45.25-45.24a9,9,0,0,1,12.65,0h0a9,9,0,0,1,0,12.65L120,156.37A9,9,0,0,1,107.31,156.37Z"/><path class="cls-2" d="M156.7,136.49h0a4.67,4.67,0,0,1,0-6.6l23.59-23.59a4.67,4.67,0,0,1,6.6,0h0a4.67,4.67,0,0,1,0,6.6L163.3,136.49A4.67,4.67,0,0,1,156.7,136.49Z"/><path class="cls-2" d="M157.19,158h0a3.49,3.49,0,0,1,0-5l17.7-17.7a3.49,3.49,0,0,1,5,0h0a3.49,3.49,0,0,1,0,4.95L162.14,158A3.49,3.49,0,0,1,157.19,158Z"/><path class="cls-2" d="M33.64,56h0a3.49,3.49,0,0,1,0-4.95l17.7-17.7a3.49,3.49,0,0,1,4.95,0h0a3.49,3.49,0,0,1,0,5L38.59,56A3.49,3.49,0,0,1,33.64,56Z"/><path class="cls-3" d="M31,35.12h0a5.18,5.18,0,0,1,0-7.34L57.3,1.52a5.18,5.18,0,0,1,7.34,0h0a5.18,5.18,0,0,1,0,7.34L38.38,35.12A5.18,5.18,0,0,1,31,35.12Z"/><path class="cls-4" d="M37.58,155h0a9,9,0,0,1,0-12.65L82.82,97.07a8.94,8.94,0,0,1,12.66,0h0a9,9,0,0,1,0,12.65L50.23,155A8.93,8.93,0,0,1,37.58,155Z"/><path class="cls-5" d="M19.57,114h0a5.31,5.31,0,0,1,0-7.52L46.43,79.64a5.32,5.32,0,0,1,7.51,0h0a5.3,5.3,0,0,1,0,7.51L27.08,114A5.32,5.32,0,0,1,19.57,114Z"/><path class="cls-6" d="M95.38,153.33h0a5.32,5.32,0,0,1,0-7.51L122.24,119a5.33,5.33,0,0,1,7.52,0h0a5.32,5.32,0,0,1,0,7.51l-26.87,26.87A5.32,5.32,0,0,1,95.38,153.33Z"/><path class="cls-7" d="M32.74,42.48h0a2.75,2.75,0,0,1,0-3.9l14-14a2.78,2.78,0,0,1,3.91,0h0a2.76,2.76,0,0,1,0,3.91l-14,14A2.76,2.76,0,0,1,32.74,42.48Z"/></g></g></svg>