<svg xmlns="http://www.w3.org/2000/svg" xmlns:xlink="http://www.w3.org/1999/xlink" viewBox="0 0 342.41 308.27"><defs><style>.cls-1{fill:#d4ecff;}.cls-2{fill:#1e2a53;}.cls-3{fill:#5793ce;}.cls-4{fill:#396caa;}.cls-5{fill:url(#Áåçûìÿííûé_ãðàäèåíò_242);}.cls-6{fill:#eaeaea;}.cls-7{fill:#173d7a;}.cls-8{fill:#fdd762;}.cls-9{fill:#6376b7;}.cls-10{fill:#ffc2b0;}.cls-11,.cls-22{fill:#fff;}.cls-12{fill:#ea9c92;}.cls-13{fill:#3c54a5;}.cls-14{fill:#274f89;}.cls-15{fill:#e8a200;}.cls-16{fill:#f9bf30;}.cls-17{fill:#2d3f7c;}.cls-18{fill:#d3008d;}.cls-19{fill:#ededed;}.cls-20{fill:#e9f6ff;}.cls-21{fill:#aedeed;}.cls-22{opacity:0.4;}.cls-23{fill:#b2d3ea;}.cls-24{fill:#d8892b;}</style><radialGradient id="Áåçûìÿííûé_ãðàäèåíò_242" cx="231.79" cy="124.57" r="46.8" gradientUnits="userSpaceOnUse"><stop offset="0" stop-color="#01c8ef"/><stop offset="0.09" stop-color="#03bee9"/><stop offset="0.24" stop-color="#08a5d7"/><stop offset="0.43" stop-color="#107bbb"/><stop offset="0.45" stop-color="#1177b8"/><stop offset="1" stop-color="#112564"/></radialGradient></defs><title>dataAsset 1growth</title><g id="Layer_2" data-name="Layer 2"><g id="Ñëîé_1" data-name="Ñëîé 1"><path class="cls-1" d="M257.67,273.53l-.51-.86,14.93-8.76a5.86,5.86,0,0,1,6,0l12.34,7.37-.51.86-12.34-7.37a4.85,4.85,0,0,0-4.95,0Z"/><path class="cls-1" d="M302.09,271.11l-.51-.86,38.74-22.89a1.18,1.18,0,0,0,.59-1,1.2,1.2,0,0,0-.59-1l-12.86-7.9.53-.85,12.85,7.89a2.21,2.21,0,0,1,1.07,1.9,2.17,2.17,0,0,1-1.09,1.89Z"/><path class="cls-1" d="M259.91,239.59l-.5-.87L297.16,217a1.24,1.24,0,0,0,.63-1.08,1.27,1.27,0,0,0-.63-1.08l-20-11.47a8.87,8.87,0,0,1-4.43-7.66V130a8.21,8.21,0,0,1,3.59-6.8l3-2,.56.83-3,2a7.21,7.21,0,0,0-3.15,6v65.73a7.83,7.83,0,0,0,3.93,6.79l20,11.48a2.24,2.24,0,0,1,1.13,1.94,2.22,2.22,0,0,1-1.13,1.95Z"/><path class="cls-2" d="M257.41,260.34a1,1,0,0,1-.5-1.86l14.93-8.75a6.33,6.33,0,0,1,6.48,0l12.34,7.37a1,1,0,0,1-1,1.72l-12.34-7.38a4.38,4.38,0,0,0-4.44,0l-14.93,8.76A1,1,0,0,1,257.41,260.34Z"/><path class="cls-1" d="M236.24,307.14l-83.07-48c-2.89-1.67-2.53-4.58.8-6.51h0c3.34-1.92,8.38-2.13,11.27-.46l83.08,48c2.89,1.67,2.52,4.58-.81,6.51h0C244.17,308.6,239.13,308.81,236.24,307.14Z"/><path class="cls-1" d="M315.7,180.24a15.72,15.72,0,0,0-2-1h0l-3.82-1.69.29.66a24.7,24.7,0,0,0-8.95-.09l.18-.74-4.49,2h0a15.37,15.37,0,0,0-1.68.82c-5.63,3.25-5.63,8.52,0,11.77s14.77,3.25,20.4,0S321.33,183.49,315.7,180.24Z"/><path class="cls-3" d="M310.28,183.31a10.59,10.59,0,0,1-9.56,0c-2.64-1.53-2.64-4,0-5.52a10.56,10.56,0,0,1,9.56,0C312.92,179.31,312.92,181.78,310.28,183.31Z"/><path class="cls-3" d="M305.5,181.6h0a2.3,2.3,0,0,1-2.3-2.3v-29h4.6v29A2.3,2.3,0,0,1,305.5,181.6Z"/><path class="cls-3" d="M307.12,151.31a3.66,3.66,0,0,1-3.32,0,1,1,0,0,1,0-1.91,3.66,3.66,0,0,1,3.32,0A1,1,0,0,1,307.12,151.31Z"/><path class="cls-1" d="M305.5,151.26h0a1.87,1.87,0,0,1-1.86-1.87v-27.3h3.72v27.3A1.87,1.87,0,0,1,305.5,151.26Z"/><path class="cls-4" d="M332.28,136.4v-1.07l1.51-.22,1.69-1.26a1.12,1.12,0,0,1,1.12,0l1.24.72,1.24-.18v1.08h0a.41.41,0,0,1-.28.33l-3.94,1.75a1.23,1.23,0,0,1-1,0l-1.31-.75a.39.39,0,0,1-.22-.32Z"/><path class="cls-3" d="M332.44,135l3-2.27a1.14,1.14,0,0,1,1.12,0l2.26,1.31c.32.18.29.48-.07.64l-3.94,1.75a1.23,1.23,0,0,1-1,0l-1.31-.76C332.23,135.48,332.2,135.22,332.44,135Z"/><path class="cls-1" d="M327.32,140.2a2.44,2.44,0,0,0,1.21-.3l4.72-2.73a.53.53,0,0,0,.2-.74.54.54,0,0,0-.74-.2L328,139a1.57,1.57,0,0,1-1.34,0l-7.85-4.55a.55.55,0,0,0-.55,1l7.85,4.54A2.48,2.48,0,0,0,327.32,140.2Z"/><polygon class="cls-5" points="281.92 130.21 289.5 125.81 285.26 123.89 281.62 126.47 281.92 130.21"/><path class="cls-3" d="M330.6,123.67a11.32,11.32,0,0,1-1.27-.79L313.18,111c-2.92-2.14-5.92-2.69-8.25-1.51l-.17.1h0l-22.32,12.94,2,.67,7.81,3.54,10.63,7.54,8.39,4.46.38.08c2-1.65,4.15-3.07,5.35-5.47,2.08-3.63,7.86-4.67,11.26-7.62.34.22.69.42,1,.6A7.56,7.56,0,0,0,330.6,123.67Z"/><path class="cls-4" d="M337.69,118.33a1.46,1.46,0,0,0-.91.32h0l-21.83,12.64.8,3.26.82-.39c-1.25,2-3.17,3.23-4.91,4.7l2.47.52,21.38-12.44.3-.13a6.31,6.31,0,0,0,.82-.52l0,0h0c1.63-1.25,2.55-3.44,2.55-6.17v-.26A1.5,1.5,0,0,0,337.69,118.33Z"/><path class="cls-6" d="M307.79,108.92a9.12,9.12,0,0,1,4.29,1.39A9.12,9.12,0,0,0,307.79,108.92Z"/><path class="cls-3" d="M317.74,132.3v-.25a1.51,1.51,0,0,0-3,0v.25c0,2-.63,3.48-1.75,4s-3.16.16-5.11-1.26l-16.15-11.84c-2.49-1.82-5-2.48-7.17-1.91l13.34-7.74-15.46,9,2,.67,7.81,3.54,10.63,7.54,8.39,4.45.38.09c2-1.65,4.15-3.07,5.35-5.47a6,6,0,0,1,.73-1S317.74,132.33,317.74,132.3Z"/><path class="cls-1" d="M311.26,140.11a9.8,9.8,0,0,1-5.62-2.11l-16.16-11.84c-1.94-1.43-3.85-1.89-5.11-1.26s-1.75,2-1.75,4a1.5,1.5,0,1,1-3,0c0-3.17,1.24-5.62,3.4-6.71,2.32-1.18,5.32-.63,8.24,1.51l16.15,11.84c1.95,1.42,3.86,1.89,5.11,1.25s1.75-2,1.75-4v-.26a1.5,1.5,0,1,1,3,0v.26c0,3.18-1.23,5.62-3.39,6.72A5.8,5.8,0,0,1,311.26,140.11Z"/><path class="cls-7" d="M298.57,166.58s-3.05-1.53-4.91.75S289.12,175,289,178.65s2.89,3.4,4.65,2.54,6.92-8.34,7.23-9.8a5.07,5.07,0,0,0-.87-3.83C299.55,167.17,298.57,166.58,298.57,166.58Z"/><path class="cls-3" d="M299.23,165.85l.14,3.15a1.79,1.79,0,0,1-.89,1.64,3.51,3.51,0,0,1-2.35.36c-2.29-.36-2.49-1-2.66-4.17S299.23,165.85,299.23,165.85Z"/><path class="cls-7" d="M287.43,160.52s-3-1.53-4.91.75S278,169,277.9,172.59s2.88,3.4,4.64,2.54,6.92-8.34,7.23-9.8a5.1,5.1,0,0,0-.86-3.83C288.41,161.11,287.43,160.52,287.43,160.52Z"/><path class="cls-3" d="M288.09,159.79l.14,3.15a1.77,1.77,0,0,1-.89,1.64,3.49,3.49,0,0,1-2.34.36c-2.3-.37-2.5-1-2.66-4.17S288.09,159.79,288.09,159.79Z"/><path class="cls-8" d="M315.24,101.91c-.9-14.65-15.87,2.16-15.87,2.16l-10.24,10-9.22,10.13a9.11,9.11,0,0,0-2.3,7.31L281.35,160a2.78,2.78,0,0,0,2.8,2.43,9.31,9.31,0,0,0,1.38-.12,3.46,3.46,0,0,0,3.08-3.68L287.93,132l19.37-11.68S316.14,116.57,315.24,101.91Z"/><path class="cls-8" d="M326.38,107.5c-.9-14.66-15.87,2.15-15.87,2.15l-10.24,10L291,129.83a9.09,9.09,0,0,0-2.29,7.3l3.73,28.42a2.8,2.8,0,0,0,2.8,2.42,9.43,9.43,0,0,0,1.39-.12,3.47,3.47,0,0,0,3.08-3.68l-.68-26.58,19.37-11.68S327.28,122.15,326.38,107.5Z"/><path class="cls-9" d="M317.52,60.46c11.35,4.71,11.12,11.41,11.12,11.41s-2.22,24.6-1.46,41c.32,6.86-36.48,7.39-31-10.93,6.47-21.59,4.05-39.08,7.07-41.72S314.59,59.25,317.52,60.46Z"/><ellipse class="cls-10" cx="315.51" cy="64.95" rx="4.31" ry="5.85" transform="translate(173.91 354.28) rotate(-75.56)"/><path class="cls-11" d="M316.37,69.91a8.21,8.21,0,0,1-2.07-.26,7.57,7.57,0,0,1-4-2.44,4.35,4.35,0,0,1-1-3.86c.67-2.59,4-4,7.41-3.1a7.61,7.61,0,0,1,4,2.44A4.11,4.11,0,0,1,319,69.44,7.13,7.13,0,0,1,316.37,69.91Zm-1.73-8.84c-2.11,0-3.87,1-4.27,2.56a3.23,3.23,0,0,0,.79,2.89,6.86,6.86,0,0,0,7.39,1.91,3.29,3.29,0,0,0,2.1-2.15h0a3.26,3.26,0,0,0-.8-2.89,6.4,6.4,0,0,0-3.4-2.08A7.74,7.74,0,0,0,314.64,61.07Z"/><path class="cls-10" d="M313,60a30.14,30.14,0,0,1-.1,4c-.07,1.13,3.89,2.19,4.92,1.16s.61-2.08.86-5.93S313,60,313,60Z"/><path class="cls-12" d="M318.66,59.23s-1,3.57-5.78,4.94l.07-3.25Z"/><path class="cls-10" d="M321.7,50.17a8.73,8.73,0,1,1-10.64-6.27A8.73,8.73,0,0,1,321.7,50.17Z"/><path class="cls-12" d="M315.25,52.67s-4.81,2.06-8.14,2.09-2.6-2.77-2.6-2.77l9.89-1.43Z"/><path class="cls-8" d="M306.12,53.22s4.19-1.78,7.86-1a3.81,3.81,0,0,1,2.22,1.32,1.32,1.32,0,0,0,.68.49c.65.14,1.71-2.56,3-2.62s2.11.83,1.07,2.5-.68,3.52-.21,3.79,5.55-3.62,1.08-12.48S306,41.1,304.2,42.89c0,0-1.86,1.62-3.37.18C300.83,43.07,299.13,55.78,306.12,53.22Z"/><path class="cls-10" d="M322.28,89.84v6.65a2.73,2.73,0,0,1-.88,2l-13.65,12.44,1.55,2.37,18-13.07a3.68,3.68,0,0,0,1.5-2.58L330,86.06Z"/><path class="cls-9" d="M327.68,68.55s4.15,6.23,5.69,22.62c0,0-7.08,2.29-11.09,1S327.68,68.55,327.68,68.55Z"/><path class="cls-13" d="M321.52,76.43a115,115,0,0,0-1.71,12.75,2.62,2.62,0,0,0,1.71,2.52h0Z"/><path class="cls-7" d="M318,119.57l-3-.4-19.47-11.24a2.71,2.71,0,0,0-2.44.1l-13.8,8-1.82-.24v1.82h0a.71.71,0,0,0,.42.64L299.92,131a2.71,2.71,0,0,0,2.44-.1l15-8.67a1,1,0,0,0,.59-.82h0Z"/><path class="cls-4" d="M303.35,112.47l-1.39-.8H286.75l-7.5,4.32-1.82-.24v1.82h0a.71.71,0,0,0,.42.64L299.92,131a2.3,2.3,0,0,0,1.26.24Z"/><path class="cls-3" d="M278.24,115.86l-.81-.11v1.82h0a.71.71,0,0,0,.42.64l.39.22Z"/><path class="cls-14" d="M300.14,131.06a2.87,2.87,0,0,0,2.07-.13v-3.09h-2.07Z"/><path class="cls-11" d="M299.92,129.14l-22.07-12.75c-.63-.36-.55-1,.17-1.4l15-8.68a2.74,2.74,0,0,1,2.44-.1L317.56,119c.62.36.55,1-.17,1.4l-15,8.68A2.74,2.74,0,0,1,299.92,129.14Z"/><path class="cls-1" d="M299.55,127.21l-18.36-10.6c-.51-.3-.45-.82.15-1.17l8.05-4.53a2.28,2.28,0,0,1,2-.08l18.35,10.59c.52.3.46.83-.14,1.17l-8.06,4.53A2.23,2.23,0,0,1,299.55,127.21Z"/><path class="cls-10" d="M293.91,105.9l-.23,1.52a11.11,11.11,0,0,0,.1,3.9l.27,1.35a1.89,1.89,0,0,0,1.51,1.48h0a1,1,0,0,0,1.22-.91l.37-3.26s.83,1.1,1.23,1.1-.45-3.26-1.36-5.11S293.91,105.9,293.91,105.9Z"/><path class="cls-10" d="M301.39,81.69,299,86.38a9.22,9.22,0,0,0-1,3.56l-1,16-3.11-.07-1.42-18a7.11,7.11,0,0,1,.08-1.66l1.62-9.13Z"/><path class="cls-7" d="M299.17,130.36,297.32,128l-19.46-11.27a2.72,2.72,0,0,1-1.13-2.16l0-15.94-1.12-1.46,1.05-.61h0a.72.72,0,0,1,.77,0l22.05,12.77a2.69,2.69,0,0,1,1.13,2.16l0,17.35a1,1,0,0,1-.41.93h0Z"/><path class="cls-4" d="M285.71,121.23l-1.38-.81-7.59-13.18V98.58l-1.12-1.46,1.05-.61h0a.72.72,0,0,1,.77,0l22.05,12.77a2.23,2.23,0,0,1,.83,1Z"/><path class="cls-3" d="M276.13,97.77l-.5-.65,1.05-.61h0a.72.72,0,0,1,.77,0l.38.22Z"/><path class="cls-14" d="M299.7,109.47a2.82,2.82,0,0,1,.92,1.86l-2.15,1.24-1-1.79Z"/><path class="cls-3" d="M298.45,109.94,276.4,97.17c-.63-.36-1.13,0-1.14.85v17.35a2.67,2.67,0,0,0,1.12,2.16l22.06,12.77c.62.37,1.13,0,1.13-.85l0-17.35A2.69,2.69,0,0,0,298.45,109.94Z"/><path class="cls-10" d="M309.3,113.3l-.36.74a4.83,4.83,0,0,1-1.84,2l-2.19,1.35a2.19,2.19,0,0,1-2.24,0l-.07,0a1.32,1.32,0,0,1-.19-2l2.29-2.35s-1.29,1-1.65.59,1.25-1.71,2.41-1.76a4.65,4.65,0,0,0,2.29-1Z"/><path class="cls-9" d="M303.49,60.21s-8.39,9.13-11.78,17.51a17.14,17.14,0,0,0,9.9,7.2C308.63,87,303.49,60.21,303.49,60.21Z"/><path class="cls-13" d="M300,84.38l1.36-13.14-3.21,12.31A18.69,18.69,0,0,0,300,84.38Z"/><path class="cls-11" d="M309.78,58.37l-2.26-.62a5.45,5.45,0,0,0,2.65,2.12c1.57.44,1.82-.9,1.82-.9Z"/><path class="cls-13" d="M251.28,53.05,161.77,1.36c-2.94-1.7-5.61-1.74-7.63-.47v0L142.9,7.38l7.53,1.4c0,.39,0,.77,0,1.18V221.09c0,8.38,5.09,18.12,11.38,21.74l88.26,51-2.52,7.82,11-6.37h0c2.55-1.31,4.18-4.6,4.18-9.33V74.79C262.67,66.41,257.57,56.68,251.28,53.05Z"/><polygon class="cls-1" points="335.42 234.29 321.98 226.53 308.54 234.29 321.98 242.05 335.42 234.29"/><polygon class="cls-15" points="321.98 234.85 321.98 226.1 338.04 216.83 338.04 225.58 321.98 234.85"/><polygon class="cls-16" points="321.98 226.1 305.92 216.83 305.92 225.58 321.98 234.85 321.98 226.1"/><polygon class="cls-8" points="338.04 216.83 321.98 207.56 305.92 216.83 321.98 226.1 338.04 216.83"/><path class="cls-11" d="M282.32,115.84c0,1.38-1,1.94-2.16,1.25a4.77,4.77,0,0,1-2.15-3.74c0-1.37,1-1.93,2.15-1.24A4.78,4.78,0,0,1,282.32,115.84Z"/><path class="cls-2" d="M259.66,233.42a1,1,0,0,1-.86-.5,1,1,0,0,1,.36-1.36l37.75-21.74a.72.72,0,0,0,.38-.64.74.74,0,0,0-.38-.65l-20-11.47a9.37,9.37,0,0,1-4.68-8.1V123.23a8.71,8.71,0,0,1,3.81-7.21l3-2a1,1,0,0,1,1.13,1.65l-3,2a6.73,6.73,0,0,0-2.94,5.56V189a7.35,7.35,0,0,0,3.68,6.36l20,11.47a2.75,2.75,0,0,1,0,4.77l-37.75,21.73A1,1,0,0,1,259.66,233.42Z"/><path class="cls-17" d="M150.39,221.09c0,8.38,5.09,18.12,11.38,21.74l88.26,51-2.52,7.82,11-6.37h0c2.55-1.31,4.18-4.6,4.18-9.33V74.79a28.28,28.28,0,0,0-3.62-13.15L150.39,124.37Z"/><path class="cls-13" d="M240,301.07l-89.51-51.69c-6.29-3.63-11.38-13.37-11.38-21.75V16.5c0-8.38,5.09-12.23,11.38-8.6L240,59.59c6.29,3.63,11.38,13.36,11.38,21.75V292.46C251.37,300.84,246.28,304.7,240,301.07Z"/><polygon class="cls-18" points="153.9 74.03 146.97 69.26 144.26 60.38 141.55 66.13 139.09 64.98 139.09 69.87 139.88 71.11 139.09 74.64 139.09 78 144.26 77.31 150.22 84.98 148.64 76.17 153.9 74.03"/><path class="cls-11" d="M238.32,294.08l-86-49.67c-4.67-2.7-8.46-9.94-8.46-16.17V20.12c0-6.23,3.79-9.1,8.46-6.4l86,49.67c4.68,2.7,8.46,9.93,8.46,16.16V287.68C246.78,293.91,243,296.77,238.32,294.08Z"/><path class="cls-19" d="M203.14,230.16l-42.22-24.38V103.15l19.89,11.48a44.65,44.65,0,0,1,22.33,38.67Z"/><path class="cls-1" d="M145.82,93.22h0c-4.26-2.54-10.18-2.23-16.72,1.55-13,7.47-23.48,25.71-23.48,40.66v10.79h0l.45.26,42.29,24.88.64-12.91.53-5,2.24-7.78.26-1.19,4.81-9.7,3.79-4.73,3.07-3.66,7.48-5.89.66-.49,3.68-1.58,4.95-1.29h3.85l4.32.76Z"/><path class="cls-1" d="M151.22,193l1.37-.79V143.05a9.78,9.78,0,0,0-1.37,3.47Z"/><polygon class="cls-1" points="193.96 217.61 151.22 192.98 151.66 146.46 153.29 141.76 158.24 133.25 164.09 126.31 169.37 122.09 175.07 118.62 185.42 117.44 190.9 120.54 193.96 125.22 194.92 132.41 194.59 210.18 193.96 217.61"/><path class="cls-3" d="M145.83,93.23c-3.57-2.13-8.29-2.24-13.57,0l43.55,25.14,4.67-1.21h3.85l4.32.76L145.82,93.22Z"/><path class="cls-20" d="M133.28,92.81a27.35,27.35,0,0,0-4.17,2c-1,.55-1.89,1.16-2.82,1.82l43.42,25.07,1.48-1.17.66-.49,3.68-1.58,1.47-.38Z"/><path class="cls-11" d="M164.08,126.1l5.9-4.65-43.4-25.06a42.59,42.59,0,0,0-5.64,4.8Z"/><path class="cls-3" d="M195.33,216.82l-1.37.79V133.75C194,119.67,184,114,171.85,121s-22.11,24.21-22.11,38.28v11.31l-1.37.79v-11.3c0-14.95,10.53-33.19,23.48-40.67S195.33,118,195.33,133Z"/><polygon class="cls-21" points="118.6 127.42 116.19 137.26 117.39 153.15 114.34 151.35 110.44 142.72 113.86 131.8 118.6 127.42"/><path class="cls-22" d="M188.53,190.36a1.66,1.66,0,0,1-.8-.23l-31.08-17.95a3.79,3.79,0,0,1-1.64-3.07V144.65a1.71,1.71,0,0,1,.73-1.55,1.38,1.38,0,0,1,1.41.07l31.08,18a3.82,3.82,0,0,1,1.63,3.07v24.46a1.69,1.69,0,0,1-.73,1.55A1.15,1.15,0,0,1,188.53,190.36Zm-32.18-46.42a.2.2,0,0,0-.11,0c-.1.06-.23.27-.23.68v24.46a2.81,2.81,0,0,0,1.14,2.21l31.08,17.94c.08.05.28.14.4.08s.23-.28.23-.69V164.19a2.8,2.8,0,0,0-1.13-2.2l-31.08-18A.76.76,0,0,0,156.35,143.94Z"/><path class="cls-23" d="M166.3,173.18l-.22-.13a3.5,3.5,0,0,1-1.47-2.8V158.6c0-1.08.66-1.58,1.47-1.11l.22.12a3.53,3.53,0,0,1,1.46,2.81v11.65C167.76,173.15,167.11,173.65,166.3,173.18Z"/><path class="cls-23" d="M172.55,176.79l-.22-.13a3.51,3.51,0,0,1-1.47-2.8V167c0-1.08.66-1.58,1.47-1.11l.22.13a3.49,3.49,0,0,1,1.46,2.8v6.82C174,176.76,173.36,177.26,172.55,176.79Z"/><path class="cls-4" d="M178.8,180.4l-.22-.13a3.51,3.51,0,0,1-1.47-2.8V161.23c0-1.08.66-1.57,1.47-1.11l.22.13a3.51,3.51,0,0,1,1.47,2.8v16.24C180.27,180.37,179.61,180.87,178.8,180.4Z"/><ellipse class="cls-1" cx="128.74" cy="290.21" rx="26.74" ry="15.44"/><path class="cls-7" d="M112.36,282a5.1,5.1,0,0,0-2.88,5.11,8.45,8.45,0,0,0,.42,2.49c.59,1.25,2.53,3,5.63,1.73s10-7.7,10.25-11.93C126.26,271.55,117.26,279.93,112.36,282Z"/><path class="cls-7" d="M130.58,295s-.75,4.53-.39,5.36,2.52,2.61,5.71,2.23,12.36-3.55,14.41-9.6c3.16-9.37-17.71.71-17.71.71Z"/><path class="cls-8" d="M139.54,222.52l.71,70.81a5,5,0,0,1-3.86,4.91c-.27.05-.55.08-.86.11a4.42,4.42,0,0,1-4.21-1.74,5.17,5.17,0,0,1-.94-2.86l-.91-30.23-4.51-27-6.25,47.84a4.11,4.11,0,0,1-1.71,3.15,4.73,4.73,0,0,1-2.85.77,5.2,5.2,0,0,1-3.78-1.86,3.82,3.82,0,0,1-.91-2.56L111.94,255l.92-36.71Z"/><path class="cls-10" d="M130.37,159.13l-1.12,6.45a3,3,0,0,0,2.42,2.81c2.45.61,3.21-1,3.21-1l1.12-7.27Z"/><path class="cls-10" d="M143.92,155.59c-1.75,5.53-7.15,8.74-12.07,7.17s-7.48-7.32-5.74-12.85,7.15-8.74,12.06-7.17S145.66,150.07,143.92,155.59Z"/><path class="cls-13" d="M130.66,165.7c-.17-.07-10.43-6.68-14.22.24-6.18,11.27-1.66,24.19-3.87,52.25-.37,4.7,6.32,7.56,9.48,9.37a19,19,0,0,0,9.21,2.62c3.2,0,9.35-2.83,9.13-7-1-19.28.67-35.52,2.25-51.29C142.64,171.87,140.67,169.75,130.66,165.7Z"/><path class="cls-24" d="M125,236.49l-6.25,47.84a4.13,4.13,0,0,1-1.71,3.15,3.85,3.85,0,0,1-.53.3c1.29-1,5.08-41.12,5.78-45.59S125,236.49,125,236.49Z"/><polygon class="cls-10" points="163.93 171.54 172.52 154.49 169.82 152.79 160.92 165.78 163.93 171.54"/><polygon class="cls-10" points="107.27 153.44 111.45 134.43 114.78 134.46 113.53 150.23 107.27 153.44"/><path class="cls-13" d="M142.64,171.87s9.61,3.79,17.86-6.62a1.58,1.58,0,0,1,2.65.17c.74,1.71,1.67,4.28.55,6.71-5,10.7-22,10.33-26.12,16.33S142.64,171.87,142.64,171.87Z"/><path class="cls-13" d="M124.15,163.33s-7.93.61-9.07-6.26a53.36,53.36,0,0,1-.8-6.86,1.37,1.37,0,0,0-1.55-1.34c-1.9.23-4.84.8-5.24,2.07-.6,1.9-1.72,11.23,6.12,25.53C118.74,185.84,124.15,163.33,124.15,163.33Z"/><path class="cls-10" d="M111.43,134.47l.08-2.16a4.5,4.5,0,0,1,.65-2.17l2.2-3.61.57-.72a1.65,1.65,0,0,1,2.19-.37l.51.31a2.11,2.11,0,0,1,1,1.89l-1.14,3.09,1.44-.28a.51.51,0,0,1,.6.41h0a.51.51,0,0,1-.32.56l-2.34,1-2.13,3Z"/><path class="cls-10" d="M172.58,154.6l1-1.92a4.44,4.44,0,0,0,.5-2.2l-.12-4.23-.15-.91a1.66,1.66,0,0,0-1.72-1.41l-.6,0a2.06,2.06,0,0,0-1.77,1.16l-.54,3.24-1.11-1a.51.51,0,0,0-.72.06h0a.51.51,0,0,0,0,.65l1.57,2,.41,4.13Z"/><path class="cls-17" d="M136.37,186.31c-.83,3.81,4.2,32.53-1.39,43,2.79-1.14,5.56-3.35,5.41-6.19a261.87,261.87,0,0,1,.94-37.64c4.78-2.42,12.26-3.87,17.54-7.74C153.2,179.87,137.12,182.92,136.37,186.31Z"/><path class="cls-11" d="M127,163.88l1.43-1.47s2.34,2.4,4.22,2.81a21.3,21.3,0,0,0,3.38.7l.91,2.53S129.45,167.91,127,163.88Z"/><path class="cls-7" d="M137.23,155.77a1.23,1.23,0,0,0,1-.51c.39-.57.14-3.16,1.34-3.59,1.88-.67,6.33,1.68,6.8-5.09.25-3.51-1.46-4.45-1.45-6.38,0,0,.14,1-8.91.37s-12,7.43-12.21,11.26,1.64,10.13,7.83,11c1,.14,5.33-3.32,5.22-3.78s-1.74-.42-1.5-1.75A1.7,1.7,0,0,1,137.23,155.77Z"/><path class="cls-19" d="M183.66,74,156.31,58.23a5.25,5.25,0,0,1-2.2-4.2V33.69c0-1.62,1-2.36,2.2-1.66l27.35,15.79a5.27,5.27,0,0,1,2.2,4.2V72.36C185.86,74,184.87,74.72,183.66,74Z"/><path class="cls-17" d="M181,41.76,153.6,26a1.4,1.4,0,0,0-1.41-.11v0l-2.65,1.53,1.86.68V48a5.27,5.27,0,0,0,2.2,4.2l26.14,15.1V69.6l2.68-1.54h0a1.94,1.94,0,0,0,.74-1.75V46A5.25,5.25,0,0,0,181,41.76Z"/><path class="cls-13" d="M178.25,69.52,150.9,53.73a5.27,5.27,0,0,1-2.2-4.2V29.19c0-1.62,1-2.36,2.2-1.66l27.35,15.79a5.25,5.25,0,0,1,2.2,4.2V67.86C180.45,69.48,179.47,70.22,178.25,69.52Z"/><path class="cls-17" d="M178.25,43.32,150.9,27.53a1.29,1.29,0,0,0-1.7.11,1.71,1.71,0,0,1,1,.25l27.35,15.79a5.27,5.27,0,0,1,2.2,4.2V68.22a2.21,2.21,0,0,1-.5,1.55c.73-.06,1.23-.76,1.23-1.91V47.52A5.25,5.25,0,0,0,178.25,43.32Z"/><path class="cls-11" d="M160.1,46.72c0,1.18-.83,1.66-1.85,1.07a4.08,4.08,0,0,1-1.84-3.2c0-1.17.82-1.65,1.84-1.06A4.08,4.08,0,0,1,160.1,46.72Z"/><path class="cls-11" d="M165.69,50c0,1.18-.83,1.65-1.85,1.07a4.08,4.08,0,0,1-1.84-3.2c0-1.18.82-1.65,1.84-1.07A4.09,4.09,0,0,1,165.69,50Z"/><path class="cls-11" d="M171.28,53.18c0,1.17-.83,1.65-1.85,1.06a4.06,4.06,0,0,1-1.84-3.19c0-1.18.82-1.66,1.84-1.07A4.09,4.09,0,0,1,171.28,53.18Z"/><path class="cls-19" d="M238.08,181.37l-27.35-15.79a5.31,5.31,0,0,1-2.2-4.21V115.61c0-1.62,1-2.37,2.2-1.67l27.35,15.79a5.27,5.27,0,0,1,2.2,4.21V179.7C240.28,181.32,239.3,182.07,238.08,181.37Z"/><path class="cls-3" d="M235.37,123.67,208,107.89a1.4,1.4,0,0,0-1.42-.12v0L204,109.29l1.87.68v45.34a5.25,5.25,0,0,0,2.2,4.21l26.14,15.09V177l2.68-1.55h0a2,2,0,0,0,.75-1.75V127.88A5.29,5.29,0,0,0,235.37,123.67Z"/><path class="cls-1" d="M232.67,176.87l-27.35-15.79a5.31,5.31,0,0,1-2.2-4.21V111.11c0-1.62,1-2.37,2.2-1.67l27.35,15.79a5.27,5.27,0,0,1,2.2,4.21V175.2C234.87,176.82,233.89,177.57,232.67,176.87Z"/><path class="cls-11" d="M232.67,125.23l-27.35-15.79a1.29,1.29,0,0,0-1.7.12,1.62,1.62,0,0,1,1,.24l27.35,15.79a5.28,5.28,0,0,1,2.2,4.21v45.76a2.19,2.19,0,0,1-.5,1.55c.73-.06,1.23-.75,1.23-1.91V129.44A5.27,5.27,0,0,0,232.67,125.23Z"/><path class="cls-19" d="M238.08,243.2l-27.35-15.79a5.27,5.27,0,0,1-2.2-4.2V177.44c0-1.62,1-2.37,2.2-1.66l27.35,15.79a5.25,5.25,0,0,1,2.2,4.2v45.77C240.28,243.16,239.3,243.9,238.08,243.2Z"/><path class="cls-13" d="M235.37,185.51,208,169.72a1.39,1.39,0,0,0-1.42-.11v0L204,171.12l1.87.68v45.35a5.25,5.25,0,0,0,2.2,4.2l26.14,15.09v2.34l2.68-1.54h0a2,2,0,0,0,.75-1.75V189.71A5.25,5.25,0,0,0,235.37,185.51Z"/><path class="cls-9" d="M232.67,238.7l-27.35-15.79a5.27,5.27,0,0,1-2.2-4.2V172.94c0-1.62,1-2.37,2.2-1.66l27.35,15.79a5.25,5.25,0,0,1,2.2,4.2V237C234.87,238.66,233.89,239.4,232.67,238.7Z"/><path class="cls-11" d="M232.67,187.07l-27.35-15.79a1.29,1.29,0,0,0-1.7.11,1.64,1.64,0,0,1,1,.25l27.35,15.79a5.25,5.25,0,0,1,2.2,4.2V237.4a2.21,2.21,0,0,1-.5,1.55c.73-.06,1.23-.76,1.23-1.91V191.27A5.25,5.25,0,0,0,232.67,187.07Z"/><path class="cls-1" d="M54.55,263.08l24-13.54a4.61,4.61,0,0,1,4.14.21L98,258.8c1.22.72,1.34,1.79.27,2.39l-24,13.55a4.61,4.61,0,0,1-4.14-.22l-15.29-9C53.61,264.76,53.49,263.68,54.55,263.08Z"/><path class="cls-16" d="M73.91,267.93l27.51-15.51a1.38,1.38,0,0,0,.82-1.16v0l0-3.07-1.54,1.26L83.61,239.33a5.28,5.28,0,0,0-4.74-.24L52.57,253.9l-2-1.19,0,3.1h0a1.92,1.92,0,0,0,1.13,1.53l17.5,10.35A5.25,5.25,0,0,0,73.91,267.93Z"/><path class="cls-8" d="M51.39,251.47,78.9,236a5.28,5.28,0,0,1,4.74.24l17.51,10.36c1.39.82,1.53,2.05.31,2.74L74,264.81a5.25,5.25,0,0,1-4.74-.25L51.7,254.21C50.31,253.39,50.17,252.16,51.39,251.47Z"/><path class="cls-11" d="M74,264.81l27.51-15.5a1.32,1.32,0,0,0,.77-1.53,1.67,1.67,0,0,1-.71.71L74,264a5.28,5.28,0,0,1-4.74-.24L51.76,253.4a2.27,2.27,0,0,1-1.08-1.22c-.31.66,0,1.44,1,2l17.51,10.35A5.25,5.25,0,0,0,74,264.81Z"/><path class="cls-11" d="M80.25,247.45a1.12,1.12,0,0,1,0-2.13,4.07,4.07,0,0,1,3.69,0,1.12,1.12,0,0,1,0,2.13A4.07,4.07,0,0,1,80.25,247.45Z"/><path class="cls-11" d="M74.63,250.62a1.13,1.13,0,0,1,0-2.13,4.07,4.07,0,0,1,3.69,0,1.12,1.12,0,0,1,0,2.13A4.07,4.07,0,0,1,74.63,250.62Z"/><path class="cls-11" d="M69,253.79a1.12,1.12,0,0,1,0-2.13,4.07,4.07,0,0,1,3.69,0,1.13,1.13,0,0,1,0,2.13A4.1,4.1,0,0,1,69,253.79Z"/><ellipse class="cls-1" cx="31.59" cy="230.43" rx="19.23" ry="11.1"/><path class="cls-2" d="M20.72,96.19s.49,10.19,1.27,17S39.26,108,39.26,108v-7.8Z"/><path class="cls-7" d="M29.51,223c.24.62,4.52,5.83,8.79,7.13a9.89,9.89,0,0,0,3.93.54A1.3,1.3,0,0,0,43.28,229a16.22,16.22,0,0,0-8.2-9C27.83,216.34,29.51,223,29.51,223Z"/><path class="cls-7" d="M28.08,225A35.62,35.62,0,0,1,30.19,232c.3,1.93-.76,4.43-1.63,6.09a1.78,1.78,0,0,1-2.77.48,10.26,10.26,0,0,1-3.47-6.63c-.5-5.33,0-6.26,0-6.26Z"/><path class="cls-8" d="M17.78,160.63a100.84,100.84,0,0,0,0,14.15c.56,7.44,2.56,42.21,2.93,50.58,0,0-.19,2.53,4.71,2S29.93,224,29.93,224s6.89-.09,7.1-4.15,7.06-48.46,7.06-64.43Z"/><path class="cls-10" d="M46.63,125.87,50,131.1l11.59,14a2.6,2.6,0,0,1-1.84,1.64c-1.13.27-10.88-9-15.09-13.12a3.24,3.24,0,0,1-.45-4.11Z"/><path class="cls-17" d="M40.05,104.42s5.36-.13,7.23,7.61,3.32,17.44,1.7,18.25c-4.87,2.42-7.95-.41-7.95-.41Z"/><path class="cls-13" d="M41.66,104.75a4.44,4.44,0,0,0-2.9-.16c-4.56,1.32-21.73,6.35-24.56,8.77-3.27,2.8,4.9,18.49,4.79,23.64s-.7,11.22-1.16,16.81-1.07,8.67,3.51,11.05,12.39,2.48,18.24-2,4.79-7.51,4.55-10.75-2.24-17.23-2.07-21.2a15.12,15.12,0,0,0,3.59-4.12c1.53-2.6-1.17-7.39-2.29-10.5s.63-6.67.29-9.21A2.9,2.9,0,0,0,41.66,104.75Z"/><path class="cls-11" d="M36.17,110.11c.36,2.82-2.23,5.49-5.8,5.94s-6.74-1.46-7.1-4.29,2.23-5.49,5.79-6S35.81,107.28,36.17,110.11Z"/><path class="cls-10" d="M34.33,110.34c.26,2-1.6,3.92-4.14,4.25s-4.82-1-5.08-3.07,1.59-3.92,4.14-4.25S34.07,108.32,34.33,110.34Z"/><path class="cls-10" d="M31.8,103.71s-3.1-2.55-3.71-1.26S27,109.28,27,109.28l6.15,1.65-.93-5.61S33.43,104.28,31.8,103.71Z"/><circle class="cls-10" cx="32.24" cy="97.09" r="9.19" transform="translate(-66.41 124.2) rotate(-87)"/><path class="cls-12" d="M27.66,104.05c-.05.29-.11.6-.16.92.62,3.2,5.41,4.6,5.41,4.6l-.71-4.25s.58-.49.42-1C30.73,103.74,28.34,103.21,27.66,104.05Z"/><circle class="cls-10" cx="32.24" cy="97.09" r="9.19" transform="translate(-66.41 124.2) rotate(-87)"/><polygon class="cls-10" points="9.61 135.99 10.63 160.57 14.23 160.94 16.57 138.81 9.61 135.99"/><path class="cls-17" d="M21.42,133.93c-.2-.85-1.77-1.56-2-2.67a101.15,101.15,0,0,1-1.53-14.18l-1,11.54C18,132,19,135.18,19,137c-.07,3-.3,6.36-.57,9.74h0S22.61,139.18,21.42,133.93Z"/><path class="cls-13" d="M14.89,112.86s-2.87,1.1-4.5,9.92-2.85,17.68.06,18.82,5.32,2,6.17-.37S18,127.49,18.11,123.4,18.37,113.67,14.89,112.86Z"/><path class="cls-10" d="M60.74,144.08a7.62,7.62,0,0,1,2.68,1.8,16.84,16.84,0,0,1,1.84,2.46c.89,1.33,1.65,4.22,1.1,4.58s-3.67-4.84-4.17-3.63,0,2.33-.64,2.34-2.89-5.22-4.66-6.84S60.74,144.08,60.74,144.08Z"/><path class="cls-24" d="M29.93,224a14.07,14.07,0,0,0,2-.2h0l1.35-54Z"/><path class="cls-17" d="M24.73,194.76l-1.91-2.49L2.7,180.62a2.8,2.8,0,0,1-1.16-2.23V161.92L.4,160.41l1.08-.63h0a.72.72,0,0,1,.78.05L25.07,173a2.77,2.77,0,0,1,1.16,2.23v17.93a1,1,0,0,1-.43,1h0Z"/><path class="cls-17" d="M10.82,185.32l-1.43-.83L1.55,170.87v-9L.4,160.41l1.08-.63h0a.72.72,0,0,1,.78.05L25.07,173a2.31,2.31,0,0,1,.86,1Z"/><path class="cls-17" d="M.91,161.08l-.51-.67,1.08-.63h0a.72.72,0,0,1,.78.05l.41.23Z"/><path class="cls-17" d="M25.28,173.17a3,3,0,0,1,.95,1.92L24,176.38l-1.07-1.86Z"/><path class="cls-13" d="M24,173.65,1.19,160.46c-.65-.38-1.17,0-1.17.88l0,17.93a2.81,2.81,0,0,0,1.17,2.24L24,194.7c.65.38,1.17,0,1.17-.88l0-17.93A2.81,2.81,0,0,0,24,173.65Z"/><polygon class="cls-11" points="19.3 186.52 18.21 185.89 18.21 176.56 19.3 177.19 19.3 186.52"/><polygon class="cls-11" points="16.76 185.05 15.68 184.43 15.68 175.1 16.76 175.73 16.76 185.05"/><polygon class="cls-11" points="14.23 183.59 13.14 182.96 13.14 173.63 14.23 174.26 14.23 183.59"/><path class="cls-10" d="M10.66,160.37a54.84,54.84,0,0,0-.8,7.58c.14,1.83,1.12,4.87,1.87,4.8s0-7.39,1.33-6.66,1.45,2,2,1.54-1-6.71-.6-9.42S10.66,160.37,10.66,160.37Z"/><path class="cls-12" d="M35.77,97.9c4.61,1.63,5.51.64,5.55.58,0-.28.08-.56.1-.84a9.23,9.23,0,0,0-.31-2.94l-12-1.61A13,13,0,0,0,35.77,97.9Z"/><path class="cls-17" d="M41.75,88.48c-1.09-.93-5-5.53-12-4.45-4.39.68-8.09,3.68-8.91,10.51A15.71,15.71,0,0,0,25.06,107a4.66,4.66,0,0,0,.5-.25c1.75-1.16,1.94-1.8,1.94-1.8l.39-3.49a1,1,0,0,0-.87-1,1.76,1.76,0,0,1-1.29-.79c-1-1.32-.54-3.37,1.47-3.45a1.55,1.55,0,0,0,1.62-1.15.83.83,0,0,1,1.07-.56c2.3.83,8,2.63,11.59,1.59C46.14,94.85,42.83,89.41,41.75,88.48Z"/><path class="cls-11" d="M36.51,102.05l2.81-.78a6.73,6.73,0,0,1-3.3,2.65c-2,.54-2.26-1.12-2.26-1.12Z"/><polygon class="cls-17" points="15.44 167.45 13.05 166.08 13.95 167.55 15.16 168 15.44 167.45"/><path class="cls-13" d="M68.3,171.37l27.45-15.62a1.39,1.39,0,0,0,.81-1.16h0l0-3.07-1.53,1.27L77.87,142.73a5.28,5.28,0,0,0-4.74-.22L46.9,157.44l-2-1.18,0,3.09h0A2,2,0,0,0,46,160.87l17.55,10.28A5.28,5.28,0,0,0,68.3,171.37Z"/><path class="cls-9" d="M45.71,155l27.45-15.62a5.28,5.28,0,0,1,4.74.23l17.54,10.27c1.4.82,1.55,2.05.33,2.74L68.32,168.25a5.25,5.25,0,0,1-4.74-.22L46,157.75C44.64,156.93,44.49,155.71,45.71,155Z"/><path class="cls-11" d="M68.32,168.25l27.45-15.62a1.29,1.29,0,0,0,.76-1.52,1.69,1.69,0,0,1-.7.71L68.38,167.44a5.28,5.28,0,0,1-4.74-.23L46.09,156.94A2.23,2.23,0,0,1,45,155.72c-.32.66,0,1.45,1,2L63.58,168A5.25,5.25,0,0,0,68.32,168.25Z"/><path class="cls-11" d="M74.56,150.87a1.12,1.12,0,0,1,0-2.13,4.1,4.1,0,0,1,3.69,0,1.13,1.13,0,0,1,0,2.13A4.1,4.1,0,0,1,74.56,150.87Z"/><path class="cls-11" d="M69,154.06a1.12,1.12,0,0,1,0-2.13,4.1,4.1,0,0,1,3.69,0,1.13,1.13,0,0,1,0,2.13A4,4,0,0,1,69,154.06Z"/><path class="cls-11" d="M63.34,157.25a1.12,1.12,0,0,1,0-2.13,4.07,4.07,0,0,1,3.69,0,1.13,1.13,0,0,1,0,2.13A4.07,4.07,0,0,1,63.34,157.25Z"/><path class="cls-18" d="M223,193.27c0,2.54-1.79,3.57-4,2.3a8.82,8.82,0,0,1-4-6.91c0-2.54,1.79-3.57,4-2.3A8.82,8.82,0,0,1,223,193.27Z"/><path class="cls-18" d="M224.65,200.46a.5.5,0,0,0,0-.12c-.17-1.07-1.18-2-1.85-1.77a4.54,4.54,0,0,1-3.78-.64,11.88,11.88,0,0,1-3.78-3.73c-.67-1-1.69-1.24-1.86-.37,0,0,0,.07,0,.1l-1.9,12,15.09,8.71Z"/><path class="cls-11" d="M223,193.27c0,2.54-1.79,3.57-4,2.3a8.82,8.82,0,0,1-4-6.91c0-2.54,1.79-3.57,4-2.3A8.82,8.82,0,0,1,223,193.27Z"/><path class="cls-11" d="M224.65,200.46a.5.5,0,0,0,0-.12c-.17-1.07-1.18-2-1.85-1.77a4.54,4.54,0,0,1-3.78-.64,11.88,11.88,0,0,1-3.78-3.73c-.67-1-1.69-1.24-1.86-.37,0,0,0,.07,0,.1l-1.9,12,15.09,8.71Z"/><polygon class="cls-11" points="227.61 223.81 209.29 213.23 209.29 211.91 227.61 222.49 227.61 223.81"/><polygon class="cls-11" points="222.08 226.38 209.29 219 209.29 217.68 222.08 225.06 222.08 226.38"/><polygon class="cls-11" points="220.35 222.5 209.29 216.11 209.29 214.79 220.35 221.18 220.35 222.5"/><polygon class="cls-11" points="227.61 226.69 222.08 223.5 222.08 222.18 227.61 225.37 227.61 226.69"/><polygon class="cls-3" points="227.66 135.57 209.33 124.99 209.33 123.67 227.66 134.25 227.66 135.57"/><polygon class="cls-3" points="222.12 138.14 209.33 130.76 209.33 129.44 222.12 136.82 222.12 138.14"/><polygon class="cls-3" points="220.4 134.26 209.33 127.87 209.33 126.55 220.4 132.94 220.4 134.26"/><polygon class="cls-3" points="227.66 138.45 222.12 135.26 222.12 133.94 227.66 137.13 227.66 138.45"/><polygon class="cls-3" points="227.66 146.71 209.33 136.13 209.33 134.81 227.66 145.39 227.66 146.71"/><polygon class="cls-3" points="222.12 149.29 209.33 141.9 209.33 140.58 222.12 147.97 222.12 149.29"/><polygon class="cls-3" points="220.4 145.41 209.33 139.02 209.33 137.7 220.4 144.09 220.4 145.41"/><polygon class="cls-3" points="227.66 149.59 222.12 146.4 222.12 145.08 227.66 148.28 227.66 149.59"/><polygon class="cls-3" points="227.66 157.85 209.33 147.28 209.33 145.96 227.66 156.53 227.66 157.85"/><polygon class="cls-3" points="222.12 160.43 209.33 153.04 209.33 151.72 222.12 159.11 222.12 160.43"/><polygon class="cls-3" points="220.4 156.55 209.33 150.16 209.33 148.84 220.4 155.23 220.4 156.55"/><polygon class="cls-3" points="227.66 160.74 222.12 157.54 222.12 156.22 227.66 159.42 227.66 160.74"/><polygon class="cls-11" points="169.92 189.11 156.85 181.56 156.85 180.34 169.92 187.89 169.92 189.11"/><polygon class="cls-11" points="178.02 193.79 172.44 190.56 172.44 189.34 178.02 192.57 178.02 193.79"/><polygon class="cls-11" points="170.37 192.03 164.79 188.8 164.79 187.58 170.37 190.81 170.37 192.03"/><polygon class="cls-11" points="182.46 199 172.44 193.22 172.44 192 182.46 197.78 182.46 199"/><polygon class="cls-11" points="189.31 205.62 174.5 197.06 174.5 195.84 189.31 204.4 189.31 205.62"/><polygon class="cls-11" points="186 198.4 180.42 195.17 180.42 193.95 186 197.18 186 198.4"/><polygon class="cls-11" points="162.43 187.44 156.85 184.22 156.85 183 162.43 186.22 162.43 187.44"/><polygon class="cls-11" points="172.1 195.68 156.82 186.86 156.82 185.64 172.1 194.46 172.1 195.68"/><polygon class="cls-11" points="166.22 194.94 157 189.62 157 188.4 166.22 193.72 166.22 194.94"/><path class="cls-8" d="M301.84,259.27a1,1,0,0,1-.51-1.86l38.73-22.89a.72.72,0,0,0,.35-.61.7.7,0,0,0-.34-.61L329.5,227a1,1,0,1,1,1-1.71l10.57,6.34a2.71,2.71,0,0,1,0,4.65l-38.73,22.89A1.06,1.06,0,0,1,301.84,259.27Z"/><polygon class="cls-1" points="309.41 276.8 295.97 269.04 282.52 276.8 295.97 284.56 309.41 276.8"/><polygon class="cls-2" points="295.97 277.36 295.97 268.62 312.03 259.34 312.03 268.09 295.97 277.36"/><polygon class="cls-2" points="295.97 268.62 279.9 259.34 279.9 268.09 295.97 277.36 295.97 268.62"/><polygon class="cls-17" points="312.03 259.34 295.97 250.07 279.9 259.34 295.97 268.62 312.03 259.34"/><polygon class="cls-19" points="166.34 73.02 169.05 81.9 175.98 86.67 170.72 88.81 172.3 97.62 166.34 89.95 160.39 90.74 161.97 83.75 156.71 75.54 163.64 78.77 166.34 73.02"/><polygon class="cls-19" points="188.43 85.66 191.14 94.54 198.06 99.31 192.81 101.45 194.38 110.26 188.43 102.59 182.47 103.39 184.05 96.39 178.79 88.18 185.72 91.41 188.43 85.66"/><polygon class="cls-19" points="153.9 74.03 146.97 69.26 144.26 60.38 143.85 61.25 143.85 77.37 144.26 77.31 150.22 84.98 148.64 76.17 153.9 74.03"/><polygon class="cls-15" points="95.44 29.26 98.15 38.14 105.08 42.91 99.82 45.05 101.4 53.86 95.44 46.2 89.49 46.99 91.06 39.99 85.81 31.78 92.74 35.01 95.44 29.26"/><path class="cls-16" d="M82.58,33.64l3.23-1.86,5,2.33s0,3.36,0,3.44a17.48,17.48,0,0,1-2.2.18C88.46,37.73,82.58,33.64,82.58,33.64Z"/><path class="cls-15" d="M101.4,53.86l-3.23,1.86-1.58-8.81s1.57-1.66,1.56-1.66l1.76.3Z"/><polygon class="cls-8" points="92.21 31.12 94.92 40 101.85 44.76 96.59 46.91 98.17 55.72 92.21 48.05 86.26 48.84 87.83 41.85 82.58 33.64 89.5 36.87 92.21 31.12"/><path class="cls-11" d="M98.17,55.72l-1.58-8.81,5.26-2.15L94.92,40l-2.71-8.88L89.5,36.87l-6.92-3.23.48.75,6.68,3.12,2.38-5.06,2.39,7.85,6.33,4.36-4.79,2,1.48,8.29Z"/><polygon class="cls-15" points="92.21 31.12 95.44 29.26 98.15 38.14 94.92 40 92.21 31.12"/><polygon class="cls-16" points="105.08 42.91 101.85 44.76 94.92 40 98.15 38.14 105.08 42.91"/><polygon class="cls-11" points="95.08 40.22 94.59 39.94 98.08 37.9 98.15 38.14 98.38 38.3 95.08 40.22"/><polygon class="cls-15" points="117.53 41.9 120.23 50.78 127.16 55.55 121.91 57.69 123.48 66.5 117.53 58.84 111.57 59.63 113.15 52.63 107.89 44.42 114.82 47.66 117.53 41.9"/><path class="cls-16" d="M104.66,46.28l3.23-1.86,5,2.33s0,3.36,0,3.44a17.64,17.64,0,0,1-2.2.18C110.55,50.37,104.66,46.28,104.66,46.28Z"/><path class="cls-15" d="M123.48,66.5l-3.23,1.86-1.57-8.81,1.56-1.66,1.76.3Z"/><polygon class="cls-8" points="114.3 43.76 117 52.64 123.93 57.41 118.67 59.55 120.25 68.36 114.3 60.69 108.34 61.48 109.92 54.49 104.66 46.28 111.59 49.51 114.3 43.76"/><path class="cls-11" d="M120.25,68.36l-1.57-8.81,5.25-2.14L117,52.64l-2.7-8.88-2.71,5.75-6.93-3.23.48.75,6.68,3.12,2.38-5.06,2.39,7.85,6.34,4.36-4.8,2,1.49,8.3Z"/><polygon class="cls-15" points="114.3 43.76 117.53 41.9 120.23 50.78 117 52.64 114.3 43.76"/><polygon class="cls-16" points="127.16 55.55 123.93 57.41 117 52.64 120.23 50.78 127.16 55.55"/><polygon class="cls-11" points="117.16 52.86 116.67 52.58 120.16 50.54 120.23 50.78 120.47 50.94 117.16 52.86"/><polygon class="cls-15" points="139.61 54.54 142.32 63.42 149.25 68.19 143.99 70.33 145.57 79.14 139.61 71.48 133.66 72.27 135.23 65.28 129.98 57.06 136.91 60.3 139.61 54.54"/><path class="cls-16" d="M126.74,58.92,130,57.06l5,2.33s0,3.36,0,3.44a17.48,17.48,0,0,1-2.2.18C132.63,63,126.74,58.92,126.74,58.92Z"/><path class="cls-15" d="M145.57,79.14,142.33,81l-1.57-8.81s1.57-1.65,1.56-1.65l1.76.29Z"/><polygon class="cls-8" points="136.38 56.4 139.09 65.28 146.01 70.05 140.76 72.19 142.34 81 136.38 73.33 130.42 74.12 132 67.13 126.74 58.92 133.67 62.15 136.38 56.4"/><path class="cls-11" d="M142.33,81l-1.57-8.81L146,70.05l-6.93-4.77-2.71-8.88-2.71,5.75-6.93-3.23.49.75,6.67,3.12,2.38-5.06,2.4,7.85L145,69.94l-4.79,2,1.48,8.3Z"/><polygon class="cls-15" points="136.38 56.4 139.61 54.54 142.32 63.42 139.09 65.28 136.38 56.4"/><polygon class="cls-16" points="149.25 68.19 146.01 70.05 139.09 65.28 142.32 63.42 149.25 68.19"/><polygon class="cls-11" points="139.25 65.5 138.75 65.22 142.25 63.19 142.32 63.42 142.55 63.58 139.25 65.5"/><polygon class="cls-15" points="161.7 67.19 164.4 76.06 171.33 80.83 166.08 82.97 167.65 91.79 161.7 84.12 155.74 84.91 157.32 77.92 152.06 69.7 158.99 72.94 161.7 67.19"/><path class="cls-16" d="M148.83,71.56l3.23-1.85,5,2.32s0,3.36,0,3.44a17.31,17.31,0,0,1-2.19.18C154.72,75.65,148.83,71.56,148.83,71.56Z"/><path class="cls-15" d="M167.65,91.79l-3.23,1.85-1.58-8.81s1.57-1.65,1.56-1.65l1.77.3Z"/><polygon class="cls-8" points="158.46 69.04 161.17 77.92 168.1 82.69 162.84 84.83 164.42 93.64 158.46 85.98 152.51 86.77 154.08 79.77 148.83 71.56 155.76 74.79 158.46 69.04"/><path class="cls-11" d="M164.42,93.64l-1.58-8.81,5.26-2.14-6.93-4.77L158.46,69l-2.7,5.75-6.93-3.23.48.76L156,75.43l2.38-5.06,2.39,7.85,6.34,4.36-4.8,2,1.49,8.3Z"/><polygon class="cls-15" points="158.46 69.04 161.7 67.19 164.4 76.06 161.17 77.92 158.46 69.04"/><polygon class="cls-16" points="171.33 80.83 168.1 82.69 161.17 77.92 164.4 76.06 171.33 80.83"/><polygon class="cls-11" points="161.33 78.14 160.84 77.86 164.33 75.83 164.4 76.06 164.63 76.22 161.33 78.14"/><polygon class="cls-15" points="183.78 79.83 186.49 88.7 193.42 93.47 188.16 95.61 189.74 104.43 183.78 96.76 177.83 97.55 179.4 90.56 174.15 82.35 181.07 85.58 183.78 79.83"/><path class="cls-16" d="M170.91,84.2l3.24-1.85,5,2.33s0,3.35,0,3.43a17.48,17.48,0,0,1-2.2.18C176.8,88.29,170.91,84.2,170.91,84.2Z"/><path class="cls-15" d="M189.74,104.43l-3.24,1.85-1.57-8.81,1.56-1.65,1.76.3Z"/><polygon class="cls-8" points="180.55 81.68 183.25 90.56 190.18 95.33 184.93 97.47 186.5 106.28 180.55 98.62 174.59 99.41 176.17 92.41 170.91 84.2 177.84 87.44 180.55 81.68"/><path class="cls-11" d="M186.5,106.28l-1.57-8.81,5.25-2.14-6.93-4.77-2.7-8.88-2.71,5.75-6.93-3.23.49.76,6.67,3.11L180.45,83l2.39,7.85,6.34,4.36-4.79,2,1.48,8.3Z"/><polygon class="cls-15" points="180.55 81.68 183.78 79.83 186.49 88.7 183.25 90.56 180.55 81.68"/><polygon class="cls-16" points="193.42 93.47 190.18 95.33 183.25 90.56 186.49 88.7 193.42 93.47"/><polygon class="cls-11" points="183.42 90.78 182.92 90.5 186.42 88.47 186.49 88.7 186.72 88.86 183.42 90.78"/></g></g></svg>