<svg xmlns="http://www.w3.org/2000/svg" xmlns:xlink="http://www.w3.org/1999/xlink" viewBox="0 0 136.99 115.71"><defs><style>.cls-1{fill:#cfefff;}.cls-2{fill:url(#New_Gradient_Swatch_copy);}.cls-3{fill:url(#New_Gradient_Swatch_copy-2);}.cls-4{fill:url(#New_Gradient_Swatch_copy-3);}.cls-13,.cls-5{fill:none;}.cls-5{stroke-miterlimit:10;stroke:url(#Indigo);}.cls-6{fill:url(#Indigo-2);}.cls-7{fill:#ffc69a;}.cls-8{fill:#fff;}.cls-9{fill:url(#New_Gradient_Swatch_copy_2);}.cls-10{fill:url(#mindgrowth);}.cls-11{fill:#ffa320;}.cls-12{fill:url(#mindgrowth-2);}.cls-13{stroke:#007579;stroke-linecap:round;stroke-linejoin:round;stroke-width:0.25px;}.cls-14{fill:#3d56a5;}.cls-15{fill:#8e3d20;}.cls-16{fill:#ffb939;}.cls-17{fill:#ffb780;}.cls-18{opacity:0.1;}.cls-19{fill:url(#mindgrowth-3);}.cls-20{fill:url(#mindgrowth-4);}.cls-21{fill:url(#New_Gradient_Swatch_copy_2-2);}.cls-22{fill:url(#mindgrowth-5);}.cls-23{fill:url(#New_Gradient_Swatch_copy_2-3);}.cls-24{fill:url(#mindgrowth-6);}.cls-25{fill:#004b4e;}.cls-26{fill:url(#mindgrowth-7);}.cls-27{fill:url(#mindgrowth-8);}.cls-28{fill:#daa184;}.cls-29{fill:url(#mindgrowth-9);}.cls-30{fill:url(#New_Gradient_Swatch_copy_2-4);}.cls-31{fill:url(#mindgrowth-10);}.cls-32{fill:url(#New_Gradient_Swatch_copy_2-5);}.cls-33{opacity:0.36;}.cls-34{fill:url(#mindgrowth-11);}.cls-35{fill:url(#mindgrowth-12);}.cls-36{fill:url(#mindgrowth-13);}.cls-37{fill:url(#mindgrowth-14);}.cls-38{fill:url(#mindgrowth-15);}.cls-39{fill:url(#mindgrowth-16);}.cls-40{fill:url(#linear-gradient);}.cls-41{fill:#963815;}.cls-42{fill:url(#mindgrowth-17);}</style><linearGradient id="New_Gradient_Swatch_copy" x1="27.88" y1="109.71" x2="55.53" y2="109.71" gradientUnits="userSpaceOnUse"><stop offset="0" stop-color="#4a9ad4"/><stop offset="0.48" stop-color="#4676ba"/><stop offset="1" stop-color="#3d56a5"/></linearGradient><linearGradient id="New_Gradient_Swatch_copy-2" x1="65.83" y1="105.35" x2="93.48" y2="105.35" xlink:href="#New_Gradient_Swatch_copy"/><linearGradient id="New_Gradient_Swatch_copy-3" x1="103.97" y1="92.28" x2="131.62" y2="92.28" xlink:href="#New_Gradient_Swatch_copy"/><linearGradient id="Indigo" x1="28.1" y1="26.64" x2="125.49" y2="26.64" gradientUnits="userSpaceOnUse"><stop offset="0" stop-color="#5b57a5"/><stop offset="0.5" stop-color="#2e3092"/><stop offset="1" stop-color="#474374"/></linearGradient><linearGradient id="Indigo-2" x1="119.44" y1="9.06" x2="129.61" y2="9.06" xlink:href="#Indigo"/><linearGradient id="New_Gradient_Swatch_copy_2" x1="73.81" y1="74.39" x2="87.81" y2="74.39" gradientUnits="userSpaceOnUse"><stop offset="0.22" stop-color="#4a9ad4"/><stop offset="0.49" stop-color="#4676ba"/><stop offset="0.7" stop-color="#3d56a5"/></linearGradient><linearGradient id="mindgrowth" x1="73.5" y1="95.02" x2="78.43" y2="95.02" gradientUnits="userSpaceOnUse"><stop offset="0" stop-color="#faa543"/><stop offset="1" stop-color="#f36e25"/></linearGradient><linearGradient id="mindgrowth-2" x1="79.82" y1="94.94" x2="84.75" y2="94.94" xlink:href="#mindgrowth"/><linearGradient id="mindgrowth-3" x1="27.13" y1="65.48" x2="46.9" y2="65.48" xlink:href="#mindgrowth"/><linearGradient id="mindgrowth-4" x1="36.64" y1="103.5" x2="45.18" y2="103.5" xlink:href="#mindgrowth"/><linearGradient id="New_Gradient_Swatch_copy_2-2" x1="39.71" y1="83.01" x2="47.13" y2="83.01" xlink:href="#New_Gradient_Swatch_copy_2"/><linearGradient id="mindgrowth-5" x1="39.45" y1="103.85" x2="47.99" y2="103.85" xlink:href="#mindgrowth"/><linearGradient id="New_Gradient_Swatch_copy_2-3" x1="42.57" y1="83.11" x2="49.77" y2="83.11" xlink:href="#New_Gradient_Swatch_copy_2"/><linearGradient id="mindgrowth-6" x1="39.71" y1="66.51" x2="49.77" y2="66.51" xlink:href="#mindgrowth"/><linearGradient id="mindgrowth-7" x1="28.96" y1="65.65" x2="47.4" y2="65.65" xlink:href="#mindgrowth"/><linearGradient id="mindgrowth-8" x1="46.55" y1="103.81" x2="47.99" y2="103.81" xlink:href="#mindgrowth"/><linearGradient id="mindgrowth-9" x1="116.77" y1="68.98" x2="124.32" y2="68.98" xlink:href="#mindgrowth"/><linearGradient id="New_Gradient_Swatch_copy_2-4" x1="111.91" y1="52.05" x2="120.24" y2="52.05" xlink:href="#New_Gradient_Swatch_copy_2"/><linearGradient id="mindgrowth-10" x1="99.32" y1="67.34" x2="105.13" y2="67.34" xlink:href="#mindgrowth"/><linearGradient id="New_Gradient_Swatch_copy_2-5" x1="100.44" y1="50.95" x2="116.61" y2="50.95" xlink:href="#New_Gradient_Swatch_copy_2"/><linearGradient id="mindgrowth-11" x1="107.55" y1="37.12" x2="119.98" y2="37.12" xlink:href="#mindgrowth"/><linearGradient id="mindgrowth-12" x1="98.2" y1="65.71" x2="99.85" y2="65.71" xlink:href="#mindgrowth"/><linearGradient id="mindgrowth-13" x1="116.77" y1="69.19" x2="117.95" y2="69.19" xlink:href="#mindgrowth"/><linearGradient id="mindgrowth-14" x1="73.15" y1="40.19" x2="74.85" y2="31.36" xlink:href="#mindgrowth"/><linearGradient id="mindgrowth-15" x1="80.17" y1="34.85" x2="76.67" y2="42.41" xlink:href="#mindgrowth"/><linearGradient id="mindgrowth-16" x1="83.6" y1="44.46" x2="80.17" y2="40.81" xlink:href="#mindgrowth"/><linearGradient id="linear-gradient" x1="79.01" y1="42.42" x2="85.57" y2="36.6" xlink:href="#mindgrowth"/><linearGradient id="mindgrowth-17" x1="81.03" y1="54" x2="73.74" y2="68.7" xlink:href="#mindgrowth"/></defs><title>dataAsset 1</title><g id="Layer_2" data-name="Layer 2"><g id="OBJECTS"><path class="cls-1" d="M95.52.9A2.78,2.78,0,0,0,91.78.58c-.91.52-1.52,1.89-2.45,2.07-.78.15-1.27-.71-2.11-.49-.54.14-.42.6-1,.93-.9.5-1.6-.18-2.41.3-.5.3-.9,1-.74,1.32.26.56,1.78.18,4.13,0s1.78.18,5.21.2c4.3,0,4.21-.45,6.33-.1,1.21.2,2.14.5,2.41.1s-.19-1.48-1-1.87c-1-.46-1.6.45-3.14.3C96.27,3.32,96.74,2,95.52.9Z"/><path class="cls-1" d="M42.75,14.18c-3.3-3-5.87-1.41-7.23-.63-1.76,1-2.94,3.67-4.74,4-1.51.29-2.46-1.37-4.08-.95-1.05.27-.82,1.16-2,1.8-1.74,1-3.1-.36-4.65.57-1,.58-1.75,1.87-1.43,2.57.5,1.07,3.43.33,8,.09,4.31-.23,3.45.35,10.06.38,8.31,0,8.14-.87,12.25-.19,2.33.39,4.12,1,4.65.19s-.38-2.86-1.9-3.61c-1.85-.9-3.09.86-6.08.57C44.19,18.85,45.11,16.32,42.75,14.18Z"/><path class="cls-1" d="M130.72,45.12a3.07,3.07,0,0,0-4.12-.36c-1,.58-1.68,2.09-2.7,2.29-.86.16-1.4-.78-2.33-.54-.6.15-.47.66-1.14,1-1,.54-1.76-.21-2.65.32-.55.33-1,1.06-.81,1.46.28.62,2,.19,4.55.06s2,.2,5.74.21c4.74,0,4.64-.49,7-.1,1.34.22,2.36.55,2.66.1s-.22-1.63-1.09-2.05c-1.05-.52-1.76.48-3.46.32C131.55,47.79,132.07,46.34,130.72,45.12Z"/><path class="cls-1" d="M17.24,115.32C9.13,114-.14,109.05,0,104.15.13,99.49,8.73,95.43,13.73,94c6.37-1.89,9.09-.23,12.13-3,4-3.64,1.41-8.57,4.47-12.49,4.83-6.22,15.44.94,27.77-2,16.25-3.84,15.45-20.44,31-25C101,48,116,53.68,124.17,64.37c12.08,15.79,8.39,41.38-2.87,48.65-4.39,2.83-7.46,1.3-23-.66-28.65-3.6-43-5.4-57.78-1.31C31.61,113.52,26.33,116.85,17.24,115.32Z"/><rect class="cls-2" x="27.88" y="105.05" width="27.65" height="9.33"/><rect class="cls-3" x="65.83" y="96.32" width="27.65" height="18.05"/><rect class="cls-4" x="103.97" y="70.19" width="27.65" height="44.19"/><polyline class="cls-5" points="28.26 45.62 60.34 34.84 81.82 17.74 125.38 7.68"/><polygon class="cls-6" points="120.86 12.44 119.44 5.69 129.61 7.07 120.86 12.44"/><path class="cls-7" d="M71.61,26.88s-.09-4.35-.5-3.42a10.85,10.85,0,0,0-.58,1.59s-1.19-3-1.69-2.48a2,2,0,0,0-.4,2.26c.44,1.14,1,2.33,1,2.33Z"/><rect class="cls-8" x="69.77" y="25.81" width="1.46" height="3.27" transform="translate(88.47 -46.04) rotate(82.47)"/><path class="cls-7" d="M76.86,26.77S74.63,23,75.47,23.6a12.14,12.14,0,0,1,1.34,1s-.55-3.14.13-3a2,2,0,0,1,1.53,1.71c.23,1.19.41,2.48.41,2.48Z"/><rect class="cls-8" x="77.21" y="24.74" width="1.46" height="3.27" transform="matrix(0.37, 0.93, -0.93, 0.37, 73.51, -55.79)"/><path class="cls-9" d="M87.48,67.12a16.21,16.21,0,0,0-1.23-10.46c-3.66,2-10.86,1.57-10.86,1.57l-1,9.54-.56,10.57a58.5,58.5,0,0,0,2.73,13.79l2.81-.45a70.51,70.51,0,0,0-.44-13.55s1.41-5.69,2.19-8.63c.05-.19.88-.49.93-.66l-1.81,10S81,83.62,82.89,92l2.46-.36a42.92,42.92,0,0,0,0-13.38A31.5,31.5,0,0,0,87.48,67.12Z"/><polygon class="cls-7" points="76.54 92.13 77.07 93.86 79.03 93.71 79.03 91.76 76.54 92.13"/><path class="cls-10" d="M73.5,96.44s0-1.16,2.21-1.52c1.16-.19.56-1,.56-1l2.16-.66-2.05,3.62Z"/><path class="cls-11" d="M78.77,93.18c-1.45,0-1.34,1.24-1.56,2h0A3.63,3.63,0,0,1,74,96.5l2,.28a5,5,0,0,0,2-.13l1.22-.32c.71-.39,1.48-3.07-.34-3.15Z"/><path class="cls-11" d="M73.64,96.46l.35,0Z"/><polygon class="cls-7" points="82.89 92.04 83.39 93.78 85.36 93.63 85.35 91.68 82.89 92.04"/><path class="cls-12" d="M79.82,96.36s0-1.16,2.21-1.52c1.16-.19.57-1,.57-1l2.15-.66-2,3.62Z"/><path class="cls-11" d="M85.1,93.1c-1.46,0-1.35,1.24-1.57,2h0a3.6,3.6,0,0,1-3.21,1.3l2,.28a5,5,0,0,0,2-.13l1.22-.32c.71-.39,1.48-3.07-.34-3.15Z"/><path class="cls-11" d="M80,96.38l.36,0C79.88,96.36,79.66,96.34,80,96.38Z"/><path class="cls-13" d="M76.34,94.55s-1-.62-.8-.3a1.21,1.21,0,0,0,.79.36.73.73,0,0,0-.39.23.59.59,0,0,1-.54.11"/><path class="cls-13" d="M82.76,94.55s-1-.62-.81-.3a1.21,1.21,0,0,0,.79.36.77.77,0,0,0-.39.23.57.57,0,0,1-.53.11"/><rect class="cls-14" x="75.95" y="90.98" width="3.68" height="1.55" transform="translate(-9.48 8.96) rotate(-6.22)"/><rect class="cls-14" x="82.28" y="90.62" width="3.68" height="1.55" transform="translate(-9.4 9.65) rotate(-6.22)"/><path class="cls-8" d="M77.61,41.67l-.06,1.09a4.89,4.89,0,0,0,2.33.24,2,2,0,0,0,1.21-1.11l-.3-.81S80,42.35,77.61,41.67Z"/><path class="cls-15" d="M39.7,57c-.7-2.34-1.93-1.8-1.94-3.5s.4-3.74,1.36-4.61A4.61,4.61,0,0,1,43.78,48c3,1.08,3.57,6,3.62,6.38.44,3,2.39,2.63,3.68,5.11,1.64,3.13.34,7.73-1.35,9-2.23,1.72-9.19,3.29-10.57-.24-.43-1.12-1.24-2.1-.84-5.82C38.55,60.35,40.23,58.74,39.7,57Z"/><path class="cls-16" d="M45,58.75s-2-.11-4,3.68a52.82,52.82,0,0,1-3.59,5.9L27.88,62.5l-.75,2S36.21,73,38.74,72.15,50.92,58.76,45,58.75Z"/><path class="cls-17" d="M27.19,64.57S22.47,61.63,24.62,62c1,.18,1.88.81,2.18.48s-.42-.52-.61-1.15,2.12,1.41,2.12,1.41Z"/><g class="cls-18"><polygon points="30.34 65.2 34.45 68.33 30 66.76 30.34 65.2"/></g><path class="cls-19" d="M45,58.75s-2-.11-4,3.68a52.82,52.82,0,0,1-3.59,5.9L27.88,62.5l-.75,2S36.21,73,38.74,72.15,50.92,58.76,45,58.75Z"/><path class="cls-17" d="M27.19,64.57S22.47,61.63,24.62,62c1,.18,1.88.81,2.18.48s-.42-.52-.61-1.15,2.12,1.41,2.12,1.41Z"/><g class="cls-18"><polygon points="30.34 65.2 34.45 68.33 30 66.76 30.34 65.2"/></g><rect class="cls-8" x="27.35" y="62.31" width="1.04" height="2.97" transform="translate(29.04 -5.81) rotate(24.56)"/><g class="cls-18"><polygon points="40.09 64.1 39.84 69.01 42.57 67.7 40.09 64.1"/></g><path class="cls-20" d="M43,101.75s-4.21,2.82-5.66,3-.32.67,1.28.68a8.47,8.47,0,0,0,3.34-.72A8.92,8.92,0,0,0,44.82,103l0,0c.54-.51.44-1.44-.29-1.37Z"/><g class="cls-18"><path d="M38.59,105.39a8.47,8.47,0,0,0,3.34-.72A8.92,8.92,0,0,0,44.82,103l0,0a1.15,1.15,0,0,0,.28-.42c-1.1.58-4.91,2.53-6.15,2.65-.38,0-.58.1-.65.18Z"/></g><polygon class="cls-17" points="42.97 101.75 42.93 100.57 44.51 100.51 44.55 101.61 42.97 101.75"/><path class="cls-17" d="M43,101.75s-.82.53-2.61,1.62-.35.81.59.46a12.05,12.05,0,0,0,3.6-2.22Z"/><path class="cls-21" d="M41.21,64.83l5.51,4.84s1.74,2.92-1.94,15.92a32.57,32.57,0,0,1,0,15.41l-2.16.2s-1.79-13.58-2.38-15.67C39.53,83,39.25,76.16,41.21,64.83Z"/><path class="cls-22" d="M45.78,102.1s-4.21,2.82-5.66,3-.32.67,1.27.68a8.38,8.38,0,0,0,3.34-.72,8.71,8.71,0,0,0,2.89-1.67l0,0c.54-.51.44-1.44-.3-1.37Z"/><polygon class="cls-17" points="45.78 102.1 45.74 100.92 47.31 100.86 47.35 101.96 45.78 102.1"/><path class="cls-17" d="M45.78,102.1s-.82.53-2.61,1.62-.35.81.59.46A11.93,11.93,0,0,0,47.35,102Z"/><path class="cls-14" d="M43.92,85.5c-.62-2.42-.73-8.85,1.26-19.32L42.42,64c-1.41,11.42-.8,18.26,0,20.73.7,2.05,3.14,15.53,3.14,15.53l.18,0C45.43,97,44.36,87.25,43.92,85.5Z"/><path class="cls-23" d="M44.07,64.93l5.7,11.65a81.25,81.25,0,0,1-2.12,9.11,32.65,32.65,0,0,1,0,15.41l-2.15.19s-1.8-13.58-2.39-15.66C42.4,83.12,42.11,76.26,44.07,64.93Z"/><path class="cls-24" d="M41.85,57.17a2.27,2.27,0,0,1,1.41-1.6c1.52-.55,4.07-.67,4.89,4.27,1,6.19,1.62,16.74,1.62,16.74s-4.08,3-10.06-.81l1.11-8.56-.58-2.15a4.82,4.82,0,0,1,.18-3l1.23-3.13Z"/><g class="cls-18"><path d="M46.17,60.82s2,7.23-.67,9.33-4.63,1.33-4.63,1.33Z"/></g><polygon class="cls-8" points="43.09 54.97 41.24 57.64 41.98 58.45 43.67 55.19 43.09 54.97"/><path class="cls-17" d="M42.34,50.15h2.11l-.25,6c-1.34,2-1.66,1.94-1.66,1.94-.69.11-.34-1.65-.24-2.69Z"/><polygon class="cls-8" points="43.97 55.46 42.12 58.12 42.86 58.93 44.56 55.67 43.97 55.46"/><path class="cls-17" d="M38.91,51a5,5,0,0,0,2.22,4.56c1.64,1,3.21-.6,3.57-2.49.33-1.68-.2-3.72-1.6-4.52A2.81,2.81,0,0,0,38.91,51Z"/><path class="cls-15" d="M39.29,50.2s2.18-1.59,5.51,2.53c.72.9,1.17-6.6-4.52-4.4-2.35.92-1.5,4.54-1.5,4.54S37.72,50.93,39.29,50.2Z"/><g class="cls-18"><polygon points="42.14 56.37 43.58 55.46 42.23 55.84 42.14 56.37"/></g><path class="cls-15" d="M38.57,52.73s4.73.73,4.72-1c0-1.1,1.69-.69,1-1.13C37.22,45.9,38.57,52.73,38.57,52.73Z"/><rect class="cls-25" x="24.94" y="57.97" width="0.98" height="12.43" transform="translate(-41.49 47.22) rotate(-54.16)"/><polygon class="cls-8" points="30.55 65.15 30.75 67.42 20.68 60.15 23.87 60.33 30.55 65.15"/><path class="cls-26" d="M45.11,58.35s-2,.33-3.08,4.48a51.6,51.6,0,0,1-2.19,6.56l-10.6-3.55L29,68s10.76,6.27,13,4.84S50.87,57,45.11,58.35Z"/><path class="cls-17" d="M29,68s-5.26-1.8-3.08-1.91c1,0,2,.37,2.24,0s-.53-.41-.86-1,2.38.9,2.38.9Z"/><path class="cls-15" d="M44.31,50.58c-.63.24-.58,2.39-.6,3.6,0,.91.26,2.57,1.57,1.18a3.12,3.12,0,0,0,.85-3.3C45.76,51.17,44.83,50.37,44.31,50.58Z"/><path class="cls-17" d="M43.94,52.13c0,.4-.35.67-.67.59a.78.78,0,0,1-.5-.88.58.58,0,0,1,.67-.58A.79.79,0,0,1,43.94,52.13Z"/><path class="cls-8" d="M43.52,52.64a.46.46,0,0,0,.6.25.46.46,0,1,0-.6-.25Z"/><polygon class="cls-17" points="39.44 53.52 39.92 55.31 40.85 54.76 39.44 53.52"/><rect class="cls-8" x="28.88" y="65.73" width="1.04" height="2.97" transform="translate(30.6 -6.14) rotate(24.56)"/><polygon class="cls-27" points="47.99 102.56 47.99 105.06 46.55 105.06 46.55 103.89 47.99 102.56"/><rect class="cls-14" x="45.12" y="100.43" width="2.88" height="1.18"/><rect class="cls-14" x="42.3" y="100.27" width="2.88" height="1.18"/><path class="cls-7" d="M114.84,27.73s.5,1.37-1.75,3.61a19.62,19.62,0,0,1-4.86,3.47l6.55,6.4-.68.73s-8.58-5.06-8.49-7S113.58,23.56,114.84,27.73Z"/><path class="cls-28" d="M108.1,37.87c.71.58,1.51,1.15,2.28,1.69l1.31-.06,0-1.34-2.81-2.74Z"/><path class="cls-28" d="M111.13,27.84l-1.95,6.46a21.92,21.92,0,0,0,2.31-1.56l-.15-5.05Z"/><path class="cls-29" d="M118.61,67.63s3.87,2,5.12,1.94.34.54-1,.71a7.35,7.35,0,0,1-2.92-.28,7.5,7.5,0,0,1-2.63-1.13h0c-.51-.38-.52-1.18.11-1.2Z"/><polygon class="cls-7" points="118.61 67.63 118.52 66.61 117.18 66.72 117.25 67.66 118.61 67.63"/><path class="cls-7" d="M118.61,67.63s.75.36,2.38,1.11.39.65-.45.45a10.22,10.22,0,0,1-3.29-1.53Z"/><path class="cls-30" d="M116.35,37l-4.44,1.1s1.5,12,4.56,15.71c0,0-.11,11.18.71,13.2l1.35,0s1.38-11.3,1.66-13.06C120.54,51.83,119.08,47.69,116.35,37Z"/><path class="cls-7" d="M113.62,19.33a3.18,3.18,0,0,1,2.09,3.25,2.28,2.28,0,0,1-3.12,1.52,3.23,3.23,0,0,1-2.21-2.78A2.32,2.32,0,0,1,113.62,19.33Z"/><path class="cls-7" d="M112.73,21.31l-2.17.77,1.86,5.26a1.45,1.45,0,0,0,1.85.89h0a1.45,1.45,0,0,0,.82-2Z"/><path class="cls-15" d="M112.05,19.44s1.76,3.14-1.14,4.45c-2,.92-3-4.73-.07-5.41,4.18-.94,3.85,1.52,3.85,1.52A2.51,2.51,0,0,0,112.05,19.44Z"/><path class="cls-8" d="M111.38,23.78a.43.43,0,0,0,.6,0,.42.42,0,0,0-.6-.59A.42.42,0,0,0,111.38,23.78Z"/><polygon class="cls-28" points="114.31 24.62 112.47 24.19 114.11 24.18 114.31 24.62"/><path class="cls-15" d="M110.17,20.58a1.65,1.65,0,1,1-1.65-1.65A1.64,1.64,0,0,1,110.17,20.58Z"/><path class="cls-31" d="M101.29,65.32s2.31,3.68,3.39,4.3,0,.64-1.24.09A7.36,7.36,0,0,1,101.09,68a7.48,7.48,0,0,1-1.68-2.32v0c-.25-.59.16-1.29.71-1Z"/><polygon class="cls-7" points="101.29 65.32 102.25 64 100.53 63.81 100.11 64.65 101.29 65.32"/><path class="cls-7" d="M101.29,65.32s.45.7,1.48,2.18,0,.76-.63.16a10.29,10.29,0,0,1-2-3Z"/><path class="cls-32" d="M116.61,38.84l-6.29-1.72s-2.38,10.81-1.87,15.56c0,0-7,7.84-8,11.39l1.12.7s8.68-7.69,9.9-9C112.92,54.19,115.75,49,116.61,38.84Z"/><path class="cls-14" d="M119,47l-8.73-1.88s-.62.37-1.48.92a46.37,46.37,0,0,0-.39,4.84c7.39-1,10-3,10.67-3.61A2.68,2.68,0,0,0,119,47Z"/><g class="cls-33"><polygon points="117.59 43.74 110.55 46.45 108.94 44.31 117.59 43.74"/></g><polygon class="cls-8" points="116.4 31.81 118.22 43.69 111.69 44.23 113.2 29.86 116.4 31.81"/><path class="cls-34" d="M115.86,26.85a1.89,1.89,0,0,0-1.2-1.37c-1.3-.48-3.49-.58-4.2,3.65-.88,5.31-2.91,19.38-2.91,19.38S114.85,50.3,120,47L117.7,34.73,118,34a4.55,4.55,0,0,0-.34-4.36Z"/><path class="cls-7" d="M126.12,20.82a21.82,21.82,0,0,1,.39-4.23c.35-.86.45.79.45.79v3.39Z"/><path class="cls-7" d="M112.64,27.76s1.26-1.13,4.64.33a44.11,44.11,0,0,0,5.57,2.05l3.29-9,1.91,1.15S126.17,32.65,124,33.41,108.68,30.92,112.64,27.76Z"/><path class="cls-7" d="M128.05,22.29s1.16-2.4.34-3.43-1.93-.55-2-.25c0,.09-.08.27-.13.47a5.4,5.4,0,0,0-.12,1.79l0,.27Z"/><path class="cls-7" d="M114.39,19.84a3.58,3.58,0,0,0,1.41.63,1.29,1.29,0,0,1-.39.84Z"/><polygon class="cls-35" points="99.61 64.65 98.2 66.03 98.91 66.78 99.85 66.06 99.61 64.65"/><polygon class="cls-36" points="116.78 68.19 116.77 70.19 117.8 70.19 117.95 69 116.78 68.19"/><rect class="cls-14" x="100.16" y="63.69" width="2.04" height="0.93" transform="translate(55.31 -46.52) rotate(35.11)"/><rect class="cls-14" x="116.93" y="66.31" width="2.04" height="0.93" transform="translate(-2.97 5.54) rotate(-2.66)"/><polygon class="cls-8" points="115.98 26.52 114.88 24.67 111.45 25.11 111.71 26.15 115.98 26.52"/><path class="cls-7" d="M78.09,34.18a7,7,0,0,0-1.71,5c0,2,3.07,2.07,4.73,1a4.51,4.51,0,0,0,2.06-4.49C82.67,33.64,79.72,32.51,78.09,34.18Z"/><path class="cls-7" d="M77.45,35.08a4.19,4.19,0,0,1-1.38,1.07,1.48,1.48,0,0,0,.66.81Z"/><path class="cls-37" d="M78,47.24l-2.65-5.9-1.35-3-2.59-12-2.25.32,1.45,13.11L72,43.05l1.69,9.25c.42,1,2.25-2,3.26-2.46A2,2,0,0,0,78,47.24Z"/><rect class="cls-8" x="69.71" y="25.79" width="1.46" height="3.27" transform="matrix(0.13, 0.99, -0.99, 0.13, 88.4, -46)"/><polygon class="cls-38" points="80.75 37.81 76.63 26.26 78.71 25.34 84.39 37.24 84.97 40.73 81.19 41.07 80.75 37.81"/><path class="cls-39" d="M84.33,49.12A2,2,0,0,1,82,47.48l-.85-6.41L85,40.74l1.2,5.6A2.67,2.67,0,0,1,84.33,49.12Z"/><rect class="cls-8" x="77.16" y="24.72" width="1.46" height="3.27" transform="matrix(0.37, 0.93, -0.93, 0.37, 73.46, -55.75)"/><polygon class="cls-7" points="77.61 39.26 77.9 45.75 81.46 44.62 79.78 38.69 77.61 39.26"/><path class="cls-40" d="M82.49,42.41l-1.3-1.34a5.19,5.19,0,0,1-.87,1.56c-.36.48-2.08.18-2.56-.18-1.67-1.29-3.46-3-3.46-3l1.64,3.9-.89.19v.11l1.33,3.15s6.52-.53,6.52-.66.17-3.76.17-3.76Z"/><path class="cls-41" d="M78.56,31.68s-2.59,2.49,0,4.44c0,0,1,.69-.46,2.38a.94.94,0,0,0,0,1.2c.86,1,2.74,2.48,4.74-.63.92-1.45,1-3.14.27-4.14A5.05,5.05,0,0,0,80.55,33C79.51,32.67,79.45,32.21,78.56,31.68Z"/><path class="cls-7" d="M79.49,37.09a.83.83,0,1,1-1-.21A.76.76,0,0,1,79.49,37.09Z"/><path class="cls-42" d="M82.48,60.51l1.61,4a20.29,20.29,0,0,0,5.39-1.58L86,45.53s-11,.65-12.91-1.4l.52,20.47a40.08,40.08,0,0,0,8,.17Z"/></g></g></svg>