<svg xmlns="http://www.w3.org/2000/svg" xmlns:xlink="http://www.w3.org/1999/xlink" viewBox="0 0 300.18 85.87"><defs><style>.cls-1{fill:url(#linear-gradient);}</style><linearGradient id="linear-gradient" x1="122.17" y1="-105.96" x2="-57.29" y2="107.75" gradientTransform="translate(170.2 59.04) rotate(180)" gradientUnits="userSpaceOnUse"><stop offset="0.17" stop-color="#ffe900"/><stop offset="0.43" stop-color="#ffa938"/><stop offset="1" stop-color="#ff13bd"/></linearGradient></defs><title>dataAsset 4</title><g id="Layer_2" data-name="Layer 2"><g id="OBJECTS"><path class="cls-1" d="M141,25.83c30.84-6.94,39.31-19,58.3-13,16.54,5.19,18.8,17.07,36.54,18.71,15.5,1.43,22.87-6.79,35.24-1.31,7.28,3.23,11.11,8.9,15.66,15.67,4.45,6.58,11.87,19.84,13.49,40l-.39-77A8.83,8.83,0,0,0,291,0L0,1A215.1,215.1,0,0,0,50.9,21.48C67.91,25.89,101.77,34.66,141,25.83Z"/></g></g></svg>