<svg xmlns="http://www.w3.org/2000/svg" xmlns:xlink="http://www.w3.org/1999/xlink" viewBox="0 0 47.79 55.98"><defs><style>.cls-1{font-size:8.39px;fill:#f3782c;font-family:Aller-Bold, Aller;font-weight:700;}.cls-2,.cls-3,.cls-4{fill:#4859a8;}.cls-2{letter-spacing:0em;}.cls-3{letter-spacing:-0.02em;}.cls-5{fill:url(#linear-gradient);}.cls-6{fill:url(#linear-gradient-2);}.cls-7{fill:url(#linear-gradient-3);}.cls-8{fill:url(#linear-gradient-4);}.cls-9{fill:url(#linear-gradient-5);}</style><linearGradient id="linear-gradient" x1="28.35" y1="30.26" x2="34.86" y2="46.76" gradientUnits="userSpaceOnUse"><stop offset="0" stop-color="#4b9bd5"/><stop offset="0.5" stop-color="#4277bc"/><stop offset="1" stop-color="#4054a5"/></linearGradient><linearGradient id="linear-gradient-2" x1="19.58" y1="29.82" x2="11.91" y2="45.81" gradientUnits="userSpaceOnUse"><stop offset="0" stop-color="#4d9bd0"/><stop offset="0.5" stop-color="#4178bc"/><stop offset="1" stop-color="#4054a5"/></linearGradient><linearGradient id="linear-gradient-3" x1="23.45" y1="19.31" x2="23.45" y2="24.64" gradientUnits="userSpaceOnUse"><stop offset="0" stop-color="#faa543"/><stop offset="1" stop-color="#f36e25"/></linearGradient><linearGradient id="linear-gradient-4" x1="23.71" y1="22.22" x2="22.75" y2="0.03" gradientUnits="userSpaceOnUse"><stop offset="0" stop-color="#4a9bd5"/><stop offset="0.48" stop-color="#4676bb"/><stop offset="1" stop-color="#3e56a6"/></linearGradient><linearGradient id="linear-gradient-5" x1="23.45" y1="7.06" x2="23.45" y2="11.11" xlink:href="#linear-gradient-3"/></defs><title>dataAsset 6</title><g id="Layer_2" data-name="Layer 2"><g id="Layer_1-2" data-name="Layer 1"><text class="cls-1" transform="translate(0 53.89)">Mind<tspan class="cls-2" x="19.29" y="0">G</tspan><tspan class="cls-3" x="24.9" y="0">ro</tspan><tspan class="cls-4" x="32.89" y="0">wth</tspan></text><path class="cls-5" d="M39.81,40.3a3.31,3.31,0,0,0-2.76-.36,3.87,3.87,0,0,1,2.61-.58,4.06,4.06,0,0,0-2.8-6.06,2.51,2.51,0,0,0-2.64,1.47A1.33,1.33,0,0,0,36.56,36c-.81,1.9-3.46.6-3-1.46a3.12,3.12,0,0,1,2.3-2.21,4.08,4.08,0,0,0-4.06-3.68,4,4,0,0,0-1.19.19,5.11,5.11,0,0,1-1.13,1.85,4.51,4.51,0,0,0,.64-2.27A4.08,4.08,0,0,0,24.06,27V42.53a3.42,3.42,0,0,0,2.77,3.36H37.31a3.35,3.35,0,0,0,2.5-5.59Z"/><path class="cls-6" d="M20.4,26.15a4,4,0,0,0-3,1.37,3.27,3.27,0,0,0-.3,3.34,3.94,3.94,0,0,1-.91-2.11A4,4,0,0,0,11,32.41a3.75,3.75,0,0,1,3.08,3.17A4.06,4.06,0,0,0,11,33.24h-.23a4.07,4.07,0,0,0-3.44,6.28,2.59,2.59,0,0,1,.94.08A2,2,0,0,1,9.84,41.4,1.42,1.42,0,0,1,8.4,42.87a1.29,1.29,0,0,0,0-2.54,1.67,1.67,0,0,0-1.62.38A3.35,3.35,0,0,0,9.6,45.89H20.07a3.42,3.42,0,0,0,2.78-3.36V27A4.1,4.1,0,0,0,20.4,26.15Z"/><path class="cls-7" d="M22.31,19.23a24.17,24.17,0,0,0,1.14,5.39,20.71,20.71,0,0,0,1.15-5.39Z"/><path class="cls-8" d="M28.85,15l-.62-.48a8.62,8.62,0,0,1-2,2.07,11.1,11.1,0,0,0,2.26-4.09,9.66,9.66,0,0,0,.29-2.3A12.42,12.42,0,0,0,23.45,0a12.42,12.42,0,0,0-5.36,10.2,9.66,9.66,0,0,0,.29,2.3,11,11,0,0,0,2.26,4.09,8.62,8.62,0,0,1-2-2.07l-.62.48a1.65,1.65,0,0,0-.57,1.44l1.83,5.16c.19.5.43.6.78.25l2.2-2.91h2.31l2.2,2.91c.35.35.59.28.78-.25l1.83-5.16A1.67,1.67,0,0,0,28.85,15Zm-5.4-2.29A3.22,3.22,0,1,1,26.67,9.5,3.21,3.21,0,0,1,23.45,12.71Z"/><circle class="cls-9" cx="23.45" cy="9.5" r="2.48"/></g></g></svg>