<svg xmlns="http://www.w3.org/2000/svg" viewBox="0 0 282.65 300.52"><defs><style>.cls-1{fill:#d4ecff;}.cls-2{fill:#34427d;}.cls-3{fill:#e8a200;}.cls-4{fill:#f9bf30;}.cls-5{fill:#4558a7;}.cls-6{fill:#fdd762;}.cls-7{fill:#95d359;}.cls-8{fill:#c13d1a;}.cls-9{fill:#db5126;}.cls-10{fill:#ef602e;}.cls-11{fill:#6a79b9;}.cls-12{opacity:0.4;}.cls-13,.cls-14,.cls-18{fill:#fff;}.cls-13{opacity:0.2;}.cls-14{opacity:0.7;}.cls-15{fill:#4a537b;}.cls-16{fill:#1c285a;}.cls-17{fill:#ffc2b0;}.cls-19{fill:#ea9c92;}.cls-20{fill:#721bd5;}</style></defs><title>dataAsset 2success</title><g id="Layer_2" data-name="Layer 2"><g id="Ñëîé_1" data-name="Ñëîé 1"><polygon class="cls-1" points="200.25 300.52 0 184.9 7.44 179.87 207.69 295.49 200.25 300.52"/><ellipse class="cls-1" cx="93.12" cy="160.45" rx="32.74" ry="18.9"/><ellipse class="cls-1" cx="151.33" cy="193.89" rx="32.74" ry="18.9"/><ellipse class="cls-1" cx="212.37" cy="229.15" rx="32.74" ry="18.9"/><polygon class="cls-1" points="21.91 239.57 11.39 233.5 0.88 239.57 11.39 245.65 21.91 239.57"/><polygon class="cls-2" points="11.39 238.83 11.39 224.3 22.48 217.9 22.48 232.43 11.39 238.83"/><polygon class="cls-2" points="11.39 224.3 0.31 217.9 0.31 232.43 11.39 238.83 11.39 224.3"/><polygon class="cls-3" points="11.39 224.3 11.39 214.03 22.48 207.63 22.48 217.9 11.39 224.3"/><polygon class="cls-4" points="11.39 214.03 0.31 207.63 0.31 217.9 11.39 224.3 11.39 214.03"/><polygon class="cls-2" points="11.39 214.03 11.39 206.67 22.48 200.27 22.48 207.63 11.39 214.03"/><polygon class="cls-2" points="11.39 206.67 0.31 200.27 0.31 207.63 11.39 214.03 11.39 206.67"/><polygon class="cls-5" points="22.48 200.27 11.39 193.87 0.31 200.27 11.39 206.67 22.48 200.27"/><rect class="cls-6" x="272.46" y="121.18" width="2.25" height="6.55" transform="translate(328.85 419.89) rotate(-125.06)"/><rect class="cls-6" x="274.37" y="117.08" width="2.25" height="6.55" transform="translate(335.21 415.01) rotate(-125.06)"/><rect class="cls-6" x="276.29" y="112.99" width="2.25" height="6.55" transform="translate(341.57 410.13) rotate(-125.05)"/><rect class="cls-6" x="278.2" y="108.89" width="2.25" height="6.55" transform="translate(347.94 405.24) rotate(-125.06)"/><polygon class="cls-1" points="249.21 151.19 236.94 144.1 224.66 151.19 236.94 158.28 249.21 151.19"/><polygon class="cls-2" points="242.69 139.73 242.69 95.58 253.12 89.56 253.12 133.71 242.69 139.73"/><polygon class="cls-5" points="242.69 95.58 232.26 89.56 232.26 133.71 242.69 139.73 242.69 95.58"/><polygon class="cls-5" points="253.12 89.56 242.69 83.54 232.26 89.56 242.69 95.58 253.12 89.56"/><polygon class="cls-7" points="253.12 141.74 242.69 135.72 242.69 139.73 253.12 145.75 253.12 141.74"/><polygon class="cls-8" points="232.26 145.75 232.26 113.64 242.69 107.62 242.69 139.73 232.26 145.75"/><polygon class="cls-9" points="232.26 113.64 221.83 107.62 221.83 139.73 232.26 145.75 232.26 113.64"/><polygon class="cls-10" points="242.69 107.62 232.26 101.6 221.83 107.62 232.26 113.64 242.69 107.62"/><polygon class="cls-2" points="232.26 145.75 232.26 113.64 242.69 107.62 242.69 139.73 232.26 145.75"/><polygon class="cls-5" points="232.26 113.64 221.83 107.62 221.83 139.73 232.26 145.75 232.26 113.64"/><polygon class="cls-5" points="242.69 107.62 232.26 101.6 221.83 107.62 232.26 113.64 242.69 107.62"/><polygon class="cls-3" points="242.69 151.77 242.69 133.71 253.12 127.69 253.12 145.75 242.69 151.77"/><polygon class="cls-4" points="242.69 133.71 232.26 127.69 232.26 145.75 242.69 151.77 242.69 133.71"/><polygon class="cls-6" points="253.12 127.69 242.69 121.67 232.26 127.69 242.69 133.71 253.12 127.69"/><polygon class="cls-1" points="55.28 58.79 44.79 52.73 34.3 58.79 44.79 64.85 55.28 58.79"/><polygon class="cls-3" points="44.79 59.23 44.79 52.41 57.32 45.17 57.32 51.99 44.79 59.23"/><polygon class="cls-4" points="44.79 52.41 32.26 45.17 32.26 51.99 44.79 59.23 44.79 52.41"/><polygon class="cls-6" points="57.32 45.17 44.79 37.94 32.26 45.17 44.79 52.41 57.32 45.17"/><polygon class="cls-3" points="53.1 45.17 44.79 40.37 36.48 45.17 44.79 49.97 53.1 45.17"/><polygon class="cls-2" points="44.79 46.08 44.79 39.26 57.32 32.02 57.32 38.84 44.79 46.08"/><polygon class="cls-2" points="44.79 39.26 32.26 32.02 32.26 38.84 44.79 46.08 44.79 39.26"/><polygon class="cls-5" points="57.32 32.02 44.79 24.78 32.26 32.02 44.79 39.26 57.32 32.02"/><rect class="cls-2" x="206.69" y="265.08" width="9.5" height="2" transform="translate(-126.22 227.44) rotate(-45)"/><rect class="cls-2" x="210.44" y="261.33" width="2" height="9.5" transform="translate(-126.21 227.42) rotate(-45)"/><path class="cls-5" d="M206.54,83.34a9.17,9.17,0,1,1,9.17-9.16A9.17,9.17,0,0,1,206.54,83.34Zm0-16.33a7.17,7.17,0,1,0,7.17,7.17A7.17,7.17,0,0,0,206.54,67Z"/><circle class="cls-6" cx="198.38" cy="80.22" r="6.62"/><rect class="cls-2" x="30.87" y="89.51" width="9.5" height="2" transform="translate(-53.57 51.69) rotate(-45)"/><rect class="cls-2" x="34.62" y="85.76" width="2" height="9.5" transform="translate(-53.57 51.69) rotate(-45)"/><circle class="cls-6" cx="45.76" cy="149.13" r="4.86"/><path class="cls-11" d="M75.64,251.5A2.22,2.22,0,1,1,77.5,254,2.21,2.21,0,0,1,75.64,251.5Z"/><rect class="cls-5" x="85.43" y="257.86" width="9.23" height="9.23" transform="translate(139.93 535.45) rotate(-171.42)"/><path class="cls-4" d="M133.38,133.1h-1.56c-1.75-3.44-5-6.67-9.66-9.38-15-8.64-39.22-8.64-54.17,0-4.7,2.71-7.92,5.94-9.67,9.38H56.77v6.25h0C56.77,145,60.51,150.67,68,155c15,8.64,39.21,8.64,54.17,0,7.48-4.32,11.22-10,11.22-15.64h0Z"/><path class="cls-6" d="M86.76,117.77a50.74,50.74,0,0,0-18.77,6c-4.7,2.71-7.92,5.94-9.67,9.38H56.77v6.25C56.77,145,60.51,150.67,68,155a50.74,50.74,0,0,0,18.77,5.95Z"/><path class="cls-3" d="M122.26,154.93c7.41-4.31,11.12-9.94,11.12-15.58V133.1h-1.56a22.35,22.35,0,0,0-7.69-8.15h-1.87Z"/><g class="cls-12"><path class="cls-3" d="M131.41,132.37a17.57,17.57,0,0,0-1.67-2.4v18.79a19.22,19.22,0,0,0,1.67-2.4Z"/><path class="cls-3" d="M68,123.72a30,30,0,0,0-5.35,3.88v23.51c.52.48,1.07.95,1.66,1.41V127h3.13v27.61c.19.12.36.23.56.34.36.21.73.41,1.1.61V127h3.13V157.1c.55.24,1.1.46,1.66.68V127H77v31.82c.54.17,1.1.33,1.66.48V127h3.13V160.1c.55.12,1.1.23,1.66.33V127H86.6v33.88c.55.07,1.11.14,1.66.19V127H91.4v34.33l1.66.07V127h3.13v34.41c.55,0,1.11,0,1.66,0V127H101V161.2c.56,0,1.11-.1,1.66-.17V127h3.14v33.55l1.66-.3V127h3.13v32.54c.56-.14,1.11-.3,1.66-.45V127h3.13v31.07c.57-.2,1.12-.42,1.67-.64V127h3.13v29c.56-.28,1.12-.58,1.66-.88V127H125v26.15c.59-.42,1.14-.85,1.66-1.29V127h.28a30.81,30.81,0,0,0-4.73-3.32,45.72,45.72,0,0,0-11.76-4.63H79.74A45.65,45.65,0,0,0,68,123.72Z"/><path class="cls-3" d="M59.5,131.16a18,18,0,0,0-1.18,1.94h-.48v11.46a16.57,16.57,0,0,0,1.66,3Z"/></g><ellipse class="cls-6" cx="95.07" cy="133.1" rx="38.31" ry="22.12"/><path class="cls-13" d="M103.65,136.88c11-6.36,13.91-15.62,8.71-23.52C98,109.17,80,110.53,68,117.46c-11,6.36-13.91,15.62-8.71,23.51C73.65,145.17,91.65,143.81,103.65,136.88Z"/><path class="cls-14" d="M122.16,148.74c-15,8.63-39.21,8.63-54.17,0-7.23-4.18-11-9.6-11.2-15.07-.26,5.85,3.47,11.74,11.2,16.21,15,8.63,39.21,8.63,54.17,0,7.73-4.47,11.45-10.36,11.19-16.21C133.11,139.14,129.39,144.56,122.16,148.74Z"/><ellipse class="cls-3" cx="95.07" cy="133.1" rx="27.19" ry="15.7"/><path class="cls-4" d="M75.85,123.43c10.61-6.13,27.83-6.13,38.45,0,5,2.88,7.64,6.61,7.93,10.39.34-4.26-2.31-8.57-7.93-11.82-10.62-6.13-27.84-6.13-38.45,0-5.63,3.25-8.27,7.56-7.94,11.81C68.21,130,70.85,126.31,75.85,123.43Z"/><path class="cls-4" d="M108.44,125.69l-2.1.6.6.24-2.06,1.18a11.82,11.82,0,0,0-5.22-1.22,10,10,0,0,0-5,1.36,7.87,7.87,0,0,0-1.52,1.1,3.18,3.18,0,0,0-.81,1.17,3.58,3.58,0,0,0-.27,1.11,5.76,5.76,0,0,0,0,1.21l.24,1.91a5.88,5.88,0,0,1,0,1.35,2.36,2.36,0,0,1-.46,1.09,3.56,3.56,0,0,1-1.2,1,2.46,2.46,0,0,1-2.59.19c-.57-.33-.72-.74-.44-1.24a6.85,6.85,0,0,1,2.3-1.85v-1.44l-1.8.68-2.59-1.1a8.38,8.38,0,0,0-3.08,2.76l-.29-.33v1.41h0c0,1,.75,1.92,2.24,2.86l-1,.59-1.39-.63v1.44l1.25.72,2.44-1.41a10.68,10.68,0,0,0,4.93,1,9.83,9.83,0,0,0,4.66-1.26A7.68,7.68,0,0,0,97,139a3.94,3.94,0,0,0,.91-1.34,4.54,4.54,0,0,0,.34-1.31,6.54,6.54,0,0,0,0-1.4L98,133.07c0-.37,0-.64,0-.81a3.79,3.79,0,0,1,.09-.7,1.67,1.67,0,0,1,.42-.81,4.05,4.05,0,0,1,.9-.68,3.93,3.93,0,0,1,1.38-.44,2.35,2.35,0,0,1,1.39.23,1.32,1.32,0,0,1,.43.34.4.4,0,0,1,.07.24l-2.14.44v1.44l4.34,1.94c.36-.23.68-.44,1-.63a8.4,8.4,0,0,0,.88-.7,5.65,5.65,0,0,0,.73-.78,2.79,2.79,0,0,0,.41-.85,2.26,2.26,0,0,0,.07-.43h0v-1.51l-.56.11,0,0a4.91,4.91,0,0,0-1.16-1l2.28-1.31Z"/><path class="cls-6" d="M82.05,139.72l2.42-1.4c-1.65-1-2.39-2.11-2.22-3.19s1.29-2.25,3.35-3.51L90,133.48a6.85,6.85,0,0,0-2.3,1.85c-.28.5-.13.91.44,1.24a2.46,2.46,0,0,0,2.59-.19,3.56,3.56,0,0,0,1.2-1,2.36,2.36,0,0,0,.46-1.09,5.78,5.78,0,0,0,0-1.34L92.09,131a5.76,5.76,0,0,1,0-1.21,3.58,3.58,0,0,1,.27-1.11,3.18,3.18,0,0,1,.81-1.17,7.87,7.87,0,0,1,1.52-1.1,10,10,0,0,1,5-1.36,11.82,11.82,0,0,1,5.22,1.22l2.29-1.32,1.27.74L106.16,127a4.91,4.91,0,0,1,1.16,1,2.49,2.49,0,0,1,.53,1,1.8,1.8,0,0,1,0,.92,2.79,2.79,0,0,1-.41.85,5.65,5.65,0,0,1-.73.78,8.4,8.4,0,0,1-.88.7c-.27.19-.59.4-1,.63l-4.34-1.94c.33-.2.6-.36.81-.5s.43-.29.64-.45a2.71,2.71,0,0,0,.48-.43,1.22,1.22,0,0,0,.2-.37.4.4,0,0,0-.06-.37,1.32,1.32,0,0,0-.43-.34,2.35,2.35,0,0,0-1.39-.23,3.93,3.93,0,0,0-1.38.44,4.05,4.05,0,0,0-.9.68,1.67,1.67,0,0,0-.42.81,3.79,3.79,0,0,0-.09.7c0,.17,0,.44,0,.81l.21,1.86a6.54,6.54,0,0,1,0,1.4,4.54,4.54,0,0,1-.34,1.31,3.94,3.94,0,0,1-.91,1.34,7.68,7.68,0,0,1-1.65,1.22A9.83,9.83,0,0,1,90.67,140a10.68,10.68,0,0,1-4.93-1l-2.44,1.41Z"/><path class="cls-4" d="M133.38,126.84h-1.56c-1.75-3.44-5-6.67-9.66-9.38-15-8.64-39.22-8.64-54.17,0-4.7,2.71-7.92,6-9.67,9.39H56.77v6.25h0c0,5.66,3.74,11.32,11.22,15.64,15,8.64,39.21,8.64,54.17,0,7.48-4.32,11.22-10,11.22-15.64h0Z"/><path class="cls-6" d="M86.76,111.51A50.74,50.74,0,0,0,68,117.45c-4.7,2.71-7.92,6-9.67,9.39H56.77v6.25c0,5.66,3.74,11.32,11.22,15.64a50.74,50.74,0,0,0,18.77,6Z"/><path class="cls-3" d="M122.26,148.67c7.41-4.31,11.12-9.94,11.12-15.58v-6.25h-1.56a22.35,22.35,0,0,0-7.69-8.15h-1.87Z"/><g class="cls-12"><path class="cls-3" d="M131.41,126.11a17.57,17.57,0,0,0-1.67-2.4V142.5a19.22,19.22,0,0,0,1.67-2.4Z"/><path class="cls-3" d="M68,117.45a30,30,0,0,0-5.35,3.89v23.51c.52.48,1.07,1,1.66,1.41V120.78h3.13v27.61c.19.11.36.23.56.34.36.21.73.41,1.1.61V120.78h3.13v30.06c.55.24,1.1.46,1.66.68V120.78H77V152.6c.54.17,1.1.33,1.66.48v-32.3h3.13v33.06c.55.12,1.1.23,1.66.33V120.78H86.6v33.88c.55.07,1.11.14,1.66.19V120.78H91.4v34.33l1.66.07v-34.4h3.13v34.41c.55,0,1.11,0,1.66-.05V120.78H101v34.16c.56-.05,1.11-.1,1.66-.17v-34h3.14v33.55l1.66-.3V120.78h3.13v32.54c.56-.14,1.11-.3,1.66-.45V120.78h3.13v31.07c.57-.2,1.12-.42,1.67-.64V120.78h3.13v29c.56-.28,1.12-.58,1.66-.88V120.78H125v26.15c.59-.42,1.14-.85,1.66-1.29V120.78h.28a30.81,30.81,0,0,0-4.73-3.32,45.72,45.72,0,0,0-11.76-4.63H79.74A46,46,0,0,0,68,117.45Z"/><path class="cls-3" d="M59.5,124.9a18,18,0,0,0-1.18,1.94h-.48V138.3a16.57,16.57,0,0,0,1.66,3Z"/></g><ellipse class="cls-6" cx="95.07" cy="126.84" rx="38.31" ry="22.12"/><path class="cls-13" d="M103.65,130.62c11-6.36,13.91-15.63,8.71-23.52C98,102.91,80,104.27,68,111.2c-11,6.36-13.91,15.62-8.71,23.51C73.65,138.91,91.65,137.55,103.65,130.62Z"/><path class="cls-14" d="M122.16,142.48c-15,8.63-39.21,8.63-54.17,0-7.23-4.18-11-9.6-11.2-15.07-.26,5.85,3.47,11.74,11.2,16.21,15,8.63,39.21,8.63,54.17,0,7.73-4.47,11.45-10.36,11.19-16.21C133.11,132.88,129.39,138.3,122.16,142.48Z"/><ellipse class="cls-3" cx="95.07" cy="126.84" rx="27.19" ry="15.7"/><path class="cls-4" d="M75.85,117.17c10.61-6.13,27.83-6.13,38.45,0,5,2.88,7.64,6.61,7.93,10.39.34-4.26-2.31-8.57-7.93-11.82-10.62-6.13-27.84-6.13-38.45,0-5.63,3.24-8.27,7.56-7.94,11.81C68.21,123.78,70.85,120.05,75.85,117.17Z"/><path class="cls-4" d="M108.44,119.42l-2.1.61.6.24-2.06,1.18a11.82,11.82,0,0,0-5.22-1.22,10,10,0,0,0-5,1.36,7.87,7.87,0,0,0-1.52,1.1,3.18,3.18,0,0,0-.81,1.17A3.58,3.58,0,0,0,92,125a5.76,5.76,0,0,0,0,1.21l.24,1.91a5.88,5.88,0,0,1,0,1.35,2.36,2.36,0,0,1-.46,1.09,3.56,3.56,0,0,1-1.2,1,2.46,2.46,0,0,1-2.59.19c-.57-.33-.72-.74-.44-1.24a6.85,6.85,0,0,1,2.3-1.85v-1.44l-1.8.68-2.59-1.1a8.38,8.38,0,0,0-3.08,2.76l-.29-.33v1.41h0c0,1,.75,1.92,2.24,2.86l-1,.59-1.39-.63v1.44l1.25.72,2.44-1.41a10.68,10.68,0,0,0,4.93,1,9.83,9.83,0,0,0,4.66-1.26A7.68,7.68,0,0,0,97,132.72a3.94,3.94,0,0,0,.91-1.34,4.54,4.54,0,0,0,.34-1.31,6.54,6.54,0,0,0,0-1.4L98,126.81c0-.37,0-.64,0-.81a3.79,3.79,0,0,1,.09-.7,1.67,1.67,0,0,1,.42-.81,4.05,4.05,0,0,1,.9-.68,3.93,3.93,0,0,1,1.38-.44,2.28,2.28,0,0,1,1.39.23,1.32,1.32,0,0,1,.43.34.4.4,0,0,1,.07.24l-2.14.44v1.44l4.34,1.94c.36-.23.68-.44,1-.63a8.4,8.4,0,0,0,.88-.7,5.16,5.16,0,0,0,.73-.79,2.63,2.63,0,0,0,.41-.84,2.26,2.26,0,0,0,.07-.43h0v-1.51l-.56.11,0,0a4.91,4.91,0,0,0-1.16-1l2.28-1.32Z"/><path class="cls-6" d="M82.05,133.46l2.42-1.4c-1.65-1-2.39-2.11-2.22-3.19s1.29-2.25,3.35-3.51L90,127.22a6.85,6.85,0,0,0-2.3,1.85c-.28.5-.13.91.44,1.24a2.46,2.46,0,0,0,2.59-.19,3.56,3.56,0,0,0,1.2-1,2.36,2.36,0,0,0,.46-1.09,5.88,5.88,0,0,0,0-1.35l-.24-1.91a5.76,5.76,0,0,1,0-1.21,3.58,3.58,0,0,1,.27-1.11,3.18,3.18,0,0,1,.81-1.17,7.87,7.87,0,0,1,1.52-1.1,10,10,0,0,1,5-1.36,11.82,11.82,0,0,1,5.22,1.22l2.29-1.32,1.27.74-2.28,1.31a4.91,4.91,0,0,1,1.16,1,2.49,2.49,0,0,1,.53,1,1.8,1.8,0,0,1,0,.92,2.63,2.63,0,0,1-.41.84,5.16,5.16,0,0,1-.73.79,8.4,8.4,0,0,1-.88.7c-.27.19-.59.4-1,.63l-4.34-1.94.81-.5c.21-.14.43-.29.64-.45a2.71,2.71,0,0,0,.48-.43,1.22,1.22,0,0,0,.2-.37.4.4,0,0,0-.06-.37,1.32,1.32,0,0,0-.43-.34,2.28,2.28,0,0,0-1.39-.23,3.93,3.93,0,0,0-1.38.44,4.05,4.05,0,0,0-.9.68,1.67,1.67,0,0,0-.42.81,3.79,3.79,0,0,0-.09.7c0,.17,0,.44,0,.81l.21,1.86a6.54,6.54,0,0,1,0,1.4,4.54,4.54,0,0,1-.34,1.31,3.94,3.94,0,0,1-.91,1.34,7.68,7.68,0,0,1-1.65,1.22,9.83,9.83,0,0,1-4.66,1.26,10.68,10.68,0,0,1-4.93-1l-2.44,1.41Z"/><path class="cls-4" d="M133.38,120.58h-1.56c-1.75-3.44-5-6.68-9.66-9.38-15-8.64-39.22-8.64-54.17,0-4.7,2.71-7.92,6-9.67,9.39H56.77v6.25h0c0,5.66,3.74,11.32,11.22,15.64,15,8.64,39.21,8.64,54.17,0,7.48-4.32,11.22-10,11.22-15.64h0Z"/><path class="cls-6" d="M86.76,105.25A50.74,50.74,0,0,0,68,111.19c-4.7,2.71-7.92,6-9.67,9.39H56.77v6.25c0,5.66,3.74,11.32,11.22,15.64a50.74,50.74,0,0,0,18.77,5.95Z"/><path class="cls-3" d="M122.26,142.41c7.41-4.31,11.12-9.94,11.12-15.58v-6.25h-1.56a22.35,22.35,0,0,0-7.69-8.15h-1.87Z"/><g class="cls-12"><path class="cls-3" d="M131.41,119.85a18.3,18.3,0,0,0-1.67-2.41v18.8a18.6,18.6,0,0,0,1.67-2.41Z"/><path class="cls-3" d="M68,111.19a30,30,0,0,0-5.35,3.89v23.51c.52.48,1.07.95,1.66,1.41V114.52h3.13v27.61c.19.11.36.23.56.34.36.21.73.41,1.1.61V114.52h3.13v30.06c.55.24,1.1.46,1.66.68V114.52H77v31.82c.54.17,1.1.33,1.66.48v-32.3h3.13v33.06c.55.12,1.1.23,1.66.33V114.52H86.6V148.4c.55.07,1.11.14,1.66.19V114.52H91.4v34.33l1.66.07v-34.4h3.13v34.41c.55,0,1.11,0,1.66-.05V114.52H101v34.16c.56-.05,1.11-.1,1.66-.17v-34h3.14v33.55l1.66-.3V114.52h3.13v32.54l1.66-.46V114.52h3.13v31.07c.57-.2,1.12-.42,1.67-.64V114.52h3.13v29c.56-.28,1.12-.58,1.66-.88V114.52H125v26.15c.59-.42,1.14-.85,1.66-1.29V114.52h.28a30.13,30.13,0,0,0-4.73-3.32,45.72,45.72,0,0,0-11.76-4.63H79.74A46,46,0,0,0,68,111.19Z"/><path class="cls-3" d="M59.5,118.64a18,18,0,0,0-1.18,1.94h-.48V132a16.57,16.57,0,0,0,1.66,3Z"/></g><ellipse class="cls-6" cx="95.07" cy="120.58" rx="38.31" ry="22.12"/><path class="cls-13" d="M103.65,124.36c11-6.36,13.91-15.63,8.71-23.52C98,96.64,80,98,68,104.94c-11,6.36-13.91,15.62-8.71,23.51C73.65,132.65,91.65,131.29,103.65,124.36Z"/><path class="cls-14" d="M122.16,136.22c-15,8.63-39.21,8.63-54.17,0-7.23-4.18-11-9.6-11.2-15.07-.26,5.85,3.47,11.74,11.2,16.21,15,8.63,39.21,8.63,54.17,0,7.73-4.47,11.45-10.36,11.19-16.21C133.11,126.62,129.39,132,122.16,136.22Z"/><ellipse class="cls-3" cx="95.07" cy="120.58" rx="27.19" ry="15.7"/><path class="cls-4" d="M75.85,110.91c10.61-6.13,27.83-6.13,38.45,0,5,2.88,7.64,6.61,7.93,10.39.34-4.26-2.31-8.57-7.93-11.82-10.62-6.13-27.84-6.13-38.45,0-5.63,3.24-8.27,7.56-7.94,11.81C68.21,117.52,70.85,113.79,75.85,110.91Z"/><path class="cls-4" d="M108.44,113.16l-2.1.61.6.23-2.06,1.19A11.68,11.68,0,0,0,99.66,114a10,10,0,0,0-5,1.36,7.87,7.87,0,0,0-1.52,1.1,3.18,3.18,0,0,0-.81,1.17,3.58,3.58,0,0,0-.27,1.11,5.76,5.76,0,0,0,0,1.21l.24,1.91a5.88,5.88,0,0,1,0,1.35,2.36,2.36,0,0,1-.46,1.09,3.68,3.68,0,0,1-1.2,1,2.46,2.46,0,0,1-2.59.19c-.57-.33-.72-.74-.44-1.24A6.85,6.85,0,0,1,90,122.4V121l-1.8.68-2.59-1.1a8.38,8.38,0,0,0-3.08,2.76l-.29-.33v1.41h0c0,1,.75,1.92,2.24,2.86l-1,.59-1.39-.63v1.44l1.25.72L85.74,128a10.55,10.55,0,0,0,4.93,1,9.71,9.71,0,0,0,4.66-1.25A7.68,7.68,0,0,0,97,126.46a3.94,3.94,0,0,0,.91-1.34,4.54,4.54,0,0,0,.34-1.31,6.54,6.54,0,0,0,0-1.4L98,120.55c0-.37,0-.64,0-.81a3.79,3.79,0,0,1,.09-.7,1.62,1.62,0,0,1,.42-.81,4.05,4.05,0,0,1,.9-.68,3.93,3.93,0,0,1,1.38-.44,2.28,2.28,0,0,1,1.39.23,1.32,1.32,0,0,1,.43.34.4.4,0,0,1,.07.24l-2.14.44v1.44l4.34,1.94c.36-.23.68-.44,1-.63a8.4,8.4,0,0,0,.88-.7,5.16,5.16,0,0,0,.73-.79,2.74,2.74,0,0,0,.41-.84,2.26,2.26,0,0,0,.07-.43h0v-1.51l-.56.11,0,0a4.91,4.91,0,0,0-1.16-1l2.28-1.32Z"/><path class="cls-6" d="M82.05,127.2l2.42-1.4c-1.65-1-2.39-2.11-2.22-3.19s1.29-2.25,3.35-3.51L90,121a6.85,6.85,0,0,0-2.3,1.85c-.28.5-.13.91.44,1.24a2.46,2.46,0,0,0,2.59-.19,3.56,3.56,0,0,0,1.2-1,2.36,2.36,0,0,0,.46-1.09,5.88,5.88,0,0,0,0-1.35l-.24-1.91a5.76,5.76,0,0,1,0-1.21,3.58,3.58,0,0,1,.27-1.11,3.18,3.18,0,0,1,.81-1.17,7.87,7.87,0,0,1,1.52-1.1,10,10,0,0,1,5-1.36,11.68,11.68,0,0,1,5.22,1.22l2.29-1.32,1.27.73-2.28,1.32a4.91,4.91,0,0,1,1.16,1,2.49,2.49,0,0,1,.53,1,1.8,1.8,0,0,1,0,.92,2.74,2.74,0,0,1-.41.84,5.16,5.16,0,0,1-.73.79,8.4,8.4,0,0,1-.88.7c-.27.19-.59.4-1,.63l-4.34-1.94.81-.5c.21-.14.43-.29.64-.45a2.71,2.71,0,0,0,.48-.43,1.16,1.16,0,0,0,.2-.38.39.39,0,0,0-.06-.36,1.32,1.32,0,0,0-.43-.34,2.28,2.28,0,0,0-1.39-.23,3.93,3.93,0,0,0-1.38.44,4.05,4.05,0,0,0-.9.68,1.62,1.62,0,0,0-.42.81,3.79,3.79,0,0,0-.09.7c0,.17,0,.44,0,.81l.21,1.86a6.54,6.54,0,0,1,0,1.4,4.54,4.54,0,0,1-.34,1.31A3.94,3.94,0,0,1,97,125a7.68,7.68,0,0,1-1.65,1.22,9.71,9.71,0,0,1-4.66,1.25,10.55,10.55,0,0,1-4.93-1l-2.44,1.41Z"/><path class="cls-4" d="M133.38,114.32h-1.56c-1.75-3.44-5-6.68-9.66-9.39-15-8.63-39.22-8.63-54.17,0-4.7,2.71-7.92,5.95-9.67,9.39H56.77v6.25h0c0,5.66,3.74,11.32,11.22,15.64,15,8.64,39.21,8.64,54.17,0,7.48-4.32,11.22-10,11.22-15.64h0Z"/><path class="cls-6" d="M86.76,99A50.74,50.74,0,0,0,68,104.93c-4.7,2.71-7.92,5.95-9.67,9.39H56.77v6.25c0,5.66,3.74,11.32,11.22,15.64a50.74,50.74,0,0,0,18.77,5.95Z"/><path class="cls-3" d="M122.26,136.15c7.41-4.31,11.12-9.94,11.12-15.58v-6.25h-1.56a22.35,22.35,0,0,0-7.69-8.15h-1.87Z"/><g class="cls-12"><path class="cls-3" d="M131.41,113.59a18.3,18.3,0,0,0-1.67-2.41V130a18.6,18.6,0,0,0,1.67-2.41Z"/><path class="cls-3" d="M68,104.93a30,30,0,0,0-5.35,3.89v23.51c.52.48,1.07.95,1.66,1.41V108.26h3.13v27.61c.19.11.36.23.56.34.36.21.73.41,1.1.61V108.26h3.13v30.06c.55.24,1.1.46,1.66.68V108.26H77v31.82c.54.17,1.1.33,1.66.48v-32.3h3.13v33.06c.55.12,1.1.23,1.66.33V108.26H86.6v33.88l1.66.19V108.26H91.4v34.33l1.66.07v-34.4h3.13v34.41c.55,0,1.11,0,1.66,0V108.26H101v34.16c.56,0,1.11-.1,1.66-.17v-34h3.14v33.55l1.66-.3V108.26h3.13V140.8l1.66-.46V108.26h3.13v31.07c.57-.2,1.12-.42,1.67-.64V108.26h3.13v29c.56-.28,1.12-.58,1.66-.88V108.26H125v26.15c.59-.42,1.14-.85,1.66-1.29V108.26h.28a30.84,30.84,0,0,0-4.73-3.33,46.06,46.06,0,0,0-11.76-4.62H79.74A46,46,0,0,0,68,104.93Z"/><path class="cls-3" d="M59.5,112.38a18,18,0,0,0-1.18,1.94h-.48v11.46a16.57,16.57,0,0,0,1.66,3Z"/></g><ellipse class="cls-6" cx="95.07" cy="114.32" rx="38.31" ry="22.12"/><path class="cls-13" d="M103.65,118.1c11-6.36,13.91-15.63,8.71-23.52C98,90.38,80,91.75,68,98.68,57,105,54.08,114.3,59.28,122.19,73.65,126.39,91.65,125,103.65,118.1Z"/><path class="cls-14" d="M122.16,130c-15,8.63-39.21,8.63-54.17,0-7.23-4.17-11-9.59-11.2-15.06-.26,5.85,3.47,11.74,11.2,16.21,15,8.63,39.21,8.63,54.17,0,7.73-4.47,11.45-10.36,11.19-16.21C133.11,120.36,129.39,125.78,122.16,130Z"/><path class="cls-3" d="M114.3,125.42c-10.62,6.13-27.84,6.13-38.45,0s-10.62-16.07,0-22.2,27.83-6.13,38.45,0S124.92,119.29,114.3,125.42Z"/><path class="cls-4" d="M75.85,104.65c10.61-6.13,27.83-6.13,38.45,0,5,2.88,7.64,6.61,7.93,10.38.34-4.25-2.31-8.57-7.93-11.81-10.62-6.13-27.84-6.13-38.45,0-5.63,3.24-8.27,7.56-7.94,11.81C68.21,111.26,70.85,107.53,75.85,104.65Z"/><path class="cls-4" d="M108.44,106.9l-2.1.61.6.23-2.06,1.19a11.68,11.68,0,0,0-5.22-1.22,10,10,0,0,0-5,1.36,7.87,7.87,0,0,0-1.52,1.1,3.18,3.18,0,0,0-.81,1.17,3.58,3.58,0,0,0-.27,1.11,5.64,5.64,0,0,0,0,1.2l.24,1.92a5.88,5.88,0,0,1,0,1.35,2.36,2.36,0,0,1-.46,1.09,3.68,3.68,0,0,1-1.2,1,2.46,2.46,0,0,1-2.59.19c-.57-.33-.72-.74-.44-1.24a6.85,6.85,0,0,1,2.3-1.85V114.7l-1.8.68-2.59-1.1A8.38,8.38,0,0,0,82.52,117l-.29-.34v1.42h0c0,1,.75,1.92,2.24,2.86l-1,.59-1.39-.63v1.44l1.25.72,2.44-1.41a10.68,10.68,0,0,0,4.93,1,9.71,9.71,0,0,0,4.66-1.25A7.68,7.68,0,0,0,97,120.2a3.94,3.94,0,0,0,.91-1.34,4.62,4.62,0,0,0,.34-1.31,6.54,6.54,0,0,0,0-1.4L98,114.29c0-.37,0-.64,0-.81a3.79,3.79,0,0,1,.09-.7,1.62,1.62,0,0,1,.42-.81,4.05,4.05,0,0,1,.9-.68,3.73,3.73,0,0,1,1.38-.44,2.28,2.28,0,0,1,1.39.23,1.32,1.32,0,0,1,.43.34.4.4,0,0,1,.07.24l-2.14.44v1.44l4.34,1.94c.36-.23.68-.44,1-.63a8.4,8.4,0,0,0,.88-.7,5.16,5.16,0,0,0,.73-.79,2.74,2.74,0,0,0,.41-.84,2.26,2.26,0,0,0,.07-.43h0v-1.51l-.56.11,0,0a4.91,4.91,0,0,0-1.16-1l2.28-1.32Z"/><path class="cls-6" d="M82.05,120.94l2.42-1.4c-1.65-1-2.39-2.11-2.22-3.19s1.29-2.25,3.35-3.51L90,114.7a6.85,6.85,0,0,0-2.3,1.85c-.28.5-.13.91.44,1.24a2.46,2.46,0,0,0,2.59-.19,3.68,3.68,0,0,0,1.2-1,2.36,2.36,0,0,0,.46-1.09,5.88,5.88,0,0,0,0-1.35l-.24-1.91A5.76,5.76,0,0,1,92,111a3.58,3.58,0,0,1,.27-1.11,3.18,3.18,0,0,1,.81-1.17,7.87,7.87,0,0,1,1.52-1.1,10,10,0,0,1,5-1.36,11.68,11.68,0,0,1,5.22,1.22l2.29-1.32,1.27.73-2.28,1.32a4.91,4.91,0,0,1,1.16,1,2.49,2.49,0,0,1,.53,1,1.8,1.8,0,0,1,0,.92,2.74,2.74,0,0,1-.41.84,5.16,5.16,0,0,1-.73.79,8.4,8.4,0,0,1-.88.7c-.27.19-.59.4-1,.63l-4.34-1.94.81-.5c.21-.14.43-.29.64-.45a2.71,2.71,0,0,0,.48-.43,1.27,1.27,0,0,0,.2-.38.39.39,0,0,0-.06-.36,1.32,1.32,0,0,0-.43-.34,2.28,2.28,0,0,0-1.39-.23,3.93,3.93,0,0,0-1.38.44,4.05,4.05,0,0,0-.9.68,1.62,1.62,0,0,0-.42.81,3.79,3.79,0,0,0-.09.7c0,.17,0,.44,0,.81l.21,1.86a6.54,6.54,0,0,1,0,1.4,4.62,4.62,0,0,1-.34,1.31,3.94,3.94,0,0,1-.91,1.34A7.68,7.68,0,0,1,95.33,120a9.71,9.71,0,0,1-4.66,1.25,10.55,10.55,0,0,1-4.93-1l-2.44,1.41Z"/><path class="cls-4" d="M133.38,108.06h-1.56c-1.75-3.44-5-6.68-9.66-9.39C107.2,90,82.94,90,68,98.67c-4.7,2.71-7.92,6-9.67,9.39H56.77v6.25h0C56.77,120,60.51,125.63,68,130c15,8.64,39.21,8.64,54.17,0,7.48-4.32,11.22-10,11.22-15.64h0Z"/><path class="cls-6" d="M86.76,92.73A50.74,50.74,0,0,0,68,98.67c-4.7,2.71-7.92,6-9.67,9.39H56.77v6.25C56.77,120,60.51,125.63,68,130a50.74,50.74,0,0,0,18.77,6Z"/><path class="cls-3" d="M122.26,129.89c7.41-4.31,11.12-9.95,11.12-15.58v-6.25h-1.56a22.35,22.35,0,0,0-7.69-8.15h-1.87Z"/><g class="cls-12"><path class="cls-3" d="M131.41,107.33a18.3,18.3,0,0,0-1.67-2.41v18.8a18.6,18.6,0,0,0,1.67-2.41Z"/><path class="cls-3" d="M68,98.67a30,30,0,0,0-5.35,3.89v23.51c.52.48,1.07,1,1.66,1.41V102h3.13v27.61c.19.11.36.23.56.34.36.21.73.41,1.1.61V102h3.13v30.06c.55.24,1.1.46,1.66.68V102H77v31.82c.54.17,1.1.33,1.66.48V102h3.13v33.06c.55.12,1.1.23,1.66.33V102H86.6v33.88l1.66.19V102H91.4v34.33c.55,0,1.1,0,1.66.06V102h3.13v34.41c.55,0,1.11,0,1.66,0V102H101v34.16l1.66-.17V102h3.14v33.55c.55-.09,1.11-.2,1.66-.31V102h3.13v32.54l1.66-.46V102h3.13v31.07c.57-.2,1.12-.42,1.67-.64V102h3.13v29c.56-.28,1.12-.58,1.66-.88V102H125v26.15c.59-.42,1.14-.85,1.66-1.29V102h.28a30.84,30.84,0,0,0-4.73-3.33,46.06,46.06,0,0,0-11.76-4.62H79.74A46,46,0,0,0,68,98.67Z"/><path class="cls-3" d="M59.5,106.12a18,18,0,0,0-1.18,1.94h-.48v11.46a16.57,16.57,0,0,0,1.66,3Z"/></g><ellipse class="cls-6" cx="95.07" cy="108.06" rx="38.31" ry="22.12"/><path class="cls-13" d="M103.65,111.84c11-6.36,13.91-15.63,8.71-23.52C98,84.12,80,85.49,68,92.42,57,98.78,54.08,108,59.28,115.93,73.65,120.13,91.65,118.77,103.65,111.84Z"/><path class="cls-14" d="M122.16,123.7c-15,8.63-39.21,8.63-54.17,0-7.23-4.17-11-9.6-11.2-15.06-.26,5.84,3.47,11.74,11.2,16.2,15,8.64,39.21,8.64,54.17,0,7.73-4.47,11.45-10.36,11.19-16.21C133.11,114.1,129.39,119.52,122.16,123.7Z"/><ellipse class="cls-3" cx="95.07" cy="108.06" rx="27.19" ry="15.7"/><path class="cls-4" d="M75.85,98.39c10.61-6.13,27.83-6.13,38.45,0,5,2.88,7.64,6.61,7.93,10.38.34-4.25-2.31-8.57-7.93-11.81-10.62-6.13-27.84-6.13-38.45,0-5.63,3.24-8.27,7.56-7.94,11.81C68.21,105,70.85,101.27,75.85,98.39Z"/><path class="cls-4" d="M108.44,100.64l-2.1.61.6.23-2.06,1.19a11.68,11.68,0,0,0-5.22-1.22,10,10,0,0,0-5,1.36,7.87,7.87,0,0,0-1.52,1.1,3.23,3.23,0,0,0-.81,1.16,3.7,3.7,0,0,0-.27,1.12,5.64,5.64,0,0,0,0,1.2l.24,1.92a5.88,5.88,0,0,1,0,1.35,2.36,2.36,0,0,1-.46,1.09,3.68,3.68,0,0,1-1.2,1,2.46,2.46,0,0,1-2.59.19c-.57-.33-.72-.74-.44-1.24a6.85,6.85,0,0,1,2.3-1.85v-1.44l-1.8.68L85.6,108a8.38,8.38,0,0,0-3.08,2.76l-.29-.34v1.42h0c0,1,.75,1.92,2.24,2.86l-1,.59-1.39-.63v1.44l1.25.72,2.44-1.41a10.68,10.68,0,0,0,4.93,1,9.71,9.71,0,0,0,4.66-1.25A7.68,7.68,0,0,0,97,113.94a3.94,3.94,0,0,0,.91-1.34,4.62,4.62,0,0,0,.34-1.31,6.54,6.54,0,0,0,0-1.4L98,108c0-.37,0-.64,0-.81a3.79,3.79,0,0,1,.09-.7,1.62,1.62,0,0,1,.42-.81,4.05,4.05,0,0,1,.9-.68,3.73,3.73,0,0,1,1.38-.44,2.28,2.28,0,0,1,1.39.23,1.32,1.32,0,0,1,.43.34.4.4,0,0,1,.07.24l-2.14.44v1.44l4.34,1.94c.36-.23.68-.44,1-.63a10,10,0,0,0,.88-.7,5.16,5.16,0,0,0,.73-.79,2.74,2.74,0,0,0,.41-.84,2.26,2.26,0,0,0,.07-.43h0v-1.51l-.56.11,0,0a4.91,4.91,0,0,0-1.16-1l2.28-1.32Z"/><path class="cls-6" d="M82.05,114.68l2.42-1.4c-1.65-1-2.39-2.11-2.22-3.19s1.29-2.25,3.35-3.51L90,108.44a6.85,6.85,0,0,0-2.3,1.85c-.28.5-.13.91.44,1.24a2.46,2.46,0,0,0,2.59-.19,3.68,3.68,0,0,0,1.2-1,2.36,2.36,0,0,0,.46-1.09,5.88,5.88,0,0,0,0-1.35L92.09,106a5.64,5.64,0,0,1,0-1.2,3.58,3.58,0,0,1,.27-1.11,3.18,3.18,0,0,1,.81-1.17,7.87,7.87,0,0,1,1.52-1.1,10,10,0,0,1,5-1.36,11.68,11.68,0,0,1,5.22,1.22l2.29-1.32,1.27.73L106.16,102a4.91,4.91,0,0,1,1.16,1,2.49,2.49,0,0,1,.53,1,1.8,1.8,0,0,1,0,.92,2.74,2.74,0,0,1-.41.84,5.16,5.16,0,0,1-.73.79,8.4,8.4,0,0,1-.88.7c-.27.19-.59.4-1,.63l-4.34-1.94.81-.5c.21-.14.43-.29.64-.45a2.71,2.71,0,0,0,.48-.43,1.27,1.27,0,0,0,.2-.38.39.39,0,0,0-.06-.36,1.32,1.32,0,0,0-.43-.34,2.28,2.28,0,0,0-1.39-.23,3.73,3.73,0,0,0-1.38.44,4.05,4.05,0,0,0-.9.68,1.62,1.62,0,0,0-.42.81,3.79,3.79,0,0,0-.09.7c0,.17,0,.44,0,.81l.21,1.86a6.54,6.54,0,0,1,0,1.4,4.62,4.62,0,0,1-.34,1.31A3.94,3.94,0,0,1,97,112.5a7.68,7.68,0,0,1-1.65,1.22A9.71,9.71,0,0,1,90.67,115a10.68,10.68,0,0,1-4.93-1L83.3,115.4Z"/><path class="cls-4" d="M133.38,101.8h-1.56c-1.75-3.44-5-6.68-9.66-9.39-15-8.63-39.22-8.63-54.17,0-4.7,2.71-7.92,6-9.67,9.39H56.77v6.25h0c0,5.66,3.74,11.32,11.22,15.64,15,8.64,39.21,8.64,54.17,0,7.48-4.32,11.22-10,11.22-15.64h0Z"/><path class="cls-6" d="M86.76,86.47A50.74,50.74,0,0,0,68,92.41c-4.7,2.71-7.92,6-9.67,9.39H56.77v6.25c0,5.66,3.74,11.32,11.22,15.64a50.74,50.74,0,0,0,18.77,5.95Z"/><path class="cls-3" d="M122.26,123.63c7.41-4.31,11.12-9.95,11.12-15.58V101.8h-1.56a22.35,22.35,0,0,0-7.69-8.15h-1.87Z"/><g class="cls-12"><path class="cls-3" d="M131.41,101.07a18.3,18.3,0,0,0-1.67-2.41v18.8a19.31,19.31,0,0,0,1.67-2.41Z"/><path class="cls-3" d="M68,92.41a30,30,0,0,0-5.35,3.89v23.51c.52.48,1.07,1,1.66,1.41V95.74h3.13v27.61c.19.11.36.23.56.34.36.21.73.41,1.1.61V95.74h3.13V125.8c.55.24,1.1.46,1.66.68V95.74H77v31.82c.54.17,1.1.33,1.66.48V95.74h3.13V128.8c.55.12,1.1.23,1.66.33V95.74H86.6v33.88l1.66.19V95.74H91.4v34.33c.55,0,1.1.05,1.66.06V95.74h3.13v34.41c.55,0,1.11,0,1.66-.05V95.74H101V129.9l1.66-.17v-34h3.14v33.55l1.66-.31V95.74h3.13v32.54l1.66-.46V95.74h3.13v31.07l1.67-.64V95.74h3.13v29c.56-.29,1.12-.58,1.66-.88V95.74H125v26.15c.59-.42,1.14-.85,1.66-1.29V95.74h.28a30.84,30.84,0,0,0-4.73-3.33,46.06,46.06,0,0,0-11.76-4.62H79.74A46,46,0,0,0,68,92.41Z"/><path class="cls-3" d="M59.5,99.86a18,18,0,0,0-1.18,1.94h-.48v11.46a16.57,16.57,0,0,0,1.66,3Z"/></g><ellipse class="cls-6" cx="95.07" cy="101.8" rx="38.31" ry="22.12"/><path class="cls-13" d="M103.65,105.58c11-6.36,13.91-15.63,8.71-23.52C98,77.86,80,79.23,68,86.16c-11,6.36-13.91,15.62-8.71,23.51C73.65,113.87,91.65,112.51,103.65,105.58Z"/><path class="cls-14" d="M122.16,117.43c-15,8.64-39.21,8.64-54.17,0-7.23-4.17-11-9.6-11.2-15.06-.26,5.84,3.47,11.74,11.2,16.2,15,8.64,39.21,8.64,54.17,0,7.73-4.46,11.45-10.35,11.19-16.2C133.11,107.84,129.39,113.26,122.16,117.43Z"/><ellipse class="cls-3" cx="95.07" cy="101.8" rx="27.19" ry="15.7"/><path class="cls-4" d="M75.85,92.13c10.61-6.13,27.83-6.13,38.45,0,5,2.88,7.64,6.61,7.93,10.38.34-4.25-2.31-8.57-7.93-11.81-10.62-6.13-27.84-6.13-38.45,0-5.63,3.24-8.27,7.56-7.94,11.81C68.21,98.74,70.85,95,75.85,92.13Z"/><path class="cls-4" d="M108.44,94.38l-2.1.61.6.23-2.06,1.19a11.68,11.68,0,0,0-5.22-1.22,9.93,9.93,0,0,0-5,1.36,7.87,7.87,0,0,0-1.52,1.1,3.15,3.15,0,0,0-.81,1.16A3.7,3.7,0,0,0,92,99.93a5.64,5.64,0,0,0,0,1.2l.24,1.92a5.88,5.88,0,0,1,0,1.35,2.36,2.36,0,0,1-.46,1.09,3.68,3.68,0,0,1-1.2,1,2.46,2.46,0,0,1-2.59.19c-.57-.33-.72-.74-.44-1.24a6.85,6.85,0,0,1,2.3-1.85v-1.44l-1.8.68-2.59-1.1a8.38,8.38,0,0,0-3.08,2.76l-.29-.34v1.42h0c0,1,.75,1.92,2.24,2.86l-1,.59-1.39-.63v1.44l1.25.72,2.44-1.41a10.68,10.68,0,0,0,4.93,1,9.71,9.71,0,0,0,4.66-1.25A7.68,7.68,0,0,0,97,107.68a3.94,3.94,0,0,0,.91-1.34,4.62,4.62,0,0,0,.34-1.31,6.54,6.54,0,0,0,0-1.4L98,101.77c0-.37,0-.64,0-.81a4,4,0,0,1,.09-.71,1.64,1.64,0,0,1,.42-.8,4.05,4.05,0,0,1,.9-.68,3.73,3.73,0,0,1,1.38-.44,2.28,2.28,0,0,1,1.39.23,1.32,1.32,0,0,1,.43.34.4.4,0,0,1,.07.24l-2.14.44V101l4.34,1.94c.36-.23.68-.44,1-.63a10,10,0,0,0,.88-.7,5.67,5.67,0,0,0,.73-.79,2.74,2.74,0,0,0,.41-.84,2.26,2.26,0,0,0,.07-.43h0V98.05l-.56.11,0,0a4.91,4.91,0,0,0-1.16-1l2.28-1.32Z"/><path class="cls-6" d="M82.05,108.42l2.42-1.4c-1.65-1-2.39-2.11-2.22-3.19s1.29-2.25,3.35-3.51L90,102.18a6.85,6.85,0,0,0-2.3,1.85c-.28.5-.13.91.44,1.24a2.46,2.46,0,0,0,2.59-.19,3.68,3.68,0,0,0,1.2-1,2.36,2.36,0,0,0,.46-1.09,5.88,5.88,0,0,0,0-1.35l-.24-1.92a5.64,5.64,0,0,1,0-1.2,3.7,3.7,0,0,1,.27-1.12,3.23,3.23,0,0,1,.81-1.16,7.87,7.87,0,0,1,1.52-1.1,9.93,9.93,0,0,1,5-1.36A11.68,11.68,0,0,1,104.88,95l2.29-1.32,1.27.73-2.28,1.32a4.91,4.91,0,0,1,1.16,1,2.49,2.49,0,0,1,.53,1,1.8,1.8,0,0,1,0,.92,2.74,2.74,0,0,1-.41.84,5.16,5.16,0,0,1-.73.79,10,10,0,0,1-.88.7c-.27.19-.59.4-1,.63l-4.34-1.94.81-.5c.21-.14.43-.29.64-.45a2.71,2.71,0,0,0,.48-.43,1.27,1.27,0,0,0,.2-.38.39.39,0,0,0-.06-.36,1.32,1.32,0,0,0-.43-.34,2.28,2.28,0,0,0-1.39-.23,3.73,3.73,0,0,0-1.38.44,4.05,4.05,0,0,0-.9.68,1.64,1.64,0,0,0-.42.8,4,4,0,0,0-.09.71c0,.17,0,.44,0,.81l.21,1.86a6.54,6.54,0,0,1,0,1.4,4.62,4.62,0,0,1-.34,1.31,3.94,3.94,0,0,1-.91,1.34,7.68,7.68,0,0,1-1.65,1.22,9.71,9.71,0,0,1-4.66,1.25,10.68,10.68,0,0,1-4.93-1l-2.44,1.41Z"/><path class="cls-4" d="M136.11,95.54h-1.55c-1.75-3.44-5-6.68-9.67-9.39-15-8.63-39.21-8.63-54.17,0-4.69,2.71-7.91,5.95-9.66,9.39H59.5v6.25h0c0,5.66,3.74,11.32,11.22,15.64,15,8.64,39.22,8.64,54.17,0,7.48-4.32,11.22-10,11.22-15.64h0Z"/><path class="cls-6" d="M89.5,80.21a50.66,50.66,0,0,0-18.78,5.94c-4.69,2.71-7.91,5.95-9.66,9.39H59.5v6.25c0,5.66,3.74,11.32,11.22,15.64a50.85,50.85,0,0,0,18.78,5.95Z"/><path class="cls-3" d="M125,117.37c7.41-4.31,11.11-10,11.11-15.58V95.54h-1.55a22.43,22.43,0,0,0-7.69-8.15H125Z"/><g class="cls-12"><path class="cls-3" d="M134.14,94.81a18.2,18.2,0,0,0-1.66-2.41v18.8a18.2,18.2,0,0,0,1.66-2.41Z"/><path class="cls-3" d="M70.72,86.15A30,30,0,0,0,65.37,90v23.51c.52.48,1.07,1,1.66,1.41V89.48h3.14v27.61l.55.34c.36.21.74.41,1.11.61V89.48H75v30.06c.55.24,1.1.46,1.66.68V89.48h3.13V121.3c.55.17,1.11.33,1.66.48V89.48h3.14v33.06c.55.12,1.1.22,1.66.33V89.48h3.13v33.88l1.66.19V89.48h3.13v34.33l1.66.06V89.48h3.14v34.41c.55,0,1.1,0,1.66,0V89.48h3.13v34.16l1.66-.17v-34h3.13V123l1.67-.31V89.48h3.13V122l1.66-.46V89.48h3.13v31.07c.56-.21,1.12-.42,1.66-.64V89.48h3.13v29c.57-.29,1.12-.58,1.67-.88V89.48h3.13v26.15c.58-.42,1.13-.85,1.66-1.29V89.48h.28a31,31,0,0,0-4.74-3.33,46,46,0,0,0-11.75-4.62H82.48A46.06,46.06,0,0,0,70.72,86.15Z"/><path class="cls-3" d="M62.24,93.6a18,18,0,0,0-1.18,1.94h-.48V107a16,16,0,0,0,1.66,3Z"/></g><ellipse class="cls-6" cx="97.81" cy="95.54" rx="38.31" ry="22.12"/><path class="cls-13" d="M106.39,99.32c11-6.36,13.91-15.63,8.7-23.52C100.72,71.6,82.73,73,70.72,79.9c-11,6.36-13.9,15.62-8.7,23.51C76.39,107.61,94.38,106.25,106.39,99.32Z"/><path class="cls-14" d="M124.89,111.17c-15,8.64-39.21,8.64-54.17,0-7.23-4.17-10.95-9.6-11.19-15.06-.26,5.84,3.46,11.74,11.19,16.2,15,8.64,39.22,8.64,54.17,0,7.74-4.46,11.46-10.35,11.2-16.2C135.85,101.58,132.12,107,124.89,111.17Z"/><ellipse class="cls-3" cx="97.81" cy="95.54" rx="27.19" ry="15.7"/><path class="cls-4" d="M78.58,85.87c10.62-6.13,27.84-6.13,38.45,0,5,2.88,7.64,6.61,7.94,10.38.33-4.25-2.31-8.57-7.94-11.81-10.61-6.13-27.83-6.13-38.45,0C73,87.68,70.31,92,70.65,96.25,71,92.48,73.59,88.75,78.58,85.87Z"/><path class="cls-4" d="M111.18,88.12l-2.11.61.6.23-2.06,1.19a11.61,11.61,0,0,0-5.21-1.22,10,10,0,0,0-5,1.36,7.77,7.77,0,0,0-1.51,1.1A3.31,3.31,0,0,0,95,92.55a4,4,0,0,0-.26,1.12,6.3,6.3,0,0,0,0,1.2l.25,1.92a6.51,6.51,0,0,1,.05,1.35,2.59,2.59,0,0,1-.46,1.09,3.62,3.62,0,0,1-1.21,1,2.47,2.47,0,0,1-2.58.19c-.58-.33-.72-.74-.44-1.24a6.66,6.66,0,0,1,2.29-1.85V95.92l-1.8.68-2.59-1.1a8.42,8.42,0,0,0-3.07,2.76l-.3-.34v1.42h0c0,1,.75,1.92,2.23,2.86l-1,.59-1.39-.63v1.44l1.25.72,2.44-1.41a10.68,10.68,0,0,0,4.93,1,9.64,9.64,0,0,0,4.65-1.25,7.21,7.21,0,0,0,1.65-1.22,4,4,0,0,0,.92-1.34,5,5,0,0,0,.34-1.31,7.31,7.31,0,0,0,0-1.4l-.2-1.86c0-.37-.05-.64-.05-.81a4,4,0,0,1,.09-.71,1.64,1.64,0,0,1,.42-.8,4.05,4.05,0,0,1,.9-.68,3.62,3.62,0,0,1,1.38-.44,2.23,2.23,0,0,1,1.38.23,1.22,1.22,0,0,1,.43.34.35.35,0,0,1,.08.24l-2.14.44v1.44l4.34,1.94,1-.63c.28-.2.57-.43.88-.7a5.54,5.54,0,0,0,.72-.79,2.76,2.76,0,0,0,.42-.84,2.26,2.26,0,0,0,.07-.43h0V91.78l-.55.12,0,0a5.12,5.12,0,0,0-1.16-1l2.28-1.32Z"/><path class="cls-6" d="M84.79,102.16l2.41-1.4c-1.65-1-2.38-2.11-2.21-3.19s1.29-2.25,3.34-3.51l4.39,1.86a6.66,6.66,0,0,0-2.29,1.85c-.28.5-.14.91.44,1.24a2.44,2.44,0,0,0,2.58-.19,3.62,3.62,0,0,0,1.21-1,2.59,2.59,0,0,0,.46-1.09,6.51,6.51,0,0,0-.05-1.35l-.25-1.92a6.3,6.3,0,0,1,0-1.2A4,4,0,0,1,95,91.11,3.31,3.31,0,0,1,95.86,90a7.77,7.77,0,0,1,1.51-1.1,10,10,0,0,1,5-1.36,11.61,11.61,0,0,1,5.21,1.22l2.3-1.32,1.27.73-2.28,1.32a5.12,5.12,0,0,1,1.16,1,2.63,2.63,0,0,1,.53.95,1.8,1.8,0,0,1,0,.92,2.76,2.76,0,0,1-.42.84,5.54,5.54,0,0,1-.72.79c-.31.27-.6.5-.88.7l-1,.63-4.34-1.94.81-.5.64-.45a2.71,2.71,0,0,0,.48-.43,1.27,1.27,0,0,0,.2-.38.37.37,0,0,0-.07-.36,1.22,1.22,0,0,0-.43-.34,2.23,2.23,0,0,0-1.38-.23,3.62,3.62,0,0,0-1.38.44,4.05,4.05,0,0,0-.9.68,1.64,1.64,0,0,0-.42.8,4,4,0,0,0-.09.71c0,.17,0,.44.05.81l.2,1.86a7.31,7.31,0,0,1,0,1.4,5,5,0,0,1-.34,1.31,4,4,0,0,1-.92,1.34,7.21,7.21,0,0,1-1.65,1.22,9.64,9.64,0,0,1-4.65,1.25,10.68,10.68,0,0,1-4.93-1L86,102.88Z"/><path class="cls-4" d="M128.42,87.9h-1.56c-1.75-3.44-5-6.68-9.66-9.39-15-8.63-39.21-8.63-54.17,0-4.69,2.71-7.91,5.95-9.66,9.39H51.81v6.25h0c0,5.66,3.74,11.32,11.22,15.64,15,8.64,39.21,8.64,54.17,0,7.48-4.32,11.22-10,11.22-15.64h0Z"/><path class="cls-6" d="M81.81,72.57A50.6,50.6,0,0,0,63,78.51c-4.69,2.71-7.91,5.95-9.66,9.39H51.81v6.25c0,5.66,3.74,11.32,11.22,15.64a50.79,50.79,0,0,0,18.78,5.95Z"/><path class="cls-3" d="M117.3,109.73c7.41-4.31,11.12-10,11.12-15.58V87.9h-1.56a22.35,22.35,0,0,0-7.69-8.15H117.3Z"/><g class="cls-12"><path class="cls-3" d="M126.45,87.17a18.2,18.2,0,0,0-1.66-2.41v18.8a18.2,18.2,0,0,0,1.66-2.41Z"/><path class="cls-3" d="M63,78.51a30,30,0,0,0-5.35,3.89v23.51c.52.48,1.07,1,1.66,1.41V81.84h3.13v27.61l.56.34c.36.21.73.41,1.1.61V81.84h3.14V111.9c.54.24,1.09.46,1.66.68V81.84h3.13v31.82c.55.17,1.1.33,1.66.48V81.84h3.13V114.9c.55.12,1.11.22,1.66.33V81.84h3.14v33.88l1.66.19V81.84h3.13v34.33c.55,0,1.11,0,1.66.06V81.84h3.13v34.41c.56,0,1.11,0,1.66,0V81.84H96V116l1.66-.17v-34h3.13v33.55l1.66-.31V81.84h3.13v32.54c.56-.15,1.12-.3,1.66-.46V81.84h3.14v31.07l1.66-.64V81.84h3.13v29c.56-.29,1.12-.58,1.66-.88V81.84H120V108c.59-.42,1.14-.85,1.67-1.29V81.84h.27a30.84,30.84,0,0,0-4.73-3.33,46.14,46.14,0,0,0-11.75-4.62H74.78A46.14,46.14,0,0,0,63,78.51Z"/><path class="cls-3" d="M54.55,86a16.48,16.48,0,0,0-1.18,1.94h-.49V99.36a16.63,16.63,0,0,0,1.67,3Z"/></g><ellipse class="cls-6" cx="90.11" cy="87.9" rx="38.31" ry="22.12"/><path class="cls-13" d="M98.7,91.68c11-6.36,13.9-15.63,8.7-23.52C93,64,75,65.33,63,72.26c-11,6.36-13.91,15.62-8.71,23.51C68.69,100,86.69,98.61,98.7,91.68Z"/><path class="cls-14" d="M117.2,103.53c-15,8.64-39.21,8.64-54.17,0-7.23-4.17-11-9.6-11.2-15.06-.26,5.84,3.47,11.74,11.2,16.2,15,8.64,39.21,8.64,54.17,0,7.73-4.46,11.46-10.35,11.2-16.2C128.15,93.94,124.43,99.36,117.2,103.53Z"/><ellipse class="cls-3" cx="90.11" cy="87.9" rx="27.19" ry="15.7"/><path class="cls-4" d="M70.89,78.23c10.62-6.13,27.83-6.13,38.45,0,5,2.88,7.64,6.61,7.94,10.38.33-4.25-2.31-8.57-7.94-11.81-10.62-6.13-27.83-6.13-38.45,0C65.26,80,62.62,84.36,63,88.61,63.25,84.84,65.9,81.11,70.89,78.23Z"/><path class="cls-4" d="M103.49,80.48l-2.11.61.6.23-2.06,1.19a11.62,11.62,0,0,0-5.22-1.22,10,10,0,0,0-5,1.36,7.87,7.87,0,0,0-1.52,1.1,3.15,3.15,0,0,0-.81,1.16A4.41,4.41,0,0,0,87.08,86a6.39,6.39,0,0,0,0,1.2l.24,1.92a5.36,5.36,0,0,1,0,1.35A2.44,2.44,0,0,1,87,91.59a3.83,3.83,0,0,1-1.21,1,2.46,2.46,0,0,1-2.59.19c-.57-.33-.72-.74-.43-1.24A6.56,6.56,0,0,1,85,89.72V88.28l-1.8.68-2.59-1.1a8.25,8.25,0,0,0-3.07,2.76l-.3-.34V91.7h0c0,1,.75,1.92,2.23,2.86l-1,.59-1.39-.63V96l1.24.72,2.44-1.41a10.72,10.72,0,0,0,4.94,1A9.64,9.64,0,0,0,90.37,95,7.68,7.68,0,0,0,92,93.78a4.13,4.13,0,0,0,.92-1.34,5.4,5.4,0,0,0,.34-1.31,7.31,7.31,0,0,0,0-1.4l-.21-1.86c0-.37,0-.64,0-.81a4,4,0,0,1,.09-.71,1.64,1.64,0,0,1,.42-.8,3.75,3.75,0,0,1,2.28-1.12,2.26,2.26,0,0,1,1.38.23,1.22,1.22,0,0,1,.43.34.35.35,0,0,1,.08.24l-2.15.44v1.44l4.35,1.94.95-.63a9.89,9.89,0,0,0,.87-.7,5.12,5.12,0,0,0,.73-.79,2.74,2.74,0,0,0,.41-.84,1.33,1.33,0,0,0,.07-.43h0V84.15l-.55.11,0,0a5.35,5.35,0,0,0-1.16-1l2.28-1.32Z"/><path class="cls-6" d="M77.1,94.52l2.41-1.4c-1.65-1-2.39-2.11-2.21-3.19s1.28-2.25,3.34-3.51L85,88.28a6.67,6.67,0,0,0-2.29,1.85c-.29.5-.14.91.43,1.24a2.46,2.46,0,0,0,2.59-.19,3.83,3.83,0,0,0,1.21-1,2.44,2.44,0,0,0,.45-1.09,5.36,5.36,0,0,0,0-1.35l-.24-1.92a6.39,6.39,0,0,1,0-1.2,4.41,4.41,0,0,1,.27-1.12,3.15,3.15,0,0,1,.81-1.16,8.19,8.19,0,0,1,1.52-1.1,10,10,0,0,1,5-1.36,11.62,11.62,0,0,1,5.22,1.22l2.29-1.32,1.28.73-2.28,1.32a5.35,5.35,0,0,1,1.16,1,2.59,2.59,0,0,1,.52.95,1.61,1.61,0,0,1,0,.92,2.74,2.74,0,0,1-.41.84,5.12,5.12,0,0,1-.73.79,9.89,9.89,0,0,1-.87.7l-.95.63-4.35-1.94.81-.5.65-.45a2.59,2.59,0,0,0,.47-.43,1.11,1.11,0,0,0,.21-.38.39.39,0,0,0-.07-.36,1.22,1.22,0,0,0-.43-.34A2.26,2.26,0,0,0,95.81,83a3.75,3.75,0,0,0-2.28,1.12,1.64,1.64,0,0,0-.42.8,4,4,0,0,0-.09.71c0,.17,0,.44,0,.81l.21,1.86a7.31,7.31,0,0,1,0,1.4A5.4,5.4,0,0,1,92.94,91,4.13,4.13,0,0,1,92,92.34a7.68,7.68,0,0,1-1.65,1.22,9.64,9.64,0,0,1-4.65,1.25,10.72,10.72,0,0,1-4.94-1l-2.44,1.41Z"/><path class="cls-4" d="M191.47,167.2h-1.55c-1.75-3.43-5-6.67-9.67-9.38-15-8.64-39.21-8.64-54.17,0-4.69,2.71-7.91,6-9.66,9.38h-1.56v6.26h0c0,5.66,3.74,11.32,11.22,15.63,15,8.64,39.22,8.64,54.18,0,7.47-4.32,11.21-10,11.21-15.64h0Z"/><path class="cls-6" d="M144.86,151.87a50.85,50.85,0,0,0-18.78,5.95c-4.69,2.71-7.91,6-9.66,9.38h-1.56v6.26c0,5.66,3.74,11.32,11.22,15.63A50.85,50.85,0,0,0,144.86,195Z"/><path class="cls-3" d="M180.36,189c7.41-4.31,11.11-9.94,11.11-15.57V167.2h-1.55a22.33,22.33,0,0,0-7.69-8.14h-1.87Z"/><g class="cls-12"><path class="cls-3" d="M189.5,166.47a18.79,18.79,0,0,0-1.66-2.4v18.8a18.2,18.2,0,0,0,1.66-2.41Z"/><path class="cls-3" d="M126.08,157.82a30.49,30.49,0,0,0-5.35,3.88v23.52c.52.47,1.07.95,1.66,1.4V161.14h3.14v27.62l.55.33c.36.21.74.41,1.11.61V161.14h3.13v30.07c.55.23,1.1.46,1.66.67V161.14h3.13V193l1.66.49V161.14h3.14V194.2c.55.12,1.1.23,1.66.33V161.14h3.13V195l1.66.2V161.14h3.13v34.33l1.66.07v-34.4h3.14v34.42l1.66-.05V161.14h3.13V195.3l1.66-.16v-34h3.13v33.55c.56-.09,1.11-.19,1.67-.3V161.14h3.13v32.54c.56-.14,1.11-.29,1.66-.45V161.14h3.13v31.07c.56-.2,1.12-.41,1.66-.63V161.14h3.13v29c.57-.28,1.12-.57,1.67-.88V161.14h3.13v26.15c.58-.42,1.13-.85,1.66-1.29V161.14H185a30.92,30.92,0,0,0-4.74-3.32,46,46,0,0,0-11.75-4.63H137.84A46.08,46.08,0,0,0,126.08,157.82Z"/><path class="cls-3" d="M117.6,165.26a19,19,0,0,0-1.18,1.94h-.48v11.47a16.5,16.5,0,0,0,1.66,3Z"/></g><ellipse class="cls-6" cx="153.17" cy="167.2" rx="38.31" ry="22.12"/><path class="cls-13" d="M161.75,171c11-6.36,13.91-15.62,8.7-23.51-14.37-4.2-32.36-2.84-44.37,4.09-11,6.36-13.9,15.63-8.7,23.52C131.75,179.28,149.74,177.91,161.75,171Z"/><path class="cls-14" d="M180.26,182.84c-15,8.64-39.22,8.64-54.18,0-7.23-4.17-11-9.6-11.19-15.07-.26,5.85,3.46,11.75,11.19,16.21,15,8.64,39.22,8.64,54.18,0,7.73-4.46,11.45-10.36,11.19-16.21C191.21,173.24,187.48,178.67,180.26,182.84Z"/><ellipse class="cls-3" cx="153.17" cy="167.2" rx="27.19" ry="15.7"/><path class="cls-4" d="M133.94,157.53c10.62-6.13,27.84-6.13,38.45,0,5,2.89,7.64,6.61,7.94,10.39.33-4.25-2.31-8.57-7.94-11.82-10.61-6.13-27.83-6.13-38.45,0-5.62,3.25-8.27,7.56-7.93,11.82C126.31,164.14,129,160.42,133.94,157.53Z"/><path class="cls-4" d="M166.54,159.79l-2.11.6.6.24L163,161.82a11.48,11.48,0,0,0-5.21-1.22,10,10,0,0,0-5,1.36,7.38,7.38,0,0,0-1.51,1.1,3.31,3.31,0,0,0-.82,1.16,3.85,3.85,0,0,0-.26,1.11,6.41,6.41,0,0,0,0,1.21l.25,1.92a6.4,6.4,0,0,1,0,1.34,2.42,2.42,0,0,1-.46,1.09,3.64,3.64,0,0,1-1.21,1,2.44,2.44,0,0,1-2.58.18c-.58-.33-.72-.74-.44-1.23a6.54,6.54,0,0,1,2.29-1.85v-1.44l-1.8.67-2.59-1.1a8.59,8.59,0,0,0-3.07,2.76l-.3-.33V171h0c0,1,.75,1.93,2.23,2.87l-1,.59-1.39-.64v1.44l1.25.72,2.44-1.41a10.56,10.56,0,0,0,4.93,1,9.86,9.86,0,0,0,4.65-1.25,7.53,7.53,0,0,0,1.65-1.23,4,4,0,0,0,.92-1.33,5,5,0,0,0,.34-1.32,7.31,7.31,0,0,0,0-1.4l-.2-1.85c0-.38-.05-.65-.05-.82a3.9,3.9,0,0,1,.09-.7,1.59,1.59,0,0,1,.42-.8,3.77,3.77,0,0,1,.9-.68,3.45,3.45,0,0,1,1.38-.44,2.16,2.16,0,0,1,1.38.23,1.23,1.23,0,0,1,.43.33.38.38,0,0,1,.08.24l-2.14.45v1.44l4.34,1.93c.36-.22.67-.43,1-.63a8.13,8.13,0,0,0,.88-.7,5,5,0,0,0,.72-.78,2.7,2.7,0,0,0,.42-.85A2.26,2.26,0,0,0,166,165h0v-1.52l-.55.12,0,0a5.12,5.12,0,0,0-1.16-1l2.28-1.32Z"/><path class="cls-6" d="M140.15,173.82l2.41-1.39c-1.65-1.05-2.38-2.11-2.21-3.19s1.29-2.26,3.34-3.52l4.39,1.87a6.54,6.54,0,0,0-2.29,1.85c-.28.49-.14.9.44,1.24a2.47,2.47,0,0,0,2.58-.19,3.64,3.64,0,0,0,1.21-1,2.42,2.42,0,0,0,.46-1.09,6.42,6.42,0,0,0,0-1.34l-.25-1.92a6.38,6.38,0,0,1,0-1.21,3.85,3.85,0,0,1,.26-1.11,3.31,3.31,0,0,1,.82-1.16,7.38,7.38,0,0,1,1.51-1.1,10,10,0,0,1,5-1.36,11.61,11.61,0,0,1,5.21,1.22l2.3-1.33,1.27.74-2.28,1.32a5.12,5.12,0,0,1,1.16,1,2.55,2.55,0,0,1,.53,1,1.76,1.76,0,0,1,0,.91,2.7,2.7,0,0,1-.42.85,5,5,0,0,1-.72.78,8.13,8.13,0,0,1-.88.7c-.28.2-.59.41-1,.63L158.61,165l.81-.51a7.56,7.56,0,0,0,.64-.45,2.73,2.73,0,0,0,.48-.42,1.27,1.27,0,0,0,.2-.38.39.39,0,0,0-.07-.37,1.23,1.23,0,0,0-.43-.33,2.16,2.16,0,0,0-1.38-.23,3.45,3.45,0,0,0-1.38.44,3.77,3.77,0,0,0-.9.68,1.59,1.59,0,0,0-.42.8,3.9,3.9,0,0,0-.09.7c0,.17,0,.44.05.82l.2,1.85a7.31,7.31,0,0,1,0,1.4,5,5,0,0,1-.34,1.32,4,4,0,0,1-.92,1.33,7.53,7.53,0,0,1-1.65,1.23,9.86,9.86,0,0,1-4.65,1.25,10.56,10.56,0,0,1-4.93-1l-2.44,1.41Z"/><path class="cls-4" d="M191.47,160.94h-1.55c-1.75-3.43-5-6.67-9.67-9.38-15-8.64-39.21-8.64-54.17,0-4.69,2.71-7.91,5.95-9.66,9.38h-1.56v6.26h0c0,5.66,3.74,11.32,11.22,15.63,15,8.64,39.22,8.64,54.18,0,7.47-4.31,11.21-10,11.21-15.63h0Z"/><path class="cls-6" d="M144.86,145.61a50.85,50.85,0,0,0-18.78,5.95c-4.69,2.71-7.91,5.95-9.66,9.38h-1.56v6.26c0,5.66,3.74,11.32,11.22,15.63a50.85,50.85,0,0,0,18.78,5.95Z"/><path class="cls-3" d="M180.36,182.77c7.41-4.31,11.11-9.94,11.11-15.57v-6.26h-1.55a22.33,22.33,0,0,0-7.69-8.14h-1.87Z"/><g class="cls-12"><path class="cls-3" d="M189.5,160.21a18.12,18.12,0,0,0-1.66-2.4v18.8a18.88,18.88,0,0,0,1.66-2.41Z"/><path class="cls-3" d="M126.08,151.56a30.49,30.49,0,0,0-5.35,3.88V179c.52.47,1.07.95,1.66,1.4V154.88h3.14V182.5l.55.33c.36.21.74.41,1.11.61V154.88h3.13V185c.55.23,1.1.46,1.66.67V154.88h3.13V186.7l1.66.49V154.88h3.14v33.06c.55.12,1.1.23,1.66.33V154.88h3.13v33.88l1.66.2V154.88h3.13v34.33l1.66.07v-34.4h3.14V189.3l1.66-.05V154.88h3.13V189c.56,0,1.11-.1,1.66-.17v-34h3.13v33.55c.56-.09,1.11-.19,1.67-.3V154.88h3.13v32.54c.56-.14,1.11-.29,1.66-.45V154.88h3.13V186c.56-.2,1.12-.41,1.66-.63V154.88h3.13v29c.57-.28,1.12-.57,1.67-.88V154.88h3.13V181c.58-.42,1.13-.85,1.66-1.29V154.88H185a30.92,30.92,0,0,0-4.74-3.32,46,46,0,0,0-11.75-4.63H137.84A46.08,46.08,0,0,0,126.08,151.56Z"/><path class="cls-3" d="M117.6,159a19,19,0,0,0-1.18,1.94h-.48v11.47a16.5,16.5,0,0,0,1.66,3Z"/></g><ellipse class="cls-6" cx="153.17" cy="160.94" rx="38.31" ry="22.12"/><path class="cls-13" d="M161.75,164.72c11-6.36,13.91-15.62,8.7-23.51-14.37-4.2-32.36-2.84-44.37,4.09-11,6.36-13.9,15.63-8.7,23.52C131.75,173,149.74,171.65,161.75,164.72Z"/><path class="cls-14" d="M180.26,176.58c-15,8.64-39.22,8.64-54.18,0-7.23-4.17-11-9.6-11.19-15.07-.26,5.85,3.46,11.75,11.19,16.21,15,8.64,39.22,8.64,54.18,0,7.73-4.46,11.45-10.36,11.19-16.21C191.21,167,187.48,172.41,180.26,176.58Z"/><ellipse class="cls-3" cx="153.17" cy="160.94" rx="27.19" ry="15.7"/><path class="cls-4" d="M133.94,151.27c10.62-6.13,27.84-6.13,38.45,0,5,2.89,7.64,6.61,7.94,10.39.33-4.25-2.31-8.57-7.94-11.82-10.61-6.13-27.83-6.13-38.45,0-5.62,3.25-8.27,7.56-7.93,11.82C126.31,157.88,129,154.16,133.94,151.27Z"/><path class="cls-4" d="M166.54,153.53l-2.11.6.6.24L163,155.56a11.48,11.48,0,0,0-5.21-1.22,10,10,0,0,0-5,1.36,7.38,7.38,0,0,0-1.51,1.1,3.31,3.31,0,0,0-.82,1.16,3.85,3.85,0,0,0-.26,1.11,6.41,6.41,0,0,0,0,1.21l.25,1.92a6.4,6.4,0,0,1,0,1.34,2.42,2.42,0,0,1-.46,1.09,3.64,3.64,0,0,1-1.21,1,2.44,2.44,0,0,1-2.58.18c-.58-.33-.72-.74-.44-1.23a6.54,6.54,0,0,1,2.29-1.85v-1.44l-1.8.67-2.59-1.1a8.5,8.5,0,0,0-3.07,2.76l-.3-.33v1.41h0c0,1,.75,1.93,2.23,2.87l-1,.59-1.39-.64V169l1.25.72,2.44-1.41a10.56,10.56,0,0,0,4.93,1,9.86,9.86,0,0,0,4.65-1.25,7.53,7.53,0,0,0,1.65-1.23,4,4,0,0,0,.92-1.33,5,5,0,0,0,.34-1.32,7.31,7.31,0,0,0,0-1.4l-.2-1.85c0-.38-.05-.65-.05-.82a3.9,3.9,0,0,1,.09-.7,1.59,1.59,0,0,1,.42-.8,3.77,3.77,0,0,1,.9-.68,3.45,3.45,0,0,1,1.38-.44,2.16,2.16,0,0,1,1.38.23,1.12,1.12,0,0,1,.43.33.38.38,0,0,1,.08.24l-2.14.45v1.44L163,162.1c.36-.22.67-.43,1-.63a8.13,8.13,0,0,0,.88-.7,5,5,0,0,0,.72-.78,2.7,2.7,0,0,0,.42-.85,2.26,2.26,0,0,0,.07-.43h0v-1.51l-.55.11,0,0a5.12,5.12,0,0,0-1.16-1l2.28-1.32Z"/><path class="cls-6" d="M140.15,167.56l2.41-1.39c-1.65-1-2.38-2.11-2.21-3.19s1.29-2.26,3.34-3.52l4.39,1.87a6.54,6.54,0,0,0-2.29,1.85c-.28.49-.14.9.44,1.23a2.44,2.44,0,0,0,2.58-.18,3.64,3.64,0,0,0,1.21-1,2.42,2.42,0,0,0,.46-1.09,6.4,6.4,0,0,0,0-1.34l-.25-1.92a6.41,6.41,0,0,1,0-1.21,3.85,3.85,0,0,1,.26-1.11,3.31,3.31,0,0,1,.82-1.16,7.38,7.38,0,0,1,1.51-1.1,10,10,0,0,1,5-1.36,11.48,11.48,0,0,1,5.21,1.22l2.3-1.33,1.27.74-2.28,1.32a5.12,5.12,0,0,1,1.16,1,2.48,2.48,0,0,1,.53.95,1.76,1.76,0,0,1,0,.91,2.7,2.7,0,0,1-.42.85,5,5,0,0,1-.72.78,8.13,8.13,0,0,1-.88.7c-.28.2-.59.41-1,.63l-4.34-1.93.81-.51a7.56,7.56,0,0,0,.64-.45,2.73,2.73,0,0,0,.48-.42,1.4,1.4,0,0,0,.2-.38.38.38,0,0,0-.07-.37,1.12,1.12,0,0,0-.43-.33,2.16,2.16,0,0,0-1.38-.23,3.45,3.45,0,0,0-1.38.44,3.77,3.77,0,0,0-.9.68,1.59,1.59,0,0,0-.42.8,3.9,3.9,0,0,0-.09.7c0,.17,0,.44.05.82l.2,1.85a7.31,7.31,0,0,1,0,1.4,5,5,0,0,1-.34,1.32,4,4,0,0,1-.92,1.33,7.53,7.53,0,0,1-1.65,1.23,9.86,9.86,0,0,1-4.65,1.25,10.56,10.56,0,0,1-4.93-1l-2.44,1.41Z"/><path class="cls-4" d="M186.11,158h-1.56c-1.75-3.44-5-6.67-9.66-9.38-15-8.64-39.21-8.64-54.17,0-4.69,2.71-7.91,5.95-9.66,9.39H109.5v6.25h0c0,5.66,3.74,11.32,11.22,15.64,15,8.64,39.21,8.64,54.17,0,7.48-4.32,11.22-10,11.22-15.64h0Z"/><path class="cls-6" d="M139.5,142.67a50.79,50.79,0,0,0-18.78,5.94c-4.69,2.71-7.91,5.95-9.66,9.39H109.5v6.25c0,5.66,3.74,11.32,11.22,15.64a50.79,50.79,0,0,0,18.78,6Z"/><path class="cls-3" d="M175,179.83c7.4-4.31,11.11-9.94,11.11-15.58V158h-1.56a22.35,22.35,0,0,0-7.69-8.15H175Z"/><g class="cls-12"><path class="cls-3" d="M184.14,157.27a17.49,17.49,0,0,0-1.66-2.4v18.79a18.12,18.12,0,0,0,1.66-2.4Z"/><path class="cls-3" d="M120.72,148.61a30,30,0,0,0-5.35,3.89V176c.52.48,1.07,1,1.66,1.41V151.94h3.13v27.61l.56.34c.36.21.73.41,1.1.61V151.94H125V182c.54.24,1.1.46,1.66.68V151.94h3.13v31.82c.55.17,1.1.33,1.66.48v-32.3h3.13V185c.55.12,1.11.23,1.66.33V151.94h3.14v33.88c.55.07,1.1.14,1.66.19V151.94h3.13v34.33l1.66.07v-34.4h3.13v34.41c.56,0,1.11,0,1.67,0V151.94h3.13V186.1c.55,0,1.11-.1,1.66-.17v-34h3.13v33.55c.56-.09,1.11-.2,1.66-.3V151.94h3.13v32.54c.56-.14,1.12-.3,1.67-.45V151.94h3.13V183c.56-.2,1.11-.42,1.66-.64V151.94h3.13v29c.57-.28,1.12-.58,1.66-.88V151.94h3.13v26.15c.59-.42,1.14-.85,1.67-1.29V151.94h.27a30.33,30.33,0,0,0-4.73-3.32A45.79,45.79,0,0,0,163.14,144H132.47A46.14,46.14,0,0,0,120.72,148.61Z"/><path class="cls-3" d="M112.24,156.06a16.48,16.48,0,0,0-1.18,1.94h-.48v11.46a16,16,0,0,0,1.66,3Z"/></g><ellipse class="cls-6" cx="147.81" cy="158" rx="38.31" ry="22.12"/><path class="cls-13" d="M156.39,161.78c11-6.36,13.9-15.63,8.7-23.52-14.37-4.19-32.36-2.83-44.37,4.1-11,6.36-13.91,15.62-8.71,23.51C126.39,170.07,144.38,168.71,156.39,161.78Z"/><path class="cls-14" d="M174.89,173.64c-15,8.63-39.21,8.63-54.17,0-7.23-4.18-11-9.6-11.2-15.07-.26,5.85,3.47,11.74,11.2,16.21,15,8.63,39.21,8.63,54.17,0,7.73-4.47,11.46-10.36,11.2-16.21C185.84,164,182.12,169.46,174.89,173.64Z"/><path class="cls-3" d="M167,169.1c-10.62,6.13-27.83,6.13-38.45,0s-10.62-16.07,0-22.2,27.83-6.13,38.45,0S177.65,163,167,169.1Z"/><path class="cls-4" d="M128.58,148.33c10.62-6.13,27.83-6.13,38.45,0,5,2.88,7.64,6.61,7.94,10.39.33-4.26-2.31-8.57-7.94-11.82-10.62-6.13-27.83-6.13-38.45,0-5.63,3.25-8.27,7.56-7.93,11.81C120.94,154.94,123.59,151.21,128.58,148.33Z"/><path class="cls-4" d="M161.18,150.59l-2.11.6.6.24-2.06,1.18a11.75,11.75,0,0,0-5.22-1.22,10.06,10.06,0,0,0-5,1.36,8.19,8.19,0,0,0-1.52,1.1A3.18,3.18,0,0,0,145,155a4.25,4.25,0,0,0-.27,1.11,6.53,6.53,0,0,0,0,1.21l.24,1.91a5.36,5.36,0,0,1,.05,1.35,2.44,2.44,0,0,1-.45,1.09,3.71,3.71,0,0,1-1.21,1,2.44,2.44,0,0,1-2.58.19c-.58-.33-.73-.74-.44-1.24a6.78,6.78,0,0,1,2.29-1.85v-1.44l-1.8.68-2.59-1.1a8.25,8.25,0,0,0-3.07,2.76l-.3-.33v1.41h0c0,1,.75,1.92,2.23,2.86l-1,.59-1.39-.63v1.44l1.25.72,2.43-1.41a10.72,10.72,0,0,0,4.94,1,9.75,9.75,0,0,0,4.65-1.26,7.68,7.68,0,0,0,1.65-1.22,4,4,0,0,0,.92-1.34,5.29,5.29,0,0,0,.34-1.31,7.31,7.31,0,0,0,0-1.4l-.21-1.86c0-.37,0-.64,0-.81a3.79,3.79,0,0,1,.09-.7,1.67,1.67,0,0,1,.42-.81,3.76,3.76,0,0,1,.89-.68,3.92,3.92,0,0,1,1.39-.44,2.26,2.26,0,0,1,1.38.23,1.22,1.22,0,0,1,.43.34.35.35,0,0,1,.08.24l-2.15.44v1.44l4.35,1.94.95-.63a8.34,8.34,0,0,0,.87-.7,4.7,4.7,0,0,0,.73-.79,2.63,2.63,0,0,0,.41-.84,1.33,1.33,0,0,0,.07-.43h0v-1.51l-.55.11,0,0a5.12,5.12,0,0,0-1.16-1l2.28-1.32Z"/><path class="cls-6" d="M134.79,164.62l2.41-1.4c-1.65-1-2.39-2.11-2.21-3.19s1.28-2.25,3.34-3.51l4.39,1.86a6.78,6.78,0,0,0-2.29,1.85c-.29.5-.14.91.44,1.24a2.44,2.44,0,0,0,2.58-.19,3.71,3.71,0,0,0,1.21-1,2.44,2.44,0,0,0,.45-1.09,5.36,5.36,0,0,0-.05-1.35l-.24-1.91a6.53,6.53,0,0,1,0-1.21,4.25,4.25,0,0,1,.27-1.11,3.18,3.18,0,0,1,.81-1.17,8.19,8.19,0,0,1,1.52-1.1,10.06,10.06,0,0,1,5-1.36,11.75,11.75,0,0,1,5.22,1.22l2.29-1.32,1.28.74-2.28,1.31a5.12,5.12,0,0,1,1.16,1,2.59,2.59,0,0,1,.52,1,1.61,1.61,0,0,1,0,.92,2.63,2.63,0,0,1-.41.84,4.7,4.7,0,0,1-.73.79,8.34,8.34,0,0,1-.87.7l-.95.63-4.35-1.94.82-.5.64-.45a2.59,2.59,0,0,0,.47-.43,1.07,1.07,0,0,0,.21-.37.38.38,0,0,0-.07-.37,1.22,1.22,0,0,0-.43-.34,2.26,2.26,0,0,0-1.38-.23,3.92,3.92,0,0,0-1.39.44,3.76,3.76,0,0,0-.89.68,1.67,1.67,0,0,0-.42.81,3.79,3.79,0,0,0-.09.7c0,.17,0,.44,0,.81l.21,1.86a7.31,7.31,0,0,1,0,1.4,5.29,5.29,0,0,1-.34,1.31,4,4,0,0,1-.92,1.34,7.68,7.68,0,0,1-1.65,1.22,9.75,9.75,0,0,1-4.65,1.26,10.72,10.72,0,0,1-4.94-1L136,165.34Z"/><path class="cls-4" d="M191.47,148.42h-1.55c-1.75-3.43-5-6.67-9.67-9.38-15-8.64-39.21-8.64-54.17,0-4.69,2.71-7.91,6-9.66,9.38h-1.56v6.26h0c0,5.66,3.74,11.32,11.22,15.63,15,8.64,39.22,8.64,54.18,0,7.47-4.31,11.21-10,11.21-15.63h0Z"/><path class="cls-6" d="M144.86,133.09A50.85,50.85,0,0,0,126.08,139c-4.69,2.71-7.91,6-9.66,9.38h-1.56v6.26c0,5.66,3.74,11.32,11.22,15.63a50.85,50.85,0,0,0,18.78,5.95Z"/><path class="cls-3" d="M180.36,170.25c7.41-4.31,11.11-9.94,11.11-15.57v-6.26h-1.55a22.43,22.43,0,0,0-7.69-8.15h-1.87Z"/><g class="cls-12"><path class="cls-3" d="M189.5,147.69a18.12,18.12,0,0,0-1.66-2.4v18.8a18.88,18.88,0,0,0,1.66-2.41Z"/><path class="cls-3" d="M126.08,139a30.49,30.49,0,0,0-5.35,3.88v23.52c.52.47,1.07.94,1.66,1.4V142.36h3.14V170l.55.34c.36.21.74.41,1.11.61V142.36h3.13v30.06c.55.24,1.1.47,1.66.68V142.36h3.13v31.82l1.66.49V142.36h3.14v33.06c.55.12,1.1.23,1.66.33V142.36h3.13v33.88l1.66.2V142.36h3.13v34.33l1.66.07v-34.4h3.14v34.42l1.66-.05V142.36h3.13v34.16c.56-.05,1.11-.1,1.66-.17v-34h3.13v33.55c.56-.09,1.11-.19,1.67-.3V142.36h3.13V174.9c.56-.14,1.11-.29,1.66-.45V142.36h3.13v31.07c.56-.2,1.12-.41,1.66-.63V142.36h3.13v29c.57-.28,1.12-.57,1.67-.88V142.36h3.13v26.15c.58-.42,1.13-.85,1.66-1.29V142.36H185a30.92,30.92,0,0,0-4.74-3.32,45.65,45.65,0,0,0-11.75-4.63H137.84A45.72,45.72,0,0,0,126.08,139Z"/><path class="cls-3" d="M117.6,146.48a19,19,0,0,0-1.18,1.94h-.48v11.47a16.5,16.5,0,0,0,1.66,3Z"/></g><ellipse class="cls-6" cx="153.17" cy="148.42" rx="38.31" ry="22.12"/><path class="cls-13" d="M161.75,152.2c11-6.36,13.91-15.62,8.7-23.51-14.37-4.2-32.36-2.84-44.37,4.09-11,6.36-13.9,15.62-8.7,23.52C131.75,160.49,149.74,159.13,161.75,152.2Z"/><path class="cls-14" d="M180.26,164.06c-15,8.64-39.22,8.64-54.18,0-7.23-4.18-11-9.6-11.19-15.07-.26,5.85,3.46,11.75,11.19,16.21,15,8.64,39.22,8.64,54.18,0,7.73-4.46,11.45-10.36,11.19-16.21C191.21,154.46,187.48,159.89,180.26,164.06Z"/><ellipse class="cls-3" cx="153.17" cy="148.42" rx="27.19" ry="15.7"/><path class="cls-4" d="M133.94,138.75c10.62-6.13,27.84-6.13,38.45,0,5,2.89,7.64,6.61,7.94,10.39.33-4.26-2.31-8.57-7.94-11.82-10.61-6.13-27.83-6.13-38.45,0-5.62,3.25-8.27,7.56-7.93,11.82C126.31,145.36,129,141.64,133.94,138.75Z"/><path class="cls-4" d="M166.54,141l-2.11.6.6.24L163,143a11.48,11.48,0,0,0-5.21-1.22,10,10,0,0,0-5,1.36,7.38,7.38,0,0,0-1.51,1.1,3.31,3.31,0,0,0-.82,1.16,3.85,3.85,0,0,0-.26,1.11,6.41,6.41,0,0,0,0,1.21l.25,1.92a6.4,6.4,0,0,1,0,1.34,2.42,2.42,0,0,1-.46,1.09,3.64,3.64,0,0,1-1.21,1,2.44,2.44,0,0,1-2.58.18c-.58-.33-.72-.74-.44-1.24a6.78,6.78,0,0,1,2.29-1.85V148.8l-1.8.68-2.59-1.1a8.5,8.5,0,0,0-3.07,2.76l-.3-.33v1.41h0c0,1,.75,1.92,2.23,2.87l-1,.59-1.39-.64v1.44l1.25.72,2.44-1.41a10.56,10.56,0,0,0,4.93,1,9.86,9.86,0,0,0,4.65-1.25,7.53,7.53,0,0,0,1.65-1.23A4,4,0,0,0,156,153a5,5,0,0,0,.34-1.32,7.31,7.31,0,0,0,0-1.4l-.2-1.85c0-.38-.05-.65-.05-.82a3.79,3.79,0,0,1,.09-.7,1.59,1.59,0,0,1,.42-.8,3.77,3.77,0,0,1,.9-.68,3.45,3.45,0,0,1,1.38-.44,2.16,2.16,0,0,1,1.38.23,1,1,0,0,1,.43.33.38.38,0,0,1,.08.24l-2.14.45v1.44l4.34,1.93c.36-.23.67-.43,1-.63a9.58,9.58,0,0,0,.88-.7,5,5,0,0,0,.72-.78,2.7,2.7,0,0,0,.42-.85,2.26,2.26,0,0,0,.07-.43h0v-1.51l-.55.11,0,0a5.4,5.4,0,0,0-1.16-1l2.28-1.31Z"/><path class="cls-6" d="M140.15,155l2.41-1.39c-1.65-1.05-2.38-2.11-2.21-3.2s1.29-2.25,3.34-3.51l4.39,1.86a6.78,6.78,0,0,0-2.29,1.85c-.28.5-.14.91.44,1.24a2.44,2.44,0,0,0,2.58-.18,3.64,3.64,0,0,0,1.21-1,2.42,2.42,0,0,0,.46-1.09,6.4,6.4,0,0,0,0-1.34l-.25-1.92a6.41,6.41,0,0,1,0-1.21,3.85,3.85,0,0,1,.26-1.11,3.31,3.31,0,0,1,.82-1.16,7.38,7.38,0,0,1,1.51-1.1,10,10,0,0,1,5-1.36A11.48,11.48,0,0,1,163,141.6l2.3-1.33,1.27.74-2.28,1.31a5.4,5.4,0,0,1,1.16,1,2.48,2.48,0,0,1,.53,1,1.77,1.77,0,0,1,0,.91,2.7,2.7,0,0,1-.42.85,5,5,0,0,1-.72.78,8.13,8.13,0,0,1-.88.7c-.28.2-.59.41-1,.63l-4.34-1.93.81-.51a7.56,7.56,0,0,0,.64-.45,2.73,2.73,0,0,0,.48-.42,1.4,1.4,0,0,0,.2-.38.38.38,0,0,0-.07-.37,1.12,1.12,0,0,0-.43-.33,2.16,2.16,0,0,0-1.38-.23,3.45,3.45,0,0,0-1.38.44,3.77,3.77,0,0,0-.9.68,1.59,1.59,0,0,0-.42.8,3.79,3.79,0,0,0-.09.7c0,.17,0,.44.05.82l.2,1.85a7.31,7.31,0,0,1,0,1.4,5,5,0,0,1-.34,1.32,4,4,0,0,1-.92,1.33,7.53,7.53,0,0,1-1.65,1.23,9.86,9.86,0,0,1-4.65,1.25,10.56,10.56,0,0,1-4.93-1l-2.44,1.41Z"/><path class="cls-4" d="M249.57,201.3H248c-1.75-3.43-5-6.67-9.66-9.38-15-8.63-39.21-8.63-54.17,0-4.69,2.71-7.91,6-9.66,9.38H173v6.26h0c0,5.66,3.74,11.32,11.22,15.64,15,8.63,39.21,8.64,54.17,0,7.48-4.32,11.22-10,11.22-15.64h0Z"/><path class="cls-6" d="M203,186a50.79,50.79,0,0,0-18.78,5.95c-4.69,2.71-7.91,6-9.66,9.38H173v6.26c0,5.66,3.74,11.32,11.22,15.64a50.79,50.79,0,0,0,18.78,6Z"/><path class="cls-3" d="M238.46,223.14c7.4-4.32,11.11-9.95,11.11-15.58V201.3H248a22.4,22.4,0,0,0-7.69-8.14h-1.86Z"/><g class="cls-12"><path class="cls-3" d="M247.6,200.58a18.2,18.2,0,0,0-1.66-2.41V217a18.2,18.2,0,0,0,1.66-2.41Z"/><path class="cls-3" d="M184.18,191.92a30,30,0,0,0-5.35,3.89v23.51c.52.48,1.07,1,1.66,1.41V195.24h3.13v27.62l.56.34c.36.21.73.41,1.1.6V195.24h3.14v30.07l1.66.68V195.24h3.13v31.83c.55.17,1.1.33,1.66.48V195.24H198v33.07l1.66.32V195.24h3.14v33.89l1.66.19V195.24h3.13v34.33c.55,0,1.11.06,1.66.07v-34.4h3.13v34.42l1.66,0V195.24h3.14v34.17l1.66-.17v-34H222V228.8l1.66-.31V195.24h3.13v32.54c.56-.14,1.12-.29,1.67-.45V195.24h3.13v31.08l1.66-.64V195.24h3.13v29c.57-.29,1.12-.58,1.66-.89V195.24h3.13V221.4c.59-.42,1.14-.86,1.67-1.29V195.24h.27a31.52,31.52,0,0,0-4.73-3.32,46.52,46.52,0,0,0-11.75-4.63H195.93A46.52,46.52,0,0,0,184.18,191.92Z"/><path class="cls-3" d="M175.7,199.37a16.37,16.37,0,0,0-1.18,1.93H174v11.47a16.3,16.3,0,0,0,1.66,3Z"/></g><ellipse class="cls-6" cx="211.27" cy="201.3" rx="38.31" ry="22.12"/><path class="cls-13" d="M219.85,205.08c11-6.35,13.9-15.62,8.7-23.51-14.37-4.2-32.36-2.84-44.37,4.1-11,6.35-13.91,15.62-8.71,23.51C189.85,213.38,207.84,212,219.85,205.08Z"/><path class="cls-14" d="M238.35,216.94c-15,8.64-39.21,8.64-54.17,0-7.23-4.17-11-9.6-11.2-15.07-.26,5.85,3.47,11.75,11.2,16.21,15,8.64,39.21,8.64,54.17,0,7.73-4.46,11.46-10.36,11.2-16.2C249.3,207.34,245.58,212.77,238.35,216.94Z"/><ellipse class="cls-3" cx="211.27" cy="201.3" rx="27.19" ry="15.7"/><path class="cls-4" d="M192,191.64c10.62-6.13,27.83-6.13,38.45,0,5,2.88,7.64,6.61,7.94,10.38.33-4.25-2.31-8.57-7.94-11.82-10.62-6.13-27.83-6.13-38.45,0-5.63,3.25-8.27,7.57-7.93,11.82C184.4,198.25,187.05,194.52,192,191.64Z"/><path class="cls-4" d="M224.64,193.89l-2.11.6.6.24-2.06,1.19a11.62,11.62,0,0,0-5.22-1.22,10,10,0,0,0-5,1.36,8.19,8.19,0,0,0-1.52,1.1,3.15,3.15,0,0,0-.81,1.16,4.32,4.32,0,0,0-.27,1.12,6.39,6.39,0,0,0,.05,1.2l.24,1.92a5.36,5.36,0,0,1,0,1.35,2.44,2.44,0,0,1-.45,1.09,3.83,3.83,0,0,1-1.21,1,2.47,2.47,0,0,1-2.58.19c-.58-.33-.73-.75-.44-1.24a6.66,6.66,0,0,1,2.29-1.85v-1.44l-1.8.67-2.59-1.09a8.33,8.33,0,0,0-3.07,2.75l-.3-.33v1.41h0c0,1,.75,1.93,2.23,2.87l-1,.59-1.39-.64v1.44l1.24.73,2.44-1.41a10.72,10.72,0,0,0,4.94,1,9.75,9.75,0,0,0,4.65-1.25,8,8,0,0,0,1.65-1.22,4,4,0,0,0,.92-1.34,5.36,5.36,0,0,0,.34-1.32,7.21,7.21,0,0,0,0-1.39l-.21-1.86c0-.37,0-.65,0-.81a3.88,3.88,0,0,1,.09-.71,1.59,1.59,0,0,1,.42-.8,3.75,3.75,0,0,1,2.28-1.12,2.19,2.19,0,0,1,1.38.23,1.33,1.33,0,0,1,.43.33.38.38,0,0,1,.08.24l-2.15.45v1.44l4.35,1.93.95-.62a9.89,9.89,0,0,0,.87-.7,5.12,5.12,0,0,0,.73-.79,2.68,2.68,0,0,0,.41-.85,1.25,1.25,0,0,0,.07-.43h0v-1.52l-.55.12s0,0,0,0a5.12,5.12,0,0,0-1.16-1l2.28-1.32Z"/><path class="cls-6" d="M198.25,207.92l2.41-1.39c-1.65-1.05-2.39-2.11-2.21-3.19s1.28-2.25,3.34-3.51l4.39,1.86a6.66,6.66,0,0,0-2.29,1.85c-.29.49-.14.91.44,1.24a2.47,2.47,0,0,0,2.58-.19,3.83,3.83,0,0,0,1.21-1,2.44,2.44,0,0,0,.45-1.09,5.36,5.36,0,0,0,0-1.35l-.24-1.92a6.39,6.39,0,0,1-.05-1.2,4.32,4.32,0,0,1,.27-1.12,3.15,3.15,0,0,1,.81-1.16,8.19,8.19,0,0,1,1.52-1.1,10,10,0,0,1,5-1.36,11.62,11.62,0,0,1,5.22,1.22l2.29-1.32,1.28.73-2.28,1.32a5.12,5.12,0,0,1,1.16,1,2.59,2.59,0,0,1,.52,1,1.57,1.57,0,0,1,0,.91,2.68,2.68,0,0,1-.41.85,5.12,5.12,0,0,1-.73.79,9.89,9.89,0,0,1-.87.7l-.95.62-4.35-1.93.82-.5.64-.45a3,3,0,0,0,.47-.43,1.11,1.11,0,0,0,.21-.38.39.39,0,0,0-.07-.37,1.33,1.33,0,0,0-.43-.33,2.19,2.19,0,0,0-1.38-.23,3.75,3.75,0,0,0-2.28,1.12,1.59,1.59,0,0,0-.42.8,3.88,3.88,0,0,0-.09.71c0,.17,0,.44,0,.81l.21,1.86a7.21,7.21,0,0,1,0,1.39,5.36,5.36,0,0,1-.34,1.32,4,4,0,0,1-.92,1.34,8,8,0,0,1-1.65,1.22,9.75,9.75,0,0,1-4.65,1.25,10.72,10.72,0,0,1-4.94-1l-2.44,1.41Z"/><path class="cls-4" d="M254.17,191.92h-1.56c-1.75-3.44-5-6.68-9.66-9.39-15-8.63-39.21-8.63-54.17,0-4.7,2.71-7.92,5.95-9.66,9.39h-1.56v6.25h0c0,5.66,3.74,11.32,11.22,15.64,15,8.64,39.21,8.64,54.17,0,7.48-4.32,11.22-10,11.22-15.64h0Z"/><path class="cls-6" d="M207.55,176.59a50.74,50.74,0,0,0-18.77,5.94c-4.7,2.71-7.92,5.95-9.66,9.39h-1.56v6.25c0,5.66,3.74,11.32,11.22,15.64a50.74,50.74,0,0,0,18.77,5.95Z"/><path class="cls-3" d="M243.05,213.75c7.41-4.31,11.12-9.95,11.12-15.58v-6.25h-1.56a22.35,22.35,0,0,0-7.69-8.15h-1.87Z"/><g class="cls-12"><path class="cls-3" d="M252.2,191.19a18.3,18.3,0,0,0-1.67-2.41v18.8a16.81,16.81,0,0,0,1.67-2.41Z"/><path class="cls-3" d="M188.78,182.53a30,30,0,0,0-5.35,3.89v23.51c.52.48,1.07.95,1.66,1.41V185.86h3.13v27.61l.56.34c.36.21.73.41,1.1.61V185.86H193v30.06c.55.24,1.1.46,1.66.68V185.86h3.14v31.82c.55.17,1.1.33,1.66.48v-32.3h3.13v33.06c.55.12,1.1.23,1.66.33V185.86h3.13v33.88l1.67.19V185.86h3.13v34.33c.55,0,1.1.05,1.66.06V185.86H217v34.41c.56,0,1.11,0,1.66-.05V185.86h3.13V220l1.67-.17v-34h3.13v33.55c.55-.09,1.11-.2,1.66-.31V185.86h3.13V218.4l1.66-.46V185.86h3.13v31.07c.57-.2,1.12-.42,1.67-.64V185.86H241v29c.56-.28,1.12-.58,1.66-.88V185.86h3.13V212c.59-.42,1.14-.85,1.66-1.29V185.86h.28a30.84,30.84,0,0,0-4.73-3.33,46.06,46.06,0,0,0-11.76-4.62H200.53A46,46,0,0,0,188.78,182.53Z"/><path class="cls-3" d="M180.29,190a16.38,16.38,0,0,0-1.17,1.94h-.49v11.46a16.57,16.57,0,0,0,1.66,3Z"/></g><ellipse class="cls-6" cx="215.86" cy="191.92" rx="38.31" ry="22.12"/><path class="cls-13" d="M224.44,195.7c11-6.36,13.91-15.63,8.71-23.52-14.37-4.2-32.37-2.83-44.37,4.1-11,6.36-13.91,15.62-8.71,23.51C194.44,204,212.44,202.63,224.44,195.7Z"/><path class="cls-14" d="M243,207.56c-15,8.63-39.21,8.63-54.17,0-7.23-4.17-11-9.6-11.2-15.06-.26,5.84,3.47,11.74,11.2,16.2,15,8.64,39.21,8.64,54.17,0,7.73-4.47,11.45-10.36,11.19-16.21C253.9,198,250.18,203.38,243,207.56Z"/><ellipse class="cls-3" cx="215.86" cy="191.92" rx="27.19" ry="15.7"/><path class="cls-4" d="M196.64,182.25c10.61-6.13,27.83-6.13,38.45,0,5,2.88,7.64,6.61,7.93,10.38.34-4.25-2.31-8.57-7.93-11.81-10.62-6.13-27.84-6.13-38.45,0-5.63,3.24-8.27,7.56-7.94,11.81C189,188.86,191.64,185.13,196.64,182.25Z"/><path class="cls-4" d="M229.23,184.5l-2.1.61.6.23-2.06,1.19a11.68,11.68,0,0,0-5.22-1.22,10,10,0,0,0-5,1.36,7.87,7.87,0,0,0-1.52,1.1,3.23,3.23,0,0,0-.81,1.16,3.7,3.7,0,0,0-.27,1.12,5.64,5.64,0,0,0,0,1.2l.24,1.92a5.88,5.88,0,0,1,0,1.35,2.36,2.36,0,0,1-.46,1.09,3.68,3.68,0,0,1-1.2,1,2.46,2.46,0,0,1-2.59.19c-.57-.33-.72-.74-.44-1.24a6.85,6.85,0,0,1,2.3-1.85V192.3L209,193l-2.59-1.1a8.38,8.38,0,0,0-3.08,2.76l-.29-.34v1.42h0c0,1,.74,1.92,2.23,2.86l-1,.59-1.39-.63V200l1.25.72,2.44-1.41a10.7,10.7,0,0,0,4.93,1,9.68,9.68,0,0,0,4.66-1.25,7.68,7.68,0,0,0,1.65-1.22,3.94,3.94,0,0,0,.91-1.34,4.62,4.62,0,0,0,.34-1.31,6.54,6.54,0,0,0,0-1.4l-.21-1.86c0-.37-.05-.64-.05-.81a4,4,0,0,1,.09-.71,1.72,1.72,0,0,1,.42-.8,4.05,4.05,0,0,1,.9-.68,3.73,3.73,0,0,1,1.38-.44,2.28,2.28,0,0,1,1.39.23,1.32,1.32,0,0,1,.43.34.4.4,0,0,1,.07.24l-2.14.44v1.44l4.34,1.94,1-.63a9.89,9.89,0,0,0,.87-.7,5.16,5.16,0,0,0,.73-.79,2.74,2.74,0,0,0,.41-.84,2.26,2.26,0,0,0,.07-.43h0v-1.51l-.56.11,0,0a4.91,4.91,0,0,0-1.16-1l2.28-1.32Z"/><path class="cls-6" d="M202.84,198.54l2.42-1.4c-1.65-1-2.39-2.11-2.22-3.19s1.29-2.25,3.35-3.51l4.39,1.86a6.85,6.85,0,0,0-2.3,1.85c-.28.5-.13.91.44,1.24a2.46,2.46,0,0,0,2.59-.19,3.68,3.68,0,0,0,1.2-1,2.36,2.36,0,0,0,.46-1.09,5.88,5.88,0,0,0,0-1.35l-.24-1.92a5.64,5.64,0,0,1,0-1.2,3.7,3.7,0,0,1,.27-1.12,3.23,3.23,0,0,1,.81-1.16,7.87,7.87,0,0,1,1.52-1.1,10,10,0,0,1,5-1.36,11.68,11.68,0,0,1,5.22,1.22l2.29-1.32,1.27.73L227,185.82a4.91,4.91,0,0,1,1.16,1,2.49,2.49,0,0,1,.53.95,1.8,1.8,0,0,1,0,.92,2.74,2.74,0,0,1-.41.84,5.16,5.16,0,0,1-.73.79,9.89,9.89,0,0,1-.87.7l-1,.63-4.34-1.94.81-.5.65-.45a3,3,0,0,0,.47-.43,1.3,1.3,0,0,0,.21-.38.39.39,0,0,0-.07-.36,1.32,1.32,0,0,0-.43-.34,2.28,2.28,0,0,0-1.39-.23,3.73,3.73,0,0,0-1.38.44,4.05,4.05,0,0,0-.9.68,1.71,1.71,0,0,0-.42.81,3.79,3.79,0,0,0-.09.7c0,.17,0,.44.05.81l.21,1.86a6.54,6.54,0,0,1,0,1.4,4.62,4.62,0,0,1-.34,1.31,3.94,3.94,0,0,1-.91,1.34,7.68,7.68,0,0,1-1.65,1.22,9.68,9.68,0,0,1-4.66,1.25,10.7,10.7,0,0,1-4.93-1l-2.44,1.41Z"/><path class="cls-11" d="M153.53,141.76c-.25.62-4.51,5.81-8.78,7.11a10,10,0,0,1-3.91.54,1.29,1.29,0,0,1-1.05-1.72,16.19,16.19,0,0,1,8.18-9C155.2,135.09,153.53,141.76,153.53,141.76Z"/><path class="cls-11" d="M155,143.75a35,35,0,0,0-2.1,6.92c-.3,1.93.75,4.42,1.62,6.08a1.78,1.78,0,0,0,2.76.48,10.23,10.23,0,0,0,3.46-6.62c.5-5.31,0-6.24,0-6.24Z"/><path class="cls-15" d="M165.22,79.53a102.26,102.26,0,0,1,0,14.12c-.56,7.41-2.55,42.09-2.92,50.43,0,0,.19,2.52-4.7,2s-4.5-3.36-4.5-3.36-6.86-.1-7.08-4.14-7-48.33-7-64.25Z"/><path class="cls-16" d="M153.1,142.69a15,15,0,0,1-2-.21h0L149.8,88.59Z"/><path class="cls-5" d="M158,30.86c11.21,4.65,11,11.27,11,11.27s-2.19,24.3-1.44,40.53c.31,6.79-36,7.31-30.63-10.79,6.4-21.35,4-38.62,7-41.23S155.06,29.65,158,30.86Z"/><path class="cls-17" d="M161.57,36.73C161,39,158,40.21,154.91,39.41s-5.13-3.29-4.54-5.56,3.57-3.48,6.66-2.68S162.16,34.46,161.57,36.73Z"/><path class="cls-18" d="M156.8,40.19a7.94,7.94,0,0,1-2-.26c-3.38-.87-5.59-3.66-4.93-6.22s3.94-3.93,7.32-3.06,5.58,3.66,4.92,6.22h0C161.57,38.91,159.38,40.19,156.8,40.19Zm-1.68-8.73c-2.09,0-3.83,1-4.23,2.52-.51,2,1.35,4.19,4.15,4.91s5.5-.3,6-2.29h0c.52-2-1.35-4.19-4.15-4.91A7,7,0,0,0,155.12,31.46Z"/><path class="cls-17" d="M153.47,30.35a26.75,26.75,0,0,1-.1,4c-.06,1.12,3.85,2.16,4.86,1.15s.61-2.06.85-5.86S153.47,30.35,153.47,30.35Z"/><path class="cls-19" d="M159.08,29.64s-1,3.52-5.71,4.88l.07-3.21Z"/><path class="cls-17" d="M162.09,20.68a8.63,8.63,0,1,1-10.52-6.19A8.63,8.63,0,0,1,162.09,20.68Z"/><path class="cls-19" d="M155.72,23.16s-4.76,2-8.05,2.06-2.56-2.73-2.56-2.73l9.77-1.42Z"/><path class="cls-2" d="M146.69,23.7s4.14-1.76,7.77-1a3.77,3.77,0,0,1,2.2,1.31,1.33,1.33,0,0,0,.66.48c.65.14,1.7-2.53,3-2.59s2.09.82,1.06,2.47-.68,3.48-.2,3.74,5.48-3.57,1.06-12.32-15.64-4-17.39-2.27c0,0-1.84,1.61-3.33.18C141.47,13.67,139.79,26.23,146.69,23.7Z"/><path class="cls-17" d="M138.39,28.87l-6-2.6a2.68,2.68,0,0,1-1.47-1.59l-6-17.25-2.76.48L127,29.38a3.58,3.58,0,0,0,1.76,2.36l10,5.64Z"/><path class="cls-17" d="M201.12,31.67l1.39-.63a11.2,11.2,0,0,0,3.17-2.2l1-.95a1.84,1.84,0,0,0,.41-2.05h0a1,1,0,0,0-1.41-.52l-2.89,1.46s.45-1.28.24-1.61-2.46,2.14-3.49,3.89S201.12,31.67,201.12,31.67Z"/><path class="cls-17" d="M177.06,38.57l5.16-.57a9.2,9.2,0,0,0,3.46-1.12l13.82-7.82,1.62,2.61L187,42.58a6.35,6.35,0,0,1-1.42.83L177.15,47Z"/><path class="cls-17" d="M122.17,7.91l-.52-.61a4.89,4.89,0,0,1-1.14-2.47l-.36-2.52a2.15,2.15,0,0,1,.82-2L121,.21A1.3,1.3,0,0,1,123,.83l1.25,3s-.4-1.55.1-1.72,1.07,1.8.66,2.87a4.59,4.59,0,0,0,0,2.45Z"/><path class="cls-18" d="M150.31,28.79l-2.23-.62a5.32,5.32,0,0,0,2.62,2.1c1.55.43,1.79-.88,1.79-.88Z"/><path class="cls-5" d="M147,29.4s-10.08-2-13.15-2.92-4.36,7.51-4.13,9.65,10.71,4.53,11.95,8.21S147,29.4,147,29.4Z"/><path class="cls-5" d="M162.37,33.11s7.36,3.16,19.68,4.7a1.33,1.33,0,0,1,1.1.87,14.64,14.64,0,0,1,.65,7.4,2.72,2.72,0,0,1-2.7,2.14c-3.85,0-12.15.35-13.5,4C165.84,56.9,162.37,33.11,162.37,33.11Z"/><path class="cls-18" d="M162.09,25.22a1.18,1.18,0,1,1-1.18-1.17A1.17,1.17,0,0,1,162.09,25.22Z"/><polygon class="cls-20" points="16.69 160.09 14.44 162.81 16.88 161.24 16.69 160.09"/><polygon class="cls-20" points="71.26 215.85 68.82 217.42 69.67 214.69 71.23 215.41 71.26 215.85"/><polygon class="cls-2" points="11.54 136.67 34.49 146.93 28.37 151.91 71.68 204.97 91.77 188.66 133.44 239.95 151.92 224.95 206.61 291.88 201.01 296.43 151.24 235.46 132.77 250.47 91.35 199.53 71.26 215.85 22.77 156.46 16.88 161.24 11.54 136.67"/><polygon class="cls-20" points="132.77 250.47 130.33 252.04 132.96 246.94 132.77 250.47"/><polygon class="cls-20" points="91.77 188.66 89.32 190.23 89.82 191.59 91.77 188.66"/><polygon class="cls-20" points="151.92 224.95 149.47 226.52 149.88 227.49 151.92 224.95"/><polygon class="cls-5" points="9.1 138.25 32.05 148.51 25.93 153.48 69.24 206.55 89.32 190.23 131 241.53 149.47 226.52 204.17 293.45 198.57 298 148.8 237.04 130.33 252.04 88.91 201.1 68.82 217.42 20.32 158.03 14.44 162.81 9.1 138.25"/><polygon class="cls-2" points="9.1 138.25 11.54 136.67 34.49 146.93 32.05 148.51 9.1 138.25"/><polygon class="cls-20" points="206.61 291.88 204.17 293.45 198.57 298 201.01 296.43 206.61 291.88"/><path class="cls-2" d="M98.19,28.49a2.22,2.22,0,1,1-1.29-2.86A2.23,2.23,0,0,1,98.19,28.49Z"/><rect class="cls-6" x="81.78" y="10.13" width="9.23" height="9.23" transform="matrix(0.94, 0.35, -0.35, 0.94, 10.76, -29.53)"/></g></g></svg>