<svg xmlns="http://www.w3.org/2000/svg" xmlns:xlink="http://www.w3.org/1999/xlink" viewBox="0 0 136.02 114.06"><defs><style>.cls-1{fill:#cfefff;}.cls-2{fill:url(#New_Gradient_Swatch_copy_2);}.cls-3{fill:#fff;}.cls-4{fill:url(#New_Gradient_Swatch_copy_2-2);}.cls-5{fill:#235b73;opacity:0.23;}.cls-6{fill:url(#New_Gradient_Swatch_copy_2-3);}.cls-7{fill:none;stroke-miterlimit:10;stroke-width:0.5px;stroke:url(#New_Gradient_Swatch_copy);}.cls-8{fill:url(#New_Gradient_Swatch);}.cls-9{fill:#411809;}.cls-10{fill:#ffb939;}.cls-11{fill:#ffc69a;}.cls-12,.cls-25{fill:#3d56a5;}.cls-13{fill:#daa184;}.cls-14{fill:#ffa320;}.cls-15{fill:url(#New_Gradient_Swatch_copy_2-4);}.cls-16{fill:url(#New_Gradient_Swatch_copy_2-5);}.cls-17{fill:url(#mindgrowth);}.cls-18{fill:url(#mindgrowth-2);}.cls-19{fill:url(#mindgrowth-3);}.cls-20{fill:url(#mindgrowth-4);}.cls-21{fill:url(#mindgrowth-5);}.cls-22{fill:url(#linear-gradient);}.cls-23{fill:url(#New_Gradient_Swatch_copy_2-6);}.cls-24{fill:#ffca6e;}.cls-25{stroke:#007579;stroke-linecap:round;stroke-linejoin:round;stroke-width:0.25px;}.cls-26{fill:#963815;}.cls-27{fill:url(#mindgrowth-6);}</style><linearGradient id="New_Gradient_Swatch_copy_2" x1="17.77" y1="64.04" x2="99.93" y2="64.04" gradientUnits="userSpaceOnUse"><stop offset="0.22" stop-color="#4a9ad4"/><stop offset="0.49" stop-color="#4676ba"/><stop offset="0.7" stop-color="#3d56a5"/></linearGradient><linearGradient id="New_Gradient_Swatch_copy_2-2" x1="43.53" y1="64.06" x2="74.17" y2="64.06" gradientTransform="translate(120.77 2.97) rotate(87.96)" xlink:href="#New_Gradient_Swatch_copy_2"/><linearGradient id="New_Gradient_Swatch_copy_2-3" x1="11.87" y1="22.68" x2="36.9" y2="35.14" xlink:href="#New_Gradient_Swatch_copy_2"/><linearGradient id="New_Gradient_Swatch_copy" x1="19.48" y1="44.22" x2="58.59" y2="44.22" gradientUnits="userSpaceOnUse"><stop offset="0" stop-color="#4a9ad4"/><stop offset="0.48" stop-color="#4676ba"/><stop offset="1" stop-color="#3d56a5"/></linearGradient><linearGradient id="New_Gradient_Swatch" x1="51.2" y1="56.96" x2="59.54" y2="61.01" gradientUnits="userSpaceOnUse"><stop offset="0" stop-color="#ff7352"/><stop offset="1" stop-color="#f6975d"/></linearGradient><linearGradient id="New_Gradient_Swatch_copy_2-4" x1="101.48" y1="93.13" x2="111.23" y2="93.13" xlink:href="#New_Gradient_Swatch_copy_2"/><linearGradient id="New_Gradient_Swatch_copy_2-5" x1="105.89" y1="91.91" x2="124.26" y2="91.91" xlink:href="#New_Gradient_Swatch_copy_2"/><linearGradient id="mindgrowth" x1="104.39" y1="71.02" x2="113.89" y2="71.02" gradientUnits="userSpaceOnUse"><stop offset="0" stop-color="#faa543"/><stop offset="1" stop-color="#f36e25"/></linearGradient><linearGradient id="mindgrowth-2" x1="94.47" y1="67.59" x2="111.72" y2="67.59" xlink:href="#mindgrowth"/><linearGradient id="mindgrowth-3" x1="33.29" y1="57.12" x2="34.99" y2="48.29" xlink:href="#mindgrowth"/><linearGradient id="mindgrowth-4" x1="40.31" y1="51.78" x2="36.81" y2="59.34" xlink:href="#mindgrowth"/><linearGradient id="mindgrowth-5" x1="43.74" y1="61.39" x2="40.31" y2="57.74" xlink:href="#mindgrowth"/><linearGradient id="linear-gradient" x1="39.15" y1="59.35" x2="45.71" y2="53.53" xlink:href="#mindgrowth"/><linearGradient id="New_Gradient_Swatch_copy_2-6" x1="33.9" y1="91.31" x2="47.9" y2="91.31" xlink:href="#New_Gradient_Swatch_copy_2"/><linearGradient id="mindgrowth-6" x1="41.17" y1="70.93" x2="33.88" y2="85.63" xlink:href="#mindgrowth"/></defs><title>dataAsset 3</title><g id="Layer_2" data-name="Layer 2"><g id="OBJECTS"><path class="cls-1" d="M16.13,111a23.94,23.94,0,0,1-12.44-5.45C-.18,102.21-.21,100,.14,98.63.9,95.68,12,96.81,13.8,92.15c1.21-3.06-3-4.93-3.72-10.53-.62-5,1.83-10.89,6.12-13.14,6.1-3.2,14.51,1.74,21.88,4.12C70.19,83,98.62,49.73,119.66,60.89c7.45,4,13.4,13.17,12,20.3s-10,11.85-7.86,15c1.43,2.09,5.73.49,9.09,3.17,3.52,2.8,3.67,8.42,2.4,11-3.26,6.63-19,1.09-51.59,2-20.57.58-30,3.52-52,.18C28.36,112,22.6,111.84,16.13,111Z"/><path class="cls-2" d="M58.85,35.82A28.22,28.22,0,1,1,30.64,64,28.21,28.21,0,0,1,58.85,35.82m0-12.86A41.08,41.08,0,1,0,99.93,64,41.12,41.12,0,0,0,58.85,23Z"/><path class="cls-3" d="M58.85,35.82A28.22,28.22,0,1,1,30.64,64,28.21,28.21,0,0,1,58.85,35.82"/><circle class="cls-4" cx="58.85" cy="64.06" r="15.32" transform="translate(-7.27 120.59) rotate(-87.96)"/><circle class="cls-3" cx="58.85" cy="64.06" r="2.74"/><path class="cls-5" d="M58.85,66.09l-4.4-9.27-2.24,2.24L36.75,43.6l.31-10.53L20.33,16.34,20,27a.28.28,0,0,0-.21.08.26.26,0,0,0-.07.2l-10.65.31L25.82,44.3,36.36,44,51.82,59.46,49.58,61.7Z"/><polygon class="cls-6" points="37.06 31.01 36.74 41.92 25.82 42.24 9.09 25.52 20.01 25.2 20.33 14.28 37.06 31.01"/><path class="cls-7" d="M58.06,63.52a.27.27,0,0,1-.2-.08l-38-38a.29.29,0,0,1,0-.39.28.28,0,0,1,.4,0l38,38.05a.27.27,0,0,1,0,.39A.24.24,0,0,1,58.06,63.52Z"/><polygon class="cls-8" points="49.87 59.93 54.75 55.06 59.14 64.33 49.87 59.93"/><path class="cls-9" d="M106.4,54a5.32,5.32,0,0,1,5-.33c2.21,1.26.8,4.86,2.51,10.42,1.89,6.18,5.29,7.17,4.63,10.62-.59,3.1-4,5.92-6.82,5.59-3.82-.44-7.36-6.91-6.88-11.87.34-3.48,1.89-5.46,1.55-9.87C106.2,56.62,106.78,54.91,106.4,54Z"/><path class="cls-10" d="M103.6,110.58a30.3,30.3,0,0,0-4.77,1.78c-1.26.7-1.41,1.28.14,1.29a45.12,45.12,0,0,0,5.77-.26c1-.15.56-2.41.4-2.79Z"/><polygon class="cls-11" points="103.88 110.58 103.56 109.34 105.22 109.53 105.14 110.6 103.88 110.58"/><path class="cls-12" d="M97.87,113.35a62,62,0,0,0,6.29-.43,2.69,2.69,0,0,0,1.19-.61c0,.54-.19,1-.61,1.08a45.12,45.12,0,0,1-5.77.26C98.3,113.64,98,113.53,97.87,113.35Z"/><path class="cls-13" d="M111,63.77s-1.34-1.38-5.29,0a51.8,51.8,0,0,1-6.47,1.87L88.33,62.14l-.18,1.21s7.13,4.88,9.53,5.91S115.23,67.67,111,63.77Z"/><path class="cls-14" d="M96.65,64.63l-1.57,3.28,2.57,1.57s9.77.22,12.77-1.91,2.48-4.95.82-5-11.62,2.71-11.62,2.71Z"/><rect class="cls-3" x="94.88" y="63.92" width="1.8" height="4.32" transform="translate(36.8 -34.23) rotate(24.94)"/><path class="cls-13" d="M90.23,64.75s-3.07-4.58-3.9-4.4c0,0,1.64,3.45,2.46,4.71"/><path class="cls-10" d="M123.37,107.45a29.89,29.89,0,0,0-3.13,4c-.71,1.25-.54,1.83.79,1a42.66,42.66,0,0,0,4.78-3.24c.74-.63-.78-2.34-1.12-2.58Z"/><polygon class="cls-11" points="123.61 107.31 122.68 106.42 124.2 105.72 124.69 106.67 123.61 107.31"/><path class="cls-15" d="M104.65,80l6.58-3.66s-1.11,13.85-5.31,20c0,0,0,11.14-.76,13.55l-1.54,0s-2.35-12.68-2.13-14.7A54.19,54.19,0,0,1,104.65,80Z"/><path class="cls-12" d="M107.87,92.49,107.59,85,109.27,88A38.82,38.82,0,0,1,107.87,92.49Z"/><path class="cls-11" d="M106.1,55.42a5.76,5.76,0,0,0-.75,4.26c.27,1.58,2.73,1.29,3.93.23A3.67,3.67,0,0,0,110.39,56,2.56,2.56,0,0,0,106.1,55.42Z"/><path class="cls-11" d="M107.92,57.05l2.61-.14.35,6.33A1.65,1.65,0,0,1,109.32,65h0a1.64,1.64,0,0,1-1.73-1.72Z"/><path class="cls-9" d="M107.17,54.86a3.76,3.76,0,0,0,3.71,3.68c2.52.08,1.19-5.87-2.22-5.28-4.79.83-3.14,3.34-3.14,3.34S106.31,54.68,107.17,54.86Z"/><path class="cls-3" d="M110,58.89a.47.47,0,1,1-.25-.62A.47.47,0,0,1,110,58.89Z"/><polygon class="cls-13" points="107.7 61.21 109.45 59.96 107.72 60.66 107.7 61.21"/><polygon class="cls-3" points="106.85 63.21 107.46 61.39 110.88 61.03 110.88 61.98 106.85 63.21"/><path class="cls-16" d="M105.89,77.16l8,2.12s2.26,3.06,1.43,15c0,0,7,5.87,8.94,11.59l-1.3.85s-9.84-8.79-11.22-10.28C110.08,94.6,106.87,88.64,105.89,77.16Z"/><path class="cls-17" d="M106.74,63.54A2.18,2.18,0,0,1,108.11,62c1.48-.54,5.08-.57,5.12,4.3.06,9.59.66,13,.66,13S112,81,104.65,80l1-6-.86-1.86a6,6,0,0,1,.16-4.55Z"/><path class="cls-11" d="M110.51,65.21s-1.35-1.39-5.3,0a51.8,51.8,0,0,1-6.47,1.87l-10.9-3.5-.19,1.2s7.13,4.88,9.53,5.91S114.74,69.1,110.51,65.21Z"/><path class="cls-11" d="M88.83,63.94s-2.17-2.34-3-2.16c0,0,.73,1.22,1.55,2.48.26.39.33,2.71.76,1.82A11.29,11.29,0,0,0,88.83,63.94Z"/><path class="cls-11" d="M105.76,56.11a4.18,4.18,0,0,1-1.2,1.26,1.45,1.45,0,0,0,.78.7Z"/><path class="cls-12" d="M119.94,112.82a60.87,60.87,0,0,0,5.13-3.66,2.71,2.71,0,0,0,.7-1.15c.26.48.37,1,0,1.24a42.66,42.66,0,0,1-4.78,3.24C120.46,112.84,120.1,112.93,119.94,112.82Z"/><path class="cls-11" d="M124.57,106.74s-1.75,3-2.52,2.24l1.29-1.93Z"/><path class="cls-11" d="M105,110.55s-3.06,1.72-3.28.64l2.14-.9Z"/><rect class="cls-12" x="103.16" y="108.95" width="2.58" height="1.02"/><rect class="cls-12" x="122.31" y="105.57" width="2.58" height="1.02" transform="translate(-36.48 76.01) rotate(-30)"/><path class="cls-18" d="M95.8,66.14,94.47,69.2l3.26,2s8.84,0,11.84-2.08,2.48-5,.82-5-11.62,2.71-11.62,2.71Z"/><rect class="cls-3" x="94.03" y="65.43" width="1.8" height="4.32" transform="translate(37.36 -33.73) rotate(24.94)"/><path class="cls-10" d="M35.65,77.6l6.24,1.11,4.7-2.43S46.12,73,46.14,72c.07-2.22,1.14-7.23-.44-10.81-1.17-2.63-3.34-1.43-6.08-.57L36.54,61s-4.95-3-1.49,10.8A48.1,48.1,0,0,1,35.65,77.6Z"/><path class="cls-11" d="M38.23,51.11a7.06,7.06,0,0,0-1.71,5c0,2,3.07,2.07,4.73,1a4.51,4.51,0,0,0,2.06-4.49C42.81,50.57,39.86,49.44,38.23,51.11Z"/><path class="cls-11" d="M37.59,52a4.06,4.06,0,0,1-1.38,1.07,1.48,1.48,0,0,0,.66.81Z"/><path class="cls-19" d="M38.17,64.17l-2.65-5.9-1.35-3-2.59-12-2.25.32,1.45,13.11L32.13,60l1.69,9.25c.42,1,2.25-2,3.26-2.46A2,2,0,0,0,38.17,64.17Z"/><path class="cls-11" d="M31.69,43.79s-.08-4.35-.49-3.42A9.51,9.51,0,0,0,30.62,42s-1.2-3-1.69-2.48a2.05,2.05,0,0,0-.41,2.26c.44,1.14,1,2.33,1,2.33Z"/><rect class="cls-3" x="29.85" y="42.72" width="1.46" height="3.27" transform="translate(70.55 8.22) rotate(82.47)"/><polygon class="cls-20" points="40.89 54.74 36.77 43.19 38.85 42.27 44.53 54.17 45.11 57.67 41.33 58 40.89 54.74"/><path class="cls-21" d="M44.48,66.05a2,2,0,0,1-2.3-1.64L41.33,58l3.78-.33,1.2,5.6A2.68,2.68,0,0,1,44.48,66.05Z"/><path class="cls-11" d="M37,43.68s-2.23-3.74-1.39-3.17a10.52,10.52,0,0,1,1.33,1.05s-.54-3.14.13-3a2.05,2.05,0,0,1,1.54,1.71c.22,1.2.41,2.48.41,2.48Z"/><rect class="cls-3" x="37.3" y="41.65" width="1.46" height="3.27" transform="matrix(0.37, 0.93, -0.93, 0.37, 64.11, -8.09)"/><polygon class="cls-11" points="37.76 56.19 38.04 62.68 41.6 61.55 39.92 55.62 37.76 56.19"/><path class="cls-22" d="M42.63,59.34,41.33,58a5.19,5.19,0,0,1-.87,1.56c-.36.48-2.08.19-2.56-.18-1.67-1.29-3.46-3-3.46-3l1.64,3.9-.89.19v.11l1.33,3.15S43,63.18,43,63.05s.17-3.76.17-3.76Z"/><path class="cls-23" d="M47.56,84a16.22,16.22,0,0,0-1.22-10.47c-3.66,2-10.86,1.57-10.86,1.57l-1,9.54L33.9,95.26A58.38,58.38,0,0,0,36.63,109l2.81-.45A71.52,71.52,0,0,0,39,95s1.41-5.69,2.18-8.62c0-.2.89-.5.93-.67l-1.8,10S41.05,100.53,43,109l2.46-.36a42.55,42.55,0,0,0,0-13.38A31.13,31.13,0,0,0,47.56,84Z"/><polygon class="cls-11" points="36.63 109.04 37.16 110.77 39.12 110.62 39.11 108.67 36.63 109.04"/><path class="cls-24" d="M33.59,113.36s0-1.17,2.21-1.53c1.16-.19.56-1,.56-1l2.16-.66-2.06,3.62Z"/><path class="cls-14" d="M38.86,110.09c-1.45,0-1.35,1.24-1.56,2h0a3.62,3.62,0,0,1-3.22,1.31l2,.27a5,5,0,0,0,2-.12l1.23-.33c.7-.39,1.48-3.07-.35-3.14Z"/><polygon class="cls-11" points="42.97 108.95 43.48 110.69 45.44 110.54 45.44 108.59 42.97 108.95"/><path class="cls-24" d="M39.91,113.28s0-1.17,2.21-1.53c1.16-.19.56-1,.56-1l2.16-.66-2.05,3.62Z"/><path class="cls-14" d="M45.18,110c-1.45,0-1.35,1.24-1.56,2h0a3.62,3.62,0,0,1-3.22,1.31l2,.27a5,5,0,0,0,2-.12l1.22-.33c.71-.39,1.48-3.07-.35-3.14Z"/><path class="cls-14" d="M40.05,113.3l.35,0C40,113.28,39.75,113.25,40.05,113.3Z"/><path class="cls-25" d="M36.43,111.47s-1-.63-.8-.31a1.18,1.18,0,0,0,.78.36.88.88,0,0,0-.39.23.57.57,0,0,1-.53.11"/><path class="cls-25" d="M42.84,111.47s-1-.63-.8-.31a1.21,1.21,0,0,0,.79.36.83.83,0,0,0-.39.23.57.57,0,0,1-.53.11"/><rect class="cls-12" x="36.04" y="107.89" width="3.68" height="1.55" transform="translate(-11.54 4.74) rotate(-6.22)"/><rect class="cls-12" x="42.37" y="107.53" width="3.68" height="1.55" transform="translate(-11.47 5.42) rotate(-6.22)"/><path class="cls-3" d="M37.69,58.59l0,1.08a4.76,4.76,0,0,0,2.33.24,2,2,0,0,0,1.21-1.11l-.3-.81S40.07,59.27,37.69,58.59Z"/><path class="cls-26" d="M38.7,48.61s-2.59,2.49,0,4.44c0,0,.95.69-.46,2.38a.94.94,0,0,0,0,1.2c.86,1,2.74,2.48,4.74-.63.92-1.45,1.05-3.14.27-4.14A5.05,5.05,0,0,0,40.69,50C39.65,49.6,39.59,49.14,38.7,48.61Z"/><path class="cls-11" d="M39.63,54a.76.76,0,0,1-.42.95.67.67,0,1,1-.6-1.16A.75.75,0,0,1,39.63,54Z"/><path class="cls-27" d="M42.62,77.44l1.61,4a20.87,20.87,0,0,0,5.4-1.59L46.12,62.46s-11,.65-12.91-1.4l.52,20.47a40.49,40.49,0,0,0,8.05.18Z"/><path class="cls-1" d="M119.15,18a4.28,4.28,0,0,0-5.75-.5c-1.4.81-2.34,2.92-3.77,3.19-1.2.23-1.95-1.09-3.24-.76-.84.22-.65.93-1.59,1.44-1.38.76-2.46-.29-3.7.45-.76.46-1.39,1.48-1.13,2,.4.86,2.73.27,6.34.08,3.43-.18,2.74.27,8,.3,6.61,0,6.47-.7,9.73-.15,1.86.31,3.29.77,3.7.15s-.29-2.28-1.51-2.87c-1.46-.72-2.45.68-4.83.45C120.3,21.76,121,19.74,119.15,18Z"/><path class="cls-1" d="M127.69,36.2a3,3,0,0,0-4.12-.36c-1,.58-1.68,2.09-2.7,2.28-.86.17-1.4-.78-2.33-.54-.6.16-.47.66-1.14,1-1,.55-1.76-.2-2.65.33-.55.32-1,1.06-.81,1.46.28.61,2,.19,4.55.05s2,.2,5.74.22c4.74,0,4.64-.5,7-.11,1.34.22,2.36.55,2.66.11s-.22-1.63-1.09-2.06c-1.05-.51-1.76.49-3.46.33C128.52,38.86,129,37.41,127.69,36.2Z"/><path class="cls-1" d="M32.12,1A3,3,0,0,0,28,.64c-1,.58-1.68,2.09-2.7,2.28-.86.17-1.41-.78-2.33-.54-.6.16-.47.66-1.14,1-1,.55-1.76-.2-2.65.33-.55.32-1,1.06-.81,1.46.28.61,1.95.19,4.55,0,2.45-.13,2,.2,5.74.22,4.74,0,4.64-.5,7-.11,1.33.22,2.36.55,2.66.11s-.22-1.63-1.09-2.06c-1.05-.51-1.76.49-3.46.33C33,3.66,33.47,2.22,32.12,1Z"/></g></g></svg>