<svg xmlns="http://www.w3.org/2000/svg" xmlns:xlink="http://www.w3.org/1999/xlink" viewBox="0 0 11.97 24.62"><defs><style>.cls-1{fill:url(#linear-gradient);}.cls-2{fill:url(#linear-gradient-2);}.cls-3{fill:url(#linear-gradient-3);}</style><linearGradient id="linear-gradient" x1="5.98" y1="19.31" x2="5.98" y2="24.64" gradientUnits="userSpaceOnUse"><stop offset="0" stop-color="#faa543"/><stop offset="1" stop-color="#f36e25"/></linearGradient><linearGradient id="linear-gradient-2" x1="6.24" y1="22.22" x2="5.28" y2="0.03" gradientUnits="userSpaceOnUse"><stop offset="0" stop-color="#4a9bd5"/><stop offset="0.48" stop-color="#4676bb"/><stop offset="1" stop-color="#3e56a6"/></linearGradient><linearGradient id="linear-gradient-3" x1="5.98" y1="7.06" x2="5.98" y2="11.11" xlink:href="#linear-gradient"/></defs><title>dataAsset 12</title><g id="Layer_2" data-name="Layer 2"><g id="Layer_1-2" data-name="Layer 1"><path class="cls-1" d="M4.84,19.23A24.17,24.17,0,0,0,6,24.62a20.71,20.71,0,0,0,1.15-5.39Z"/><path class="cls-2" d="M11.38,15l-.62-.48a8.62,8.62,0,0,1-2,2.07,11.1,11.1,0,0,0,2.26-4.09,9.66,9.66,0,0,0,.29-2.3A12.42,12.42,0,0,0,6,0,12.42,12.42,0,0,0,.62,10.2a9.66,9.66,0,0,0,.29,2.3,10.82,10.82,0,0,0,2.26,4.09,8.62,8.62,0,0,1-2-2.07L.59,15A1.65,1.65,0,0,0,0,16.44L1.84,21.6c.2.5.44.6.79.25l2.2-2.91H7.14l2.2,2.91c.35.35.59.28.78-.25L12,16.44A1.67,1.67,0,0,0,11.38,15ZM6,12.71A3.22,3.22,0,1,1,9.2,9.5,3.21,3.21,0,0,1,6,12.71Z"/><circle class="cls-3" cx="5.98" cy="9.5" r="2.48"/></g></g></svg>