<svg xmlns="http://www.w3.org/2000/svg" xmlns:xlink="http://www.w3.org/1999/xlink" viewBox="0 0 149.77 112.72"><defs><style>.cls-1{fill:#cfefff;}.cls-2{fill:url(#New_Gradient_Swatch_copy_2);}.cls-3{fill:#3880a3;}.cls-4{fill:url(#New_Gradient_Swatch_copy_2-2);}.cls-5{fill:#2b627d;}.cls-6{fill:url(#New_Gradient_Swatch_copy_2-3);}.cls-7{fill:url(#New_Gradient_Swatch_copy_2-4);}.cls-8{fill:#ffc69a;}.cls-9{fill:#004b4e;}.cls-10{fill:#411809;}.cls-11{fill:#fff;}.cls-12{fill:#daa184;}.cls-13{fill:#49a8d6;}.cls-14{fill:url(#New_Gradient_Swatch_copy_2-5);}.cls-15{fill:url(#mindgrowth);}.cls-16{fill:#3d56a5;}.cls-17{fill:url(#New_Gradient_Swatch_copy_2-6);}.cls-18{fill:url(#mindgrowth-2);}.cls-19{fill:url(#mindgrowth-3);}.cls-20{fill:url(#mindgrowth-4);}.cls-21{opacity:0.15;}.cls-22{fill:#ffb939;}.cls-23{opacity:0.1;}.cls-24{font-size:6px;font-family:MyriadPro-Regular, Myriad Pro;letter-spacing:-0.01em;}.cls-25{letter-spacing:0em;}</style><linearGradient id="New_Gradient_Swatch_copy_2" x1="88.07" y1="81.62" x2="123.51" y2="81.62" gradientUnits="userSpaceOnUse"><stop offset="0.22" stop-color="#4a9ad4"/><stop offset="0.49" stop-color="#4676ba"/><stop offset="0.7" stop-color="#3d56a5"/></linearGradient><linearGradient id="New_Gradient_Swatch_copy_2-2" x1="91.36" y1="99.35" x2="126.43" y2="99.35" xlink:href="#New_Gradient_Swatch_copy_2"/><linearGradient id="New_Gradient_Swatch_copy_2-3" x1="31.42" y1="81.62" x2="66.86" y2="81.62" xlink:href="#New_Gradient_Swatch_copy_2"/><linearGradient id="New_Gradient_Swatch_copy_2-4" x1="28.5" y1="99.35" x2="63.58" y2="99.35" xlink:href="#New_Gradient_Swatch_copy_2"/><linearGradient id="New_Gradient_Swatch_copy_2-5" x1="45.65" y1="18.65" x2="84.07" y2="18.65" xlink:href="#New_Gradient_Swatch_copy_2"/><linearGradient id="mindgrowth" x1="36.64" y1="23.04" x2="45.44" y2="23.04" gradientUnits="userSpaceOnUse"><stop offset="0" stop-color="#faa543"/><stop offset="1" stop-color="#f36e25"/></linearGradient><linearGradient id="New_Gradient_Swatch_copy_2-6" x1="49.41" y1="16.01" x2="86.07" y2="16.01" xlink:href="#New_Gradient_Swatch_copy_2"/><linearGradient id="mindgrowth-2" x1="40.73" y1="10.61" x2="48.85" y2="10.61" xlink:href="#mindgrowth"/><linearGradient id="mindgrowth-3" x1="38.22" y1="65.72" x2="115.25" y2="65.72" xlink:href="#mindgrowth"/><linearGradient id="mindgrowth-4" x1="45.54" y1="38.86" x2="106.7" y2="38.86" xlink:href="#mindgrowth"/></defs><title>dataAsset 2</title><g id="Layer_2" data-name="Layer 2"><g id="OBJECTS"><path class="cls-1" d="M24.47,108.48a23.68,23.68,0,0,1-12.27-5.4c-3.81-3.27-3.83-5.48-3.49-6.8.76-2.91,11.67-1.78,13.49-6.38,1.2-3-3-4.87-3.66-10.4-.6-4.92,1.82-10.74,6.06-13,6-3.15,14.32,1.73,21.58,4.09C77.86,80.9,106,48.15,126.69,59.19c7.35,3.91,13.21,13,11.82,20S128.65,90.92,130.74,94c1.4,2.06,5.65.49,9,3.14,3.46,2.76,3.61,8.31,2.36,10.85-3.23,6.53-18.81,1-50.92,1.91-20.29.55-29.63,3.44-51.3.11C36.54,109.48,30.85,109.34,24.47,108.48Z"/><path class="cls-2" d="M88.11,99.82c-.21-8.6.32-16.28,3-16.92,2.08-.51,4.26,3.64,5.93,3,3-1.19-1.56-15.22,1.78-16.92,1.78-.9,4.72,5.21,7.42,4.45,2.24-.62,1.34-5,4.75-9.49,2-2.64,5.92-6,8.76-5,3.11,1.06,4.69,7.3,3.26,12.17-2.2,7.5-11.15,10.44-10.24,12.76.78,2,7.55.36,8.61,3,.53,1.32-.71,3-1,3.41-4.25,5.63-15.78,3.44-15.88,4.6,0,.28.61.61,4.45,1.78,6.24,1.89,7.74,2,7.87,2.67.25,1.46-5.43,4.54-11.43,5.2C97.71,105.25,91.43,102,88.11,99.82Z"/><path class="cls-3" d="M90.05,99.35A30.65,30.65,0,0,0,94.65,96c.74-.6,1.42-1.27,2.13-1.9s1.36-1.33,2-2a82.51,82.51,0,0,0,7.32-8.73c2.34-3,4.37-6.23,6.42-9.44,1-1.62,2-3.27,2.94-4.91s1.85-3.34,2.83-5c-.77,1.75-1.6,3.48-2.4,5.22s-1.78,3.39-2.7,5.07a100.37,100.37,0,0,1-6.29,9.65,72.64,72.64,0,0,1-7.58,8.67A36.28,36.28,0,0,1,90.05,99.35Z"/><path class="cls-4" d="M91.36,102.69c2.76-5.64,5.7-10.42,7.63-9.94,1.51.37,1.53,3.79,2.84,3.92,2.32.23,4.12-10.38,6.86-10.35,1.45,0,1.29,5,3.3,5.39,1.66.35,2.54-2.76,6.28-4.55,2.16-1,5.86-1.89,7.37-.31,1.65,1.74.57,6.31-2,9-4,4.12-10.74,3-10.93,4.8-.17,1.55,4.77,2.78,4.57,4.83-.1,1-1.47,1.69-1.83,1.86-4.65,2.21-11.37-3.1-11.83-2.38-.1.17.19.6,2.28,2.65,3.4,3.33,4.35,3.88,4.19,4.38-.32,1-5,1.11-9.15-.49A19.5,19.5,0,0,1,91.36,102.69Z"/><path class="cls-5" d="M92.77,103.05a23.71,23.71,0,0,0,4.11-.71c.67-.15,1.34-.35,2-.53l2-.63A68.46,68.46,0,0,0,108.52,98c2.52-1.16,4.92-2.55,7.35-3.91l3.58-2.15c1.18-.74,2.34-1.5,3.55-2.22-1.07.9-2.19,1.75-3.28,2.63l-3.45,2.4A65,65,0,0,1,109,98.88a49,49,0,0,1-7.87,3A25.82,25.82,0,0,1,92.77,103.05Z"/><path class="cls-6" d="M66.82,99.82c.21-8.6-.32-16.28-3-16.92-2.09-.51-4.26,3.64-5.94,3-3-1.19,1.56-15.22-1.78-16.92-1.78-.9-4.71,5.21-7.42,4.45-2.24-.62-1.34-5-4.75-9.49-2-2.64-5.91-6-8.75-5C32.1,59.92,30.52,66.16,32,71c2.2,7.5,11.15,10.44,10.24,12.76-.78,2-7.55.36-8.61,3-.53,1.32.72,3,1,3.41,4.25,5.63,15.78,3.44,15.88,4.6,0,.28-.61.61-4.45,1.78-6.24,1.89-7.74,2-7.87,2.67-.25,1.46,5.43,4.54,11.43,5.2C57.23,105.25,63.5,102,66.82,99.82Z"/><path class="cls-3" d="M64.88,99.35a36.4,36.4,0,0,1-9.28-6.76A71.84,71.84,0,0,1,48,83.92a100.28,100.28,0,0,1-6.28-9.65c-.93-1.68-1.81-3.38-2.71-5.07S37.39,65.73,36.63,64c1,1.65,1.88,3.33,2.82,5s1.94,3.29,2.94,4.91c2,3.21,4.08,6.44,6.42,9.44a82.51,82.51,0,0,0,7.32,8.73c.67.68,1.35,1.34,2,2s1.4,1.3,2.13,1.9A30.65,30.65,0,0,0,64.88,99.35Z"/><path class="cls-7" d="M63.58,102.69c-2.77-5.64-5.71-10.42-7.63-9.94-1.52.37-1.53,3.79-2.84,3.92-2.33.23-4.13-10.38-6.87-10.35-1.45,0-1.29,5-3.3,5.39-1.65.35-2.54-2.76-6.27-4.55-2.17-1-5.86-1.89-7.37-.31-1.66,1.74-.58,6.31,2,9,4,4.12,10.74,3,10.93,4.8.17,1.55-4.76,2.78-4.56,4.83.1,1,1.46,1.69,1.82,1.86,4.65,2.21,11.37-3.1,11.83-2.38.11.17-.19.6-2.28,2.65-3.4,3.33-4.35,3.88-4.19,4.38.33,1,5,1.11,9.15-.49A19.57,19.57,0,0,0,63.58,102.69Z"/><path class="cls-5" d="M62.16,103.05a25.86,25.86,0,0,1-8.32-1.14,48.54,48.54,0,0,1-7.86-3,64.22,64.22,0,0,1-7.32-4.16l-3.45-2.4c-1.09-.88-2.2-1.73-3.27-2.63,1.2.72,2.36,1.48,3.55,2.22l3.57,2.15c2.43,1.36,4.83,2.75,7.35,3.91a68.46,68.46,0,0,0,7.66,3.21l2,.63c.66.18,1.33.38,2,.53A23.88,23.88,0,0,0,62.16,103.05Z"/><path class="cls-8" d="M92.29,3.27a4.54,4.54,0,0,1-1.38,1.41,1.67,1.67,0,0,0,.87.81Z"/><path class="cls-9" d="M86.83,31.45,89,23.17,89.8,27A45.26,45.26,0,0,1,86.83,31.45Z"/><path class="cls-10" d="M93.07.86C94.7,0,97-.43,98.7.58c2.49,1.47.82,5.53,2.66,11.88,2,7,5.88,8.23,5.08,12.13-.73,3.51-4.68,6.65-7.84,6.24-4.34-.57-8.24-8-7.61-13.61.44-3.94,2.24-6.16,1.93-11.17C92.79,3.87,93.47,1.93,93.07.86Z"/><path class="cls-8" d="M92.7,2.5a6.55,6.55,0,0,0-.94,4.82c.29,1.8,3.08,1.51,4.47.34a4.17,4.17,0,0,0,1.32-4.38C96.84,1.43,94,.76,92.7,2.5Z"/><path class="cls-8" d="M94.73,4.38l3-.11L98,11.46a1.86,1.86,0,0,1-1.8,1.94h0a1.87,1.87,0,0,1-1.93-2Z"/><path class="cls-10" d="M93.92,1.88a4.28,4.28,0,0,0,4.14,4.25c2.86.13,1.46-6.65-2.42-6C90.19,1,92,3.83,92,3.83S93,1.66,93.92,1.88Z"/><path class="cls-11" d="M97.07,6.51a.54.54,0,1,1-1-.43.54.54,0,0,1,.71-.28A.54.54,0,0,1,97.07,6.51Z"/><polygon class="cls-12" points="94.41 9.1 96.41 7.71 94.44 8.48 94.41 9.1"/><polygon class="cls-11" points="93.4 11.36 94.14 9.3 98.02 9.46 98 11.25 93.4 11.36"/><path class="cls-13" d="M93.4,10.59a2.5,2.5,0,0,1,2.22-.8c1.77.27,5.37,2.22,2.73,7.09-5.18,9.56-10,11.9-10,11.9s-3,0-3.15-6.72l1.33-1.7L86.74,18a6.76,6.76,0,0,1,2.64-4.43Z"/><path class="cls-14" d="M84.07,20.62l-5.31,4.16S74.1,24.12,62,18c0,0-9.24,4.69-16.09,4.18l-.3-1.73s13.56-6.37,15.73-7.15C64,12.33,72.32,10.51,84.07,20.62Z"/><path class="cls-15" d="M43.87,21.58a33.81,33.81,0,0,0-5.75-.53c-1.63.09-2.08.61-.49,1.38a48.63,48.63,0,0,0,6,2.58c1.06.32,1.76-2.18,1.79-2.65Z"/><polygon class="cls-8" points="43.87 21.35 45.94 20.29 46.43 22.01 45.44 22.36 43.87 21.35"/><path class="cls-16" d="M36.64,21.59a69.75,69.75,0,0,0,6.65,2.66,3,3,0,0,0,1.52,0c-.3.54-.69.94-1.16.8a48.63,48.63,0,0,1-6-2.58C36.94,22.1,36.64,21.81,36.64,21.59Z"/><path class="cls-8" d="M45.3,22.29s-4,.18-3.7-1l2.64.05Z"/><rect class="cls-16" x="44.51" y="20.77" width="2.93" height="1.16" transform="translate(45.27 -29.34) rotate(64.29)"/><polygon class="cls-16" points="63.94 10.41 69.94 18.77 75.94 18.77 63.94 10.41"/><path class="cls-17" d="M86.07,21.92l-6.36,2.29S75.5,22.11,66,12.48c0,0-10.25,1.54-16.58-1.09l.25-1.74S64.53,7.87,66.84,7.81C69.61,7.74,78.09,8.63,86.07,21.92Z"/><path class="cls-18" d="M47.61,10.19a34.24,34.24,0,0,0-5.29-2.31c-1.58-.42-2.17-.07-.91,1.16a50.91,50.91,0,0,0,4.91,4.34c.9.64,2.36-1.51,2.53-2Z"/><polygon class="cls-8" points="47.69 9.98 49.98 9.62 49.9 11.41 48.85 11.43 47.69 9.98"/><path class="cls-16" d="M40.74,7.93a69.06,69.06,0,0,0,5.48,4.61,2.91,2.91,0,0,0,1.45.45c-.45.41-1,.67-1.35.39A50.91,50.91,0,0,1,41.41,9C40.87,8.51,40.67,8.14,40.74,7.93Z"/><path class="cls-8" d="M48.74,11.31s-3.82-1.07-3.18-2.14l2.49.87Z"/><rect class="cls-16" x="48.22" y="10.06" width="2.93" height="1.16" transform="translate(53.85 -40) rotate(82.63)"/><path class="cls-19" d="M90.26,92.06a1.46,1.46,0,0,0,.41-1V88.16a1.44,1.44,0,0,0-1.45-1.44h.14a92.6,92.6,0,0,1-8.89-27.48h0a28.81,28.81,0,0,0,20.19-10.87c.35,0,.71.06,1.07.06a13.56,13.56,0,0,0,9.35-4.16c4.74-4.75,5.55-11.66,1.8-15.41a8.39,8.39,0,0,0-6-2.37h0V18.79H46.54v7.7h0a8.43,8.43,0,0,0-5.93,2.35,8.74,8.74,0,0,0-2.27,7.58,14.67,14.67,0,0,0,11.91,11.9,9.81,9.81,0,0,0,1.52.11,8.31,8.31,0,0,0,1-.06A28.83,28.83,0,0,0,72.64,59.21h0a95.07,95.07,0,0,1-8.88,27.5h0a1.45,1.45,0,0,0-1.45,1.45v2.88a1.42,1.42,0,0,0,.41,1m31.71,0H59a1.19,1.19,0,0,0-1.2,1.19v13.83a1.1,1.1,0,0,0,.13.51H56.3a1.2,1.2,0,0,0-1.2,1.2v2.67a1.2,1.2,0,0,0,1.2,1.2H97.13a1.2,1.2,0,0,0,1.2-1.2v-2.67a1.2,1.2,0,0,0-1.2-1.2H95.5a1.1,1.1,0,0,0,.13-.51V93.25a1.19,1.19,0,0,0-1.19-1.19M44.9,41.76a10.51,10.51,0,0,1-3.07-5.82,5.29,5.29,0,0,1,1.27-4.59A4.9,4.9,0,0,1,46.54,30v.48a28.73,28.73,0,0,0,3.78,14.27h0A10.69,10.69,0,0,1,44.9,41.76Zm66.76-5.82a10.45,10.45,0,0,1-3.07,5.82,10.71,10.71,0,0,1-5.51,3s0,0,0,0a28.76,28.76,0,0,0,3.8-14.31V30a5,5,0,0,1,3.51,1.36A5.23,5.23,0,0,1,111.66,35.94Zm-21,71.24h-28V98.6H90.68v8.57Z"/><path class="cls-20" d="M45.59,18.56H88.77c4.12,4.11,11.64-1,15.52,1.6,4.3,2.92,1.83,13.88.29,18.52a33.44,33.44,0,0,1-5.27,9.87,33.36,33.36,0,0,1-8.12,6.37,34.61,34.61,0,0,1-18.88,4.17,28.85,28.85,0,0,1-14.93-5.56A28.55,28.55,0,0,1,49.26,44a32.27,32.27,0,0,1-3.07-8.93,54.8,54.8,0,0,1-.6-8.82C45.51,23.08,45.55,20.42,45.59,18.56Z"/><g class="cls-21"><polygon points="90.92 18.77 93.73 28.38 96.11 26.12 93.07 18.77 90.92 18.77"/></g><path class="cls-8" d="M93.75,12.58s-1.74,1.31-.74,6a57.07,57.07,0,0,1,1.2,7.55l-5.48,11.8,1.33.38s6.5-7.35,8-9.91S98.74,8.36,93.75,12.58Z"/><path class="cls-8" d="M89.8,37.87s-.68-.92-1.07,0c0,0-2.32,5.25-.73,4.38.47-.26.81-1.55,1.8-2.59C91.15,38.27,89.8,37.87,89.8,37.87Z"/><path class="cls-22" d="M92.73,29.27,96,31.21l2.66-3.41S100,17.85,98,14.18s-5.24-3.49-5.58-1.64S93.83,26,93.83,26Z"/><rect class="cls-11" x="93.23" y="28" width="2.05" height="4.91" transform="translate(18.42 94.17) rotate(-57.95)"/><path class="cls-8" d="M93.75,12.58s-1.74,1.31-.74,6a57.07,57.07,0,0,1,1.2,7.55l-5.48,11.8,1.33.38s6.5-7.35,8-9.91S98.74,8.36,93.75,12.58Z"/><path class="cls-13" d="M92.73,29.27,96,31.21l2.66-3.41S100,17.85,98,14.18s-5.38-3.53-5.73-1.67S93.83,26,93.83,26Z"/><rect class="cls-11" x="93.23" y="28" width="2.05" height="4.91" transform="translate(18.42 94.17) rotate(-57.95)"/><path class="cls-23" d="M103.07,44.8a39.35,39.35,0,0,1-2.41,3.55,7.6,7.6,0,0,0,1.61,0s2.47-3.12,3.58-4.6A8.41,8.41,0,0,1,103.07,44.8Z"/><path class="cls-23" d="M50.32,44.75a37.74,37.74,0,0,0,2.45,3.63,8.42,8.42,0,0,1-1.69,0s-2.54-3.21-3.72-4.77A9.37,9.37,0,0,0,50.32,44.75Z"/><path class="cls-23" d="M72.64,59.2s3.06.2,7.83,0c0,0,.29,2,.43,2.73a39.75,39.75,0,0,1-8.71,0S72.54,60.09,72.64,59.2Z"/><rect class="cls-11" x="62.63" y="98.59" width="28.04" height="8.58"/><polygon class="cls-23" points="63.76 86.71 89.36 86.71 88.22 84.42 64.88 84.42 63.76 86.71"/><path class="cls-1" d="M141,7.13a4.28,4.28,0,0,0-5.75-.5c-1.4.81-2.34,2.92-3.77,3.19-1.2.23-2-1.09-3.24-.76-.84.22-.65.92-1.59,1.44-1.39.76-2.46-.29-3.7.45-.77.46-1.39,1.48-1.13,2,.4.86,2.73.26,6.34.07,3.43-.18,2.74.28,8,.31,6.62,0,6.47-.7,9.74-.15,1.86.3,3.28.77,3.7.15s-.3-2.28-1.51-2.87c-1.46-.72-2.45.68-4.83.45C142.18,10.84,142.91,8.83,141,7.13Z"/><path class="cls-1" d="M17.06,27.67A3.77,3.77,0,0,0,12,27.22c-1.25.72-2.08,2.59-3.35,2.83-1.06.2-1.73-1-2.87-.67-.75.19-.58.82-1.41,1.27-1.23.68-2.19-.25-3.28.4-.68.41-1.24,1.32-1,1.81.36.76,2.42.24,5.63.07,3-.16,2.43.24,7.1.27,5.86,0,5.74-.62,8.64-.14,1.64.28,2.91.69,3.28.14s-.27-2-1.34-2.55c-1.3-.63-2.18.6-4.29.4C18.08,31,18.73,29.17,17.06,27.67Z"/><path class="cls-1" d="M140,43a3.3,3.3,0,0,0-4.44-.38c-1.09.62-1.82,2.25-2.92,2.46-.93.18-1.52-.84-2.51-.58-.65.17-.51.71-1.23,1.11-1.07.59-1.91-.22-2.87.35-.59.36-1.07,1.15-.87,1.58.31.66,2.11.2,4.91.06,2.65-.14,2.12.21,6.19.23,5.12,0,5-.54,7.54-.12,1.44.24,2.54.6,2.87.12s-.23-1.76-1.17-2.22c-1.14-.56-1.9.53-3.74.35C140.87,45.9,141.44,44.34,140,43Z"/><text class="cls-24" transform="translate(65.73 104.6)">PY<tspan class="cls-25" x="6.32" y="0">ME #1</tspan></text></g></g></svg>