<svg xmlns="http://www.w3.org/2000/svg" viewBox="0 0 323.68 354.27"><defs><style>.cls-1{fill:#d4ecff;}.cls-2{fill:#f9bf30;}.cls-3{fill:#e8a200;}.cls-4{fill:#fdd762;}.cls-5{fill:#1d2952;}.cls-6{fill:#3951a3;}.cls-7{fill:#2b3d7a;}.cls-8{fill:#8897c8;}.cls-9{fill:#6174b5;}.cls-10{fill:#8a2ae3;}.cls-11{fill:#fff;}.cls-12{fill:#f2b42a;}.cls-13{fill:#38330c;}.cls-14{fill:#173d7a;}.cls-15{fill:#b0b9da;}.cls-16{fill:#ffc2b0;}.cls-17{fill:#4558a7;}.cls-18{fill:#ea9c92;}.cls-19{fill:#34427d;}.cls-20{fill:#b7b49f;}.cls-21{fill:#dbdacf;}.cls-22{fill:#4a4410;}.cls-23{fill:#cfbca0;}.cls-24{fill:#222c54;}.cls-25{fill:#4559a7;}.cls-26{fill:#445078;}.cls-27{fill:#fcdcd4;}.cls-28{fill:#162456;}.cls-29{fill:#b45ef4;}.cls-30{fill:#95d359;}.cls-31{fill:#c13d1a;}.cls-32{fill:#db5126;}.cls-33{fill:#ef602e;}</style></defs><title>dataAsset 1success</title><g id="Layer_2" data-name="Layer 2"><g id="Ñëîé_1" data-name="Ñëîé 1"><path class="cls-1" d="M173.47,230l3.89-33.38a252.33,252.33,0,0,1,66.46,12.68l-31.38,28.13A163,163,0,0,0,173.47,230Z"/><path class="cls-2" d="M173.47,217.51l3.89-33.38a252.33,252.33,0,0,1,66.46,12.68l-31.38,28.13A163,163,0,0,0,173.47,217.51Z"/><polygon class="cls-2" points="173.47 146.75 211.66 148.46 212.44 154.19 212.44 224.94 182.72 213.7 173.47 217.51 173.47 146.75"/><polygon class="cls-3" points="243.82 126.05 243.82 196.81 212.44 224.94 212.44 154.19 243.82 126.05"/><path class="cls-4" d="M173.47,146.75l3.89-33.37a252.33,252.33,0,0,1,66.46,12.67l-31.38,28.14A163,163,0,0,0,173.47,146.75Z"/><path class="cls-4" d="M212.44,155.7a163.22,163.22,0,0,0-38.85-7.42l-.12,1a163.53,163.53,0,0,1,39,7.44l31.38-28.14v-1Z"/><path class="cls-1" d="M161.62,229.38c-25.49-.15-51.05,5-71.3,15.45L49.38,221.19C82,203.68,123.93,195.29,165.51,196Z"/><path class="cls-5" d="M161.62,217.05c-25.49-.16-51.05,5-71.3,15.44L49.38,208.86C82,191.34,123.93,183,165.51,183.69Z"/><polygon class="cls-5" points="161.62 217.05 161.62 192.62 165.51 159.26 165.51 183.69 161.62 217.05"/><polygon class="cls-5" points="90.32 208.07 135.92 167.07 161.62 192.62 161.62 217.05 95.3 216.62 90.32 232.49 90.32 208.07"/><polygon class="cls-5" points="49.38 184.43 49.38 208.86 90.32 232.49 90.32 208.07 49.38 184.43"/><path class="cls-6" d="M161.62,192.62c-25.49-.16-51.05,5-71.3,15.45L49.38,184.43c32.59-17.52,74.55-25.91,116.13-25.17Z"/><path class="cls-6" d="M161.62,194c-25.49-.16-51.05,5-71.3,15.45L49.38,185.75v.72l40.94,23.64c20.25-10.46,45.81-15.61,71.3-15.45l3.89-33.36h-.08Z"/><path class="cls-1" d="M250.19,321.72c25-23.44,20-54.56-15.22-74.88a110,110,0,0,0-12.55-6.19l31.35-28.11a175.38,175.38,0,0,1,22.13,10.67c55.34,31.95,62.6,81.13,21.84,117.62Z"/><path class="cls-7" d="M250.19,309.72c25-23.44,20-54.55-15.22-74.88a113.45,113.45,0,0,0-12.55-6.19l31.35-28.11a174.06,174.06,0,0,1,22.13,10.68c55.34,31.95,62.6,81.12,21.84,117.61Z"/><path class="cls-7" d="M222.42,185.17v43.48L250.19,239s36.06-19.69,36.06-20.15-6.08-42.15-10.54-44S222.42,185.17,222.42,185.17Z"/><polygon class="cls-6" points="250.19 309.72 250.19 266.24 297.74 285.35 297.74 328.83 250.19 309.72"/><path class="cls-6" d="M297.74,258.08v70.75s24.82-20.92,25.94-48.68l-.06-45.42-28.88-4.18Z"/><path class="cls-8" d="M250.19,266.54c25-23.45,20-54.56-15.22-74.88a111.76,111.76,0,0,0-12.55-6.2l31.35-28.11A174.06,174.06,0,0,1,275.9,168c55.34,31.95,62.6,81.12,21.84,117.62Z"/><path class="cls-9" d="M297.74,287l-47.55-19.12V269l47.55,19.11c17.44-15.61,26.07-33.54,25.93-51.45C323.45,254.24,314.81,271.75,297.74,287Z"/><path class="cls-6" d="M265.79,237c.44-15.88-9.82-31.84-30.82-44a128.3,128.3,0,0,0-12.55-6.18V188A110,110,0,0,1,235,194.16C255.47,206,265.72,221.49,265.79,237Z"/><ellipse class="cls-7" cx="116.21" cy="180.79" rx="22.97" ry="13.26"/><path class="cls-5" d="M133.67,174l-5,0c-.37-.24-.75-.49-1.15-.72-8.17-4.72-21.43-4.72-29.61,0-.51.3-1,.6-1.44.92l-4.69,0v7.6h0c0,3.09,2,6.18,6.13,8.54,8.18,4.72,21.44,4.72,29.61,0,4.09-2.36,6.13-5.45,6.13-8.54h0Z"/><path class="cls-5" d="M112,169.82a29.93,29.93,0,0,0-14.11,3.53c-.51.3-1,.6-1.44.92l-4.69,0v7.6c0,3.09,2,6.18,6.13,8.54A29.94,29.94,0,0,0,112,194Z"/><path class="cls-5" d="M94.68,174.28l-2.88,0v7.6A8.62,8.62,0,0,0,94.68,188Z"/><ellipse class="cls-6" cx="112.74" cy="174.04" rx="20.93" ry="12.09"/><path class="cls-6" d="M127.54,182.59c-8.17,4.72-21.43,4.72-29.61,0-3.88-2.24-5.91-5.15-6.11-8.08-.21,3.25,1.82,6.53,6.11,9,8.18,4.72,21.44,4.72,29.61,0,4.29-2.48,6.33-5.76,6.11-9C133.46,177.45,131.42,180.35,127.54,182.59Z"/><path class="cls-5" d="M127.93,170.72l-3.62,0c-.27-.18-.54-.36-.83-.53-5.93-3.42-15.55-3.42-21.48,0-.37.22-.72.44-1,.67l-3.4,0v2.62h0c0,2.24,1.48,4.49,4.45,6.2,5.93,3.42,15.55,3.42,21.48,0,3-1.71,4.45-4,4.45-6.2h0Z"/><path class="cls-5" d="M112.23,167.66A21.73,21.73,0,0,0,102,170.22c-.37.22-.72.44-1,.67l-3.4,0v2.62c0,2.24,1.48,4.49,4.45,6.2a21.62,21.62,0,0,0,10.23,2.56Z"/><path class="cls-5" d="M99.64,170.9H97.55v2.62A6.28,6.28,0,0,0,99.64,178Z"/><path class="cls-10" d="M123.48,176.93c-5.93,3.42-15.55,3.42-21.48,0s-5.93-9,0-12.41,15.55-3.42,21.48,0S129.41,173.5,123.48,176.93Z"/><path class="cls-4" d="M85,144.28a14.57,14.57,0,0,1-12.43-7l-8-13.2a5,5,0,0,1,4.3-7.63H84.62v4.1H68.89a.94.94,0,0,0-.8,1.42l8,13.2a10.44,10.44,0,0,0,9.09,5L98.83,140l.06,4.1-13.69.2Z"/><path class="cls-4" d="M140.49,144.28h-.21l-13.69-.2.06-4.1,13.69.21a10.43,10.43,0,0,0,9.08-5l8-13.19a.89.89,0,0,0,0-.94.92.92,0,0,0-.82-.48H140.85v-4.1h15.73a5,5,0,0,1,4.31,7.63l-8,13.2A14.58,14.58,0,0,1,140.49,144.28Z"/><path class="cls-3" d="M153.22,128.85l-3.8,6.3a10.43,10.43,0,0,1-9.08,5L126.65,140l-.06,4.1,13.69.2h.21a14.59,14.59,0,0,0,11.6-5.78A16.61,16.61,0,0,0,153.22,128.85Z"/><path class="cls-11" d="M104.6,163.57c4.5,2.59,11.78,2.59,16.27,0s4.5-6.8,0-9.39-11.77-2.6-16.27,0S100.11,161,104.6,163.57Z"/><path class="cls-2" d="M99.3,165.51c2.43-1.8,2-3.55,2-3.55l1.83,2.21a24.09,24.09,0,0,1,19.3,0l1.83-2.21s-.47,1.75,2,3.55,1.63,5.34,1.63,5.34h0c0,2.23-1.47,4.46-4.41,6.16-5.88,3.39-15.42,3.39-21.31,0-2.94-1.7-4.41-3.93-4.41-6.16C97.67,170.84,96.88,167.31,99.3,165.51Z"/><path class="cls-3" d="M121.15,166s-4.35-2.57-4.35-3.12a.89.89,0,0,1,.24-.4,20.24,20.24,0,0,1,5.35,1.65l1.83-2.21s-.47,1.75,2,3.55,1.63,5.34,1.63,5.34h0a5.82,5.82,0,0,1-1.32,3.56c0-.28.5-3.92-2.24-5.11S121.15,166,121.15,166Z"/><path class="cls-3" d="M104.6,166.21c4.5,2.6,11.78,2.6,16.27,0s4.5-6.8,0-9.39-11.77-2.6-16.27,0S100.11,163.62,104.6,166.21Z"/><path class="cls-2" d="M142.83,116.69c-.3,16.77-9,18.8-13.57,25.08-4.32,5.86-3.83,14.33-3.75,15.44a.49.49,0,0,1,0,.12h0c0,1.89-1.24,3.78-3.74,5.22-5,2.88-13.09,2.88-18.08,0-2.34-1.35-3.57-3.1-3.72-4.87h0v-.35h0s0-.08,0-.12c.09-1.1.58-9.58-3.74-15.44-4.63-6.28-13.27-8.31-13.57-25.08Z"/><path class="cls-3" d="M120.85,135s-.71,2-2.89,7.74-1.16,20.23-1.16,20.23l3.72.26a13.46,13.46,0,0,0,1.26-.63c2.5-1.44,3.74-3.33,3.74-5.22h0a.49.49,0,0,0,0-.12c-.08-1.11-.57-9.58,3.75-15.44,4.62-6.28,13.27-8.31,13.57-25.08h-3.3Z"/><ellipse class="cls-4" cx="112.74" cy="116.69" rx="30.09" ry="17.37"/><path class="cls-11" d="M91.46,129c11.75,6.79,30.8,6.79,42.56,0,5.54-3.19,8.46-7.33,8.78-11.52.35,4.7-2.57,9.46-8.78,13-11.76,6.78-30.81,6.78-42.56,0-6.21-3.59-9.14-8.35-8.78-13C83,121.64,85.92,125.78,91.46,129Z"/><ellipse class="cls-12" cx="112.74" cy="116.69" rx="25.26" ry="14.58"/><path class="cls-3" d="M94.88,127a34.68,34.68,0,0,0,14.73,4.14,3.47,3.47,0,0,0,.76-3.41c-2.62-7.86-1.61-24.15-1.61-24.15L104,103a31.21,31.21,0,0,0-9.13,3.36C85,112.07,85,121.31,94.88,127Z"/><path class="cls-11" d="M130.6,107.67c-9.87-5.69-25.86-5.69-35.72,0-4.65,2.69-7.1,6.15-7.37,9.67-.3-4,2.15-8,7.37-11,9.86-5.7,25.85-5.7,35.72,0,5.21,3,7.67,7,7.37,11C137.7,113.82,135.24,110.35,130.6,107.67Z"/><path class="cls-3" d="M125.1,129.4a41.87,41.87,0,0,1-24.73,0c.27-.17.54-.35.82-.51,6.38-3.68,16.72-3.68,23.09,0C124.57,129.05,124.84,129.23,125.1,129.4Z"/><path class="cls-11" d="M100,157.21c0-.13,0-.37,0-.7.19,1.72,1.41,3.42,3.7,4.74,5,2.88,13.09,2.88,18.08,0,2.23-1.29,3.47-2.94,3.7-4.63,0,.27,0,.47,0,.59a.49.49,0,0,1,0,.12h0c0,1.89-1.24,3.78-3.74,5.22-5,2.88-13.09,2.88-18.08,0-2.34-1.35-3.57-3.1-3.72-4.87h0v-.35h0S100,157.25,100,157.21Z"/><ellipse class="cls-2" cx="203.96" cy="132.03" rx="14.34" ry="8.28"/><path class="cls-13" d="M213,20s-.41,8.49-1.06,14.2-14.39-4.39-14.39-4.39v-6.5Z"/><path class="cls-14" d="M205.7,125.61c-.21.52-3.77,4.86-7.33,5.94a8.25,8.25,0,0,1-3.28.45,1.07,1.07,0,0,1-.87-1.43,13.54,13.54,0,0,1,6.83-7.54C207.09,120,205.7,125.61,205.7,125.61Z"/><path class="cls-14" d="M206.88,127.28a29.44,29.44,0,0,0-1.75,5.78c-.25,1.61.63,3.69,1.35,5.08a1.49,1.49,0,0,0,2.31.4,8.53,8.53,0,0,0,2.89-5.53c.42-4.44,0-5.21,0-5.21Z"/><path class="cls-15" d="M215.46,73.63a83.42,83.42,0,0,1,0,11.79c-.46,6.19-2.12,35.16-2.43,42.13,0,0,.15,2.11-3.93,1.65s-3.76-2.81-3.76-2.81-5.73-.08-5.91-3.46-5.88-40.37-5.88-53.67Z"/><polygon class="cls-16" points="195.53 44.72 192.22 64.95 189.21 64.9 189.48 46.36 195.53 44.72"/><path class="cls-17" d="M196.91,26.81s-4.46-.12-6,6.33-2.77,14.53-1.42,15.2c4.06,2,6.63-.34,6.63-.34Z"/><path class="cls-17" d="M195.57,27.08A3.63,3.63,0,0,1,198,27c3.81,1.09,18.11,5.29,20.46,7.3,2.73,2.33-4.08,15.41-4,19.7s.58,9.34,1,14,.89,7.22-2.92,9.2a15,15,0,0,1-15.2-1.64c-4.87-3.71-4-6.25-3.78-9s1.86-14.35,1.72-17.66a12.55,12.55,0,0,1-3-3.44c-1.28-2.17,1-6.15,1.9-8.75s-.52-5.55-.23-7.67A2.38,2.38,0,0,1,195.57,27.08Z"/><ellipse class="cls-11" cx="205.52" cy="32.23" rx="4.3" ry="5.42" transform="translate(147.44 231.99) rotate(-82.7)"/><path class="cls-16" d="M201.68,31.74c-.22,1.68,1.33,3.26,3.45,3.54s4-.88,4.23-2.56-1.33-3.27-3.45-3.54S201.89,30.05,201.68,31.74Z"/><path class="cls-16" d="M203.79,26.21s2.58-2.13,3.09-1.05.92,5.69.92,5.69l-5.13,1.38.78-4.68S202.43,26.68,203.79,26.21Z"/><circle class="cls-16" cx="203.42" cy="20.7" r="7.65" transform="translate(13.95 97.57) rotate(-27.89)"/><path class="cls-18" d="M207.23,26.5c.05.24.09.5.13.76-.51,2.66-4.5,3.83-4.5,3.83l.59-3.54s-.48-.41-.34-.82C204.68,26.23,206.67,25.79,207.23,26.5Z"/><circle class="cls-16" cx="203.42" cy="20.7" r="7.65" transform="translate(13.95 97.57) rotate(-27.89)"/><polygon class="cls-16" points="222.28 53.1 221.42 73.58 218.42 73.89 216.47 55.45 222.28 53.1"/><path class="cls-19" d="M212.43,51.39c1-4.38,2.95-14,2.95-14l.84,9.61c-1,2.85-1.8,5.47-1.76,7,.06,2.51.25,5.29.47,8.11h0S211.44,55.76,212.43,51.39Z"/><path class="cls-17" d="M217.87,33.83s2.4.92,3.75,8.27,2.37,14.72,0,15.67-4.44,1.67-5.15-.3S215.28,46,215.19,42.61,215,34.51,217.87,33.83Z"/><path class="cls-9" d="M205.34,126.39a11.71,11.71,0,0,1-1.64-.17h0l-1.12-45Z"/><path class="cls-20" d="M209.68,102.07l1.59-2.08L228,90.28a2.34,2.34,0,0,0,1-1.86l0-13.72,1-1.25-.91-.53h0a.64.64,0,0,0-.66,0l-19,11a2.34,2.34,0,0,0-1,1.86l0,14.94a.85.85,0,0,0,.35.79h0Z"/><path class="cls-20" d="M221.26,94.2l1.19-.69L229,82.16V74.7l1-1.25-.91-.53h0a.64.64,0,0,0-.66,0l-19,11a1.9,1.9,0,0,0-.71.83Z"/><path class="cls-20" d="M229.52,74l.43-.56-.91-.53h0a.64.64,0,0,0-.66,0l-.33.2Z"/><path class="cls-20" d="M209.22,84.08a2.41,2.41,0,0,0-.79,1.6l1.85,1.07.89-1.55Z"/><path class="cls-21" d="M210.22,84.37l19-11c.54-.32,1,0,1,.73V89.05a2.32,2.32,0,0,1-1,1.86l-19,11c-.53.31-1,0-1-.74l0-14.94A2.34,2.34,0,0,1,210.22,84.37Z"/><path class="cls-20" d="M222.07,87.46A3.19,3.19,0,0,1,220.64,90c-.8.46-1.44.08-1.44-.83a3.15,3.15,0,0,1,1.44-2.49C221.43,86.17,222.07,86.54,222.07,87.46Z"/><path class="cls-16" d="M221.39,73.41a46,46,0,0,1,.68,6.31c-.12,1.54-.94,4.06-1.56,4s0-6.16-1.12-5.55-1.2,1.65-1.7,1.28.86-5.59.5-7.85S221.39,73.41,221.39,73.41Z"/><path class="cls-16" d="M189.21,64.9a47.62,47.62,0,0,0-.68,6.31c.12,1.54.94,4.06,1.57,4s0-6.16,1.11-5.55,1.21,1.65,1.7,1.28-.86-5.59-.5-7.85S189.21,64.9,189.21,64.9Z"/><path class="cls-18" d="M200.48,21.37c-3.84,1.36-4.59.53-4.63.49,0-.24-.06-.47-.08-.71a7.56,7.56,0,0,1,.26-2.44l10-1.35A10.83,10.83,0,0,1,200.48,21.37Z"/><path class="cls-22" d="M195.5,13.53c.9-.78,4.17-4.62,10-3.71,3.66.57,6.74,3.06,7.42,8.75A13.09,13.09,0,0,1,209.4,29c-.14-.07-.28-.13-.41-.21-1.47-1-1.63-1.5-1.63-1.5l-.32-2.9a.81.81,0,0,1,.73-.81,1.46,1.46,0,0,0,1.07-.65A1.71,1.71,0,0,0,207.61,20a1.3,1.3,0,0,1-1.34-.95.69.69,0,0,0-.9-.47c-1.91.69-6.62,2.18-9.65,1.32C191.84,18.83,194.59,14.3,195.5,13.53Z"/><path class="cls-11" d="M199.86,24.83l-2.34-.65a5.67,5.67,0,0,0,2.75,2.21c1.63.45,1.89-.93,1.89-.93Z"/><polygon class="cls-20" points="217.41 79.31 219.41 78.17 218.66 79.39 217.65 79.77 217.41 79.31"/><path class="cls-14" d="M258.74,239s-2.41-1.22-3.89.59-3.6,6.09-3.67,9,2.29,2.7,3.69,2,5.48-6.62,5.73-7.78a4,4,0,0,0-.68-3C259.52,239.44,258.74,239,258.74,239Z"/><path class="cls-23" d="M259.27,238.39l.11,2.5a1.4,1.4,0,0,1-.7,1.3,2.83,2.83,0,0,1-1.87.29c-1.81-.3-2-.81-2.11-3.31S259.27,238.39,259.27,238.39Z"/><path class="cls-14" d="M249.91,234.16s-2.41-1.22-3.89.6-3.61,6.09-3.67,9,2.29,2.69,3.69,2,5.48-6.61,5.73-7.78a4,4,0,0,0-.69-3C250.69,234.63,249.91,234.16,249.91,234.16Z"/><path class="cls-23" d="M250.44,233.58l.11,2.5a1.41,1.41,0,0,1-.71,1.3,2.79,2.79,0,0,1-1.86.29c-1.82-.29-2-.81-2.11-3.31S250.44,233.58,250.44,233.58Z"/><path class="cls-24" d="M272,187.68c-.71-11.63-12.58,1.71-12.58,1.71l-8.13,8-7.32,8a7.19,7.19,0,0,0-1.81,5.79l3,22.54a2.2,2.2,0,0,0,2.22,1.92,7.7,7.7,0,0,0,1.09-.09,2.76,2.76,0,0,0,2.45-2.92l-.54-21.08,15.36-9.27S272.69,199.3,272,187.68Z"/><path class="cls-24" d="M280.81,192.1c-.72-11.62-12.59,1.71-12.59,1.71l-8.13,8-7.31,8a7.19,7.19,0,0,0-1.82,5.79l3,22.54a2.22,2.22,0,0,0,2.22,1.92,7.83,7.83,0,0,0,1.1-.09,2.75,2.75,0,0,0,2.44-2.93L259.14,216l15.37-9.27S281.52,203.73,280.81,192.1Z"/><path class="cls-25" d="M273.78,154.8c9,3.73,8.82,9,8.82,9s-1.76,19.5-1.16,32.53c.25,5.45-28.93,5.86-24.58-8.67,5.13-17.13,3.21-31,5.61-33.09S271.45,153.83,273.78,154.8Z"/><path class="cls-16" d="M276.68,159.51c-.47,1.83-2.87,2.8-5.35,2.16s-4.11-2.64-3.64-4.47,2.86-2.79,5.34-2.15S277.15,157.69,276.68,159.51Z"/><path class="cls-11" d="M272.87,162.29a6.73,6.73,0,0,1-1.65-.21,6,6,0,0,1-3.15-1.93,3.25,3.25,0,0,1,1.38-5.35,6,6,0,0,1,3.69-.17c2.71.7,4.48,2.94,3.95,5a3.41,3.41,0,0,1-2.17,2.29A5.38,5.38,0,0,1,272.87,162.29Zm-1.37-7a4.63,4.63,0,0,0-1.73.32,2.4,2.4,0,0,0-1,4,5.49,5.49,0,0,0,5.87,1.51,2.6,2.6,0,0,0,1.66-1.71h0c.41-1.6-1.08-3.37-3.33-3.95A6,6,0,0,0,271.5,155.28Z"/><path class="cls-16" d="M270.17,154.39a21.52,21.52,0,0,1-.08,3.21c0,.9,3.1,1.74,3.91.93s.48-1.66.68-4.71S270.17,154.39,270.17,154.39Z"/><path class="cls-18" d="M274.68,153.82s-.77,2.83-4.59,3.91l.06-2.57Z"/><path class="cls-16" d="M277.09,146.63a6.93,6.93,0,1,1-8.44-5A6.92,6.92,0,0,1,277.09,146.63Z"/><path class="cls-18" d="M272,148.62a21.57,21.57,0,0,1-6.46,1.65c-2.64,0-2.06-2.19-2.06-2.19L271.3,147Z"/><path class="cls-24" d="M264.73,149.05a12.39,12.39,0,0,1,6.24-.82,3,3,0,0,1,1.76,1,1.08,1.08,0,0,0,.54.39c.51.12,1.36-2,2.36-2.08s1.68.67.86,2-.55,2.79-.17,3,4.4-2.87.85-9.89-12.55-3.24-13.95-1.82c0,0-1.48,1.29-2.68.14C260.54,141,259.19,151.08,264.73,149.05Z"/><path class="cls-16" d="M258.07,153.2l-4.84-2.09a2.11,2.11,0,0,1-1.18-1.27L247.27,136l-2.22.39,3.87,17.23a2.88,2.88,0,0,0,1.41,1.9l8.06,4.53Z"/><path class="cls-16" d="M308.42,155.45l1.11-.51a8.81,8.81,0,0,0,2.55-1.76l.77-.76a1.49,1.49,0,0,0,.33-1.65h0a.81.81,0,0,0-1.13-.41l-2.32,1.17s.36-1,.19-1.3-2,1.72-2.8,3.12S308.42,155.45,308.42,155.45Z"/><path class="cls-16" d="M289.11,161l4.14-.46a7.39,7.39,0,0,0,2.78-.9l11.09-6.28,1.3,2.1-11.34,8.76a5.42,5.42,0,0,1-1.14.67l-6.76,2.89Z"/><path class="cls-16" d="M245.05,136.38l-.42-.49a4,4,0,0,1-.91-2l-.29-2a1.72,1.72,0,0,1,.66-1.65l.06,0a1,1,0,0,1,1.53.5l1,2.41s-.32-1.25.08-1.39.86,1.45.53,2.31a3.63,3.63,0,0,0,0,2Z"/><path class="cls-11" d="M267.64,153.14l-1.79-.5a4.28,4.28,0,0,0,2.1,1.69c1.25.34,1.44-.71,1.44-.71Z"/><path class="cls-17" d="M265,153.63s-8.08-1.6-10.55-2.35-3.5,6-3.31,7.75,8.59,3.64,9.59,6.59S265,153.63,265,153.63Z"/><path class="cls-17" d="M277.32,156.61a64,64,0,0,0,15.79,3.77,1.05,1.05,0,0,1,.88.7,11.76,11.76,0,0,1,.53,5.94,2.19,2.19,0,0,1-2.17,1.72c-3.09,0-9.75.27-10.83,3.17C280.1,175.7,277.32,156.61,277.32,156.61Z"/><rect class="cls-8" x="171.72" y="14.57" width="1.75" height="5.08"/><rect class="cls-8" x="173.47" y="17.61" width="1.75" height="5.08"/><rect class="cls-4" x="248.77" y="61.36" width="2.25" height="6.55" transform="translate(340.52 306.33) rotate(-125.06)"/><rect class="cls-4" x="250.68" y="57.27" width="2.25" height="6.55" transform="translate(346.88 301.44) rotate(-125.06)"/><rect class="cls-4" x="252.59" y="53.17" width="2.25" height="6.55" transform="translate(353.25 296.56) rotate(-125.06)"/><rect class="cls-4" x="254.51" y="49.07" width="2.25" height="6.55" transform="matrix(-0.57, -0.82, 0.82, -0.57, 359.62, 291.67)"/><rect class="cls-4" x="113.44" y="62.6" width="1.75" height="5.08" transform="translate(149.04 -61.76) rotate(75.63)"/><rect class="cls-4" x="110.93" y="65.05" width="1.75" height="5.08" transform="translate(149.52 -57.49) rotate(75.62)"/><rect class="cls-4" x="108.41" y="67.5" width="1.75" height="5.08" transform="translate(150 -53.22) rotate(75.62)"/><rect class="cls-4" x="105.9" y="69.95" width="1.75" height="5.08" transform="translate(150.5 -48.94) rotate(75.63)"/><rect class="cls-6" x="282.03" y="111.26" width="1.75" height="5.08" transform="translate(587.53 100.22) rotate(155.54)"/><rect class="cls-6" x="279.17" y="109.22" width="1.75" height="5.08" transform="translate(581.24 97.49) rotate(155.53)"/><rect class="cls-6" x="276.32" y="107.17" width="1.75" height="5.08" transform="translate(574.94 94.77) rotate(155.53)"/><rect class="cls-6" x="273.47" y="105.13" width="1.75" height="5.08" transform="translate(568.65 92.05) rotate(155.53)"/><rect class="cls-6" x="144.95" y="35.25" width="3.01" height="8.75" transform="translate(95.8 -103.39) rotate(55.36)"/><rect class="cls-8" x="221.4" y="-0.45" width="1.75" height="5.08" transform="translate(342.13 -185.11) rotate(122.09)"/><rect class="cls-6" x="247.26" y="90.4" width="1.75" height="1.91" transform="translate(182.23 -164.72) rotate(55.36)"/><rect class="cls-6" x="270.04" y="35.83" width="2.25" height="2.45" transform="translate(147.51 -207.1) rotate(55.36)"/><rect class="cls-8" x="259.18" y="31.6" width="2.25" height="2.45" transform="translate(139.34 -199.99) rotate(55.36)"/><rect class="cls-8" x="175.44" y="58.44" width="1.75" height="1.91" transform="translate(124.95 -119.43) rotate(55.36)"/><path class="cls-6" d="M232.67,32.83l-1.18-2.3a3.15,3.15,0,0,0,1.41-1.79,4.39,4.39,0,0,0-.84-3.38c-2.84-4.56-.85-8.41.61-9.8l1.78,1.85-.89-.92.9.92c-.27.27-2.6,2.76-.21,6.59a6.79,6.79,0,0,1,1.13,5.45A5.7,5.7,0,0,1,232.67,32.83Z"/><path class="cls-8" d="M264.56,81.81l1-1.72a2.42,2.42,0,0,0,1.75.18,3.45,3.45,0,0,0,1.88-2,6,6,0,0,1,6.68-3.67l-.48,1.94.24-1-.23,1c-.29-.07-2.89-.56-4.41,2.6a5.25,5.25,0,0,1-3.11,3A4.41,4.41,0,0,1,264.56,81.81Z"/><path class="cls-8" d="M131.91,86.39l.64-3.38a4.24,4.24,0,0,0,2.95-.74c1.05-.79,1.68-2.22,1.9-4.25.74-7.15,6-9.57,8.68-9.85l.36,3.43-.18-1.72.19,1.71c-.51.07-5,.78-5.63,6.78-.32,3-1.42,5.3-3.29,6.69A7.61,7.61,0,0,1,131.91,86.39Z"/><path class="cls-4" d="M174.09,81.36l2,.29a2.45,2.45,0,0,0,.5,1.69,3.41,3.41,0,0,0,2.52,1A6,6,0,0,1,185,89.12l-2,.29,1-.15-1,.16c-.05-.29-.58-2.88-4.08-3.09a5.27,5.27,0,0,1-4-1.74A4.45,4.45,0,0,1,174.09,81.36Z"/><path class="cls-1" d="M146.27,284.75c9.72,5.61,25.48,5.61,35.2,0s9.72-14.71,0-20.32-25.48-5.62-35.2,0S136.54,279.14,146.27,284.75Z"/><path class="cls-14" d="M152,268.43a3.83,3.83,0,0,0-2.16,3.84,6.57,6.57,0,0,0,.31,1.88,3.16,3.16,0,0,0,4.24,1.3c2.34-.92,7.52-5.79,7.71-9C162.46,260.55,155.68,266.85,152,268.43Z"/><path class="cls-14" d="M165.71,278.22s-.56,3.42-.29,4a4.37,4.37,0,0,0,4.29,1.68c2.4-.29,9.31-2.67,10.84-7.22,2.39-7.06-13.32.53-13.32.53Z"/><path class="cls-26" d="M172.45,223.65l.54,53.29a3.74,3.74,0,0,1-2.91,3.7l-.65.08a3.33,3.33,0,0,1-3.16-1.31,3.93,3.93,0,0,1-.72-2.15l-.68-22.75-3.39-20.35-4.7,36a3.14,3.14,0,0,1-1.29,2.37,3.61,3.61,0,0,1-2.15.58,3.91,3.91,0,0,1-2.84-1.4,2.87,2.87,0,0,1-.69-1.93l1.87-21.66.69-27.64Z"/><path class="cls-27" d="M165.55,175.94l-.84,4.86a2.22,2.22,0,0,0,1.82,2.11c1.85.46,2.42-.73,2.42-.73l.83-5.47Z"/><ellipse class="cls-27" cx="169.31" cy="171.45" rx="7.9" ry="7.03" transform="translate(-59.76 246.22) rotate(-63.44)"/><path class="cls-17" d="M165.77,180.88c-.13,0-7.85-5-10.7.18-4.66,8.49-4.38,35.8-2.91,39.33,1.36,3.28,4.75,5.69,7.13,7.05a14.27,14.27,0,0,0,6.93,2c2.41,0,7-2.13,6.87-5.28-.77-14.51.51-26.74,1.69-38.6C174.78,185.53,173.3,183.93,165.77,180.88Z"/><path class="cls-28" d="M161.48,234.16l-4.7,36a3.14,3.14,0,0,1-1.29,2.37l-.4.22c1-.73,3.82-30.95,4.35-34.31S161.48,234.16,161.48,234.16Z"/><polygon class="cls-27" points="190.46 182.49 194.66 168.74 192.44 167.83 187.49 178.59 190.46 182.49"/><polygon class="cls-27" points="148.17 171.66 151.31 157.35 153.82 157.38 152.88 169.24 148.17 171.66"/><path class="cls-17" d="M174.78,185.53s7.54,1.5,12.34-7.28a1.18,1.18,0,0,1,2-.2c.77,1.17,1.79,3,1.26,4.9-2.33,8.58-15,10.47-17.28,15.45S174.78,185.53,174.78,185.53Z"/><path class="cls-17" d="M160.87,179.1s-6,.46-6.83-4.71a41,41,0,0,1-.6-5.16,1,1,0,0,0-1.17-1c-1.43.18-3.64.61-3.94,1.57-.45,1.43-1.29,8.44,4.6,19.21C156.8,196,160.87,179.1,160.87,179.1Z"/><path class="cls-27" d="M151.3,157.38l.06-1.63a3.39,3.39,0,0,1,.48-1.63l1.66-2.71.43-.55a1.26,1.26,0,0,1,1.65-.28l.38.24a1.55,1.55,0,0,1,.73,1.42l-.86,2.32,1.08-.2a.38.38,0,0,1,.46.3h0a.4.4,0,0,1-.24.43l-1.76.71-1.61,2.27Z"/><path class="cls-27" d="M194.72,168.82l.5-1.56a3.38,3.38,0,0,0,.09-1.7l-.63-3.11-.22-.66A1.26,1.26,0,0,0,193,161l-.44.1a1.56,1.56,0,0,0-1.17,1.09l0,2.47-.95-.56a.38.38,0,0,0-.53.14h0a.38.38,0,0,0,.08.48l1.42,1.27.83,3Z"/><path class="cls-19" d="M171.25,195.92c-.68,3.14,1.24,27.47-5,33.49,2.41,0,7-2.13,6.87-5.28a192.73,192.73,0,0,1,.57-26.68c2.47-3.19,9.24-5.22,13.47-9.31C186.82,188.24,171.93,192.82,171.25,195.92Z"/><path class="cls-11" d="M163,179.51l1.08-1.1a8.79,8.79,0,0,0,3.18,2.12,16.42,16.42,0,0,0,2.53.52l.69,1.9S164.86,182.55,163,179.51Z"/><path class="cls-14" d="M170.56,174a.88.88,0,0,0,.79-.25c.37-.37.51-2.32,1.46-2.49,1.48-.25,4.48,2.06,5.69-2.9.64-2.58-.51-3.49-.26-4.92,0,0,0,.74-6.65-.87s-9.85,4-10.5,6.8-.07,7.72,4.4,9.15c.75.23,4.38-1.79,4.36-2.14s-1.23-.54-.89-1.49A1.28,1.28,0,0,1,170.56,174Z"/><polygon class="cls-9" points="305.42 243.98 293.19 236.92 280.96 243.98 293.19 251.04 305.42 243.98"/><polygon class="cls-3" points="293.19 244.49 293.19 236.54 307.8 228.11 307.8 236.06 293.19 244.49"/><polygon class="cls-2" points="293.19 236.54 278.58 228.11 278.58 236.06 293.19 244.49 293.19 236.54"/><polygon class="cls-4" points="307.8 228.11 293.19 219.68 278.58 228.11 293.19 236.54 307.8 228.11"/><polygon class="cls-1" points="227.38 347.22 215.16 340.16 202.93 347.22 215.16 354.27 227.38 347.22"/><polygon class="cls-5" points="215.16 347.73 215.16 339.77 229.76 331.34 229.76 339.29 215.16 347.73"/><polygon class="cls-5" points="215.16 339.77 200.55 331.34 200.55 339.29 215.16 347.73 215.16 339.77"/><polygon class="cls-6" points="229.76 331.34 215.16 322.91 200.55 331.34 215.16 339.77 229.76 331.34"/><polygon class="cls-1" points="49.38 298 32.92 288.5 16.46 298 32.92 307.5 49.38 298"/><polygon class="cls-1" points="32.92 288.5 16.46 279 0 288.5 16.46 298 32.92 288.5"/><polygon class="cls-7" points="35.4 280.43 35.4 251.97 49.38 243.9 49.38 272.35 35.4 280.43"/><polygon class="cls-29" points="35.4 251.97 21.42 243.9 21.42 272.35 35.4 280.43 35.4 251.97"/><polygon class="cls-9" points="49.38 243.9 35.4 235.82 21.42 243.9 35.4 251.97 49.38 243.9"/><polygon class="cls-30" points="49.38 283.12 35.4 275.05 35.4 280.43 49.38 288.5 49.38 283.12"/><polygon class="cls-31" points="21.42 288.5 21.42 245.45 35.4 237.38 35.4 280.43 21.42 288.5"/><polygon class="cls-32" points="21.42 245.45 7.43 237.38 7.43 280.43 21.42 288.5 21.42 245.45"/><polygon class="cls-33" points="35.4 237.38 21.42 229.31 7.43 237.38 21.42 245.45 35.4 237.38"/><polygon class="cls-5" points="21.42 288.5 21.42 245.45 35.4 237.38 35.4 280.43 21.42 288.5"/><polygon class="cls-5" points="21.42 245.45 7.43 237.38 7.43 280.43 21.42 288.5 21.42 245.45"/><polygon class="cls-6" points="35.4 237.38 21.42 229.31 7.43 237.38 21.42 245.45 35.4 237.38"/><polygon class="cls-3" points="35.4 296.57 35.4 272.35 49.38 264.28 49.38 288.5 35.4 296.57"/><polygon class="cls-2" points="35.4 272.35 21.42 264.28 21.42 288.5 35.4 296.57 35.4 272.35"/><polygon class="cls-4" points="49.38 264.28 35.4 256.21 21.42 264.28 35.4 272.35 49.38 264.28"/><path class="cls-1" d="M134.6,325.55c-9.83-5.68-25.77-5.68-35.59,0s-9.83,14.87,0,20.55,25.76,5.67,35.59,0S144.43,331.22,134.6,325.55Zm-9.62,15c-4.52,2.61-11.84,2.61-16.36,0s-4.52-6.83,0-9.44,11.84-2.61,16.36,0S129.5,337.94,125,340.54Z"/><path class="cls-3" d="M95.3,317.75l9,.14a9.69,9.69,0,0,1,2.84-2.38c4.93-2.85,12.7-3.07,18.07-.67l5.34-5,8.21.13c-.4-.27-.82-.53-1.26-.79-11.41-6.59-29.92-6.59-41.34,0a21.88,21.88,0,0,0-5.13,4Z"/><polygon class="cls-2" points="138.73 296.92 138.73 309.96 130.52 309.83 130.52 296.79 138.73 296.92"/><polygon class="cls-3" points="125.19 301.81 125.19 314.84 130.52 309.83 130.52 296.79 125.19 301.81"/><path class="cls-3" d="M104.27,304.86v13l11.81-9.62,9.1,6.57v-13l-8.38-4.07s-11.54,3.53-12.14,3.68S104.27,304.86,104.27,304.86Z"/><polygon class="cls-3" points="95.3 304.72 95.3 317.75 104.27 317.89 104.27 304.86 95.3 304.72"/><polygon class="cls-2" points="91 300.14 91 313.18 95.3 317.75 95.3 304.72 91 300.14"/><path class="cls-4" d="M95.3,304.72l9,.14a9.56,9.56,0,0,1,2.84-2.39c4.93-2.85,12.7-3.07,18.07-.66l5.34-5,8.21.13q-.6-.41-1.26-.78c-11.41-6.59-29.92-6.59-41.34,0a21.6,21.6,0,0,0-5.13,4Z"/><path class="cls-5" d="M127.89,303.41v12l7.77-1.87s-.46-7-.62-7.2S127.89,303.41,127.89,303.41Z"/><path class="cls-5" d="M122,315.4v13l.84.9,5.48-3.16s-.85-9.95-1-10.15A52,52,0,0,0,122,315.4Z"/><path class="cls-5" d="M132.59,312l-4.7,4.42c3.91,3.09,3.45,7.46-1.39,10.25a16.44,16.44,0,0,1-4.49,1.73l4.85,5.17-4.3,4A39.15,39.15,0,0,0,137.47,333c9.81-5.67,11.18-14.35,4.12-20.87Z"/><polygon class="cls-5" points="122.56 324.62 122.56 337.65 133.21 333.54 146.03 321.31 145.98 307.47 132.42 318.21 122.56 324.62"/><path class="cls-6" d="M132.59,299l-4.7,4.42c3.91,3.1,3.45,7.46-1.39,10.26A17.11,17.11,0,0,1,122,315.4l4.85,5.17-4.3,4A39,39,0,0,0,137.47,320c9.81-5.66,11.18-14.35,4.12-20.87Z"/><path class="cls-7" d="M122.53,333.54,118.25,329a20.45,20.45,0,0,1-11.14-2.28c-3.15-1.81-4.44-4.29-3.89-6.65L93,319.89l-3.92-4.18c-3.43,5.89-1.09,12.64,7,17.33,6,3.44,13.87,5.08,21.69,4.93Z"/><polygon class="cls-7" points="117.81 324.93 117.81 337.97 87.58 321.21 87.58 308.17 92 309.96 117.81 324.93"/><polygon class="cls-7" points="122.53 320.5 122.53 333.54 117.81 337.97 117.81 324.93 122.53 320.5"/><path class="cls-8" d="M122.53,320.5l-4.28-4.56a20.44,20.44,0,0,1-11.14-2.27c-3.15-1.82-4.44-4.3-3.89-6.66L93,306.85l-3.92-4.17c-3.43,5.88-1.09,12.64,7,17.32,6,3.45,13.87,5.09,21.69,4.93Z"/></g></g></svg>