<svg xmlns="http://www.w3.org/2000/svg" viewBox="0 0 323.68 340.67"><defs><style>.cls-1{fill:#d4ecff;}.cls-2{fill:#f9bf30;}.cls-3{fill:#e8a200;}.cls-4{fill:#fdd762;}.cls-5{fill:#596ab0;}.cls-6{fill:#30459c;}.cls-7{fill:#243475;}.cls-8{fill:#8a2ae3;}.cls-9{fill:#fff;}.cls-10{fill:#f2b42a;}.cls-11{fill:#54442b;}.cls-12{fill:#173d7a;}.cls-13{fill:#838fc4;}.cls-14{fill:#ffc2b0;}.cls-15{fill:#ea9c92;}.cls-16{fill:#707796;}.cls-17{fill:#acb5d7;}.cls-18{fill:#7f6640;}.cls-19{fill:#734053;}.cls-20{fill:#b45ef4;}.cls-21{fill:#fcdcd4;}.cls-22{fill:#404a73;}.cls-23{fill:#95d359;}.cls-24{fill:#c13d1a;}.cls-25{fill:#db5126;}.cls-26{fill:#ef602e;}</style></defs><title>dataAsset 1success</title><g id="Layer_2" data-name="Layer 2"><g id="Ñëîé_1" data-name="Ñëîé 1"><path class="cls-1" d="M173.47,220.36,177.36,187a252.73,252.73,0,0,1,66.46,12.67l-31.38,28.14A163,163,0,0,0,173.47,220.36Z"/><path class="cls-2" d="M173.47,207.83l3.89-33.38a252.73,252.73,0,0,1,66.46,12.67l-31.38,28.14A163,163,0,0,0,173.47,207.83Z"/><polygon class="cls-2" points="173.47 137.07 211.66 138.78 212.44 144.5 212.44 215.26 182.72 204.02 173.47 207.83 173.47 137.07"/><polygon class="cls-3" points="243.82 116.37 243.82 187.12 212.44 215.26 212.44 144.5 243.82 116.37"/><path class="cls-4" d="M173.47,137.07l3.89-33.38a252.33,252.33,0,0,1,66.46,12.68L212.44,144.5A163,163,0,0,0,173.47,137.07Z"/><path class="cls-4" d="M212.44,146a163.22,163.22,0,0,0-38.85-7.42l-.12,1a163,163,0,0,1,39,7.44l31.38-28.14v-1.05Z"/><path class="cls-1" d="M161.62,219.7c-25.49-.16-51.05,5-71.3,15.45L49.38,211.51C82,194,123.93,185.61,165.51,186.34Z"/><path class="cls-5" d="M161.62,207.36c-25.49-.15-51.05,5-71.3,15.45L49.38,199.17C82,181.66,123.93,173.27,165.51,174Z"/><polygon class="cls-5" points="161.62 207.37 161.62 182.94 165.51 149.58 165.51 174 161.62 207.37"/><polygon class="cls-5" points="90.32 198.39 135.92 157.39 161.62 182.94 161.62 207.37 95.3 206.94 90.32 222.81 90.32 198.39"/><polygon class="cls-5" points="49.38 174.75 49.38 199.17 90.32 222.81 90.32 198.39 49.38 174.75"/><path class="cls-6" d="M161.62,182.94c-25.49-.16-51.05,5-71.3,15.45L49.38,174.75c32.59-17.52,74.55-25.91,116.13-25.17Z"/><path class="cls-6" d="M161.62,184.27c-25.49-.16-51.05,5-71.3,15.45L49.38,176.07v.71l40.94,23.64c20.25-10.46,45.81-15.6,71.3-15.44l3.89-33.37h-.08Z"/><path class="cls-1" d="M250.19,312c25-23.44,20-54.56-15.22-74.88a111.76,111.76,0,0,0-12.55-6.2l31.35-28.11a176.8,176.8,0,0,1,22.13,10.68c55.34,31.95,62.6,81.13,21.84,117.62Z"/><path class="cls-6" d="M250.19,300c25-23.44,20-54.56-15.22-74.88A111.71,111.71,0,0,0,222.42,219l31.35-28.11a175.38,175.38,0,0,1,22.13,10.67c55.34,31.95,62.6,81.13,21.84,117.62Z"/><path class="cls-6" d="M222.42,175.49V219l27.77,10.31s36.06-19.68,36.06-20.14-6.08-42.15-10.54-44S222.42,175.49,222.42,175.49Z"/><polygon class="cls-6" points="250.19 300.04 250.19 256.56 297.74 275.67 297.74 319.15 250.19 300.04"/><path class="cls-5" d="M297.74,248.4v70.75s24.82-20.92,25.94-48.68l-.06-45.42-28.88-4.18Z"/><path class="cls-5" d="M250.19,256.56c25-23.44,20-54.56-15.22-74.88a110,110,0,0,0-12.55-6.19l31.35-28.11a175.38,175.38,0,0,1,22.13,10.67c55.34,31.95,62.6,81.13,21.84,117.62Z"/><path class="cls-5" d="M297.74,277.35l-47.55-19.12v1.13l47.55,19.11c17.44-15.61,26.07-33.54,25.93-51.45C323.45,244.56,314.81,262.06,297.74,277.35Z"/><path class="cls-5" d="M265.79,227.32c.44-15.88-9.82-31.84-30.82-44a128.24,128.24,0,0,0-12.55-6.17v1.11A110,110,0,0,1,235,184.48C255.47,196.31,265.72,211.81,265.79,227.32Z"/><ellipse class="cls-7" cx="116.21" cy="171.1" rx="22.97" ry="13.26"/><path class="cls-6" d="M133.67,164.36l-5,0c-.37-.25-.75-.49-1.15-.72-8.17-4.72-21.43-4.72-29.61,0a16.91,16.91,0,0,0-1.44.92l-4.69,0v7.6h0c0,3.09,2,6.18,6.13,8.54,8.18,4.72,21.44,4.72,29.61,0,4.09-2.36,6.13-5.45,6.13-8.54h0Z"/><path class="cls-6" d="M112,160.14a29.93,29.93,0,0,0-14.11,3.53,16.91,16.91,0,0,0-1.44.92l-4.69,0v7.6c0,3.09,2,6.18,6.13,8.54A29.93,29.93,0,0,0,112,184.29Z"/><path class="cls-6" d="M94.68,164.6l-2.88,0v7.6a8.64,8.64,0,0,0,2.88,6.12Z"/><ellipse class="cls-5" cx="112.74" cy="164.36" rx="20.93" ry="12.09"/><path class="cls-7" d="M127.54,172.91c-8.17,4.72-21.43,4.72-29.61,0-3.88-2.25-5.91-5.15-6.11-8.08-.21,3.24,1.82,6.53,6.11,9,8.18,4.72,21.44,4.72,29.61,0,4.29-2.48,6.33-5.77,6.11-9C133.46,167.76,131.42,170.67,127.54,172.91Z"/><path class="cls-5" d="M127.93,161l-3.62,0c-.27-.17-.54-.35-.83-.52-5.93-3.42-15.55-3.42-21.48,0-.37.22-.72.44-1,.67l-3.4,0v2.61h0c0,2.25,1.48,4.49,4.45,6.21,5.93,3.42,15.55,3.42,21.48,0,3-1.72,4.45-4,4.45-6.21h0Z"/><path class="cls-5" d="M112.23,158A21.62,21.62,0,0,0,102,160.54c-.37.22-.72.44-1,.67l-3.4,0v2.61c0,2.25,1.48,4.49,4.45,6.21a21.73,21.73,0,0,0,10.23,2.56Z"/><path class="cls-5" d="M99.64,161.22H97.55v2.61a6.24,6.24,0,0,0,2.09,4.44Z"/><path class="cls-8" d="M123.48,167.24c-5.93,3.43-15.55,3.43-21.48,0s-5.93-9,0-12.4,15.55-3.42,21.48,0S129.41,163.82,123.48,167.24Z"/><path class="cls-4" d="M85,134.6a14.57,14.57,0,0,1-12.43-7l-8-13.2a5,5,0,0,1,4.3-7.63H84.62v4.1H68.89a.91.91,0,0,0-.81.47.93.93,0,0,0,0,1l8,13.19a10.42,10.42,0,0,0,9.09,5l13.69-.2.06,4.09-13.69.21Z"/><path class="cls-4" d="M140.49,134.6h-.21l-13.69-.21.06-4.09,13.69.2a10.4,10.4,0,0,0,9.08-5l8-13.19a.91.91,0,0,0,0-1,.93.93,0,0,0-.82-.47H140.85v-4.1h15.73a5,5,0,0,1,4.31,7.63l-8,13.2A14.58,14.58,0,0,1,140.49,134.6Z"/><path class="cls-3" d="M153.22,119.17l-3.8,6.3a10.4,10.4,0,0,1-9.08,5l-13.69-.2-.06,4.09,13.69.21h.21a14.59,14.59,0,0,0,11.6-5.78C153.89,124.19,153.6,120.85,153.22,119.17Z"/><path class="cls-9" d="M104.6,153.89c4.5,2.59,11.78,2.59,16.27,0s4.5-6.8,0-9.4-11.77-2.59-16.27,0S100.11,151.29,104.6,153.89Z"/><path class="cls-2" d="M99.3,155.83c2.43-1.8,2-3.56,2-3.56l1.83,2.22a24.09,24.09,0,0,1,19.3,0l1.83-2.22s-.47,1.76,2,3.56,1.63,5.33,1.63,5.33h0c0,2.23-1.47,4.45-4.41,6.15-5.88,3.4-15.42,3.4-21.31,0-2.94-1.7-4.41-3.92-4.41-6.15C97.67,161.16,96.88,157.63,99.3,155.83Z"/><path class="cls-3" d="M121.15,156.36s-4.35-2.58-4.35-3.12a.89.89,0,0,1,.24-.4,20.24,20.24,0,0,1,5.35,1.65l1.83-2.22s-.47,1.76,2,3.56,1.63,5.33,1.63,5.33h0a5.84,5.84,0,0,1-1.32,3.56c0-.28.5-3.92-2.24-5.11S121.15,156.36,121.15,156.36Z"/><path class="cls-3" d="M104.6,156.53c4.5,2.59,11.78,2.59,16.27,0s4.5-6.8,0-9.39-11.77-2.6-16.27,0S100.11,153.94,104.6,156.53Z"/><path class="cls-2" d="M142.83,107c-.3,16.77-9,18.8-13.57,25.08-4.32,5.86-3.83,14.33-3.75,15.43a.62.62,0,0,1,0,.13h0c0,1.89-1.24,3.78-3.74,5.22-5,2.88-13.09,2.88-18.08,0-2.34-1.35-3.57-3.1-3.72-4.87h0v-.35h0s0-.08,0-.12c.09-1.1.58-9.58-3.74-15.44C91.59,125.81,83,123.78,82.65,107Z"/><path class="cls-3" d="M120.85,125.27s-.71,2-2.89,7.73-1.16,20.24-1.16,20.24l3.72.26c.43-.2.86-.4,1.26-.63,2.5-1.44,3.74-3.33,3.74-5.22h0a.62.62,0,0,0,0-.13c-.08-1.1-.57-9.57,3.75-15.43,4.62-6.28,13.27-8.31,13.57-25.08h-3.3Z"/><ellipse class="cls-4" cx="112.74" cy="107.01" rx="30.09" ry="17.37"/><path class="cls-9" d="M91.46,119.29c11.75,6.79,30.8,6.79,42.56,0,5.54-3.2,8.46-7.33,8.78-11.52.35,4.7-2.57,9.46-8.78,13-11.76,6.78-30.81,6.78-42.56,0-6.21-3.59-9.14-8.35-8.78-13C83,112,85.92,116.09,91.46,119.29Z"/><ellipse class="cls-10" cx="112.74" cy="107.01" rx="25.26" ry="14.58"/><path class="cls-3" d="M94.88,117.32a34.82,34.82,0,0,0,14.73,4.14,3.48,3.48,0,0,0,.76-3.41c-2.62-7.86-1.61-24.15-1.61-24.15L104,93.34a30.93,30.93,0,0,0-9.13,3.36C85,102.39,85,111.62,94.88,117.32Z"/><path class="cls-9" d="M130.6,98c-9.87-5.69-25.86-5.69-35.72,0-4.65,2.68-7.1,6.15-7.37,9.66-.3-3.94,2.15-7.94,7.37-11,9.86-5.7,25.85-5.7,35.72,0,5.21,3,7.67,7,7.37,11C137.7,104.14,135.24,100.67,130.6,98Z"/><path class="cls-3" d="M125.1,119.72a42,42,0,0,1-24.73,0c.27-.17.54-.35.82-.51,6.38-3.68,16.72-3.69,23.09,0A9.47,9.47,0,0,1,125.1,119.72Z"/><path class="cls-9" d="M100,147.53c0-.14,0-.38,0-.71.19,1.73,1.41,3.43,3.7,4.75,5,2.88,13.09,2.88,18.08,0,2.23-1.3,3.47-2.94,3.7-4.63,0,.27,0,.47,0,.58a.62.62,0,0,1,0,.13h0c0,1.89-1.24,3.78-3.74,5.22-5,2.88-13.09,2.88-18.08,0-2.34-1.35-3.57-3.1-3.72-4.87h0v-.35h0S100,147.57,100,147.53Z"/><ellipse class="cls-2" cx="203.96" cy="122.35" rx="14.34" ry="8.28"/><path class="cls-11" d="M213,10.26s-.41,8.5-1.06,14.2-14.39-4.38-14.39-4.38v-6.5Z"/><path class="cls-12" d="M205.7,115.93c-.21.52-3.77,4.85-7.33,5.94a8.25,8.25,0,0,1-3.28.45,1.08,1.08,0,0,1-.87-1.44,13.53,13.53,0,0,1,6.83-7.53C207.09,110.36,205.7,115.93,205.7,115.93Z"/><path class="cls-12" d="M206.88,117.6a29.44,29.44,0,0,0-1.75,5.78c-.25,1.61.63,3.69,1.35,5.07a1.48,1.48,0,0,0,2.31.4,8.5,8.5,0,0,0,2.89-5.52c.42-4.44,0-5.22,0-5.22Z"/><path class="cls-13" d="M215.46,63.94a83.54,83.54,0,0,1,0,11.8c-.46,6.19-2.12,35.16-2.43,42.13,0,0,.15,2.11-3.93,1.64s-3.76-2.8-3.76-2.8-5.73-.08-5.91-3.46-5.88-40.38-5.88-53.68Z"/><polygon class="cls-14" points="195.53 35.04 192.22 55.27 189.21 55.22 189.48 36.68 195.53 35.04"/><path class="cls-5" d="M196.91,17.12s-4.46-.11-6,6.34-2.77,14.53-1.42,15.2c4.06,2,6.63-.34,6.63-.34Z"/><path class="cls-6" d="M195.57,17.4a3.63,3.63,0,0,1,2.41-.13c3.81,1.09,18.11,5.28,20.46,7.3,2.73,2.33-4.08,15.41-4,19.69s.58,9.35,1,14,.89,7.22-2.92,9.2a15,15,0,0,1-15.2-1.64c-4.87-3.72-4-6.26-3.78-8.95s1.86-14.36,1.72-17.67a12.41,12.41,0,0,1-3-3.43c-1.28-2.17,1-6.16,1.9-8.75s-.52-5.55-.23-7.67A2.38,2.38,0,0,1,195.57,17.4Z"/><ellipse class="cls-9" cx="205.52" cy="22.55" rx="4.3" ry="5.42" transform="translate(157.05 223.53) rotate(-82.7)"/><path class="cls-14" d="M201.68,22.05c-.22,1.69,1.33,3.27,3.45,3.54s4-.87,4.23-2.55-1.33-3.27-3.45-3.54S201.89,20.37,201.68,22.05Z"/><path class="cls-14" d="M203.79,16.53s2.58-2.13,3.09-1.05.92,5.69.92,5.69l-5.13,1.38.78-4.68S202.43,17,203.79,16.53Z"/><circle class="cls-14" cx="203.42" cy="11.02" r="7.65" transform="translate(18.48 96.44) rotate(-27.89)"/><path class="cls-15" d="M207.23,16.82c.05.24.09.49.13.76-.51,2.66-4.5,3.83-4.5,3.83l.59-3.54s-.48-.41-.34-.82C204.68,16.55,206.67,16.11,207.23,16.82Z"/><circle class="cls-14" cx="203.42" cy="11.02" r="7.65" transform="translate(18.48 96.44) rotate(-27.89)"/><polygon class="cls-14" points="222.28 43.42 221.42 63.9 218.42 64.21 216.47 45.77 222.28 43.42"/><path class="cls-5" d="M212.43,41.71c1-4.38,2.95-14,2.95-14l.84,9.61c-1,2.85-1.8,5.47-1.76,7,.06,2.52.25,5.3.47,8.11h0S211.44,46.08,212.43,41.71Z"/><path class="cls-6" d="M217.87,24.15s2.4.91,3.75,8.27,2.37,14.72,0,15.67-4.44,1.66-5.15-.3-1.15-11.45-1.24-14.86S215,24.82,217.87,24.15Z"/><path class="cls-5" d="M205.34,116.71a11.71,11.71,0,0,1-1.64-.17h0l-1.12-45Z"/><path class="cls-16" d="M209.68,92.38l1.59-2.08L228,80.6a2.34,2.34,0,0,0,1-1.86L229,65l1-1.26-.91-.52h0a.61.61,0,0,0-.66,0l-19,11a2.38,2.38,0,0,0-1,1.87l0,14.94a.85.85,0,0,0,.35.79h0Z"/><path class="cls-16" d="M221.26,84.52l1.19-.69L229,72.48V65l1-1.26-.91-.52h0a.61.61,0,0,0-.66,0l-19,11a2,2,0,0,0-.71.84Z"/><path class="cls-16" d="M229.52,64.32l.43-.56-.91-.52h0a.61.61,0,0,0-.66,0l-.33.19Z"/><path class="cls-16" d="M209.22,74.4a2.39,2.39,0,0,0-.79,1.6l1.85,1.07.89-1.55Z"/><path class="cls-17" d="M210.3,74.8l19-11c.53-.31,1,0,1,.74l0,14.94a2.36,2.36,0,0,1-1,1.86l-19,11c-.54.31-1,0-1-.73V76.66A2.32,2.32,0,0,1,210.3,74.8Z"/><path class="cls-16" d="M222.07,77.77a3.2,3.2,0,0,1-1.43,2.5c-.8.45-1.44.08-1.44-.83a3.18,3.18,0,0,1,1.44-2.5C221.43,76.48,222.07,76.86,222.07,77.77Z"/><path class="cls-14" d="M221.39,63.73a46,46,0,0,1,.68,6.31c-.12,1.53-.94,4.06-1.56,4s0-6.16-1.12-5.55-1.2,1.65-1.7,1.28.86-5.59.5-7.85S221.39,63.73,221.39,63.73Z"/><path class="cls-14" d="M189.21,55.22a47.62,47.62,0,0,0-.68,6.31c.12,1.53.94,4.06,1.57,4s0-6.16,1.11-5.55,1.21,1.65,1.7,1.28-.86-5.59-.5-7.85S189.21,55.22,189.21,55.22Z"/><path class="cls-18" d="M195.5,3.84c.9-.77,4.17-4.61,10-3.7,3.66.56,6.74,3.06,7.42,8.75a13.09,13.09,0,0,1-3.54,10.4c-.14-.07-.28-.13-.41-.21-1.47-1-1.63-1.5-1.63-1.5L207,14.67a.8.8,0,0,1,.73-.8,1.46,1.46,0,0,0,1.07-.65,1.71,1.71,0,0,0-1.23-2.88,1.29,1.29,0,0,1-1.34-1,.69.69,0,0,0-.9-.46c-1.91.69-6.62,2.18-9.65,1.32C191.84,9.14,194.59,4.62,195.5,3.84Z"/><polygon class="cls-16" points="217.41 69.63 219.41 68.49 218.66 69.71 217.65 70.08 217.41 69.63"/><path class="cls-12" d="M258.74,229.29s-2.41-1.22-3.89.59-3.6,6.09-3.67,9,2.29,2.7,3.69,2,5.48-6.61,5.73-7.77a4,4,0,0,0-.68-3C259.52,229.75,258.74,229.29,258.74,229.29Z"/><path class="cls-5" d="M259.27,228.7l.11,2.5a1.42,1.42,0,0,1-.7,1.31,2.83,2.83,0,0,1-1.87.28c-1.81-.29-2-.81-2.11-3.31S259.27,228.7,259.27,228.7Z"/><path class="cls-12" d="M249.91,224.48s-2.41-1.22-3.89.59-3.61,6.09-3.67,9,2.29,2.7,3.69,2,5.48-6.62,5.73-7.78a4,4,0,0,0-.69-3C250.69,225,249.91,224.48,249.91,224.48Z"/><path class="cls-5" d="M250.44,223.9l.11,2.5a1.41,1.41,0,0,1-.71,1.3A2.79,2.79,0,0,1,248,228c-1.82-.29-2-.81-2.11-3.31S250.44,223.9,250.44,223.9Z"/><path class="cls-13" d="M272,178c-.71-11.62-12.58,1.71-12.58,1.71l-8.13,8-7.32,8a7.18,7.18,0,0,0-1.81,5.79l3,22.54a2.2,2.2,0,0,0,2.22,1.92,7.7,7.7,0,0,0,1.09-.09,2.77,2.77,0,0,0,2.45-2.93l-.54-21.07,15.36-9.27S272.69,189.62,272,178Z"/><path class="cls-13" d="M280.81,182.42c-.72-11.62-12.59,1.71-12.59,1.71l-8.13,8-7.31,8a7.21,7.21,0,0,0-1.82,5.8l3,22.54a2.22,2.22,0,0,0,2.22,1.92,6.68,6.68,0,0,0,1.1-.1,2.75,2.75,0,0,0,2.44-2.92l-.54-21.08L274.51,197S281.52,194,280.81,182.42Z"/><path class="cls-6" d="M273.78,145.12c9,3.73,8.82,9,8.82,9s-1.76,19.5-1.16,32.53c.25,5.44-28.93,5.86-24.58-8.67,5.13-17.13,3.21-31,5.61-33.09S271.45,144.15,273.78,145.12Z"/><path class="cls-14" d="M276.68,149.83c-.47,1.83-2.87,2.79-5.35,2.15s-4.11-2.64-3.64-4.46,2.86-2.79,5.34-2.15S277.15,148,276.68,149.83Z"/><path class="cls-9" d="M272.87,152.61a6.73,6.73,0,0,1-1.65-.21,6,6,0,0,1-3.15-1.93,3.25,3.25,0,0,1,1.38-5.35,6,6,0,0,1,3.69-.17c2.71.7,4.48,2.94,3.95,5a3.43,3.43,0,0,1-2.17,2.29A5.57,5.57,0,0,1,272.87,152.61Zm-1.37-7a4.44,4.44,0,0,0-1.73.32,2.39,2.39,0,0,0-1,4,5.44,5.44,0,0,0,5.87,1.51,2.59,2.59,0,0,0,1.66-1.7h0c.41-1.6-1.08-3.37-3.33-3.95A6,6,0,0,0,271.5,145.6Z"/><path class="cls-14" d="M270.17,144.71a21.52,21.52,0,0,1-.08,3.21c0,.9,3.1,1.74,3.91.93s.48-1.66.68-4.71S270.17,144.71,270.17,144.71Z"/><path class="cls-15" d="M274.68,144.14s-.77,2.83-4.59,3.91l.06-2.57Z"/><path class="cls-14" d="M277.09,137a6.93,6.93,0,1,1-8.44-5A6.93,6.93,0,0,1,277.09,137Z"/><path class="cls-15" d="M272,138.94a21.57,21.57,0,0,1-6.46,1.65c-2.64,0-2.06-2.19-2.06-2.19l7.84-1.14Z"/><path class="cls-6" d="M264.73,139.37a12.39,12.39,0,0,1,6.24-.82,3,3,0,0,1,1.76,1,1.08,1.08,0,0,0,.54.39c.51.12,1.36-2,2.36-2.08s1.68.66.86,2-.55,2.8-.17,3,4.4-2.87.85-9.89-12.55-3.24-13.95-1.82c0,0-1.48,1.29-2.68.14C260.54,131.32,259.19,141.4,264.73,139.37Z"/><path class="cls-14" d="M258.07,143.52l-4.84-2.09a2.11,2.11,0,0,1-1.18-1.27l-4.78-13.85-2.22.38,3.87,17.24a2.93,2.93,0,0,0,1.41,1.9l8.06,4.52Z"/><path class="cls-14" d="M308.42,145.77l1.11-.51a8.81,8.81,0,0,0,2.55-1.76l.77-.76a1.49,1.49,0,0,0,.33-1.65h0a.83.83,0,0,0-1.13-.42l-2.32,1.17s.36-1,.19-1.29-2,1.72-2.8,3.12S308.42,145.77,308.42,145.77Z"/><path class="cls-14" d="M289.11,151.31l4.14-.46A7.39,7.39,0,0,0,296,150l11.09-6.28,1.3,2.1-11.34,8.76a5,5,0,0,1-1.14.66l-6.76,2.89Z"/><path class="cls-14" d="M245.05,126.69l-.42-.48a4,4,0,0,1-.91-2l-.29-2a1.71,1.71,0,0,1,.66-1.64l.06,0a1,1,0,0,1,1.53.5l1,2.4s-.32-1.24.08-1.38.86,1.45.53,2.31a3.63,3.63,0,0,0,0,2Z"/><path class="cls-9" d="M267.64,143.45l-1.79-.49a4.28,4.28,0,0,0,2.1,1.69c1.25.34,1.44-.71,1.44-.71Z"/><path class="cls-6" d="M265,144s-8.08-1.6-10.55-2.35-3.5,6-3.31,7.75,8.59,3.64,9.59,6.58S265,144,265,144Z"/><path class="cls-6" d="M277.32,146.92a63.43,63.43,0,0,0,15.79,3.77,1.07,1.07,0,0,1,.88.7,11.82,11.82,0,0,1,.53,6,2.2,2.2,0,0,1-2.17,1.72c-3.09,0-9.75.27-10.83,3.17C280.1,166,277.32,146.92,277.32,146.92Z"/><rect class="cls-4" x="248.77" y="51.68" width="2.25" height="6.55" transform="translate(348.44 291.08) rotate(-125.06)"/><rect class="cls-4" x="250.68" y="47.58" width="2.25" height="6.55" transform="translate(354.81 286.2) rotate(-125.06)"/><rect class="cls-4" x="252.59" y="43.49" width="2.25" height="6.55" transform="translate(361.17 281.32) rotate(-125.06)"/><rect class="cls-4" x="254.51" y="39.39" width="2.25" height="6.55" transform="matrix(-0.57, -0.82, 0.82, -0.57, 367.54, 276.43)"/><rect class="cls-4" x="113.44" y="52.92" width="1.75" height="5.08" transform="translate(139.66 -69.04) rotate(75.63)"/><rect class="cls-4" x="110.93" y="55.37" width="1.75" height="5.08" transform="translate(140.14 -64.77) rotate(75.62)"/><rect class="cls-4" x="108.41" y="57.82" width="1.75" height="5.08" transform="translate(140.62 -60.49) rotate(75.62)"/><rect class="cls-4" x="105.9" y="60.27" width="1.75" height="5.08" transform="translate(141.12 -56.22) rotate(75.63)"/><rect class="cls-6" x="282.03" y="101.58" width="1.75" height="5.08" transform="translate(583.52 81.73) rotate(155.54)"/><rect class="cls-6" x="279.17" y="99.53" width="1.75" height="5.08" transform="translate(577.23 78.99) rotate(155.53)"/><rect class="cls-6" x="276.32" y="97.49" width="1.75" height="5.08" transform="translate(570.93 76.28) rotate(155.53)"/><rect class="cls-6" x="273.47" y="95.45" width="1.75" height="5.08" transform="translate(564.64 73.55) rotate(155.53)"/><rect class="cls-6" x="144.95" y="25.56" width="3.01" height="8.75" transform="translate(87.83 -107.57) rotate(55.36)"/><rect class="cls-6" x="247.26" y="80.72" width="1.75" height="1.91" transform="translate(174.27 -168.89) rotate(55.36)"/><rect class="cls-6" x="270.04" y="26.15" width="2.25" height="2.45" transform="translate(139.54 -211.28) rotate(55.36)"/><rect class="cls-19" x="259.18" y="21.92" width="2.25" height="2.45" transform="translate(131.37 -204.17) rotate(55.36)"/><rect class="cls-20" x="175.44" y="48.76" width="1.75" height="1.91" transform="translate(116.98 -123.61) rotate(55.36)"/><path class="cls-6" d="M232.67,23.14l-1.18-2.29a3.15,3.15,0,0,0,1.41-1.79,4.39,4.39,0,0,0-.84-3.38c-2.84-4.57-.85-8.41.61-9.81l1.78,1.86-.89-.93.9.92c-.27.28-2.6,2.76-.21,6.59a6.81,6.81,0,0,1,1.13,5.46A5.7,5.7,0,0,1,232.67,23.14Z"/><path class="cls-17" d="M264.56,72.13l1-1.72a2.48,2.48,0,0,0,1.75.18,3.45,3.45,0,0,0,1.88-2A6,6,0,0,1,275.89,65l-.48,2,.24-1-.23,1c-.29-.07-2.89-.56-4.41,2.59a5.24,5.24,0,0,1-3.11,3A4.46,4.46,0,0,1,264.56,72.13Z"/><path class="cls-17" d="M131.91,76.71l.64-3.39a4.2,4.2,0,0,0,2.95-.73c1.05-.79,1.68-2.23,1.9-4.25.74-7.16,6-9.57,8.68-9.85l.36,3.42-.18-1.71.19,1.71c-.51.06-5,.78-5.63,6.78-.32,3-1.42,5.3-3.29,6.69A7.61,7.61,0,0,1,131.91,76.71Z"/><path class="cls-4" d="M174.09,71.68l2,.28a2.48,2.48,0,0,0,.5,1.7,3.41,3.41,0,0,0,2.52,1A6,6,0,0,1,185,79.44l-2,.29,1-.15-1,.16c-.05-.3-.58-2.89-4.08-3.1a5.26,5.26,0,0,1-4-1.73A4.46,4.46,0,0,1,174.09,71.68Z"/><path class="cls-1" d="M146.27,275.07c9.72,5.61,25.48,5.61,35.2,0s9.72-14.71,0-20.33-25.48-5.61-35.2,0S136.54,269.46,146.27,275.07Z"/><path class="cls-12" d="M152,258.75a3.83,3.83,0,0,0-2.16,3.84,6.57,6.57,0,0,0,.31,1.88,3.17,3.17,0,0,0,4.24,1.3c2.34-.92,7.52-5.79,7.71-9C162.46,250.87,155.68,257.17,152,258.75Z"/><path class="cls-12" d="M165.71,268.54s-.56,3.42-.29,4a4.37,4.37,0,0,0,4.29,1.67c2.4-.28,9.31-2.66,10.84-7.21,2.39-7.06-13.32.52-13.32.52Z"/><path class="cls-13" d="M172.45,214l.54,53.3a3.75,3.75,0,0,1-2.91,3.7l-.65.08a3.33,3.33,0,0,1-3.16-1.31,4,4,0,0,1-.72-2.15l-.68-22.76-3.39-20.34-4.7,36a3.14,3.14,0,0,1-1.29,2.38,3.69,3.69,0,0,1-2.15.58A3.88,3.88,0,0,1,150.5,262a2.87,2.87,0,0,1-.69-1.92l1.87-21.67.69-27.63Z"/><path class="cls-21" d="M165.55,166.26l-.84,4.85a2.23,2.23,0,0,0,1.82,2.12c1.85.46,2.42-.74,2.42-.74l.83-5.46Z"/><ellipse class="cls-21" cx="169.31" cy="161.77" rx="7.9" ry="7.03" transform="translate(-51.1 240.87) rotate(-63.44)"/><path class="cls-16" d="M165.77,171.2c-.13,0-7.85-5-10.7.18-4.66,8.48-4.38,35.79-2.91,39.33,1.36,3.27,4.75,5.69,7.13,7a14.27,14.27,0,0,0,6.93,2c2.41,0,7-2.13,6.87-5.28-.77-14.51.51-26.74,1.69-38.6C174.78,175.85,173.3,174.25,165.77,171.2Z"/><path class="cls-5" d="M161.48,224.48l-4.7,36a3.14,3.14,0,0,1-1.29,2.38l-.4.22c1-.73,3.82-30.95,4.35-34.31S161.48,224.48,161.48,224.48Z"/><polygon class="cls-21" points="190.46 172.8 194.66 159.06 192.44 158.14 187.49 168.91 190.46 172.8"/><polygon class="cls-21" points="148.17 161.97 151.31 147.67 153.82 147.69 152.88 159.56 148.17 161.97"/><path class="cls-16" d="M174.78,175.85s7.54,1.5,12.34-7.28a1.18,1.18,0,0,1,2-.21c.77,1.17,1.79,3,1.26,4.91-2.33,8.57-15,10.47-17.28,15.45S174.78,175.85,174.78,175.85Z"/><path class="cls-16" d="M160.87,169.42s-6,.46-6.83-4.71a41,41,0,0,1-.6-5.16,1,1,0,0,0-1.17-1c-1.43.18-3.64.61-3.94,1.56-.45,1.44-1.29,8.45,4.6,19.22C156.8,186.36,160.87,169.42,160.87,169.42Z"/><path class="cls-21" d="M151.3,147.7l.06-1.63a3.33,3.33,0,0,1,.48-1.63l1.66-2.71.43-.55a1.26,1.26,0,0,1,1.65-.28l.38.24a1.54,1.54,0,0,1,.73,1.42l-.86,2.32,1.08-.21a.39.39,0,0,1,.46.31h0a.4.4,0,0,1-.24.43l-1.76.71-1.61,2.27Z"/><path class="cls-21" d="M194.72,159.13l.5-1.55a3.38,3.38,0,0,0,.09-1.7l-.63-3.11-.22-.66a1.26,1.26,0,0,0-1.46-.83l-.44.1a1.56,1.56,0,0,0-1.17,1.09l0,2.47-.95-.56a.38.38,0,0,0-.53.14h0a.37.37,0,0,0,.08.47l1.42,1.27.83,3Z"/><path class="cls-22" d="M171.25,186.24c-.68,3.13,1.24,27.46-5,33.49,2.41,0,7-2.13,6.87-5.28a192.73,192.73,0,0,1,.57-26.68c2.47-3.19,9.24-5.22,13.47-9.31C186.82,178.55,171.93,183.14,171.25,186.24Z"/><path class="cls-9" d="M163,169.83l1.08-1.1a8.68,8.68,0,0,0,3.18,2.11,16.06,16.06,0,0,0,2.53.53l.69,1.9S164.86,172.87,163,169.83Z"/><path class="cls-12" d="M170.56,164.29a.88.88,0,0,0,.79-.25c.37-.37.51-2.32,1.46-2.49,1.48-.26,4.48,2,5.69-2.9.64-2.58-.51-3.49-.26-4.92,0,0,0,.73-6.65-.87s-9.85,4-10.5,6.8-.07,7.71,4.4,9.14c.75.24,4.38-1.78,4.36-2.13s-1.23-.54-.89-1.49A1.28,1.28,0,0,1,170.56,164.29Z"/><polygon class="cls-6" points="305.42 234.3 293.19 227.24 280.96 234.3 293.19 241.36 305.42 234.3"/><polygon class="cls-3" points="293.19 234.81 293.19 226.86 307.8 218.43 307.8 226.38 293.19 234.81"/><polygon class="cls-2" points="293.19 226.86 278.58 218.43 278.58 226.38 293.19 234.81 293.19 226.86"/><polygon class="cls-4" points="307.8 218.43 293.19 209.99 278.58 218.43 293.19 226.86 307.8 218.43"/><polygon class="cls-5" points="215.16 338.05 215.16 330.09 229.76 321.66 229.76 329.61 215.16 338.05"/><polygon class="cls-5" points="215.16 330.09 200.55 321.66 200.55 329.61 215.16 338.05 215.16 330.09"/><polygon class="cls-17" points="229.76 321.66 215.16 313.23 200.55 321.66 215.16 330.09 229.76 321.66"/><polygon class="cls-1" points="49.38 288.32 32.92 278.82 16.46 288.32 32.92 297.82 49.38 288.32"/><polygon class="cls-1" points="32.92 278.82 16.46 269.31 0 278.82 16.46 288.32 32.92 278.82"/><polygon class="cls-5" points="35.4 270.74 35.4 242.28 49.38 234.21 49.38 262.67 35.4 270.74"/><polygon class="cls-20" points="35.4 242.28 21.42 234.21 21.42 262.67 35.4 270.74 35.4 242.28"/><polygon class="cls-6" points="49.38 234.21 35.4 226.14 21.42 234.21 35.4 242.28 49.38 234.21"/><polygon class="cls-23" points="49.38 273.44 35.4 265.36 35.4 270.74 49.38 278.82 49.38 273.44"/><polygon class="cls-24" points="21.42 278.82 21.42 235.77 35.4 227.69 35.4 270.74 21.42 278.82"/><polygon class="cls-25" points="21.42 235.77 7.43 227.69 7.43 270.74 21.42 278.82 21.42 235.77"/><polygon class="cls-26" points="35.4 227.69 21.42 219.62 7.43 227.69 21.42 235.77 35.4 227.69"/><polygon class="cls-5" points="21.42 278.82 21.42 235.77 35.4 227.69 35.4 270.74 21.42 278.82"/><polygon class="cls-5" points="21.42 235.77 7.43 227.69 7.43 270.74 21.42 278.82 21.42 235.77"/><polygon class="cls-17" points="35.4 227.69 21.42 219.62 7.43 227.69 21.42 235.77 35.4 227.69"/><polygon class="cls-3" points="35.4 286.89 35.4 262.67 49.38 254.6 49.38 278.82 35.4 286.89"/><polygon class="cls-2" points="35.4 262.67 21.42 254.6 21.42 278.82 35.4 286.89 35.4 262.67"/><polygon class="cls-4" points="49.38 254.6 35.4 246.53 21.42 254.6 35.4 262.67 49.38 254.6"/><path class="cls-1" d="M134.6,315.87c-9.83-5.68-25.77-5.68-35.59,0s-9.83,14.87,0,20.54,25.76,5.68,35.59,0S144.43,321.54,134.6,315.87Zm-9.62,15c-4.52,2.61-11.84,2.61-16.36,0s-4.52-6.83,0-9.44,11.84-2.61,16.36,0S129.5,328.25,125,330.86Z"/><path class="cls-3" d="M95.3,308.07l9,.14a9.69,9.69,0,0,1,2.84-2.38c4.93-2.85,12.7-3.07,18.07-.67l5.34-5,8.21.12q-.6-.39-1.26-.78c-11.41-6.59-29.92-6.59-41.34,0a21.6,21.6,0,0,0-5.13,4Z"/><polygon class="cls-2" points="138.73 287.24 138.73 300.27 130.52 300.14 130.52 287.11 138.73 287.24"/><polygon class="cls-3" points="125.19 292.13 125.19 305.16 130.52 300.14 130.52 287.11 125.19 292.13"/><path class="cls-3" d="M104.27,295.17v13l11.81-9.62,9.1,6.57v-13l-8.38-4.07s-11.54,3.53-12.14,3.68S104.27,295.17,104.27,295.17Z"/><polygon class="cls-3" points="95.3 295.04 95.3 308.07 104.27 308.21 104.27 295.18 95.3 295.04"/><polygon class="cls-2" points="91 290.46 91 303.49 95.3 308.07 95.3 295.04 91 290.46"/><path class="cls-4" d="M95.3,295l9,.14a9.69,9.69,0,0,1,2.84-2.38c4.93-2.85,12.7-3.07,18.07-.66l5.34-5,8.21.13q-.6-.4-1.26-.78c-11.41-6.59-29.92-6.59-41.34,0a21.6,21.6,0,0,0-5.13,4Z"/><path class="cls-5" d="M127.89,293.73v12l7.77-1.86s-.46-7-.62-7.2S127.89,293.73,127.89,293.73Z"/><path class="cls-5" d="M122,305.71v13l.84.89,5.48-3.15s-.85-10-1-10.16A52,52,0,0,0,122,305.71Z"/><path class="cls-5" d="M132.59,302.35l-4.7,4.42c3.91,3.09,3.45,7.46-1.39,10.25a16.77,16.77,0,0,1-4.49,1.73l4.85,5.17-4.3,4.05a39.15,39.15,0,0,0,14.91-4.61c9.81-5.67,11.18-14.36,4.12-20.87Z"/><polygon class="cls-5" points="122.56 314.93 122.56 327.97 133.21 323.86 146.03 311.63 145.98 297.79 132.42 308.53 122.56 314.93"/><path class="cls-17" d="M132.59,289.31l-4.7,4.42c3.91,3.1,3.45,7.46-1.39,10.26a16.75,16.75,0,0,1-4.49,1.72l4.85,5.18-4.3,4a39,39,0,0,0,14.91-4.61c9.81-5.66,11.18-14.35,4.12-20.87Z"/><path class="cls-6" d="M122.53,323.85l-4.28-4.55A20.45,20.45,0,0,1,107.11,317c-3.15-1.81-4.44-4.29-3.89-6.66L93,310.21,89.11,306c-3.43,5.88-1.09,12.64,7,17.33,6,3.44,13.87,5.08,21.69,4.93Z"/><polygon class="cls-6" points="117.81 315.25 117.81 328.29 87.58 311.53 87.58 298.49 92 300.27 117.81 315.25"/><polygon class="cls-5" points="122.53 310.82 122.53 323.86 117.81 328.29 117.81 315.25 122.53 310.82"/><path class="cls-5" d="M122.53,310.82l-4.28-4.56A20.53,20.53,0,0,1,107.11,304c-3.15-1.82-4.44-4.3-3.89-6.66L93,297.17,89.11,293c-3.43,5.89-1.09,12.64,7,17.33,6,3.44,13.87,5.09,21.69,4.93Z"/></g></g></svg>