<svg xmlns="http://www.w3.org/2000/svg" xmlns:xlink="http://www.w3.org/1999/xlink" viewBox="0 0 150.83 139.38"><defs><style>.cls-1{fill:none;}.cls-2{fill:#c8c8c8;}.cls-3{isolation:isolate;}.cls-4{opacity:0.3;}.cls-4,.cls-5{mix-blend-mode:lighten;}.cls-5{fill:url(#Nueva_muestra_de_motivo_1);}.cls-6{fill:url(#New_Gradient_Swatch_copy);}.cls-7{fill:url(#New_Gradient_Swatch_copy_3);}.cls-8{fill:url(#linear-gradient);}.cls-9{fill:url(#New_Gradient_Swatch_copy-2);}.cls-10{fill:url(#New_Gradient_Swatch_copy_3-2);}</style><pattern id="Nueva_muestra_de_motivo_1" data-name="Nueva muestra de motivo 1" width="2.76" height="2.76" patternTransform="translate(1.86 3.27) scale(0.76)" patternUnits="userSpaceOnUse" viewBox="0 0 2.76 2.76"><rect class="cls-1" width="2.76" height="2.76"/><circle class="cls-2" cx="1.38" cy="1.38" r="0.89"/></pattern><linearGradient id="New_Gradient_Swatch_copy" x1="22.43" y1="98.68" x2="73.02" y2="98.68" gradientTransform="translate(150.83 139.38) rotate(180)" gradientUnits="userSpaceOnUse"><stop offset="0" stop-color="#4a9ad4"/><stop offset="0.48" stop-color="#4676ba"/><stop offset="1" stop-color="#3d56a5"/></linearGradient><linearGradient id="New_Gradient_Swatch_copy_3" x1="24.99" y1="75.18" x2="47.26" y2="95.32" gradientTransform="translate(150.83 139.38) rotate(180)" gradientUnits="userSpaceOnUse"><stop offset="0" stop-color="#ff7352"/><stop offset="1" stop-color="#f6975d"/></linearGradient><linearGradient id="linear-gradient" x1="50.48" y1="115.36" x2="77.54" y2="128.4" gradientTransform="translate(150.83 139.38) rotate(180)" gradientUnits="userSpaceOnUse"><stop offset="0.03" stop-color="#ff7352"/><stop offset="1" stop-color="#f6975d"/></linearGradient><linearGradient id="New_Gradient_Swatch_copy-2" x1="88.75" y1="115.18" x2="104.37" y2="115.18" xlink:href="#New_Gradient_Swatch_copy"/><linearGradient id="New_Gradient_Swatch_copy_3-2" x1="32.79" y1="28.97" x2="28.43" y2="43.97" xlink:href="#New_Gradient_Swatch_copy_3"/></defs><title>dataAsset 3</title><g class="cls-3"><g id="Layer_2" data-name="Layer 2"><g id="OBJECTS"><g class="cls-4"><path class="cls-5" d="M147.59,41.72h0a11.06,11.06,0,0,1,0,15.64L91.65,113.3a11.07,11.07,0,0,1-15.65,0h0a11.06,11.06,0,0,1,0-15.64L132,41.72A11.06,11.06,0,0,1,147.59,41.72Z"/><path class="cls-2" d="M147.59,17.34h0a11.07,11.07,0,0,1,0,15.65L91.65,88.93a11.07,11.07,0,0,1-15.65,0h0a11.06,11.06,0,0,1,0-15.64L132,17.34A11.06,11.06,0,0,1,147.59,17.34Z"/><path class="cls-5" d="M118.27,16.62h0a11.07,11.07,0,0,1,0,15.65L62.32,88.21a11.06,11.06,0,0,1-15.64,0h0a11.06,11.06,0,0,1,0-15.64l55.94-55.95A11.07,11.07,0,0,1,118.27,16.62Z"/><path class="cls-2" d="M100.47,2.1h0a7.17,7.17,0,0,1,0,10.14L64.22,48.49a7.16,7.16,0,0,1-10.13,0h0a7.17,7.17,0,0,1,0-10.14L90.34,2.1A7.16,7.16,0,0,1,100.47,2.1Z"/><path class="cls-5" d="M63.76,16h0a7.19,7.19,0,0,1,0,10.14L27.5,62.39a7.16,7.16,0,0,1-10.13,0h0a7.17,7.17,0,0,1,0-10.14L53.62,16A7.17,7.17,0,0,1,63.76,16Z"/><path class="cls-2" d="M25.28,30h0a3.74,3.74,0,0,1,0,5.29L6.38,54.21a3.74,3.74,0,0,1-5.29,0h0a3.76,3.76,0,0,1,0-5.29L20,30A3.73,3.73,0,0,1,25.28,30Z"/><path class="cls-2" d="M24.5,13.28h0a2.82,2.82,0,0,1,0,4L10.31,31.43a2.79,2.79,0,0,1-4,0h0a2.8,2.8,0,0,1,0-4L20.53,13.28A2.82,2.82,0,0,1,24.5,13.28Z"/><path class="cls-2" d="M123.88,94.53h0a2.82,2.82,0,0,1,0,4l-14.19,14.18a2.79,2.79,0,0,1-4,0h0a2.79,2.79,0,0,1,0-4l14.18-14.19A2.82,2.82,0,0,1,123.88,94.53Z"/><path class="cls-5" d="M126,111.24h0a4.16,4.16,0,0,1,0,5.88l-21,21a4.16,4.16,0,0,1-5.88,0h0a4.16,4.16,0,0,1,0-5.88l21-21A4.16,4.16,0,0,1,126,111.24Z"/></g><path class="cls-6" d="M126.3,17.5h0a7.17,7.17,0,0,1,0,10.14L90.05,63.89a7.17,7.17,0,0,1-10.14,0h0a7.17,7.17,0,0,1,0-10.14L116.16,17.5A7.17,7.17,0,0,1,126.3,17.5Z"/><path class="cls-7" d="M131.35,43h0a4.26,4.26,0,0,1,0,6L109.83,70.5a4.26,4.26,0,0,1-6,0h0a4.26,4.26,0,0,1,0-6L125.33,43A4.26,4.26,0,0,1,131.35,43Z"/><path class="cls-8" d="M112.43,9.44h0a4.25,4.25,0,0,1,0,6L90.9,37a4.26,4.26,0,0,1-6,0h0a4.26,4.26,0,0,1,0-6L106.41,9.44A4.24,4.24,0,0,1,112.43,9.44Z"/><path class="cls-9" d="M61.44,17h0a2.22,2.22,0,0,1,0,3.13l-11.2,11.2a2.22,2.22,0,0,1-3.13,0h0a2.22,2.22,0,0,1,0-3.13L58.31,17A2.22,2.22,0,0,1,61.44,17Z"/><path class="cls-10" d="M124.6,105.34h0a2.22,2.22,0,0,1,0,3.13l-11.2,11.19a2.2,2.2,0,0,1-3.13,0h0a2.22,2.22,0,0,1,0-3.13l11.2-11.19A2.22,2.22,0,0,1,124.6,105.34Z"/></g></g></g></svg>