<svg xmlns="http://www.w3.org/2000/svg" viewBox="0 0 145.17 222.02"><defs><style>.cls-1{fill:#fff;}.cls-2{fill:#5793ce;}.cls-3{fill:#d4ecff;}</style></defs><title>dataAsset 2vectors</title><g id="Layer_2" data-name="Layer 2"><g id="Ñëîé_1" data-name="Ñëîé 1"><path class="cls-1" d="M95.94,186.16h-1.8"/><path class="cls-1" d="M100.12,186.16H98.33m5.58,0H102.1"/><path class="cls-1" d="M108.18,186.16h-1.72"/><path class="cls-1" d="M115.84,186.16h-1.77"/><path class="cls-1" d="M120.12,186.16h-1.8"/><path class="cls-1" d="M127,186.16h-1.52m5.14,0h-1.18"/><path class="cls-1" d="M137.49,184.39a2.71,2.71,0,0,1-.48,1,2.06,2.06,0,0,1-.89.66,3.68,3.68,0,0,1-1.32.22,2.65,2.65,0,0,1-2.19-.83m1.17-2c0,.18,0,.35,0,.48a2,2,0,0,0,.08.41.88.88,0,0,0,.17.32.77.77,0,0,0,.3.21,1.18,1.18,0,0,0,.45.07,1.16,1.16,0,0,0,.44-.07.77.77,0,0,0,.3-.21.88.88,0,0,0,.17-.32,2,2,0,0,0,.08-.41,3.47,3.47,0,0,0,0-.48"/><path class="cls-1" d="M141.51,186.16H140m5.14,0h-1.44"/><path class="cls-2" d="M113.44,222l-4.64-9.45,9.45-4.64,4.64,9.45Zm-1.82-8.49,2.78,5.67,5.67-2.78-2.79-5.67Z"/><path class="cls-2" d="M10.56,169.58a6.85,6.85,0,1,1,6.84-6.85A6.85,6.85,0,0,1,10.56,169.58Zm0-11.59a4.74,4.74,0,1,0,4.74,4.74A4.75,4.75,0,0,0,10.56,158Z"/><path class="cls-2" d="M18.07,105.62h0a1,1,0,0,1,1.11-.49,2.49,2.49,0,0,0,1.17,0,3.59,3.59,0,0,0,2-2.06A6.51,6.51,0,0,1,28,99a1.05,1.05,0,0,1,1,1.31l-.21.86.25-1-.24,1c-.31-.07-3-.59-4.64,2.73a5.54,5.54,0,0,1-3.28,3.16,4.48,4.48,0,0,1-2.19.09A1.05,1.05,0,0,1,18.07,105.62Z"/><path class="cls-3" d="M10.71,71.89a5,5,0,1,1-4.12-4.12A5,5,0,0,1,10.71,71.89Z"/><path class="cls-3" d="M49.33,195.94A9.65,9.65,0,1,1,59,186.29,9.66,9.66,0,0,1,49.33,195.94Zm0-17.19a7.55,7.55,0,1,0,7.55,7.54A7.55,7.55,0,0,0,49.33,178.75Z"/><rect class="cls-3" x="11.6" y="208.65" width="10" height="2.1" rx="1.05" transform="translate(-143.42 73.16) rotate(-45)"/><rect class="cls-3" x="15.55" y="204.7" width="2.1" height="10" rx="1.05" transform="translate(-143.42 73.16) rotate(-45)"/><path class="cls-2" d="M61.82,214.73h0a1.06,1.06,0,0,1,1.12-.5,2.31,2.31,0,0,0,1.16,0,3.56,3.56,0,0,0,2-2.06,6.49,6.49,0,0,1,5.7-4,1.06,1.06,0,0,1,1,1.31l-.22.86.26-1-.25,1c-.3-.07-3-.59-4.64,2.74a5.55,5.55,0,0,1-3.28,3.16,4.44,4.44,0,0,1-2.18.09A1.05,1.05,0,0,1,61.82,214.73Z"/><path class="cls-3" d="M41.64,153a9.65,9.65,0,1,1,9.65-9.65A9.66,9.66,0,0,1,41.64,153Zm0-17.2a7.55,7.55,0,1,0,7.54,7.55A7.56,7.56,0,0,0,41.64,135.8Z"/><path class="cls-2" d="M83.14,178.94A6.85,6.85,0,1,1,90,172.1,6.85,6.85,0,0,1,83.14,178.94Zm0-11.58a4.74,4.74,0,1,0,4.74,4.74A4.75,4.75,0,0,0,83.14,167.36Z"/><rect class="cls-2" x="66.14" y="112.31" width="4.84" height="4.84" transform="translate(-43.59 42.02) rotate(-26.18)"/><path class="cls-3" d="M38.35,33.17A5,5,0,1,1,34.23,29,5,5,0,0,1,38.35,33.17Z"/><path class="cls-3" d="M6.52,13.72A6.7,6.7,0,0,1,0,6.86,6.7,6.7,0,0,1,6.52,0,6.7,6.7,0,0,1,13,6.86,6.69,6.69,0,0,1,6.52,13.72Zm0-12.22a5.24,5.24,0,0,0-5.1,5.36,5.25,5.25,0,0,0,5.1,5.37,5.25,5.25,0,0,0,5.09-5.37A5.24,5.24,0,0,0,6.52,1.5Z"/></g></g></svg>